<svg width="34" height="34" viewBox="0 0 34 34" fill="none" xmlns="http://www.w3.org/2000/svg">
<path d="M17 0C7.61129 0 0 7.61115 0 17C0 26.3888 7.61129 34 17 34C26.3887 34 34 26.3888 34 17C34 7.61115 26.3887 0 17 0ZM22.8756 17.9011L14.3756 23.2136C14.2036 23.321 14.0081 23.375 13.8125 23.375C13.6353 23.375 13.4579 23.3309 13.2973 23.2417C12.9596 23.0544 12.75 22.699 12.75 22.3125V11.6875C12.75 11.301 12.9596 10.9456 13.2973 10.7583C13.6351 10.57 14.048 10.5814 14.3756 10.7864L22.8756 16.0989C23.1861 16.2934 23.375 16.6338 23.375 17C23.375 17.3662 23.1861 17.7066 22.8756 17.9011Z" fill="#FFF3FC"/>
</svg>
