<svg width="109" height="109" viewBox="0 0 109 109" fill="none" xmlns="http://www.w3.org/2000/svg">
<path d="M89.0563 0.437126C77.2055 -1.58981 51.0983 3.03077 46.4773 22.7943C43.4049 35.9343 43.4953 46.654 35.7419 46.8552C31.1285 46.9748 28.7229 37.422 22.3534 36.6362C14.0406 35.6107 8.27173 42.5322 4.67132 48.8003C-3.24927 62.5897 -0.772503 86.0387 9.64317 97.4739C34.8682 125.168 64.8238 96.2068 77.6315 73.5644C85.8459 59.0425 104.378 47.3039 108.238 30.9335C111.469 17.2284 104.299 3.04419 89.0563 0.437126V0.437126Z" fill="url(#paint0_linear)"/>
<g opacity="0.1">
<path opacity="0.1" d="M91.211 23.016C86.7545 18.5596 79.4777 18.7322 75.2378 23.3954L58.5093 41.793C58.5412 41.3964 58.562 40.9965 58.562 40.5916C58.562 32.4209 51.9384 25.797 43.7674 25.797C35.5965 25.797 28.9728 32.4209 28.9728 40.5916C28.9728 48.7624 35.5967 55.3862 43.7674 55.3862C44.8257 55.3862 45.8572 55.273 46.8524 55.0618C46.5663 55.5084 46.2947 55.9649 46.0422 56.4326C43.3472 61.4243 35.9267 74.1413 24.8133 85.2546L15.4172 94.6507C14.2687 95.7993 14.2687 97.6614 15.4172 98.8102C16.5657 99.9587 18.4279 99.9587 19.5767 98.8102L28.9728 89.4141C40.0861 78.3007 52.8031 70.8804 57.7948 68.1852C59.3095 67.3675 60.7195 66.3703 61.993 65.2124L90.8316 38.9894C95.4945 34.7495 95.6674 27.4727 91.211 23.016V23.016Z" fill="#2626BC"/>
<path opacity="0.1" d="M29.1768 58.8857H33.1329C33.7209 58.8857 34.1974 58.4093 34.1974 57.8213C34.1974 57.2333 33.7209 56.7568 33.1329 56.7568H29.1768C28.5888 56.7568 28.1123 57.2333 28.1123 57.8213C28.1123 58.4093 28.5888 58.8857 29.1768 58.8857Z" fill="#2626BC"/>
<path opacity="0.1" d="M20.6611 62.7991H33.1329C33.7209 62.7991 34.1973 62.3226 34.1973 61.7346C34.1973 61.1466 33.7209 60.6702 33.1329 60.6702H20.6611C20.0731 60.6702 19.5967 61.1466 19.5967 61.7346C19.5967 62.3224 20.0731 62.7991 20.6611 62.7991V62.7991Z" fill="#2626BC"/>
<path opacity="0.1" d="M20.6611 66.7122H33.1329C33.7209 66.7122 34.1973 66.2357 34.1973 65.6477C34.1973 65.0597 33.7209 64.5833 33.1329 64.5833H20.6611C20.0731 64.5833 19.5967 65.0597 19.5967 65.6477C19.5967 66.2357 20.0731 66.7122 20.6611 66.7122V66.7122Z" fill="#2626BC"/>
</g>
<path d="M91.211 17.6937C86.7545 13.2373 79.4777 13.41 75.2378 18.0731L49.015 46.9121C47.8569 48.1856 46.8599 49.5956 46.0422 51.1103C43.347 56.102 35.9267 68.819 24.8134 79.9323L28.9728 84.0918C40.0861 72.9785 52.8032 65.5582 57.7948 62.863C59.3095 62.0452 60.7195 61.0481 61.993 59.8901L90.8316 33.6671C95.4945 29.4272 95.6674 22.1504 91.211 17.6937V17.6937Z" fill="white"/>
<path d="M64.8877 57.2568C64.1894 56.5585 63.2255 56.1966 62.2398 56.2555C59.7417 56.4048 57.1953 55.5262 55.287 53.6178C53.3786 51.7095 52.4998 49.1631 52.6493 46.665C52.7082 45.6793 52.3463 44.7154 51.648 44.0171L49.0156 46.9116C47.8571 48.1855 46.8597 49.5959 46.0416 51.1113C43.3461 56.1035 35.9258 68.8197 24.8132 79.9322L28.9726 84.0916C40.0851 72.9792 52.8013 65.5589 57.7936 62.8632C59.3087 62.0451 60.7193 61.0477 61.9932 59.8892L64.8877 57.2568Z" fill="#6583FE"/>
<path d="M19.5765 93.4877L28.9726 84.0916L24.8131 79.9321L15.417 89.3283C14.2685 90.4768 14.2685 92.339 15.417 93.4875C16.5655 94.6363 18.4279 94.6363 19.5765 93.4877V93.4877Z" fill="white"/>
<path d="M63.9727 48.0318L60.6069 44.666C60.1911 44.2503 60.1911 43.5765 60.6069 43.1607L69.5268 34.2408C69.9426 33.825 70.6164 33.825 71.0321 34.2408L74.3982 37.6066C74.8139 38.0224 74.8139 38.6962 74.3982 39.1119L65.4782 48.0318C65.0623 48.4476 64.3882 48.4476 63.9727 48.0318Z" fill="#6583FE"/>
<path d="M80.3026 33.471C83.1387 33.471 85.4378 31.1719 85.4378 28.3358C85.4378 25.4998 83.1387 23.2007 80.3026 23.2007C77.4666 23.2007 75.1675 25.4998 75.1675 28.3358C75.1675 31.1719 77.4666 33.471 80.3026 33.471Z" fill="#6583FE"/>
<path d="M77.7413 30.8971C77.3255 30.4814 77.3255 29.8076 77.7413 29.3918L78.8716 28.2615C79.2873 27.8458 79.9611 27.8458 80.3769 28.2615C80.7927 28.6773 80.7927 29.3511 80.3769 29.7669L79.2467 30.8971C78.8311 31.3127 78.1571 31.3127 77.7413 30.8971Z" fill="#0000CC"/>
<path d="M68.4317 41.2949L67.3438 40.2071C66.928 39.7913 66.928 39.1175 67.3438 38.7017C67.7596 38.2859 68.4334 38.2859 68.8491 38.7017L69.937 39.7896C70.3528 40.2054 70.3528 40.8792 69.937 41.2949C69.5212 41.7107 68.8472 41.7107 68.4317 41.2949Z" fill="#0000CC"/>
<path d="M70.5086 39.218L69.4207 38.1302C69.0049 37.7144 69.0049 37.0406 69.4207 36.6248C69.8365 36.209 70.5103 36.209 70.9261 36.6248L72.0139 37.7127C72.4297 38.1285 72.4297 38.8023 72.0139 39.218C71.5982 39.6336 70.9241 39.6336 70.5086 39.218Z" fill="#0000CC"/>
<path d="M54.2186 45.7298C59.9954 39.953 59.9954 30.587 54.2186 24.8102C48.4418 19.0334 39.0758 19.0334 33.299 24.8102C27.5222 30.587 27.5222 39.953 33.299 45.7298C39.0758 51.5066 48.4418 51.5066 54.2186 45.7298Z" fill="white"/>
<path d="M38.7928 36.9837H37.6894C38.3696 36.2789 39.0176 35.4867 39.3059 34.7895C39.7076 33.8178 39.6139 32.7389 39.0553 31.9037C38.5344 31.1246 37.6885 30.6775 36.7352 30.6775C35.1573 30.6775 33.8735 31.9612 33.8735 33.5392C33.8735 34.1272 34.35 34.6036 34.938 34.6036C35.526 34.6036 36.0024 34.1272 36.0024 33.5392C36.0024 33.1351 36.3311 32.8064 36.7352 32.8064C36.976 32.8064 37.1612 32.9007 37.2858 33.087C37.4458 33.3265 37.4661 33.6671 37.3383 33.976C37.006 34.7799 35.345 36.3559 34.2716 37.2179C33.9195 37.5008 33.7841 37.9754 33.934 38.4014C34.0839 38.8274 34.4862 39.1126 34.938 39.1126H38.7928C39.3808 39.1126 39.8573 38.6362 39.8573 38.0482C39.8573 37.4602 39.3808 36.9837 38.7928 36.9837V36.9837Z" fill="#0000CC"/>
<path d="M44.9179 30.6963C44.3299 30.6963 43.8534 31.1727 43.8534 31.7607V33.4502H42.6564V31.7607C42.6564 31.1727 42.1799 30.6963 41.5919 30.6963C41.0039 30.6963 40.5275 31.1727 40.5275 31.7607V34.5147C40.5275 35.1027 41.0039 35.5791 41.5919 35.5791H43.8534V38.0295C43.8534 38.6175 44.3299 39.094 44.9179 39.094C45.5059 39.094 45.9823 38.6175 45.9823 38.0295V31.761C45.9823 31.1727 45.5059 30.6963 44.9179 30.6963Z" fill="#0000CC"/>
<path d="M49.2715 31.228C48.9771 30.7194 48.3258 30.5451 47.817 30.8401L47.7894 30.8561C47.2805 31.1508 47.1068 31.8018 47.4015 32.3106C47.5988 32.6516 47.956 32.842 48.3237 32.842C48.5047 32.842 48.6882 32.7958 48.8559 32.6985L48.8836 32.6825C49.3924 32.3879 49.5661 31.7366 49.2715 31.228Z" fill="#0000CC"/>
<path d="M51.5341 39.1127C50.7057 39.1129 49.8863 38.7927 49.2719 38.1781C48.0248 36.9312 48.0248 34.9017 49.2719 33.6548C50.2917 32.6348 51.8775 32.426 53.1274 33.1457C53.6368 33.4391 53.812 34.0899 53.5187 34.5994C53.2255 35.1088 52.5743 35.2842 52.0651 34.9907C51.6467 34.7497 51.1175 34.8199 50.7771 35.1599C50.36 35.577 50.36 36.2557 50.7771 36.6727C51.1177 37.0129 51.6474 37.0827 52.0653 36.8422C52.5751 36.5484 53.2255 36.7242 53.5187 37.2337C53.812 37.7433 53.6368 38.3939 53.1272 38.6871C52.6303 38.9734 52.0802 39.1127 51.5341 39.1127V39.1127Z" fill="#0000CC"/>
<path d="M91.9635 16.941C89.6004 14.5775 86.4592 13.322 83.1179 13.3991C79.7768 13.4785 76.6984 14.884 74.4501 17.3567L62.9716 29.9801C62.5763 30.4152 62.608 31.0884 63.0432 31.4837C63.4781 31.8791 64.1513 31.8478 64.5466 31.4122L76.025 18.7886C77.878 16.7511 80.4148 15.5927 83.1684 15.5274C85.9138 15.4663 88.5107 16.4986 90.4582 18.4461C92.4055 20.3936 93.4423 22.9826 93.3769 25.7359C93.3113 28.4894 92.1532 31.0262 90.1156 32.8792L64.8349 55.8665C64.0482 55.3779 63.1207 55.1369 62.1763 55.1925C59.8918 55.3279 57.6558 54.4806 56.0397 52.8648C54.6334 51.4582 53.809 49.5811 53.7088 47.6123C57.3141 44.7028 59.6261 40.2519 59.6261 35.2691C59.6261 27.8116 54.336 21.2854 47.0472 19.7518C46.4724 19.6304 45.9074 19.9989 45.7865 20.5742C45.6653 21.1494 46.0336 21.714 46.6089 21.8349C52.9179 23.1625 57.497 28.8124 57.497 35.2691C57.497 42.8397 51.3376 48.9991 43.767 48.9991C36.1962 48.9991 30.0368 42.8397 30.0368 35.2691C30.0368 28.8471 34.5876 23.2038 40.8572 21.8509C41.4318 21.7267 41.7971 21.1605 41.6732 20.5859C41.5493 20.0113 40.9835 19.6468 40.4082 19.7699C33.1653 21.3329 27.9079 27.8514 27.9079 35.2694C27.9079 44.0138 35.0223 51.1282 43.767 51.1282C44.1289 51.1282 44.4868 51.1116 44.8425 51.0876C41.9843 56.3132 34.734 68.5054 24.0604 79.1793L14.6638 88.5755C13.1024 90.1372 13.1024 92.6783 14.664 94.2403C15.4449 95.021 16.4706 95.4114 17.4965 95.4114C18.522 95.4114 19.5479 95.021 20.3288 94.2403L29.7249 84.8437C40.7431 73.826 53.3788 66.4561 58.3 63.7988C59.8926 62.939 61.376 61.8886 62.7085 60.677L91.5475 34.4542C94.0203 32.2059 95.4258 29.1275 95.5052 25.7864C95.5844 22.4455 94.3266 19.304 91.9635 16.941ZM18.8239 92.7349C18.0922 93.4664 16.9015 93.4668 16.1698 92.7349C15.4381 92.003 15.4381 90.8125 16.1696 90.0806L24.8133 81.4372L27.4672 84.0911L18.8239 92.7349ZM61.2766 59.102C60.0714 60.1978 58.7298 61.1477 57.2887 61.9258C52.3974 64.5667 40.0088 71.788 28.9766 82.5898L26.3149 79.9281C37.1165 68.8959 44.3378 56.5071 46.9791 51.6155C47.1503 51.2987 47.334 50.9845 47.523 50.675C49.0186 50.3103 50.4307 49.7329 51.7274 48.977C52.0866 51.0024 53.0558 52.8914 54.5346 54.3701C56.5805 56.4162 59.4117 57.4909 62.3034 57.3178C62.5865 57.3001 62.8663 57.3361 63.132 57.4153L61.2766 59.102Z" fill="#0000CC"/>
<path d="M33.1329 53.5632C33.7209 53.5632 34.1973 53.0868 34.1973 52.4988C34.1973 51.9108 33.7209 51.4343 33.1329 51.4343H29.1767C28.5887 51.4343 28.1123 51.9108 28.1123 52.4988C28.1123 53.0868 28.5887 53.5632 29.1767 53.5632H33.1329Z" fill="#0000CC"/>
<path d="M20.6611 57.4766H33.1329C33.7209 57.4766 34.1973 57.0001 34.1973 56.4121C34.1973 55.8241 33.7209 55.3477 33.1329 55.3477H20.6611C20.0731 55.3477 19.5967 55.8241 19.5967 56.4121C19.5967 56.9999 20.0731 57.4766 20.6611 57.4766V57.4766Z" fill="#0000CC"/>
<path d="M20.6611 61.3896H33.1329C33.7209 61.3896 34.1973 60.9132 34.1973 60.3252C34.1973 59.7372 33.7209 59.2607 33.1329 59.2607H20.6611C20.0731 59.2607 19.5967 59.7372 19.5967 60.3252C19.5967 60.9132 20.0731 61.3896 20.6611 61.3896V61.3896Z" fill="#0000CC"/>
<path d="M50.9987 82.1894C50.4107 82.1894 49.9343 81.7129 49.9343 81.1249C49.9343 80.3815 49.3294 79.7767 48.586 79.7767C47.998 79.7767 47.5216 79.3003 47.5216 78.7122C47.5216 78.1242 47.998 77.6478 48.586 77.6478C49.3294 77.6478 49.9343 77.043 49.9343 76.2996C49.9343 75.7116 50.4107 75.2351 50.9987 75.2351C51.5867 75.2351 52.0632 75.7116 52.0632 76.2996C52.0632 77.043 52.6682 77.6478 53.4116 77.6478C53.9996 77.6478 54.4761 78.1242 54.4761 78.7122C54.4761 79.3003 53.9996 79.7767 53.4116 79.7767C52.6682 79.7767 52.0632 80.3815 52.0632 81.1249C52.0632 81.7127 51.5865 82.1894 50.9987 82.1894Z" fill="#6583FE"/>
<path d="M60.9745 20.86C60.3865 20.86 59.9101 20.3836 59.9101 19.7956C59.9101 19.0522 59.3052 18.4474 58.5618 18.4474C57.9738 18.4474 57.4974 17.9709 57.4974 17.3829C57.4974 16.7949 57.9738 16.3185 58.5618 16.3185C59.3052 16.3185 59.9101 15.7136 59.9101 14.9702C59.9101 14.3822 60.3865 13.9058 60.9745 13.9058C61.5625 13.9058 62.039 14.3822 62.039 14.9702C62.039 15.7136 62.644 16.3185 63.3874 16.3185C63.9754 16.3185 64.4519 16.7949 64.4519 17.3829C64.4519 17.9709 63.9754 18.4474 63.3874 18.4474C62.644 18.4474 62.039 19.0522 62.039 19.7956C62.039 20.3834 61.5625 20.86 60.9745 20.86Z" fill="#6583FE"/>
<path d="M52.4393 15.2794C51.8513 15.2794 51.3749 14.803 51.3749 14.215C51.3749 13.4716 50.77 12.8668 50.0266 12.8668C49.4386 12.8668 48.9622 12.3903 48.9622 11.8023C48.9622 11.2143 49.4386 10.7379 50.0266 10.7379C50.77 10.7379 51.3749 10.1328 51.3749 9.3894C51.3749 8.8014 51.8513 8.32495 52.4393 8.32495C53.0273 8.32495 53.5038 8.8014 53.5038 9.3894C53.5038 10.1328 54.1086 10.7379 54.852 10.7379C55.44 10.7379 55.9165 11.2143 55.9165 11.8023C55.9165 12.3903 55.44 12.8668 54.852 12.8668C54.1086 12.8668 53.5038 13.4716 53.5038 14.215C53.5038 14.803 53.0273 15.2794 52.4393 15.2794Z" fill="#6583FE"/>
<path d="M44.8504 85.4526C44.2624 85.4526 43.7859 84.9761 43.7859 84.3881V84.3562C43.7859 83.7682 44.2624 83.2917 44.8504 83.2917C45.4384 83.2917 45.9149 83.7682 45.9149 84.3562V84.3881C45.9149 84.9761 45.4384 85.4526 44.8504 85.4526Z" fill="#6583FE"/>
<path d="M44.8504 91.3676C44.2624 91.3676 43.7859 90.8912 43.7859 90.3032V90.2712C43.7859 89.6832 44.2624 89.2068 44.8504 89.2068C45.4384 89.2068 45.9149 89.6832 45.9149 90.2712V90.3032C45.9149 90.8912 45.4384 91.3676 44.8504 91.3676Z" fill="#6583FE"/>
<path d="M42.3019 86.9236C42.1207 86.9236 41.9374 86.8774 41.7697 86.7802L41.742 86.7642C41.2332 86.4696 41.0595 85.8185 41.3541 85.3097C41.6487 84.8007 42.3004 84.6272 42.8086 84.9218L42.8362 84.9378C43.345 85.2324 43.5188 85.8835 43.2241 86.3923C43.0268 86.7331 42.6693 86.9236 42.3019 86.9236Z" fill="#6583FE"/>
<path d="M47.4247 89.8811C47.2448 89.8811 47.0626 89.8353 46.8954 89.7393L46.8676 89.7234C46.3577 89.4304 46.182 88.7798 46.475 88.2702C46.7679 87.7603 47.4183 87.5847 47.9282 87.8776L47.9561 87.8936C48.4659 88.1865 48.6416 88.8371 48.3486 89.3467C48.1517 89.6893 47.7932 89.8811 47.4247 89.8811Z" fill="#6583FE"/>
<path d="M42.2764 89.8811C41.9087 89.8811 41.5515 89.6906 41.3541 89.3497C41.0595 88.8409 41.2334 88.1899 41.742 87.8953L41.7697 87.8793C42.2783 87.584 42.9297 87.7586 43.2241 88.2672C43.5188 88.776 43.3449 89.427 42.8363 89.7217L42.8086 89.7376C42.6408 89.8349 42.4573 89.8811 42.2764 89.8811Z" fill="#6583FE"/>
<path d="M47.3989 86.9236C47.0302 86.9236 46.6719 86.732 46.475 86.3892C46.182 85.8794 46.3577 85.229 46.8676 84.936L46.8954 84.9201C47.4053 84.6271 48.0559 84.8028 48.3486 85.3127C48.6416 85.8225 48.4659 86.4729 47.9561 86.7658L47.9282 86.7818C47.7611 86.8778 47.5786 86.9236 47.3989 86.9236Z" fill="#6583FE"/>
<path d="M87.985 48.1867C87.397 48.1867 86.9206 47.7103 86.9206 47.1223V47.0903C86.9206 46.5023 87.397 46.0259 87.985 46.0259C88.5731 46.0259 89.0495 46.5023 89.0495 47.0903V47.1223C89.0495 47.7103 88.5731 48.1867 87.985 48.1867Z" fill="#6583FE"/>
<path d="M87.985 54.1018C87.397 54.1018 86.9206 53.6253 86.9206 53.0373V53.0054C86.9206 52.4174 87.397 51.9409 87.985 51.9409C88.5731 51.9409 89.0495 52.4174 89.0495 53.0054V53.0373C89.0495 53.6253 88.5731 54.1018 87.985 54.1018Z" fill="#6583FE"/>
<path d="M85.4365 49.6575C85.2553 49.6575 85.072 49.6113 84.9043 49.514L84.8766 49.4981C84.3678 49.2034 84.1941 48.5524 84.4887 48.0436C84.7834 47.5346 85.435 47.3611 85.9432 47.6557L85.9709 47.6717C86.4797 47.9663 86.6534 48.6174 86.3587 49.1262C86.1616 49.4672 85.8039 49.6575 85.4365 49.6575Z" fill="#6583FE"/>
<path d="M90.5591 52.6151C90.3779 52.6151 90.1946 52.5689 90.0269 52.4716L89.9992 52.4556C89.4904 52.161 89.3167 51.5099 89.6113 51.0011C89.9059 50.4921 90.5574 50.3186 91.0658 50.6132L91.0935 50.6292C91.6023 50.9239 91.776 51.5749 91.4813 52.0837C91.284 52.4245 90.9265 52.6151 90.5591 52.6151Z" fill="#6583FE"/>
<path d="M85.411 52.6152C85.0433 52.6152 84.6861 52.4246 84.4887 52.0838C84.1941 51.575 84.368 50.9239 84.8766 50.6293L84.9043 50.6133C85.4131 50.3183 86.0643 50.4926 86.3588 51.0012C86.6534 51.51 86.4795 52.1611 85.9709 52.4557L85.9432 52.4717C85.7754 52.569 85.5919 52.6152 85.411 52.6152Z" fill="#6583FE"/>
<path d="M90.5335 49.6576C90.1659 49.6576 89.8086 49.4671 89.6113 49.1262C89.3166 48.6174 89.4906 47.9664 89.9992 47.6718L90.0268 47.6558C90.5357 47.3608 91.1869 47.5351 91.4813 48.0437C91.7759 48.5525 91.602 49.2035 91.0934 49.4982L91.0657 49.5141C90.898 49.6114 90.7143 49.6576 90.5335 49.6576Z" fill="#6583FE"/>
<defs>
<linearGradient id="paint0_linear" x1="1.86329" y1="85.3083" x2="111.598" y2="21.9531" gradientUnits="userSpaceOnUse">
<stop stop-color="#D2DEFF" stop-opacity="0"/>
<stop offset="1" stop-color="#CF3DA6"/>
</linearGradient>
</defs>
</svg>
