<svg width="111" height="111" viewBox="0 0 111 111" fill="none" xmlns="http://www.w3.org/2000/svg">
<path d="M90.6903 0.445148C78.6221 -1.61898 52.0359 3.08638 47.3301 23.2123C44.2013 36.5934 44.2934 47.5098 36.3977 47.7147C31.6997 47.8365 29.2499 38.1084 22.7635 37.3082C14.2983 36.2639 8.4235 43.3124 4.75703 49.6955C-3.30889 63.7379 -0.786678 87.6172 9.82011 99.2622C35.5079 127.464 66.0132 97.9719 79.0559 74.914C87.421 60.1256 106.294 48.1717 110.224 31.5009C113.514 17.5446 106.213 3.10004 90.6903 0.445148V0.445148Z" fill="url(#paint0_linear)"/>
<path opacity="0.1" d="M93.2426 46.4399C90.9682 43.5658 86.7947 43.0795 83.9206 45.3539L77.8451 50.1616V43.0981C77.8451 41.9014 76.876 40.9302 75.6771 40.9302H35.819C34.6223 40.9302 33.651 41.9014 33.651 43.0981V53.9315H27.3748C26.1774 53.9315 25.2068 54.9021 25.2068 56.0995V69.9376C25.2068 71.135 26.1774 72.1056 27.3748 72.1056H33.651V95.3072C33.651 99.3483 36.929 102.626 40.9723 102.626H70.526C74.5693 102.626 77.8451 99.3483 77.8451 95.3072V88.9041H78.8367C79.3724 88.9041 79.8066 88.4698 79.8066 87.9341V76.9152C79.8066 76.3795 79.3724 75.9453 78.8367 75.9453H77.8451V67.0874L92.1567 55.7621C95.0308 53.4877 95.517 49.3141 93.2426 46.4399V46.4399Z" fill="#2626BC"/>
<path d="M69.2527 68.4667L61.0166 58.0587L83.9205 39.9343C86.7946 37.6599 90.9684 38.1461 93.2426 41.0202C95.517 43.8943 95.0307 48.0681 92.1567 50.3423L69.2527 68.4667Z" fill="white"/>
<path d="M77.845 37.6785V89.8875C77.845 93.9286 74.5692 97.2066 70.526 97.2066H40.9722C36.929 97.2066 33.651 93.9286 33.651 89.8875V37.6785C33.651 36.4817 34.6223 35.5105 35.819 35.5105H75.6771C76.876 35.5105 77.845 36.4817 77.845 37.6785Z" fill="white"/>
<path d="M70.526 97.2067H40.9722C36.929 97.2067 33.651 93.9287 33.651 89.8876V68.5461L70.526 97.2067Z" fill="#6583FE"/>
<path d="M77.8461 37.6775V48.281L42.6015 97.2078H40.9733C36.9301 97.2078 33.6521 93.9276 33.6521 89.8887V37.6775C33.6521 36.4808 34.6233 35.5095 35.8201 35.5095H75.6782C76.8771 35.5095 77.8461 36.4808 77.8461 37.6775V37.6775Z" fill="white"/>
<path d="M77.845 37.6785V75.3361L33.651 59.2931V37.6785C33.651 36.4817 34.6223 35.5105 35.819 35.5105H75.6771C76.876 35.5105 77.845 36.4817 77.845 37.6785Z" fill="#6583FE"/>
<path d="M77.845 37.6785V57.6043L33.651 45.0604V37.6785C33.651 36.4817 34.6223 35.5105 35.819 35.5105H75.6771C76.876 35.5105 77.845 36.4817 77.845 37.6785Z" fill="white"/>
<path d="M45.4688 35.5107H35.3958V23.6092C35.3958 20.8277 37.6507 18.5728 40.4322 18.5728C43.2137 18.5728 45.4686 20.8277 45.4686 23.6092V35.5107H45.4688Z" fill="white"/>
<path d="M55.5418 35.5107H45.4688V19.6836C45.4688 16.9021 47.7237 14.6472 50.5052 14.6472C53.2867 14.6472 55.5416 16.9021 55.5416 19.6836V35.5107H55.5418Z" fill="white"/>
<path d="M65.6147 35.5105H55.5416V12.8941C55.5416 10.1126 57.7965 7.85767 60.578 7.85767C63.3595 7.85767 65.6145 10.1126 65.6145 12.8941V35.5105H65.6147Z" fill="white"/>
<path d="M75.6877 35.5107H65.6146V17.6802C65.6146 14.8987 67.8695 12.6438 70.651 12.6438C73.4325 12.6438 75.6874 14.8987 75.6874 17.6802V35.5107H75.6877Z" fill="white"/>
<path d="M68.2271 71.4956V82.5145C68.2271 83.0502 68.6613 83.4845 69.197 83.4845H78.8366C79.3724 83.4845 79.8066 83.0502 79.8066 82.5145V71.4956C79.8066 70.9599 79.3724 70.5256 78.8366 70.5256H69.197C68.6615 70.5256 68.2271 70.9599 68.2271 71.4956ZM74.757 80.3632H71.4105V73.6471H74.757V80.3632Z" fill="white"/>
<path d="M51.9726 66.686H27.375C26.1776 66.686 25.207 65.7154 25.207 64.5181V50.6799C25.207 49.4826 26.1776 48.512 27.375 48.512H51.9726C53.1699 48.512 54.1405 49.4826 54.1405 50.6799V64.5181C54.1405 65.7152 53.1699 66.686 51.9726 66.686Z" fill="white"/>
<path d="M94.0927 40.3475C91.4511 37.0092 86.5861 36.4423 83.2479 39.0842L78.93 42.5011V37.6785C78.93 36.2695 78.0276 35.0704 76.7717 34.6199V17.6801C76.7717 14.3054 74.026 11.5597 70.6513 11.5597C69.1457 11.5597 67.766 12.1073 66.6987 13.0124V12.894C66.6987 9.51939 63.9532 6.77344 60.5783 6.77344C57.2036 6.77344 54.4579 9.51917 54.4579 12.894V15.0158C53.3906 14.1107 52.0111 13.5631 50.5055 13.5631C47.3695 13.5631 44.7782 15.9344 44.4269 18.9778C43.354 18.0512 41.9581 17.4886 40.4325 17.4886C37.0578 17.4886 34.3121 20.2344 34.3121 23.609V34.7999C33.2766 35.3444 32.5682 36.4295 32.5682 37.6783V47.4276H27.375C25.5819 47.4276 24.123 48.8864 24.123 50.6796V64.5177C24.123 66.3108 25.5819 67.7697 27.375 67.7697H51.9726C53.7657 67.7697 55.2245 66.3108 55.2245 64.5177V50.6796C55.2245 48.8864 53.7657 47.4276 51.9726 47.4276H34.7361V37.6783C34.7361 37.0806 35.2224 36.5943 35.8201 36.5943H65.6149C66.2135 36.5943 66.6989 36.1091 66.6989 35.5103V17.6801C66.6989 15.5006 68.4721 13.7276 70.6516 13.7276C72.831 13.7276 74.604 15.5008 74.604 17.6801V34.4265H71.9239C71.3254 34.4265 70.84 34.9117 70.84 35.5105C70.84 36.1093 71.3254 36.5945 71.9239 36.5945H75.6782C76.2759 36.5945 76.7622 37.0808 76.7622 37.6785V69.4416H69.1973C68.0647 69.4416 67.1434 70.363 67.1434 71.4958V82.5147C67.1434 83.6472 68.0647 84.5686 69.1973 84.5686H76.7622V89.8866C76.7622 93.3255 73.9644 96.1232 70.5256 96.1232H40.9727C37.5339 96.1232 34.7361 93.3257 34.7361 89.8866V72.9949C34.7361 72.3961 34.2507 71.9109 33.6521 71.9109C33.0536 71.9109 32.5682 72.3961 32.5682 72.9949V89.8866C32.5682 94.5209 36.3385 98.2912 40.9727 98.2912H70.5254C75.1596 98.2912 78.93 94.5209 78.93 89.8866V84.5638C80.0191 84.5146 80.8907 83.6158 80.8907 82.5147V71.4958C80.8907 70.3944 80.0191 69.4956 78.93 69.4464V62.1913L92.8292 51.1923C94.4465 49.9128 95.4683 48.08 95.707 46.0314C95.9457 43.9829 95.3725 41.9646 94.0927 40.3475V40.3475ZM53.0565 50.6798V64.5179C53.0565 65.1156 52.5703 65.6019 51.9726 65.6019H27.375C26.7773 65.6019 26.291 65.1156 26.291 64.5179V50.6798C26.291 50.0821 26.7773 49.5958 27.375 49.5958H51.9726C52.5703 49.5958 53.0565 50.0821 53.0565 50.6798V50.6798ZM36.48 23.6092C36.48 21.4298 38.253 19.6568 40.4325 19.6568C42.6119 19.6568 44.3851 21.43 44.3851 23.6092V34.4265H36.4803V23.6092H36.48ZM46.5529 23.6092V19.6835C46.5529 17.504 48.326 15.7311 50.5053 15.7311C52.6845 15.7311 54.4577 17.5042 54.4577 19.6835V34.4265H46.5526V23.6092H46.5529ZM56.6259 19.6835V12.894C56.6259 10.7146 58.3989 8.94141 60.5783 8.94141C62.7578 8.94141 64.5307 10.7146 64.5307 12.894V17.6801V34.4265H56.6259V19.6835ZM69.3113 71.6096H78.7229V82.4004H69.3113V71.6096ZM93.5538 45.7806C93.3823 47.2537 92.6471 48.5717 91.4842 49.492L78.9302 59.4265V45.2657L84.5933 40.7841C86.9944 38.8843 90.493 39.2921 92.3928 41.6927C93.3131 42.8558 93.7253 44.3075 93.5538 45.7806V45.7806Z" fill="#0000CC"/>
<path d="M74.757 72.563H71.4105C70.8119 72.563 70.3265 73.0482 70.3265 73.647V80.3631C70.3265 80.9619 70.8119 81.4471 71.4105 81.4471H74.757C75.3556 81.4471 75.841 80.9619 75.841 80.3631V73.647C75.841 73.0484 75.3556 72.563 74.757 72.563ZM73.673 79.2791H72.4945V74.731H73.673V79.2791Z" fill="#0000CC"/>
<path d="M47.815 54.3589H43.7863C43.1875 54.3589 42.7023 53.8735 42.7023 53.2749C42.7023 52.6763 43.1875 52.1909 43.7863 52.1909H47.815C48.4138 52.1909 48.899 52.6763 48.899 53.2749C48.899 53.8735 48.4138 54.3589 47.815 54.3589Z" fill="#0000CC"/>
<path d="M47.815 58.344H35.1144C34.5156 58.344 34.0304 57.8586 34.0304 57.26C34.0304 56.6614 34.5156 56.176 35.1144 56.176H47.815C48.4138 56.176 48.899 56.6614 48.899 57.26C48.899 57.8586 48.4138 58.344 47.815 58.344Z" fill="#0000CC"/>
<path d="M47.815 62.3291H35.1144C34.5156 62.3291 34.0304 61.8437 34.0304 61.2451C34.0304 60.6465 34.5156 60.1611 35.1144 60.1611H47.815C48.4138 60.1611 48.899 60.6465 48.899 61.2451C48.899 61.8437 48.4138 62.3291 47.815 62.3291Z" fill="#0000CC"/>
<path d="M22.6443 38.9129C22.0458 38.9129 21.5604 38.4277 21.5604 37.8289C21.5604 37.0719 20.9444 36.4557 20.1874 36.4557C19.5888 36.4557 19.1034 35.9705 19.1034 35.3718C19.1034 34.773 19.5888 34.2878 20.1874 34.2878C20.9444 34.2878 21.5604 33.6718 21.5604 32.9148C21.5604 32.316 22.0458 31.8308 22.6443 31.8308C23.2429 31.8308 23.7283 32.316 23.7283 32.9148C23.7283 33.6718 24.3442 34.2878 25.1015 34.2878C25.7001 34.2878 26.1855 34.773 26.1855 35.3718C26.1855 35.9705 25.7001 36.4557 25.1015 36.4557C24.3445 36.4557 23.7283 37.0719 23.7283 37.8289C23.7283 38.4277 23.2429 38.9129 22.6443 38.9129Z" fill="#6583FE"/>
<path d="M94.9362 68.0379C94.3376 68.0379 93.8522 67.5527 93.8522 66.9539C93.8522 66.1969 93.2363 65.581 92.479 65.581C91.8804 65.581 91.395 65.0958 91.395 64.497C91.395 63.8982 91.8804 63.413 92.479 63.413C93.2361 63.413 93.8522 62.7971 93.8522 62.04C93.8522 61.4412 94.3376 60.9561 94.9362 60.9561C95.5347 60.9561 96.0202 61.4412 96.0202 62.04C96.0202 62.7971 96.6361 63.413 97.3931 63.413C97.9917 63.413 98.4771 63.8982 98.4771 64.497C98.4771 65.0958 97.9917 65.581 97.3931 65.581C96.6361 65.581 96.0202 66.1969 96.0202 66.9539C96.0202 67.5527 95.535 68.0379 94.9362 68.0379Z" fill="#6583FE"/>
<path d="M25.2071 91.8353C24.6085 91.8353 24.1231 91.3501 24.1231 90.7513C24.1231 89.9942 23.5072 89.3781 22.7501 89.3781C22.1515 89.3781 21.6661 88.8929 21.6661 88.2941C21.6661 87.6953 22.1515 87.2101 22.7501 87.2101C23.5072 87.2101 24.1231 86.5942 24.1231 85.8372C24.1231 85.2384 24.6085 84.7532 25.2071 84.7532C25.8057 84.7532 26.2911 85.2384 26.2911 85.8372C26.2911 86.5942 26.907 87.2101 27.6643 87.2101C28.2628 87.2101 28.7482 87.6953 28.7482 88.2941C28.7482 88.8929 28.2628 89.3781 27.6643 89.3781C26.9072 89.3781 26.2911 89.9942 26.2911 90.7513C26.2911 91.3501 25.8057 91.8353 25.2071 91.8353V91.8353Z" fill="#6583FE"/>
<path d="M26.291 20.9971C25.6924 20.9971 25.207 20.5119 25.207 19.9131V19.8806C25.207 19.2818 25.6924 18.7966 26.291 18.7966C26.8896 18.7966 27.375 19.2818 27.375 19.8806V19.9131C27.375 20.5119 26.8896 20.9971 26.291 20.9971Z" fill="#6583FE"/>
<path d="M26.291 27.0206C25.6924 27.0206 25.207 26.5354 25.207 25.9366V25.9041C25.207 25.3053 25.6924 24.8201 26.291 24.8201C26.8896 24.8201 27.375 25.3053 27.375 25.9041V25.9366C27.375 26.5354 26.8896 27.0206 26.291 27.0206Z" fill="#6583FE"/>
<path d="M23.6958 22.4953C23.5115 22.4953 23.3248 22.4483 23.1538 22.3492L23.1256 22.333C22.6074 22.0329 22.4305 21.3699 22.7306 20.8518C23.0304 20.3334 23.6934 20.1565 24.2117 20.4568L24.2399 20.4731C24.7581 20.7731 24.935 21.4361 24.6349 21.9542C24.4339 22.3013 24.0699 22.4953 23.6958 22.4953V22.4953Z" fill="#6583FE"/>
<path d="M28.9124 25.5069C28.7286 25.5069 28.5425 25.4601 28.3719 25.3617L28.3437 25.3454C27.8252 25.0462 27.6472 24.3833 27.9464 23.8649C28.2455 23.3461 28.9083 23.1683 29.4269 23.4675L29.455 23.4838C29.9736 23.783 30.1516 24.4459 29.8524 24.9643C29.6517 25.3122 29.2872 25.5069 28.9124 25.5069Z" fill="#6583FE"/>
<path d="M23.6697 25.507C23.2955 25.507 22.9315 25.313 22.7306 24.9659C22.4305 24.4477 22.6074 23.7848 23.1256 23.4847L23.1538 23.4685C23.6721 23.1682 24.3351 23.3453 24.6349 23.8635C24.935 24.3816 24.7581 25.0446 24.2399 25.3446L24.2117 25.3609C24.0407 25.46 23.854 25.507 23.6697 25.507V25.507Z" fill="#6583FE"/>
<path d="M28.8861 22.4952C28.5113 22.4952 28.1469 22.3007 27.9461 21.9525C27.6469 21.4339 27.8249 20.7712 28.3435 20.472L28.3717 20.4557C28.8903 20.1561 29.5532 20.3343 29.8522 20.8531C30.1514 21.3717 29.9734 22.0345 29.4548 22.3336L29.4266 22.3499C29.2562 22.4483 29.0698 22.4952 28.8861 22.4952Z" fill="#6583FE"/>
<path d="M92.053 73.4246C91.4544 73.4246 90.969 72.9394 90.969 72.3406V72.3081C90.969 71.7093 91.4544 71.2241 92.053 71.2241C92.6516 71.2241 93.137 71.7093 93.137 72.3081V72.3406C93.137 72.9394 92.6516 73.4246 92.053 73.4246Z" fill="#6583FE"/>
<path d="M92.053 79.448C91.4544 79.448 90.969 78.9628 90.969 78.3641V78.3315C90.969 77.7327 91.4544 77.2476 92.053 77.2476C92.6516 77.2476 93.137 77.7327 93.137 78.3315V78.3641C93.137 78.9628 92.6516 79.448 92.053 79.448Z" fill="#6583FE"/>
<path d="M89.458 74.9225C89.2757 74.9225 89.0907 74.8763 88.9212 74.7794L88.893 74.7633C88.3731 74.4663 88.1925 73.8042 88.4896 73.2846C88.7866 72.7647 89.4489 72.5843 89.9685 72.8813L89.9967 72.8974C90.5166 73.1944 90.6972 73.8565 90.4002 74.3761C90.2001 74.7263 89.8341 74.9225 89.458 74.9225V74.9225Z" fill="#6583FE"/>
<path d="M94.6744 77.9343C94.4901 77.9343 94.3035 77.8873 94.1324 77.7882L94.1042 77.772C93.5861 77.4719 93.4092 76.809 93.7092 76.2908C94.0093 75.7727 94.672 75.5953 95.1904 75.8958L95.2185 75.9121C95.7367 76.2121 95.9136 76.8751 95.6136 77.3932C95.4126 77.7403 95.0486 77.9343 94.6744 77.9343Z" fill="#6583FE"/>
<path d="M89.4317 77.9346C89.0575 77.9346 88.6935 77.7405 88.4925 77.3934C88.1925 76.8753 88.3694 76.2123 88.8875 75.9123L88.9157 75.896C89.4341 75.5955 90.097 75.7731 90.3969 76.291C90.6969 76.8092 90.52 77.4721 90.0019 77.7722L89.9737 77.7884C89.8029 77.8875 89.616 77.9346 89.4317 77.9346Z" fill="#6583FE"/>
<path d="M94.6481 74.9225C94.2717 74.9225 93.906 74.7263 93.7059 74.376C93.4089 73.8563 93.5894 73.1942 94.1093 72.8972L94.1375 72.8812C94.657 72.584 95.3195 72.7645 95.6165 73.2844C95.9135 73.8041 95.7329 74.4662 95.213 74.7632L95.1849 74.7792C95.0153 74.8764 94.8306 74.9225 94.6481 74.9225Z" fill="#6583FE"/>
<path d="M42.6006 98.2914C42.3812 98.2914 42.1597 98.2251 41.968 98.087C41.4822 97.7373 41.3721 97.0598 41.722 96.574L61.4767 69.1503C61.8264 68.6646 62.5039 68.5541 62.99 68.9044C63.4758 69.2541 63.5859 69.9316 63.236 70.4174L43.4811 97.8412C43.2692 98.1351 42.9373 98.2914 42.6006 98.2914Z" fill="#0000CC"/>
<defs>
<linearGradient id="paint0_linear" x1="1.89748" y1="86.8736" x2="113.645" y2="22.3559" gradientUnits="userSpaceOnUse">
<stop stop-color="#D2DEFF" stop-opacity="0"/>
<stop offset="1" stop-color="#1479FF"/>
</linearGradient>
</defs>
</svg>
