<svg width="119" height="111" viewBox="0 0 119 111" fill="none" xmlns="http://www.w3.org/2000/svg">
<path d="M4.7267 26.8434C-0.84375 36.0004 -1.43085 51.855 2.64955 61.7662C6.2235 70.4474 13.3331 78.5956 22.6657 79.6164C26.0977 79.9918 29.6054 79.3784 33.002 79.9971C44.6828 82.1243 49.0279 96.52 58.1059 104.172C64.4236 109.498 73.1896 111.382 81.3885 110.356C89.5874 109.33 97.2634 105.624 104.021 100.868C109.357 97.1127 114.349 92.4956 116.982 86.5259C122.5 74.0125 116.008 58.9836 105.921 49.7477C102.78 46.871 99.2782 44.3336 96.6535 40.9791C94.0288 37.6243 92.3583 33.1476 93.609 29.0758C94.6068 25.8273 97.2927 23.309 98.3102 20.0665C99.695 15.6542 97.6048 10.7045 94.1726 7.60492C90.7405 4.50557 86.1987 2.94742 81.6995 1.87804C62.8494 -2.60328 21.5434 -0.800387 4.7267 26.8434V26.8434Z" fill="url(#paint0_linear)"/>
<path opacity="0.1" d="M91.4507 106.345H27.5491C26.2655 106.345 25.2249 105.304 25.2249 104.02V19.3872C25.2249 18.1035 26.2655 17.063 27.5491 17.063H91.4507C92.7344 17.063 93.775 18.1035 93.775 19.3872V104.02C93.775 105.304 92.7344 106.345 91.4507 106.345Z" fill="#2626BC"/>
<path d="M91.4507 100.534H27.5491C26.2655 100.534 25.2249 99.4935 25.2249 98.2098V13.5767C25.2249 12.293 26.2655 11.2524 27.5491 11.2524H91.4507C92.7344 11.2524 93.775 12.293 93.775 13.5767V98.2098C93.775 99.4935 92.7344 100.534 91.4507 100.534Z" fill="#6583FE"/>
<path d="M85.3218 91.986H33.6779C32.5509 91.986 31.6372 91.0724 31.6372 89.9454V13.2931C31.6372 12.1661 32.5509 11.2524 33.6779 11.2524H85.3218C86.4488 11.2524 87.3625 12.1661 87.3625 13.2931V89.9454C87.3627 91.0724 86.449 91.986 85.3218 91.986Z" fill="white"/>
<path d="M91.4507 101.696H27.5491C25.6268 101.696 24.0628 100.132 24.0628 98.2098V13.5767C24.0628 11.6543 25.6268 10.0903 27.5491 10.0903H37.6428C38.2845 10.0903 38.8049 10.6107 38.8049 11.2524C38.8049 11.8942 38.2845 12.4146 37.6428 12.4146H27.5491C26.9084 12.4146 26.387 12.9359 26.387 13.5767V98.2098C26.387 98.8506 26.9084 99.3719 27.5491 99.3719H91.4507C92.0915 99.3719 92.6129 98.8506 92.6129 98.2098V75.0992C92.6129 74.4575 93.133 73.9371 93.775 73.9371C94.4169 73.9371 94.9371 74.4575 94.9371 75.0992V98.2098C94.9371 100.132 93.3731 101.696 91.4507 101.696Z" fill="#0000CC"/>
<path d="M73.1275 12.4146H51.474C50.8322 12.4146 50.3118 11.8942 50.3118 11.2524C50.3118 10.6107 50.8322 10.0903 51.474 10.0903H73.1275C73.7695 10.0903 74.2896 10.6107 74.2896 11.2524C74.2896 11.8942 73.7695 12.4146 73.1275 12.4146Z" fill="#0000CC"/>
<path d="M93.775 69.4978C93.133 69.4978 92.6129 68.9774 92.6129 68.3357V13.5767C92.6129 12.9359 92.0916 12.4146 91.4508 12.4146H81.9119C81.27 12.4146 80.7498 11.8942 80.7498 11.2524C80.7498 10.6107 81.27 10.0903 81.9119 10.0903H91.4508C93.3731 10.0903 94.9371 11.6543 94.9371 13.5767V68.3357C94.9371 68.9774 94.4167 69.4978 93.775 69.4978Z" fill="#0000CC"/>
<path d="M43.5481 18.3844H38.8049C38.1632 18.3844 37.6428 17.864 37.6428 17.2222V8.71606C37.6428 8.07412 38.1632 7.55396 38.8049 7.55396H43.5481C44.1899 7.55396 44.7103 8.07412 44.7103 8.71606V17.222C44.7103 17.864 44.1901 18.3844 43.5481 18.3844V18.3844Z" fill="white"/>
<path d="M43.5484 19.5465H38.8049C37.5233 19.5465 36.4807 18.5038 36.4807 17.2222V8.71606C36.4807 7.43449 37.5233 6.39185 38.8049 6.39185H43.5484C44.8299 6.39185 45.8726 7.43449 45.8726 8.71606V17.222C45.8726 18.5038 44.8299 19.5465 43.5484 19.5465V19.5465ZM38.8049 8.71606V17.222H43.5498L43.5484 8.71606H38.8049Z" fill="#0000CC"/>
<path d="M80.195 18.3844H75.4518C74.81 18.3844 74.2896 17.864 74.2896 17.2222V8.71606C74.2896 8.07412 74.81 7.55396 75.4518 7.55396H80.195C80.837 7.55396 81.3571 8.07412 81.3571 8.71606V17.222C81.3571 17.864 80.8367 18.3844 80.195 18.3844V18.3844Z" fill="white"/>
<path d="M80.195 19.5465H75.4518C74.1702 19.5465 73.1275 18.5038 73.1275 17.2222V8.71606C73.1275 7.43449 74.1702 6.39185 75.4518 6.39185H80.195C81.4766 6.39185 82.5192 7.43449 82.5192 8.71606V17.222C82.5192 18.5038 81.4766 19.5465 80.195 19.5465V19.5465ZM75.4518 8.71606V17.222H80.1966L80.195 8.71606H75.4518Z" fill="#0000CC"/>
<path d="M49.6353 38.2611C53.1289 36.4315 54.4778 32.1163 52.6482 28.6227C50.8186 25.1292 46.5034 23.7803 43.0098 25.6099C39.5163 27.4394 38.1674 31.7547 39.9969 35.2482C41.8265 38.7418 46.1418 40.0907 49.6353 38.2611Z" fill="#6583FE"/>
<path d="M49.635 30.4369H47.817V28.6189C47.817 28.0515 47.3571 27.5916 46.7897 27.5916H45.8361C45.2688 27.5916 44.8088 28.0515 44.8088 28.6189V30.4369H42.9908C42.4234 30.4369 41.9635 30.8968 41.9635 31.4642V32.4178C41.9635 32.9851 42.4234 33.4451 42.9908 33.4451H44.8088V35.2631C44.8088 35.8304 45.2688 36.2904 45.8361 36.2904H46.7897C47.3571 36.2904 47.817 35.8304 47.817 35.2631V33.4451H49.635C50.2024 33.4451 50.6623 32.9851 50.6623 32.4178V31.4642C50.6623 30.8968 50.2024 30.4369 49.635 30.4369Z" fill="white"/>
<path d="M80.0254 33.7803H58.7541C58.1122 33.7803 57.592 33.2599 57.592 32.6182C57.592 31.9764 58.1122 31.4561 58.7541 31.4561H80.0254C80.6673 31.4561 81.1875 31.9764 81.1875 32.6182C81.1875 33.2601 80.6673 33.7803 80.0254 33.7803Z" fill="#0000CC"/>
<path d="M80.0254 38.0037H58.7541C58.1122 38.0037 57.592 37.4833 57.592 36.8416C57.592 36.1998 58.1122 35.6794 58.7541 35.6794H80.0254C80.6673 35.6794 81.1875 36.1998 81.1875 36.8416C81.1875 37.4833 80.6673 38.0037 80.0254 38.0037Z" fill="#0000CC"/>
<path d="M64.9179 27.8555H58.7541C58.1122 27.8555 57.592 27.3351 57.592 26.6934C57.592 26.0516 58.1122 25.5312 58.7541 25.5312H64.9179C65.5599 25.5312 66.0801 26.0516 66.0801 26.6934C66.0801 27.3351 65.5599 27.8555 64.9179 27.8555Z" fill="#0000CC"/>
<path d="M79.3448 55.8934H39.6548C39.0131 55.8934 38.4927 55.373 38.4927 54.7313V46.5742C38.4927 45.9323 39.0131 45.4121 39.6548 45.4121H79.3448C79.9865 45.4121 80.5069 45.9323 80.5069 46.5742V54.7313C80.5069 55.373 79.9868 55.8934 79.3448 55.8934Z" fill="white"/>
<path d="M49.2729 45.4121H39.6551C39.0134 45.4121 38.493 45.9325 38.493 46.5742V54.7313C38.493 55.373 39.0134 55.8934 39.6551 55.8934H49.2729V45.4121Z" fill="#6583FE"/>
<path d="M74.2148 51.8147H54.1057C53.4637 51.8147 52.9435 51.2943 52.9435 50.6526C52.9435 50.0109 53.4637 49.4905 54.1057 49.4905H74.2148C74.8567 49.4905 75.3769 50.0109 75.3769 50.6526C75.3769 51.2943 74.8567 51.8147 74.2148 51.8147Z" fill="#0000CC"/>
<path d="M70.1356 67.5251H48.0137V69.8494H70.1356C70.7776 69.8494 71.2977 69.329 71.2977 68.6873C71.2977 68.0455 70.7773 67.5251 70.1356 67.5251Z" fill="#0000CC"/>
<path d="M57.3524 62.8882H48.0137V65.2124H57.3524C57.9944 65.2124 58.5145 64.692 58.5145 64.0503C58.5145 63.4086 57.9941 62.8882 57.3524 62.8882Z" fill="#0000CC"/>
<path d="M49.0122 64.0504C49.0122 61.9212 47.2799 60.1892 45.1509 60.1892C43.0217 60.1892 41.2897 61.9214 41.2897 64.0504C41.2897 65.1005 41.7123 66.0527 42.3947 66.7495C41.7123 67.4463 41.2897 68.3986 41.2897 69.4487C41.2897 70.0904 41.8101 70.6108 42.4518 70.6108C43.0935 70.6108 43.6139 70.0904 43.6139 69.4487C43.6139 68.601 44.3035 67.9117 45.1509 67.9117C45.9986 67.9117 46.688 68.6012 46.688 69.4487C46.688 70.0904 47.2083 70.6108 47.8501 70.6108C48.4918 70.6108 49.0122 70.0904 49.0122 69.4487C49.0122 68.3986 48.5896 67.4463 47.907 66.7495C48.5894 66.0527 49.0122 65.1005 49.0122 64.0504ZM45.1507 62.5132C45.9984 62.5132 46.6877 63.2028 46.6877 64.0502C46.6877 64.8976 45.9981 65.5872 45.1507 65.5872C44.3033 65.5872 43.6137 64.8976 43.6137 64.0502C43.6137 63.2028 44.3033 62.5132 45.1507 62.5132Z" fill="#0000CC"/>
<path d="M76.7773 77.7024H46.6159C45.974 77.7024 45.4538 77.182 45.4538 76.5403C45.4538 75.8986 45.974 75.3782 46.6159 75.3782H76.7773C77.4192 75.3782 77.9394 75.8986 77.9394 76.5403C77.9394 77.182 77.4192 77.7024 76.7773 77.7024Z" fill="#0000CC"/>
<path d="M42.2227 77.7159C42.8644 77.7159 43.3848 77.1955 43.3848 76.5538V76.5271C43.3848 75.8854 42.8644 75.365 42.2227 75.365C41.5809 75.365 41.0605 75.8854 41.0605 76.5271V76.5538C41.0605 77.1955 41.5807 77.7159 42.2227 77.7159Z" fill="#0000CC"/>
<path d="M79.5891 65.226C80.2309 65.226 80.7513 64.7056 80.7513 64.0638V64.0371C80.7513 63.3954 80.2309 62.875 79.5891 62.875C78.9474 62.875 78.427 63.3954 78.427 64.0371V64.0638C78.427 64.7058 78.9474 65.226 79.5891 65.226Z" fill="#0000CC"/>
<path d="M75.9245 65.226C76.5662 65.226 77.0866 64.7056 77.0866 64.0638V64.0371C77.0866 63.3954 76.5662 62.875 75.9245 62.875C75.2828 62.875 74.7624 63.3954 74.7624 64.0371V64.0638C74.7624 64.7058 75.2828 65.226 75.9245 65.226Z" fill="#0000CC"/>
<path d="M76.7773 82.2395H46.6159C45.974 82.2395 45.4538 81.7191 45.4538 81.0774C45.4538 80.4357 45.974 79.9153 46.6159 79.9153H76.7773C77.4192 79.9153 77.9394 80.4357 77.9394 81.0774C77.9394 81.7193 77.4192 82.2395 76.7773 82.2395Z" fill="#0000CC"/>
<path d="M42.2227 82.253C42.8644 82.253 43.3848 81.7327 43.3848 81.0909V81.0642C43.3848 80.4225 42.8644 79.9021 42.2227 79.9021C41.5809 79.9021 41.0605 80.4225 41.0605 81.0642V81.0909C41.0605 81.7327 41.5807 82.253 42.2227 82.253Z" fill="#0000CC"/>
<path d="M76.7773 86.7769H46.6159C45.974 86.7769 45.4538 86.2565 45.4538 85.6147C45.4538 84.973 45.974 84.4526 46.6159 84.4526H76.7773C77.4192 84.4526 77.9394 84.973 77.9394 85.6147C77.9394 86.2565 77.4192 86.7769 76.7773 86.7769Z" fill="#0000CC"/>
<path d="M42.2227 86.7904C42.8644 86.7904 43.3848 86.27 43.3848 85.6283V85.6016C43.3848 84.9598 42.8644 84.4395 42.2227 84.4395C41.5809 84.4395 41.0605 84.9598 41.0605 85.6016V85.6283C41.0605 86.27 41.5807 86.7904 42.2227 86.7904Z" fill="#0000CC"/>
<path d="M14.868 46.2792C14.2263 46.2792 13.7059 45.7589 13.7059 45.1171V45.0823C13.7059 44.4406 14.2263 43.9202 14.868 43.9202C15.5097 43.9202 16.0301 44.4406 16.0301 45.0823V45.1171C16.0301 45.7589 15.5097 46.2792 14.868 46.2792Z" fill="#6583FE"/>
<path d="M14.868 52.737C14.2263 52.737 13.7059 52.2166 13.7059 51.5749V51.54C13.7059 50.8983 14.2263 50.3779 14.868 50.3779C15.5097 50.3779 16.0301 50.8983 16.0301 51.54V51.5749C16.0301 52.2168 15.5097 52.737 14.868 52.737Z" fill="#6583FE"/>
<path d="M12.0856 47.8851C11.889 47.8851 11.6901 47.8351 11.5074 47.73L11.4772 47.7126C10.9208 47.3928 10.7292 46.6823 11.0493 46.1259C11.3693 45.5694 12.0794 45.3779 12.636 45.698L12.6662 45.7154C13.2227 46.0352 13.4142 46.7457 13.0941 47.3021C12.8794 47.6759 12.488 47.8851 12.0856 47.8851Z" fill="#6583FE"/>
<path d="M17.6782 51.1139C17.4823 51.1139 17.2838 51.0644 17.1016 50.9598L17.0713 50.9424C16.5145 50.6233 16.3218 49.9132 16.6407 49.3564C16.9598 48.7997 17.6701 48.6063 18.2267 48.9259L18.2569 48.9434C18.8138 49.2625 19.0065 49.9725 18.6876 50.5294C18.4731 50.9041 18.0812 51.1139 17.6782 51.1139V51.1139Z" fill="#6583FE"/>
<path d="M12.0578 51.1139C11.6554 51.1139 11.2643 50.9047 11.0493 50.5309C10.7292 49.9745 10.9208 49.264 11.4772 48.9442L11.5074 48.9268C12.064 48.6065 12.7743 48.7985 13.0941 49.3547C13.4142 49.9111 13.2227 50.6216 12.6662 50.9414L12.636 50.9588C12.4536 51.0641 12.2544 51.1139 12.0578 51.1139Z" fill="#6583FE"/>
<path d="M17.6503 47.8851C17.2473 47.8851 16.8556 47.6752 16.6409 47.3006C16.3218 46.7437 16.5147 46.0336 17.0715 45.7145L17.1018 45.6971C17.6586 45.3778 18.3687 45.5707 18.6878 46.1278C19.0069 46.6847 18.814 47.3947 18.2571 47.7138L18.2269 47.7313C18.0447 47.8356 17.8462 47.8851 17.6503 47.8851V47.8851Z" fill="#6583FE"/>
<path d="M17.6793 64.9285C17.0376 64.9285 16.5172 64.4081 16.5172 63.7664C16.5172 62.9547 15.8569 62.2944 15.0451 62.2944C14.4034 62.2944 13.883 61.774 13.883 61.1323C13.883 60.4906 14.4034 59.9702 15.0451 59.9702C15.8567 59.9702 16.5172 59.3099 16.5172 58.498C16.5172 57.8563 17.0376 57.3359 17.6793 57.3359C18.3211 57.3359 18.8415 57.8563 18.8415 58.498C18.8415 59.3097 19.5018 59.9702 20.3134 59.9702C20.9551 59.9702 21.4755 60.4906 21.4755 61.1323C21.4755 61.774 20.9551 62.2944 20.3134 62.2944C19.5018 62.2944 18.8415 62.9547 18.8415 63.7664C18.8415 64.4083 18.3213 64.9285 17.6793 64.9285Z" fill="#6583FE"/>
<path d="M103.169 38.7624C102.528 38.7624 102.007 38.2421 102.007 37.6003C102.007 36.7887 101.347 36.1282 100.535 36.1282C99.8935 36.1282 99.3733 35.6078 99.3733 34.9661C99.3733 34.3244 99.8935 33.804 100.535 33.804C101.347 33.804 102.007 33.1436 102.007 32.332C102.007 31.6903 102.528 31.1699 103.169 31.1699C103.811 31.1699 104.332 31.6903 104.332 32.332C104.332 33.1436 104.992 33.804 105.803 33.804C106.445 33.804 106.966 34.3244 106.966 34.9661C106.966 35.6078 106.445 36.1282 105.803 36.1282C104.992 36.1282 104.332 36.7885 104.332 37.6003C104.332 38.2421 103.811 38.7624 103.169 38.7624Z" fill="#6583FE"/>
<path d="M103.169 71.226C102.528 71.226 102.007 70.7056 102.007 70.0639V70.0291C102.007 69.3873 102.528 68.8669 103.169 68.8669C103.811 68.8669 104.332 69.3873 104.332 70.0291V70.0639C104.332 70.7056 103.811 71.226 103.169 71.226Z" fill="#6583FE"/>
<path d="M103.169 77.6835C102.528 77.6835 102.007 77.1632 102.007 76.5214V76.4866C102.007 75.8449 102.528 75.3245 103.169 75.3245C103.811 75.3245 104.332 75.8449 104.332 76.4866V76.5214C104.332 77.1634 103.811 77.6835 103.169 77.6835Z" fill="#6583FE"/>
<path d="M100.387 72.8318C100.19 72.8318 99.9915 72.7818 99.8088 72.6768L99.7786 72.6594C99.2224 72.3395 99.0307 71.629 99.3507 71.0726C99.6706 70.5162 100.381 70.3247 100.937 70.6447L100.968 70.6622C101.524 70.982 101.716 71.6925 101.396 72.2489C101.181 72.6226 100.789 72.8318 100.387 72.8318Z" fill="#6583FE"/>
<path d="M105.979 76.0605C105.783 76.0605 105.584 76.0106 105.401 75.9055L105.371 75.8881C104.814 75.5683 104.623 74.8578 104.943 74.3013C105.263 73.7452 105.973 73.5534 106.53 73.8734L106.56 73.8909C107.116 74.2107 107.308 74.9212 106.988 75.4776C106.773 75.8516 106.382 76.0605 105.979 76.0605Z" fill="#6583FE"/>
<path d="M100.359 76.0608C99.9567 76.0608 99.5658 75.8516 99.3508 75.4779C99.0307 74.9215 99.2222 74.2109 99.7786 73.8911L99.8089 73.8737C100.366 73.5536 101.076 73.7454 101.396 74.3016C101.716 74.858 101.524 75.5685 100.968 75.8883L100.938 75.9058C100.755 76.0111 100.556 76.0608 100.359 76.0608Z" fill="#6583FE"/>
<path d="M105.952 72.8319C105.549 72.8319 105.158 72.6227 104.943 72.249C104.623 71.6926 104.815 70.9821 105.371 70.6623L105.401 70.6448C105.958 70.325 106.668 70.5165 106.988 71.0727C107.308 71.6291 107.116 72.3397 106.56 72.6595L106.53 72.6769C106.347 72.7822 106.148 72.8319 105.952 72.8319Z" fill="#6583FE"/>
<path d="M104.044 89.4107C103.403 89.4107 102.882 88.8903 102.882 88.2485C102.882 87.4369 102.222 86.7766 101.41 86.7766C100.768 86.7766 100.248 86.2562 100.248 85.6145C100.248 84.9728 100.768 84.4524 101.41 84.4524C102.222 84.4524 102.882 83.7921 102.882 82.9805C102.882 82.3388 103.403 81.8184 104.044 81.8184C104.686 81.8184 105.207 82.3388 105.207 82.9805C105.207 83.7921 105.867 84.4524 106.679 84.4524C107.32 84.4524 107.841 84.9728 107.841 85.6145C107.841 86.2562 107.32 86.7766 106.679 86.7766C105.867 86.7766 105.207 87.4369 105.207 88.2485C105.207 88.8905 104.686 89.4107 104.044 89.4107Z" fill="#6583FE"/>
<path d="M79.3451 57.0555H39.6551C38.3735 57.0555 37.3309 56.0129 37.3309 54.7313V46.5742C37.3309 45.2926 38.3735 44.25 39.6551 44.25H79.3451C80.6266 44.25 81.6693 45.2926 81.6693 46.5742V54.7313C81.6693 56.0129 80.6264 57.0555 79.3451 57.0555ZM39.6551 46.5742V54.7313H79.3465L79.3451 46.5744H39.6551V46.5742Z" fill="#0000CC"/>
<defs>
<linearGradient id="paint0_linear" x1="14.8124" y1="83.506" x2="107.808" y2="29.8152" gradientUnits="userSpaceOnUse">
<stop stop-color="#D2DEFF" stop-opacity="0"/>
<stop offset="1" stop-color="#FF5842"/>
</linearGradient>
</defs>
</svg>
