<svg width="112" height="97" viewBox="0 0 112 97" fill="none" xmlns="http://www.w3.org/2000/svg">
<path d="M1.07108 63.3677C4.88783 101.183 65.0373 99.93 93.1217 93.1757C111.162 88.837 112.283 80.1662 111.957 61.6755C111.747 49.7566 112.711 18.2044 104.957 8.27354C93.046 -6.98056 82.3754 2.58648 67.6255 7.56588C48.7063 13.9527 41.3342 2.54951 23.3339 2.88923C-3.0563 3.38732 -0.898767 43.8504 1.07108 63.3677V63.3677Z" fill="url(#paint0_linear)"/>
<g opacity="0.1">
<path opacity="0.1" d="M91.1934 50.3049C83.8193 45.1076 68.3607 30.4023 53.3374 30.4023C49.1665 30.4023 44.9625 31.5365 40.9069 33.2848C41.3993 31.7888 41.6693 30.1919 41.6693 28.5309C41.6693 20.1353 34.8633 13.3291 26.4674 13.3291C18.0718 13.3291 11.2656 20.1351 11.2656 28.5309C11.2656 36.1756 16.9092 42.5003 24.257 43.5709C20.7388 46.2424 17.7312 48.7174 15.479 50.3049C14.2363 51.1807 14.2363 53.0152 15.479 53.8913C22.853 59.0885 38.3117 73.7938 53.335 73.7938C55.204 73.7938 57.0798 73.5658 58.9459 73.1574V85.7305C58.9459 86.9387 59.9253 87.918 61.1334 87.918H85.9526C87.1607 87.918 88.1401 86.9387 88.1401 85.7305V71.7677C88.1401 70.5596 87.1607 69.5802 85.9526 69.5802H68.6057C78.0139 64.8242 86.3485 57.3059 91.1932 53.8913C92.4361 53.0152 92.4361 51.1807 91.1934 50.3049V50.3049Z" fill="#2626BC"/>
<path opacity="0.1" d="M53.7956 78.782H49.7306C49.1266 78.782 48.6368 79.2715 48.6368 79.8757C48.6368 80.4799 49.1266 80.9695 49.7306 80.9695H53.7956C54.3996 80.9695 54.8894 80.4799 54.8894 79.8757C54.8894 79.2715 54.3996 78.782 53.7956 78.782Z" fill="#2626BC"/>
<path opacity="0.1" d="M53.7956 82.8032H40.9806C40.3766 82.8032 39.8868 83.2928 39.8868 83.897C39.8868 84.5012 40.3766 84.9907 40.9806 84.9907H53.7956C54.3996 84.9907 54.8894 84.5012 54.8894 83.897C54.8894 83.2928 54.3996 82.8032 53.7956 82.8032Z" fill="#2626BC"/>
<path opacity="0.1" d="M53.7956 86.824H40.9806C40.3766 86.824 39.8868 87.3135 39.8868 87.9177C39.8868 88.5219 40.3766 89.0115 40.9806 89.0115H53.7956C54.3996 89.0115 54.8894 88.5219 54.8894 87.9177C54.8894 87.3138 54.3996 86.824 53.7956 86.824Z" fill="#2626BC"/>
</g>
<path d="M26.4677 38.264C34.8634 38.264 41.6695 31.4579 41.6695 23.0622C41.6695 14.6664 34.8634 7.86035 26.4677 7.86035C18.072 7.86035 11.2659 14.6664 11.2659 23.0622C11.2659 31.4579 18.072 38.264 26.4677 38.264Z" fill="#6583FE"/>
<path d="M33.5414 19.8594H29.6706V15.9884C29.6706 14.7802 28.6912 13.8009 27.4831 13.8009H25.4526C24.2445 13.8009 23.2651 14.7802 23.2651 15.9884V19.8594H19.3939C18.1858 19.8594 17.2064 20.8387 17.2064 22.0469V24.0773C17.2064 25.2855 18.1858 26.2648 19.3939 26.2648H23.2647V30.1356C23.2647 31.3438 24.244 32.3231 25.4522 32.3231H27.4826C28.6908 32.3231 29.6701 31.3438 29.6701 30.1356V26.2648H33.5409C34.7491 26.2648 35.7284 25.2855 35.7284 24.0773V22.0469C35.7289 20.8387 34.7493 19.8594 33.5414 19.8594Z" fill="white"/>
<path d="M53.3373 24.9335C38.3123 24.9335 22.8532 39.6387 15.4792 44.836C14.2364 45.7119 14.2364 47.5463 15.4792 48.4224C22.8532 53.6197 38.3118 68.3249 53.3352 68.3249C68.3602 68.3249 83.8193 53.6197 91.1933 48.4224C92.4361 47.5465 92.4361 45.7121 91.1933 44.836C83.8193 39.6387 68.3607 24.9335 53.3373 24.9335V24.9335Z" fill="white"/>
<path d="M69.4551 49.1537C70.825 40.2496 64.7173 31.921 55.8132 30.5511C46.9091 29.1812 38.5804 35.2889 37.2106 44.193C35.8407 53.0971 41.9484 61.4258 50.8525 62.7957C59.7566 64.1655 68.0853 58.0578 69.4551 49.1537Z" fill="#6583FE"/>
<path d="M62.752 48.1401C63.6061 42.9366 60.0802 38.026 54.8767 37.172C49.6733 36.3179 44.7627 39.8438 43.9086 45.0473C43.0545 50.2507 46.5804 55.1614 51.7839 56.0154C56.9874 56.8695 61.898 53.3436 62.752 48.1401Z" fill="#6583FE"/>
<path d="M53.3363 57.269C47.4697 57.269 42.6968 52.4961 42.6968 46.6293C42.6968 40.7626 47.4697 35.9895 53.3363 35.9895C59.203 35.9895 63.9759 40.7624 63.9759 46.6293C63.9759 52.4961 59.2032 57.269 53.3363 57.269ZM53.3363 38.1772C48.6759 38.1772 44.8843 41.9688 44.8843 46.6295C44.8843 51.2902 48.6759 55.0818 53.3363 55.0818C57.9968 55.0818 61.7884 51.2902 61.7884 46.6295C61.7884 41.9688 57.9968 38.1772 53.3363 38.1772Z" fill="#0000CC"/>
<path d="M59.2323 44.9423C61.5567 44.9423 63.4411 43.058 63.4411 40.7335C63.4411 38.4091 61.5567 36.5248 59.2323 36.5248C56.9079 36.5248 55.0236 38.4091 55.0236 40.7335C55.0236 43.058 56.9079 44.9423 59.2323 44.9423Z" fill="white"/>
<path d="M62.3 44.6812C63.5485 44.6812 64.5605 43.6691 64.5605 42.4206C64.5605 41.1721 63.5485 40.16 62.3 40.16C61.0515 40.16 60.0394 41.1721 60.0394 42.4206C60.0394 43.6691 61.0515 44.6812 62.3 44.6812Z" fill="white"/>
<path d="M85.9527 82.4491H61.1335C59.9254 82.4491 58.946 81.4698 58.946 80.2616V66.2988C58.946 65.0907 59.9254 64.1113 61.1335 64.1113H85.9527C87.1609 64.1113 88.1402 65.0907 88.1402 66.2988V80.2616C88.1402 81.4698 87.1609 82.4491 85.9527 82.4491Z" fill="white"/>
<path d="M81.758 70.0112H77.693C77.0888 70.0112 76.5992 69.5214 76.5992 68.9175C76.5992 68.3135 77.0888 67.8237 77.693 67.8237H81.758C82.3622 67.8237 82.8518 68.3135 82.8518 68.9175C82.8518 69.5214 82.362 70.0112 81.758 70.0112Z" fill="#0000CC"/>
<path d="M81.758 74.032H68.943C68.3388 74.032 67.8492 73.5422 67.8492 72.9382C67.8492 72.3343 68.3388 71.8445 68.943 71.8445H81.758C82.3622 71.8445 82.8518 72.3343 82.8518 72.9382C82.8518 73.5424 82.362 74.032 81.758 74.032Z" fill="#0000CC"/>
<path d="M81.758 78.0532H68.943C68.3388 78.0532 67.8492 77.5634 67.8492 76.9595C67.8492 76.3555 68.3388 75.8657 68.943 75.8657H81.758C82.3622 75.8657 82.8518 76.3555 82.8518 76.9595C82.8518 77.5634 82.362 78.0532 81.758 78.0532Z" fill="#0000CC"/>
<path d="M91.8236 43.9421C90.5098 43.0161 88.9361 41.7841 87.1139 40.3574C78.7124 33.7801 66.0162 23.8398 53.3376 23.8398C49.6919 23.8398 46.0449 24.6626 42.499 25.9899C42.6736 25.0281 42.7635 24.0492 42.7635 23.0624C42.7635 14.077 35.4535 6.76685 26.4679 6.76685C17.4823 6.76685 10.1721 14.077 10.1721 23.0624C10.1721 28.646 12.9828 33.7794 17.6908 36.7942C17.8734 36.911 18.0775 36.967 18.2794 36.967C18.6399 36.967 18.9928 36.789 19.2015 36.4628C19.5272 35.9542 19.3789 35.2776 18.8703 34.9519C14.7934 32.3411 12.3596 27.8966 12.3596 23.0622C12.3596 15.283 18.6885 8.95413 26.4677 8.95413C34.2469 8.95413 40.5757 15.283 40.5757 23.0622C40.5757 24.4051 40.3854 25.7301 40.0149 27.0056C32.1808 30.4767 24.9762 36.1161 19.5582 40.3577C17.7361 41.7841 16.1626 43.0161 14.8492 43.9419C13.9753 44.5577 13.4536 45.5624 13.4536 46.629C13.4536 47.6956 13.9753 48.7003 14.8492 49.3161C16.1626 50.2419 17.7363 51.4739 19.5582 52.9006C27.9598 59.4782 40.6565 69.4186 53.3352 69.4186C54.8433 69.4186 56.3513 69.2762 57.8524 69.017V80.2614C57.8524 82.0709 59.3241 83.5426 61.1336 83.5426H72.8022C73.4064 83.5426 73.896 83.0531 73.896 82.4489C73.896 81.8447 73.4064 81.3551 72.8022 81.3551H61.1336C60.5306 81.3551 60.0399 80.8645 60.0399 80.2614V66.2986C60.0399 65.6955 60.5306 65.2048 61.1336 65.2048H85.953C86.5561 65.2048 87.0468 65.6955 87.0468 66.2986V80.2614C87.0468 80.8645 86.5561 81.3551 85.953 81.3551H79.1678C78.5636 81.3551 78.0741 81.8447 78.0741 82.4489C78.0741 83.0531 78.5636 83.5426 79.1678 83.5426H85.953C87.7623 83.5426 89.2343 82.0709 89.2343 80.2614V66.2986C89.2343 64.4891 87.7623 63.0173 85.953 63.0173H72.872C78.269 59.822 83.1666 55.9913 87.1144 52.9006C88.9363 51.4741 90.51 50.2421 91.8234 49.3161C92.6975 48.7003 93.2195 47.6956 93.2195 46.629C93.2195 45.5626 92.6975 44.5579 91.8236 43.9421ZM90.5632 47.5285C89.2047 48.486 87.6112 49.7337 85.7656 51.1786C81.055 54.8665 74.9534 59.637 68.345 63.0177H61.1334C59.3239 63.0177 57.8522 64.4895 57.8522 66.299V66.7962C56.3461 67.0769 54.8372 67.2315 53.335 67.2315C41.4107 67.2315 29.0717 57.5711 20.9066 51.1786C19.0612 49.7337 17.4677 48.486 16.1092 47.5285C15.8115 47.3187 15.6409 46.991 15.6409 46.6294C15.6409 46.2678 15.8115 45.9402 16.1092 45.7304C17.4677 44.7729 19.0612 43.5254 20.9066 42.0805C29.0719 35.688 41.4114 26.0276 53.3374 26.0276C65.2615 26.0276 77.6003 35.6878 85.7653 42.0801C87.6107 43.5249 89.2047 44.7729 90.5634 45.7304C90.8609 45.9402 91.032 46.2678 91.032 46.6294C91.032 46.991 90.8609 47.3187 90.5632 47.5285Z" fill="#0000CC"/>
<path d="M53.7954 73.3132H49.7306C49.1266 73.3132 48.6368 73.8028 48.6368 74.407C48.6368 75.0112 49.1266 75.5007 49.7306 75.5007H53.7956C54.3996 75.5007 54.8894 75.0112 54.8894 74.407C54.8892 73.8028 54.3996 73.3132 53.7954 73.3132Z" fill="#0000CC"/>
<path d="M53.7954 77.3342H40.9806C40.3766 77.3342 39.8868 77.8238 39.8868 78.428C39.8868 79.0322 40.3766 79.5217 40.9806 79.5217H53.7956C54.3996 79.5217 54.8894 79.0322 54.8894 78.428C54.8892 77.824 54.3996 77.3342 53.7954 77.3342Z" fill="#0000CC"/>
<path d="M53.7954 81.3552H40.9806C40.3766 81.3552 39.8868 81.8448 39.8868 82.449C39.8868 83.0532 40.3766 83.5427 40.9806 83.5427H53.7956C54.3996 83.5427 54.8894 83.0532 54.8894 82.449C54.8892 81.845 54.3996 81.3552 53.7954 81.3552Z" fill="#0000CC"/>
<path d="M21.3709 71.3966C20.767 71.3966 20.2772 70.9071 20.2772 70.3029C20.2772 69.539 19.6557 68.9175 18.8918 68.9175C18.2879 68.9175 17.7981 68.428 17.7981 67.8238C17.7981 67.2196 18.2879 66.73 18.8918 66.73C19.6557 66.73 20.2772 66.1084 20.2772 65.3445C20.2772 64.7403 20.767 64.2507 21.3709 64.2507C21.9749 64.2507 22.4647 64.7403 22.4647 65.3445C22.4647 66.1084 23.0862 66.73 23.8503 66.73C24.4542 66.73 24.944 67.2196 24.944 67.8238C24.944 68.428 24.4542 68.9175 23.8503 68.9175C23.0864 68.9175 22.4647 69.539 22.4647 70.3029C22.4647 70.9071 21.9749 71.3966 21.3709 71.3966Z" fill="#6583FE"/>
<path d="M98.2547 63.4645C97.6505 63.4645 97.161 62.975 97.161 62.3708C97.161 61.6069 96.5395 60.9854 95.7756 60.9854C95.1714 60.9854 94.6819 60.4959 94.6819 59.8917C94.6819 59.2875 95.1714 58.7979 95.7756 58.7979C96.5395 58.7979 97.161 58.1765 97.161 57.4126C97.161 56.8084 97.6505 56.3188 98.2547 56.3188C98.8589 56.3188 99.3485 56.8084 99.3485 57.4126C99.3485 58.1765 99.9702 58.7979 100.734 58.7979C101.338 58.7979 101.828 59.2875 101.828 59.8917C101.828 60.4959 101.338 60.9854 100.734 60.9854C99.9702 60.9854 99.3485 61.6069 99.3485 62.3708C99.3485 62.975 98.8589 63.4645 98.2547 63.4645Z" fill="#6583FE"/>
<path d="M65.92 21.5865C65.3158 21.5865 64.8263 21.0969 64.8263 20.4927C64.8263 19.7288 64.2048 19.1074 63.4409 19.1074C62.8367 19.1074 62.3472 18.6178 62.3472 18.0136C62.3472 17.4094 62.8367 16.9199 63.4409 16.9199C64.2048 16.9199 64.8263 16.2982 64.8263 15.5343C64.8263 14.9301 65.3158 14.4406 65.92 14.4406C66.5242 14.4406 67.0138 14.9301 67.0138 15.5343C67.0138 16.2982 67.6355 16.9199 68.3993 16.9199C69.0035 16.9199 69.4931 17.4094 69.4931 18.0136C69.4931 18.6178 69.0035 19.1074 68.3993 19.1074C67.6355 19.1074 67.0138 19.7288 67.0138 20.4927C67.0138 21.0969 66.524 21.5865 65.92 21.5865Z" fill="#6583FE"/>
<path d="M26.4675 74.7411C25.8636 74.7411 25.3738 74.2515 25.3738 73.6473V73.6145C25.3738 73.0103 25.8636 72.5208 26.4675 72.5208C27.0715 72.5208 27.5613 73.0103 27.5613 73.6145V73.6473C27.5613 74.2515 27.0715 74.7411 26.4675 74.7411Z" fill="#6583FE"/>
<path d="M26.4675 80.8189C25.8636 80.8189 25.3738 80.3294 25.3738 79.7252V79.6924C25.3738 79.0882 25.8636 78.5986 26.4675 78.5986C27.0715 78.5986 27.5613 79.0882 27.5613 79.6924V79.7252C27.5613 80.3294 27.0715 80.8189 26.4675 80.8189Z" fill="#6583FE"/>
<path d="M23.8492 76.2523C23.6657 76.2523 23.48 76.2061 23.3091 76.109L23.2807 76.0928C22.7557 75.794 22.5724 75.126 22.8712 74.6012C23.1702 74.0762 23.8383 73.8935 24.3628 74.1917L24.3913 74.2079C24.9163 74.5067 25.0996 75.1747 24.8008 75.6995C24.5991 76.0537 24.2294 76.2523 23.8492 76.2523V76.2523Z" fill="#6583FE"/>
<path d="M29.1126 79.2915C28.9267 79.2915 28.7383 79.244 28.5655 79.144L28.5371 79.1276C28.0143 78.8249 27.8358 78.156 28.1385 77.6331C28.441 77.1101 29.1098 76.9314 29.6332 77.2346L29.6617 77.251C30.1845 77.5537 30.363 78.2227 30.0602 78.7455C29.8574 79.0957 29.4902 79.2915 29.1126 79.2915Z" fill="#6583FE"/>
<path d="M23.8227 79.2915C23.4445 79.2915 23.0767 79.0953 22.8742 78.744C22.5723 78.2208 22.7519 77.5521 23.2751 77.2502L23.3036 77.2338C23.8266 76.9317 24.4955 77.1115 24.7974 77.6347C25.0993 78.158 24.9197 78.8267 24.3965 79.1286L24.368 79.145C24.1959 79.2443 24.008 79.2915 23.8227 79.2915V79.2915Z" fill="#6583FE"/>
<path d="M29.0861 76.2524C28.7063 76.2524 28.3373 76.0545 28.1354 75.701C27.8357 75.1766 28.0179 74.5086 28.5425 74.2089L28.5709 74.1927C29.095 73.893 29.7635 74.075 30.0632 74.5996C30.3629 75.1239 30.1807 75.792 29.6561 76.0917L29.6277 76.1079C29.4566 76.2059 29.2703 76.2524 29.0861 76.2524Z" fill="#6583FE"/>
<path d="M53.7954 11.8726C53.1914 11.8726 52.7017 11.383 52.7017 10.7788V10.7462C52.7017 10.142 53.1914 9.65247 53.7954 9.65247C54.3994 9.65247 54.8892 10.142 54.8892 10.7462V10.7788C54.8892 11.3828 54.3996 11.8726 53.7954 11.8726Z" fill="#6583FE"/>
<path d="M53.7954 17.9503C53.1914 17.9503 52.7017 17.4608 52.7017 16.8566V16.824C52.7017 16.2198 53.1914 15.7302 53.7954 15.7302C54.3994 15.7302 54.8892 16.2198 54.8892 16.824V16.8566C54.8892 17.4605 54.3996 17.9503 53.7954 17.9503Z" fill="#6583FE"/>
<path d="M51.1769 13.3842C50.991 13.3842 50.8024 13.3367 50.6298 13.2367L50.6014 13.2203C50.0786 12.9176 49.9001 12.2486 50.2028 11.7258C50.5054 11.2028 51.1743 11.0243 51.6976 11.3273L51.726 11.3437C52.2488 11.6464 52.4273 12.3153 52.1246 12.8382C51.9218 13.1884 51.5545 13.3842 51.1769 13.3842V13.3842Z" fill="#6583FE"/>
<path d="M56.4405 16.4229C56.2543 16.4229 56.0662 16.3754 55.8934 16.2754L55.865 16.259C55.3421 15.9563 55.1636 15.2874 55.4664 14.7645C55.7691 14.2415 56.4385 14.0632 56.9609 14.366L56.9893 14.3824C57.5121 14.6851 57.6906 15.3541 57.3879 15.8769C57.1853 16.2273 56.8178 16.4229 56.4405 16.4229V16.4229Z" fill="#6583FE"/>
<path d="M51.1505 16.4227C50.7729 16.4227 50.4056 16.2269 50.2028 15.8767C49.9001 15.3538 50.0786 14.6849 50.6014 14.3822L50.6298 14.3658C51.1531 14.0626 51.8218 14.2415 52.1246 14.7643C52.4273 15.2871 52.2488 15.9561 51.726 16.2588L51.6976 16.2752C51.525 16.3752 51.3366 16.4227 51.1505 16.4227V16.4227Z" fill="#6583FE"/>
<path d="M56.4143 13.3841C56.0367 13.3841 55.6694 13.1883 55.4666 12.8381C55.1639 12.3152 55.3424 11.6463 55.8652 11.3436L55.8936 11.3272C56.4171 11.0242 57.0858 11.2031 57.3884 11.7257C57.6911 12.2485 57.5124 12.9175 56.9898 13.2202L56.9614 13.2366C56.7885 13.3366 56.6 13.3841 56.4143 13.3841V13.3841Z" fill="#6583FE"/>
<defs>
<linearGradient id="paint0_linear" x1="21.1147" y1="91.6827" x2="97.2749" y2="0.918295" gradientUnits="userSpaceOnUse">
<stop stop-color="#D2DEFF" stop-opacity="0"/>
<stop offset="1" stop-color="#9C69E2"/>
</linearGradient>
</defs>
</svg>
