<svg width="95" height="95" viewBox="0 0 95 95" fill="none" xmlns="http://www.w3.org/2000/svg">
<path d="M63.7689 78.6477H23.6578C17.8012 78.6477 13.0536 73.9001 13.0536 68.0435V20.2368C13.0536 14.3802 17.8012 9.63257 23.6578 9.63257H63.7689C69.6255 9.63257 74.3731 14.3802 74.3731 20.2368V68.0435C74.3733 73.8999 69.6255 78.6477 63.7689 78.6477Z" fill="#F9F6F9"/>
<path d="M28.7013 78.6483H23.6593C17.8008 78.6483 13.0536 73.9012 13.0536 68.0426V20.2368C13.0536 14.3802 17.8006 9.63318 23.6593 9.63318H28.7013C22.8447 9.63318 18.0977 14.3802 18.0977 20.2368V68.0428C18.0977 73.9012 22.8447 78.6483 28.7013 78.6483Z" fill="#DDDAEC"/>
<path d="M52.7252 7.51292C51.3022 3.92796 47.8052 1.39172 43.7136 1.39172C39.6219 1.39172 36.1247 3.92796 34.7017 7.51292H31.2869C27.6229 7.51292 24.6527 10.4831 24.6527 14.1471C24.6527 17.8111 27.6229 20.7814 31.2869 20.7814H56.1402C59.8042 20.7814 62.7744 17.8111 62.7744 14.1471C62.7744 10.4831 59.8042 7.51292 56.1402 7.51292H52.7252Z" fill="#FFE07D"/>
<path d="M46.8743 1.92072C44.2008 2.84011 42.0607 4.89745 41.0218 7.51255H37.6064C33.9426 7.51255 30.9719 10.4832 30.9719 14.1471C30.9719 15.9779 31.7155 17.6373 32.916 18.8376C34.1163 20.0399 35.7734 20.7816 37.6064 20.7816H31.2871C29.4561 20.7816 27.797 20.0399 26.5967 18.8376C25.3943 17.6373 24.6525 15.9779 24.6525 14.1471C24.6525 10.4833 27.6233 7.51255 31.2871 7.51255H34.7004C36.125 3.9276 39.6213 1.39136 43.7135 1.39136C44.8211 1.39136 45.8841 1.57728 46.8743 1.92072V1.92072Z" fill="#F1CE64"/>
<path d="M43.7134 15.053C45.9041 15.053 47.68 13.2771 47.68 11.0864C47.68 8.89567 45.9041 7.11975 43.7134 7.11975C41.5227 7.11975 39.7467 8.89567 39.7467 11.0864C39.7467 13.2771 41.5227 15.053 43.7134 15.053Z" fill="#407093"/>
<path d="M13.0536 47.2792C19.4943 47.2792 24.7156 42.0579 24.7156 35.6172C24.7156 29.1765 19.4943 23.9552 13.0536 23.9552C6.61285 23.9552 1.3916 29.1765 1.3916 35.6172C1.3916 42.0579 6.61285 47.2792 13.0536 47.2792Z" fill="#E28086"/>
<path d="M16.0864 46.8802C15.1197 47.1405 14.1042 47.2793 13.0552 47.2793C6.61408 47.2793 1.39261 42.0578 1.39261 35.6168C1.39261 29.1757 6.61408 23.9542 13.0552 23.9542C14.1042 23.9542 15.1197 24.0928 16.0864 24.3533C11.1142 25.6854 7.45331 30.2231 7.45331 35.617C7.45331 41.0108 11.1142 45.548 16.0864 46.8802V46.8802Z" fill="#DD636E"/>
<path d="M36.0657 70.2011C42.5064 70.2011 47.7277 64.9798 47.7277 58.5391C47.7277 52.0983 42.5064 46.8771 36.0657 46.8771C29.6249 46.8771 24.4037 52.0983 24.4037 58.5391C24.4037 64.9798 29.6249 70.2011 36.0657 70.2011Z" fill="#A2E19F"/>
<path d="M39.0975 69.8012C38.1308 70.0615 37.1153 70.2003 36.0662 70.2003C29.6252 70.2003 24.4037 64.9789 24.4037 58.5378C24.4037 52.0967 29.6252 46.8752 36.0662 46.8752C37.1153 46.8752 38.1308 47.0138 39.0975 47.2744C34.1252 48.6064 30.4644 53.1441 30.4644 58.538C30.4644 63.9316 34.1252 68.4692 39.0975 69.8012Z" fill="#97CF92"/>
<path d="M59.0777 93.1214C65.5185 93.1214 70.7397 87.9001 70.7397 81.4594C70.7397 75.0186 65.5185 69.7974 59.0777 69.7974C52.637 69.7974 47.4157 75.0186 47.4157 81.4594C47.4157 87.9001 52.637 93.1214 59.0777 93.1214Z" fill="#6583FE"/>
<path d="M62.1096 92.7224C61.1429 92.9827 60.1274 93.1215 59.0783 93.1215C52.6372 93.1215 47.4157 87.9 47.4157 81.4589C47.4157 75.0179 52.6372 69.7964 59.0783 69.7964C60.1274 69.7964 61.1429 69.935 62.1096 70.1955C57.1373 71.5275 53.4764 76.0653 53.4764 81.4591C53.4764 86.8528 57.1373 91.3903 62.1096 92.7224Z" fill="#6583FE"/>
<path d="M63.7706 8.23958H61.5659C60.1363 6.92535 58.2306 6.12119 56.14 6.12119H53.6262C51.7566 2.37314 47.9628 0 43.7134 0C39.4642 0 35.6701 2.37314 33.8005 6.12119H31.2869C29.196 6.12119 27.2899 6.92554 25.86 8.24032H23.658C17.0436 8.24032 11.6624 13.6216 11.6624 20.2359V22.6376C5.11627 23.3349 0 28.8889 0 35.6166C0 42.3444 5.11627 47.8984 11.6622 48.5953V68.0426C11.6622 74.6581 17.0434 80.0403 23.6578 80.0403H46.1025C46.0518 80.5066 46.024 80.9795 46.024 81.459C46.024 88.6567 51.8798 94.5128 59.0776 94.5128C66.2753 94.5128 72.1312 88.6569 72.1312 81.459C72.1312 79.9935 71.8848 78.5854 71.4374 77.2693C74.1661 74.9997 75.766 71.6261 75.766 68.0432V28.8835C75.766 28.115 75.143 27.4919 74.3744 27.4919C73.6059 27.4919 72.9828 28.115 72.9828 28.8835V68.0432C72.9828 70.5468 71.9632 72.9158 70.2007 74.6362C67.9014 70.9014 63.776 68.4052 59.0774 68.4052C53.3496 68.4052 48.4751 72.1152 46.7216 77.2571H23.6578C18.5781 77.2571 14.4454 73.1235 14.4454 68.0426V48.5953C20.9911 47.8982 26.1074 42.3442 26.1074 35.6166C26.1074 28.8891 20.9913 23.3351 14.4454 22.638V20.2363C14.4454 15.1566 18.5781 11.0239 23.6578 11.0239H23.8938C23.4865 11.9845 23.2611 13.04 23.2611 14.1472C23.2611 18.5727 26.8614 22.173 31.2869 22.173H56.1402C60.5657 22.173 64.1658 18.5727 64.1658 14.1472C64.1658 13.0395 63.9402 11.9837 63.5327 11.023H63.7708C68.8505 11.023 72.9832 15.1564 72.9832 20.2372V23.3208C72.9832 24.0894 73.6063 24.7124 74.3748 24.7124C75.1433 24.7124 75.7664 24.0894 75.7664 23.3208V20.237C75.7662 13.6217 70.385 8.23958 63.7706 8.23958ZM59.0776 71.1884C64.7406 71.1884 69.348 75.7957 69.348 81.4588C69.348 87.1219 64.7406 91.7294 59.0776 91.7294C53.4145 91.7294 48.8072 87.1221 48.8072 81.4588C48.8072 75.7957 53.4145 71.1884 59.0776 71.1884ZM23.3242 35.6166C23.3242 41.2797 18.7169 45.8872 13.0536 45.8872C7.39052 45.887 2.7832 41.2797 2.7832 35.6166C2.7832 29.9536 7.39052 25.3463 13.0536 25.3463C18.7169 25.3463 23.3242 29.9536 23.3242 35.6166ZM56.14 19.3898H31.2869C28.3961 19.3898 26.0443 17.038 26.0443 14.1472C26.0443 11.2564 28.3961 8.90458 31.2869 8.90458H34.7017C35.2721 8.90458 35.7848 8.55649 35.9952 8.02639C37.2593 4.84129 40.2889 2.78339 43.7134 2.78339C47.138 2.78339 50.1676 4.84129 51.4317 8.02639C51.6422 8.55649 52.1548 8.90458 52.7252 8.90458H56.14C59.0308 8.90458 61.3824 11.2564 61.3824 14.1472C61.3824 17.038 59.0308 19.3898 56.14 19.3898Z" fill="black"/>
<path d="M43.7134 5.72827C40.7587 5.72827 38.3551 8.13203 38.3551 11.0867C38.3551 14.0413 40.7589 16.4449 43.7134 16.4449C46.6678 16.4449 49.0716 14.0411 49.0716 11.0867C49.0716 8.13222 46.668 5.72827 43.7134 5.72827V5.72827ZM43.7134 13.6617C42.2934 13.6617 41.1383 12.5065 41.1383 11.0867C41.1383 9.66687 42.2936 8.51147 43.7134 8.51147C45.1332 8.51147 46.2884 9.66669 46.2884 11.0867C46.2884 12.5067 45.1333 13.6617 43.7134 13.6617V13.6617Z" fill="black"/>
<path d="M9.42743 29.6036C9.42743 30.3722 10.0505 30.9952 10.819 30.9952H12.023V41.7475C12.023 42.516 12.6461 43.1391 13.4146 43.1391C14.1832 43.1391 14.8062 42.516 14.8062 41.7475V29.6036C14.8062 28.8351 14.1832 28.212 13.4146 28.212H10.819C10.0505 28.212 9.42743 28.8351 9.42743 29.6036Z" fill="black"/>
<path d="M40.1822 56.2383C40.1928 56.1926 40.2012 56.1466 40.2069 56.1002L40.2668 55.6306C40.2744 55.5722 40.2782 55.5133 40.2782 55.4543C40.2782 52.9736 38.26 50.9552 35.7792 50.9552C33.6343 50.9552 31.7777 52.4813 31.3647 54.5838C31.2166 55.3378 31.7077 56.0694 32.462 56.2175C33.2159 56.365 33.9475 55.8744 34.0957 55.1202C34.2531 54.3195 34.9611 53.7384 35.7792 53.7384C36.6999 53.7384 37.4536 54.4674 37.4933 55.3786L37.4558 55.6718C37.3046 56.2696 36.948 56.9727 36.3952 57.7625C34.4718 60.5107 33.324 62.0134 32.7075 62.8209C31.9436 63.8212 31.5948 64.2778 31.8319 65.0482C31.971 65.5012 32.3141 65.8485 32.7726 66.0016C32.9581 66.0634 33.1365 66.1229 35.4964 66.1229C36.4232 66.1229 37.6864 66.1138 39.4187 66.0919C40.1872 66.0823 40.8023 65.4514 40.7927 64.6829C40.783 63.9144 40.1538 63.2978 39.3836 63.3089C38.1683 63.3243 36.8789 63.3343 35.8076 63.3364C36.4809 62.4357 37.4152 61.159 38.6754 59.3582C39.4527 58.2479 39.9596 57.1981 40.1822 56.2383V56.2383Z" fill="black"/>
<path d="M27.7545 66.8362C27.2785 67.4396 27.3819 68.3146 27.9853 68.7907C30.3078 70.6226 33.1016 71.5908 36.0649 71.5908C43.2634 71.5908 49.12 65.7351 49.12 58.5376C49.12 51.34 43.2636 45.4844 36.0649 45.4844C28.8674 45.4844 23.0117 51.34 23.0117 58.5376C23.0117 60.4422 23.4138 62.2795 24.2064 63.9984C24.5282 64.6963 25.3548 65.0011 26.053 64.6792C26.7508 64.3573 27.0557 63.5307 26.7338 62.8326C26.1107 61.4819 25.7947 60.0368 25.7947 58.5374C25.7947 52.8745 30.4018 48.2674 36.0647 48.2674C41.7286 48.2674 46.3366 52.8745 46.3366 58.5374C46.3366 64.2003 41.7287 68.8074 36.0647 68.8074C33.7332 68.8074 31.5352 68.0459 29.7088 66.6052C29.1054 66.1294 28.2304 66.2328 27.7545 66.8362V66.8362Z" fill="black"/>
<path d="M59.1486 86.4589C58.2973 86.4589 57.5668 85.8249 57.4496 84.9844C57.4384 84.9051 57.4329 84.824 57.4329 84.7431C57.4329 83.9746 56.8098 83.3515 56.0413 83.3515C55.2727 83.3515 54.6497 83.9746 54.6497 84.7431C54.6497 84.9521 54.6643 85.1627 54.6929 85.369C55.0011 87.577 56.9165 89.2423 59.1486 89.2423C61.6294 89.2423 63.6476 87.2241 63.6476 84.7433C63.6476 83.5393 63.1722 82.4442 62.3992 81.636C63.1722 80.8277 63.6476 79.7326 63.6476 78.5286C63.6476 76.0479 61.6294 74.0297 59.1486 74.0297C57.0035 74.0297 55.1469 75.5556 54.7341 77.6582C54.586 78.4123 55.0774 79.1437 55.8314 79.292C56.5855 79.4398 57.3171 78.9487 57.4652 78.1946C57.6223 77.394 58.3304 76.8131 59.1486 76.8131C60.0947 76.8131 60.8644 77.5827 60.8644 78.5288C60.8644 79.4749 60.0947 80.2446 59.1486 80.2446C58.3801 80.2446 57.757 80.8676 57.757 81.6362C57.757 82.4047 58.3801 83.0278 59.1486 83.0278C60.0947 83.0278 60.8644 83.7974 60.8644 84.7435C60.8644 85.6896 60.0946 86.4589 59.1486 86.4589Z" fill="black"/>
<path d="M55.7505 32.0994C55.7505 31.3308 55.1275 30.7078 54.3589 30.7078H32.7301C31.9616 30.7078 31.3385 31.3308 31.3385 32.0994C31.3385 32.8679 31.9616 33.491 32.7301 33.491H54.3589C55.1275 33.491 55.7505 32.8679 55.7505 32.0994Z" fill="black"/>
<path d="M47.1627 40.5255C47.9312 40.5255 48.5543 39.9024 48.5543 39.1339C48.5543 38.3654 47.9312 37.7423 47.1627 37.7423H32.7301C31.9616 37.7423 31.3385 38.3654 31.3385 39.1339C31.3385 39.9024 31.9616 40.5255 32.7301 40.5255H47.1627Z" fill="black"/>
<path d="M70.6974 55.0206C70.6974 54.2521 70.0744 53.629 69.3058 53.629H51.9465C51.1779 53.629 50.5549 54.2521 50.5549 55.0206C50.5549 55.7892 51.1779 56.4122 51.9465 56.4122H69.3058C70.0744 56.4122 70.6974 55.7892 70.6974 55.0206Z" fill="black"/>
<path d="M51.9465 60.6635C51.1779 60.6635 50.5549 61.2865 50.5549 62.0551C50.5549 62.8236 51.1779 63.4467 51.9465 63.4467H62.1096C62.8781 63.4467 63.5012 62.8236 63.5012 62.0551C63.5012 61.2865 62.8781 60.6635 62.1096 60.6635H51.9465Z" fill="black"/>
<path d="M93.6084 76.5502H77.3224C76.5538 76.5502 75.9308 77.1732 75.9308 77.9418C75.9308 78.7103 76.5538 79.3334 77.3224 79.3334H93.6084C94.3769 79.3334 95 78.7103 95 77.9418C95 77.1732 94.3769 76.5502 93.6084 76.5502Z" fill="black"/>
<path d="M86.4121 83.5844H77.3222C76.5536 83.5844 75.9306 84.2074 75.9306 84.976C75.9306 85.7445 76.5536 86.3676 77.3222 86.3676H86.4121C87.1807 86.3676 87.8037 85.7445 87.8037 84.976C87.8037 84.2074 87.1807 83.5844 86.4121 83.5844Z" fill="black"/>
</svg>
