<svg width="105" height="98" viewBox="0 0 105 98" fill="none" xmlns="http://www.w3.org/2000/svg">
<path d="M4.17062 23.6854C-0.744485 31.765 -1.26251 45.7544 2.33784 54.4996C5.49133 62.1594 11.7645 69.3491 19.9992 70.2498C23.0273 70.581 26.1224 70.0398 29.1194 70.5857C39.4262 72.4626 43.2599 85.1647 51.2699 91.9167C56.8445 96.6156 64.5791 98.2784 71.8134 97.3732C79.0477 96.468 85.8206 93.1972 91.7831 89.0011C96.4911 85.6876 100.896 81.6138 103.219 76.3463C108.088 65.3051 102.36 52.0444 93.46 43.895C90.6882 41.3567 87.5987 39.1179 85.2825 36.158C82.9666 33.1979 81.4927 29.2479 82.5962 25.6551C83.4766 22.7888 85.8465 20.5667 86.7443 17.7057C87.9662 13.8125 86.1219 9.44515 83.0935 6.71022C80.0651 3.97551 76.0577 2.60066 72.0878 1.6571C55.4553 -2.29701 19.0088 -0.706223 4.17062 23.6854V23.6854Z" fill="url(#paint0_linear)"/>
<g opacity="0.1">
<g opacity="0.1">
<path opacity="0.1" d="M50.9481 21.8549H54.7591C55.3253 21.8549 55.7845 21.3959 55.7845 20.8295C55.7845 20.263 55.3253 19.8041 54.7591 19.8041H50.9481C50.3819 19.8041 49.9227 20.263 49.9227 20.8295C49.9227 21.3959 50.3817 21.8549 50.9481 21.8549Z" fill="#2626BC"/>
<path opacity="0.1" d="M50.9481 25.6246H62.9622C63.5284 25.6246 63.9876 25.1657 63.9876 24.5992C63.9876 24.0328 63.5284 23.5739 62.9622 23.5739H50.9481C50.3819 23.5739 49.9227 24.0328 49.9227 24.5992C49.9227 25.1655 50.3817 25.6246 50.9481 25.6246Z" fill="#2626BC"/>
<path opacity="0.1" d="M50.9481 29.3943H62.9622C63.5284 29.3943 63.9876 28.9353 63.9876 28.3689C63.9876 27.8025 63.5284 27.3435 62.9622 27.3435H50.9481C50.3819 27.3435 49.9227 27.8025 49.9227 28.3689C49.9227 28.9353 50.3817 29.3943 50.9481 29.3943Z" fill="#2626BC"/>
</g>
<path opacity="0.1" d="M93.1632 56.3555H83.1012C87.0984 54.0837 89.7964 49.7902 89.7964 44.864C89.7964 37.5669 83.8811 31.6516 76.584 31.6516C69.2869 31.6516 63.3717 37.5669 63.3717 44.864C63.3717 49.7902 66.0697 54.0837 70.0669 56.3555H69.895C68.7624 56.3555 67.8442 57.2737 67.8442 58.4063V71.4964C67.8442 72.6291 68.7624 73.5472 69.895 73.5472H74.5626V83.9539C74.5626 87.1039 71.954 89.6551 68.7855 89.5608C65.734 89.4685 63.3469 86.8865 63.3469 83.835V71.6718C63.3469 65.9747 58.6567 61.3523 52.935 61.461C47.3446 61.5655 42.919 66.2495 42.919 71.8441V84.684C42.919 87.3459 40.776 89.5177 38.1243 89.5628C35.3968 89.6079 33.1635 87.3028 33.1635 84.5733V64.2131C33.1635 61.7604 34.6031 59.5148 36.8323 58.4914L41.5101 56.3422C44.8591 54.8041 47.0206 51.4306 47.0206 47.7474V33.4001C47.0206 32.8343 46.5614 32.3751 45.9958 32.3747V16.8928C45.9958 14.6699 44.5916 12.6671 42.5019 11.9089L40.1318 11.0495C39.7877 9.88257 38.7084 9.0278 37.4315 9.0278H36.6615C36.6375 8.48271 36.1916 8.04712 35.6406 8.04712C35.0744 8.04712 34.6152 8.50608 34.6152 9.07251V13.6351V14.6158C34.6152 15.1822 35.0744 15.6412 35.6406 15.6412C36.1916 15.6412 36.6377 15.2056 36.6615 14.6605H37.4315C38.5113 14.6605 39.4497 14.0489 39.9222 13.1548L41.8026 13.8367C43.0839 14.3016 43.945 15.5296 43.945 16.8925V32.3743H43.9444C43.3784 32.3743 42.919 32.8337 42.919 33.3997V47.747C42.919 49.8326 41.6947 51.7439 39.7998 52.6135L35.1199 54.7647C33.5014 55.5077 32.1354 56.641 31.1123 58.0218C30.0891 56.6408 28.7231 55.5069 27.105 54.7637L22.4258 52.6145C20.5241 51.7409 19.3051 49.8398 19.3051 47.747V33.3989C19.3051 32.8327 18.8461 32.3735 18.2797 32.3735V16.8923C18.2797 15.5294 19.1406 14.3012 20.422 13.8365L22.2697 13.1665C22.7443 14.0543 23.6796 14.6603 24.7546 14.6603H25.5247C25.5485 15.2054 25.9945 15.641 26.5456 15.641C27.1118 15.641 27.571 15.182 27.571 14.6156V13.6349V9.07271C27.571 8.50629 27.1118 8.04732 26.5456 8.04732C25.9945 8.04732 25.5485 8.48291 25.5247 9.02801H24.7546C23.4723 9.02801 22.3895 9.89057 22.0503 11.0653L19.7224 11.9091C17.6327 12.6671 16.2285 14.6701 16.2285 16.893V32.3741C15.6623 32.3741 15.2031 32.8333 15.2031 33.3995V47.7476C15.2031 51.4429 17.3552 54.7998 20.7134 56.3422L25.3926 58.4914C27.6212 59.5152 29.0613 61.7612 29.0613 64.2135V67.4076C29.0613 67.4096 29.0615 67.4117 29.0617 67.4138V84.684C29.0617 89.5833 33.0053 93.5782 37.8862 93.6623C42.9086 93.7484 47.0204 89.5505 47.0204 84.5261V71.6718C47.0204 68.2408 49.8628 65.46 53.3183 65.5625C56.6427 65.661 59.2451 68.4767 59.2451 71.801V83.9539C59.2451 89.37 63.7035 93.7649 69.1422 93.6623C74.4578 93.5618 78.6639 89.1096 78.6639 83.7919V73.5472H93.1628C94.2954 73.5472 95.2135 72.6291 95.2135 71.4964V58.4063C95.214 57.2739 94.2958 56.3555 93.1632 56.3555V56.3555Z" fill="#2626BC"/>
</g>
<path d="M93.1631 68.4202H69.8951C68.7625 68.4202 67.8444 67.5021 67.8444 66.3694V53.2793C67.8444 52.1467 68.7625 51.2285 69.8951 51.2285H93.1631C94.2958 51.2285 95.2139 52.1467 95.2139 53.2793V66.3694C95.2139 67.5021 94.2958 68.4202 93.1631 68.4202Z" fill="#6583FE"/>
<path d="M89.2304 56.7598H85.4194C84.853 56.7598 84.394 56.3006 84.394 55.7344C84.394 55.1682 84.853 54.709 85.4194 54.709H89.2304C89.7968 54.709 90.2558 55.1682 90.2558 55.7344C90.2558 56.3006 89.7968 56.7598 89.2304 56.7598V56.7598Z" fill="#0000CC"/>
<path d="M89.2304 60.5293H77.2163C76.6499 60.5293 76.1909 60.0701 76.1909 59.5039C76.1909 58.9377 76.6499 58.4785 77.2163 58.4785H89.2304C89.7968 58.4785 90.2558 58.9377 90.2558 59.5039C90.2558 60.0701 89.7968 60.5293 89.2304 60.5293V60.5293Z" fill="#0000CC"/>
<path d="M89.2304 64.2991H77.2163C76.6499 64.2991 76.1909 63.8399 76.1909 63.2737C76.1909 62.7075 76.6499 62.2483 77.2163 62.2483H89.2304C89.7968 62.2483 90.2558 62.7075 90.2558 63.2737C90.2558 63.8399 89.7968 64.2991 89.2304 64.2991V64.2991Z" fill="#0000CC"/>
<path d="M26.5458 8.50841H24.7548C23.7657 8.50841 22.9639 7.70655 22.9639 6.71746C22.9639 5.72837 23.7657 4.92651 24.7548 4.92651H26.5458V8.50841Z" fill="white"/>
<path d="M35.6406 8.50841H37.4316C38.4207 8.50841 39.2225 7.70655 39.2225 6.71746C39.2225 5.72837 38.4207 4.92651 37.4316 4.92651H35.6406V8.50841Z" fill="white"/>
<path d="M19.3053 28.2724V42.6205C19.3053 44.7133 20.5243 46.6144 22.426 47.488L27.1052 49.6373C30.7854 51.3277 33.1634 55.0368 33.1634 59.0864V62.2104C33.1634 63.3027 32.339 64.2565 31.249 64.327C30.0547 64.4043 29.0619 63.4583 29.0619 62.2807V59.0867C29.0619 56.6343 27.622 54.3883 25.3932 53.3646L20.714 51.2153C17.356 49.6729 15.2037 46.3162 15.2037 42.6209V28.2728C15.2037 27.7066 15.6629 27.2474 16.2291 27.2474H18.2799C18.8461 27.247 19.3053 27.7062 19.3053 28.2724V28.2724Z" fill="#6583FE"/>
<path d="M78.6644 44.3575V78.665C78.6644 83.9827 74.4582 88.4349 69.1426 88.5354C63.7039 88.6379 59.2455 84.2431 59.2455 78.827V66.6741C59.2455 63.3498 56.6431 60.534 53.3188 60.4356C49.8632 60.3331 47.0208 63.1139 47.0208 66.5449V79.3992C47.0208 84.4236 42.909 88.6215 37.8866 88.5354C33.0058 88.4513 29.0621 84.4564 29.0621 79.5571V59.0862C29.0621 55.0359 31.439 51.3281 35.1201 49.6382L39.8 47.487C41.6949 46.6174 42.9193 44.7061 42.9193 42.6205V28.2732C42.9193 27.7072 43.3786 27.2478 43.9447 27.2478H45.9954C46.5614 27.2478 47.0208 27.7072 47.0208 28.2732V42.6205C47.0208 46.3037 44.8593 49.6772 41.5104 51.2153L36.8325 53.3645C34.6033 54.3878 33.1637 56.6334 33.1637 59.0862V79.4463C33.1637 82.1759 35.397 84.481 38.1245 84.4359C40.7762 84.3908 42.9193 82.219 42.9193 79.5571V66.7171C42.9193 61.1226 47.3448 56.4386 52.9353 56.334C58.657 56.2253 63.3471 60.8478 63.3471 66.5449V78.7081C63.3471 81.7596 65.7342 84.3415 68.7858 84.4338C71.9542 84.5282 74.5628 81.977 74.5628 78.827V44.4272C74.5628 43.3341 75.3872 42.3805 76.4762 42.3108C77.6718 42.2329 78.6644 43.1783 78.6644 44.3575V44.3575Z" fill="white"/>
<path d="M89.4477 42.8058C91.126 35.7058 86.7309 28.5896 79.631 26.9113C72.531 25.233 65.4148 29.6281 63.7365 36.7281C62.0582 43.8281 66.4533 50.9443 73.5533 52.6226C80.6532 54.3009 87.7694 49.9058 89.4477 42.8058Z" fill="white"/>
<path d="M76.584 46.1436C80.1222 46.1436 82.9905 43.2753 82.9905 39.7371C82.9905 36.1989 80.1222 33.3307 76.584 33.3307C73.0459 33.3307 70.1776 36.1989 70.1776 39.7371C70.1776 43.2753 73.0459 46.1436 76.584 46.1436Z" fill="#0000CC"/>
<path d="M76.584 44.2671C79.0859 44.2671 81.114 42.239 81.114 39.7371C81.114 37.2353 79.0859 35.2072 76.584 35.2072C74.0822 35.2072 72.0541 37.2353 72.0541 39.7371C72.0541 42.239 74.0822 44.2671 76.584 44.2671Z" fill="#6583FE"/>
<path d="M93.1631 50.2032H86.2239C89.0484 47.5998 90.8217 43.8721 90.8217 39.7371C90.8217 31.8865 84.4348 25.4993 76.584 25.4993C68.7332 25.4993 62.3462 31.8865 62.3462 39.7371C62.3462 44.3029 64.509 48.3706 67.8612 50.9778C67.2236 51.5418 66.819 52.3633 66.819 53.2794V66.3695C66.819 68.0659 68.199 69.4457 69.8952 69.4457H73.5367V78.828C73.5367 80.0753 73.0421 81.2424 72.1438 82.1144C71.2462 82.9858 70.0609 83.4437 68.8154 83.408C66.3656 83.3354 64.3726 81.2272 64.3726 78.7087V66.5451C64.3726 63.5071 63.1752 60.6589 61.0011 58.5257C58.8277 56.3933 55.9587 55.2477 52.9167 55.3082C46.8391 55.4235 41.8946 60.5412 41.8946 66.7165V79.5577C41.8946 81.6466 40.196 83.3744 38.1081 83.4099C37.1058 83.4294 36.1368 83.0344 35.3949 82.3047C34.6285 81.5513 34.189 80.5095 34.189 79.4468V59.0868C34.189 57.0338 35.3945 55.1534 37.2601 54.2966L41.9397 52.1474C45.6498 50.443 48.047 46.7036 48.047 42.6211V28.2728C48.047 27.142 47.127 26.222 45.9962 26.222V11.766C45.9962 9.5432 44.592 7.54041 42.5023 6.78224L40.1322 5.92296C39.7881 4.75606 38.7087 3.9013 37.4319 3.9013H36.6618C36.6379 3.3562 36.192 2.92062 35.641 2.92062C35.0747 2.92062 34.6156 3.37958 34.6156 3.94601V4.92669V9.48927C34.6156 10.0557 35.0747 10.5147 35.641 10.5147C36.192 10.5147 36.6381 10.0791 36.6618 9.53398H37.4319C38.5116 9.53398 39.4501 8.92243 39.9226 8.02829L41.8029 8.71018C43.0843 9.17509 43.9454 10.4031 43.9454 11.766V26.2216C42.8146 26.2216 41.8946 27.1416 41.8946 28.2724V31.9537C41.8946 32.5202 42.3538 32.9791 42.92 32.9791C43.4862 32.9791 43.9454 32.5202 43.9454 31.9537V28.2724H45.9962V42.6207C45.9962 45.9046 44.0678 48.9125 41.0835 50.2832L36.4039 52.4324C33.8125 53.6231 32.1382 56.2348 32.1382 59.0864V79.4463C32.1382 81.0556 32.801 82.6302 33.9571 83.7667C35.0942 84.8848 36.5847 85.4873 38.1429 85.4598C41.3425 85.4057 43.9456 82.7577 43.9456 79.5573V66.7161C43.9456 61.6505 47.9875 57.4525 52.9559 57.3582C55.4411 57.3043 57.7878 58.2454 59.565 59.9891C61.343 61.7337 62.322 64.0618 62.322 66.5449V78.7085C62.322 82.3248 65.2077 85.3524 68.7547 85.4578C68.8226 85.4598 68.8901 85.4609 68.9575 85.4609C70.6903 85.4609 72.3225 84.7993 73.5724 83.5856C74.872 82.3242 75.5877 80.6344 75.5877 78.8278V53.9361C75.9173 53.959 76.2489 53.9748 76.5842 53.9748C76.9392 53.9748 77.2899 53.9572 77.6385 53.9315V78.6652C77.6385 83.4532 73.8185 87.421 69.123 87.5102C66.7741 87.5496 64.5564 86.6717 62.8768 85.0236C61.1964 83.3748 60.2711 81.1745 60.2711 78.828V66.6749C60.2711 62.7827 57.1658 59.5238 53.3488 59.4104C51.4047 59.3522 49.5625 60.0681 48.1647 61.4247C46.7662 62.7823 45.996 64.6007 45.996 66.5449V79.3979C45.996 81.5701 45.101 83.6958 43.5406 85.2297C42.0078 86.7367 40.0085 87.5482 37.903 87.5106C33.5933 87.4368 30.087 83.8691 30.087 79.5575V62.2807V59.0866C30.087 55.436 32.2305 52.0928 35.5475 50.5693L40.2271 48.4201C42.4857 47.3824 43.9448 45.1062 43.9448 42.6209V37.9219C43.9448 37.3555 43.4856 36.8965 42.9194 36.8965C42.3532 36.8965 41.894 37.3555 41.894 37.9219V42.6209C41.894 44.3076 40.9037 45.8525 39.3709 46.5563L34.6912 48.7055C33.3158 49.3374 32.1066 50.2262 31.1089 51.2988C30.0959 50.2127 28.8781 49.3234 27.5328 48.7055L22.8535 46.5563C21.3208 45.8523 20.3302 44.3074 20.3302 42.6209V28.2726C20.3302 27.1418 19.4103 26.2218 18.2795 26.2218V11.766C18.2795 10.4031 19.1404 9.17488 20.4217 8.71018L22.2695 8.04019C22.744 8.92797 23.6794 9.53398 24.7544 9.53398H25.5245C25.5483 10.0791 25.9943 10.5147 26.5453 10.5147C27.1116 10.5147 27.5707 10.0557 27.5707 9.48927V4.92648V3.9458C27.5707 3.37937 27.1116 2.92041 26.5453 2.92041C25.9943 2.92041 25.5483 3.356 25.5245 3.90109H24.7544C23.472 3.90109 22.3892 4.76365 22.05 5.93834L19.7222 6.78224C17.6324 7.54021 16.2283 9.5432 16.2283 11.766V26.2218C15.0975 26.2218 14.1775 27.1418 14.1775 28.2726V42.6207C14.1775 46.7034 16.5749 50.4428 20.2851 52.147L24.9644 54.2962C26.8302 55.1532 28.0356 57.0336 28.0356 59.0864V62.2805V79.5573C28.0356 84.9804 32.4461 89.4681 37.8673 89.5608C40.5181 89.6063 43.0494 88.5875 44.9776 86.6922C46.9276 84.7751 48.0459 82.1165 48.0459 79.3979V66.5449C48.0459 65.16 48.5951 63.8643 49.5922 62.8963C50.5885 61.929 51.9018 61.4194 53.2871 61.4604C56.0069 61.5412 58.2195 63.8803 58.2195 66.6749V78.828C58.2195 81.7299 59.3632 84.4498 61.4396 86.4875C63.4656 88.4753 66.126 89.5626 68.9516 89.5626C69.0211 89.5626 69.0911 89.562 69.1608 89.5606C74.9657 89.4505 79.6883 84.5628 79.6883 78.6652V53.6297C80.9899 53.3389 82.2261 52.8731 83.3672 52.2522C83.3739 52.2522 83.3801 52.2542 83.3866 52.2542H93.1623C93.7277 52.2542 94.1877 52.7142 94.1877 53.2796V66.3697C94.1877 66.9351 93.7277 67.3951 93.1623 67.3951H84.6313C84.065 67.3951 83.6059 67.8541 83.6059 68.4205C83.6059 68.9869 84.065 69.4459 84.6313 69.4459H93.1623C94.8585 69.4459 96.2385 68.0661 96.2385 66.3697V53.2796C96.2393 51.5832 94.8593 50.2032 93.1631 50.2032V50.2032ZM37.4315 7.48299H36.6659V5.95188H37.4315C37.8536 5.95188 38.1971 6.29538 38.1971 6.71743C38.1971 7.13948 37.8536 7.48299 37.4315 7.48299V7.48299ZM24.7548 5.95188H25.5204V7.48299H24.7548C24.3328 7.48299 23.9892 7.13948 23.9892 6.71764C23.9895 6.29538 24.3328 5.95188 24.7548 5.95188ZM25.8212 52.4324L21.1419 50.2832C18.1576 48.9123 16.2291 45.9046 16.2291 42.6207V28.2726H18.2799V42.6207C18.2799 45.106 19.7392 47.3824 21.9979 48.4199L26.6772 50.5691C27.8812 51.122 28.9636 51.9376 29.8362 52.9429C29.4287 53.5813 29.0852 54.2603 28.8102 54.969C28.074 53.8879 27.0529 52.9984 25.8212 52.4324ZM73.5367 67.3949H69.8952C69.3298 67.3949 68.8698 66.9349 68.8698 66.3695V53.2794C68.8698 52.7402 69.2896 52.3018 69.8187 52.2618C70.9714 52.8871 72.221 53.3549 73.5367 53.643V67.3949ZM64.3972 39.7371C64.3972 33.0171 69.8642 27.5501 76.5842 27.5501C83.3042 27.5501 88.7712 33.0171 88.7712 39.7371C88.7712 46.4571 83.3042 51.924 76.5842 51.924C69.8642 51.924 64.3972 46.4571 64.3972 39.7371Z" fill="#0000CC"/>
<path d="M50.948 16.7279H54.759C55.3252 16.7279 55.7844 16.2689 55.7844 15.7025C55.7844 15.1361 55.3252 14.6771 54.759 14.6771H50.948C50.3818 14.6771 49.9226 15.1361 49.9226 15.7025C49.9226 16.2689 50.3816 16.7279 50.948 16.7279Z" fill="#0000CC"/>
<path d="M50.948 20.4977H62.9621C63.5283 20.4977 63.9875 20.0387 63.9875 19.4723C63.9875 18.9059 63.5283 18.4469 62.9621 18.4469H50.948C50.3818 18.4469 49.9226 18.9059 49.9226 19.4723C49.9226 20.0385 50.3816 20.4977 50.948 20.4977Z" fill="#0000CC"/>
<path d="M50.948 24.2673H62.9621C63.5283 24.2673 63.9875 23.8084 63.9875 23.2419C63.9875 22.6755 63.5283 22.2166 62.9621 22.2166H50.948C50.3818 22.2166 49.9226 22.6755 49.9226 23.2419C49.9226 23.8084 50.3816 24.2673 50.948 24.2673Z" fill="#0000CC"/>
<path d="M78.6642 21.1514C78.098 21.1514 77.6389 20.6924 77.6389 20.126C77.6389 19.4098 77.0562 18.8272 76.3401 18.8272C75.7739 18.8272 75.3147 18.3682 75.3147 17.8018C75.3147 17.2354 75.7739 16.7764 76.3401 16.7764C77.0562 16.7764 77.6389 16.1938 77.6389 15.4777C77.6389 14.9112 78.098 14.4523 78.6642 14.4523C79.2305 14.4523 79.6896 14.9112 79.6896 15.4777C79.6896 16.1938 80.2723 16.7764 80.9884 16.7764C81.5546 16.7764 82.0138 17.2354 82.0138 17.8018C82.0138 18.3682 81.5546 18.8272 80.9884 18.8272C80.2723 18.8272 79.6896 19.4098 79.6896 20.126C79.6896 20.6924 79.2305 21.1514 78.6642 21.1514Z" fill="#6583FE"/>
<path d="M19.1961 74.094C18.6299 74.094 18.1707 73.635 18.1707 73.0686C18.1707 72.3524 17.5881 71.7698 16.8719 71.7698C16.3057 71.7698 15.8466 71.3109 15.8466 70.7444C15.8466 70.178 16.3057 69.719 16.8719 69.719C17.5881 69.719 18.1707 69.1364 18.1707 68.4203C18.1707 67.8539 18.6299 67.3949 19.1961 67.3949C19.7623 67.3949 20.2215 67.8539 20.2215 68.4203C20.2215 69.1364 20.8041 69.719 21.5205 69.719C22.0867 69.719 22.5458 70.178 22.5458 70.7444C22.5458 71.3109 22.0867 71.7698 21.5205 71.7698C20.8043 71.7698 20.2215 72.3524 20.2215 73.0686C20.2215 73.635 19.7623 74.094 19.1961 74.094Z" fill="#6583FE"/>
<path d="M86.4448 16.4416C85.8785 16.4416 85.4194 15.9826 85.4194 15.4162C85.4194 14.7001 84.8367 14.1174 84.1206 14.1174C83.5544 14.1174 83.0952 13.6585 83.0952 13.0921C83.0952 12.5256 83.5544 12.0667 84.1206 12.0667C84.8367 12.0667 85.4194 11.4838 85.4194 10.7677C85.4194 10.2013 85.8785 9.74231 86.4448 9.74231C87.011 9.74231 87.4701 10.2013 87.4701 10.7677C87.4701 11.4838 88.0528 12.0667 88.7689 12.0667C89.3351 12.0667 89.7943 12.5256 89.7943 13.0921C89.7943 13.6585 89.3351 14.1174 88.7689 14.1174C88.0528 14.1174 87.4701 14.7001 87.4701 15.4162C87.4701 15.9826 87.0112 16.4416 86.4448 16.4416Z" fill="#6583FE"/>
<path d="M92.0116 22.7908C91.4454 22.7908 90.9862 22.3318 90.9862 21.7654V21.7349C90.9862 21.1684 91.4454 20.7095 92.0116 20.7095C92.5778 20.7095 93.037 21.1684 93.037 21.7349V21.7654C93.037 22.3318 92.578 22.7908 92.0116 22.7908Z" fill="#6583FE"/>
<path d="M92.0116 28.4889C91.4454 28.4889 90.9862 28.03 90.9862 27.4635V27.433C90.9862 26.8666 91.4454 26.4076 92.0116 26.4076C92.5778 26.4076 93.037 26.8666 93.037 27.433V27.4635C93.037 28.0298 92.578 28.4889 92.0116 28.4889Z" fill="#6583FE"/>
<path d="M89.5568 24.2079C89.3825 24.2079 89.2059 24.1634 89.0441 24.0697L89.0175 24.0543C88.5273 23.7704 88.36 23.1433 88.6438 22.6532C88.9276 22.163 89.5546 21.9955 90.0449 22.2795L90.0716 22.2949C90.5617 22.5787 90.7291 23.2059 90.4452 23.696C90.2551 24.0245 89.9108 24.2079 89.5568 24.2079V24.2079Z" fill="#6583FE"/>
<path d="M94.4914 27.0569C94.3171 27.0569 94.1405 27.0124 93.9787 26.9187L93.952 26.9033C93.4619 26.6194 93.2946 25.9923 93.5784 25.5022C93.862 25.012 94.4891 24.8445 94.9795 25.1285L95.0061 25.1439C95.4963 25.4277 95.6636 26.0549 95.3798 26.545C95.1897 26.8735 94.8454 27.0569 94.4914 27.0569Z" fill="#6583FE"/>
<path d="M89.5322 27.057C89.1783 27.057 88.8339 26.8736 88.6438 26.5451C88.36 26.0549 88.5273 25.4278 89.0175 25.144L89.0441 25.1286C89.5345 24.8446 90.1616 25.0123 90.4452 25.5023C90.7291 25.9924 90.5617 26.6195 90.0716 26.9034L90.0449 26.9187C89.8831 27.0125 89.7065 27.057 89.5322 27.057Z" fill="#6583FE"/>
<path d="M94.4668 24.208C94.1128 24.208 93.7685 24.0244 93.5784 23.6961C93.2946 23.2059 93.4619 22.5788 93.952 22.295L93.9787 22.2796C94.4692 21.9956 95.0964 22.1633 95.3798 22.6533C95.6636 23.1434 95.4963 23.7705 95.0061 24.0544L94.9795 24.0697C94.8177 24.1637 94.6411 24.208 94.4668 24.208V24.208Z" fill="#6583FE"/>
<path d="M33.1632 21.3588C32.597 21.3588 32.1378 20.8998 32.1378 20.3334V20.3026C32.1378 19.7362 32.597 19.2772 33.1632 19.2772C33.7294 19.2772 34.1886 19.7362 34.1886 20.3026V20.3334C34.1886 20.8998 33.7296 21.3588 33.1632 21.3588Z" fill="#6583FE"/>
<path d="M33.1632 27.0566C32.597 27.0566 32.1378 26.5977 32.1378 26.0313V26.0005C32.1378 25.4341 32.597 24.9751 33.1632 24.9751C33.7294 24.9751 34.1886 25.4341 34.1886 26.0005V26.0313C34.1886 26.5977 33.7296 27.0566 33.1632 27.0566Z" fill="#6583FE"/>
<path d="M30.7084 22.7759C30.5345 22.7759 30.3585 22.7316 30.1972 22.6385L30.1705 22.6231C29.6799 22.3401 29.5116 21.713 29.7946 21.2226C30.0776 20.7321 30.7043 20.5637 31.1951 20.8467L31.2217 20.8621C31.7123 21.1451 31.8806 21.7722 31.5976 22.2626C31.4077 22.5919 31.063 22.7759 30.7084 22.7759V22.7759Z" fill="#6583FE"/>
<path d="M35.6427 25.6249C35.4684 25.6249 35.2916 25.5804 35.1298 25.4867L35.1032 25.4713C34.613 25.1875 34.4457 24.5603 34.7295 24.0702C35.0131 23.5798 35.6401 23.4123 36.1306 23.6965L36.1573 23.7119C36.6474 23.9958 36.8147 24.6229 36.5309 25.113C36.341 25.4414 35.9967 25.6249 35.6427 25.6249Z" fill="#6583FE"/>
<path d="M30.6836 25.6248C30.329 25.6248 29.9842 25.4406 29.7943 25.1115C29.5113 24.6209 29.6797 23.994 30.1702 23.711L30.1969 23.6956C30.6875 23.412 31.3146 23.581 31.5974 24.0715C31.8804 24.5621 31.712 25.189 31.2215 25.472L31.1948 25.4874C31.0336 25.5805 30.8573 25.6248 30.6836 25.6248Z" fill="#6583FE"/>
<path d="M35.6182 22.7758C35.2642 22.7758 34.9199 22.5925 34.7298 22.264C34.4459 21.7738 34.6133 21.1467 35.1034 20.8629L35.1301 20.8475C35.6204 20.5633 36.2478 20.731 36.5314 21.2211C36.8152 21.7113 36.6479 22.3384 36.1577 22.6222L36.1311 22.6376C35.9693 22.7313 35.7925 22.7758 35.6182 22.7758Z" fill="#6583FE"/>
<defs>
<linearGradient id="paint0_linear" x1="-5.18774e-05" y1="48.805" x2="105" y2="48.805" gradientUnits="userSpaceOnUse">
<stop stop-color="#D2DEFF" stop-opacity="0"/>
<stop offset="1" stop-color="#25B9A9"/>
</linearGradient>
</defs>
</svg>
