<svg id="Layer_1" height="120" viewBox="0 0 512 512" width="120" xmlns="http://www.w3.org/2000/svg" data-name="Layer 1"><path d="m141.11 222h30a9.271 9.271 0 0 1 -9.11-9.08v-109.31a8.872 8.872 0 0 1 9.11-8.61h-30a8.872 8.872 0 0 0 -9.11 8.61v109.31a9.271 9.271 0 0 0 9.11 9.08z" fill="#d4e1f4"/><path d="m146.26 293h-15.32a17.144 17.144 0 0 1 -16.92-19.545 713.62 713.62 0 0 0 6.67-106.028c-.39-32.63-2.99-80.2-6.67-106.808a17.211 17.211 0 0 1 16.92-19.619h-30a17.2 17.2 0 0 0 -16.92 19.61c3.68 26.61 6.28 74.12 6.67 106.75a714.212 714.212 0 0 1 -6.67 106.07 17.164 17.164 0 0 0 16.92 19.57h15.32a8.636 8.636 0 0 1 8.74 8.4v52.13a3.332 3.332 0 0 0 3.6 3.47h15.73a3.383 3.383 0 0 0 3.67-3.47v-43.75a16.81 16.81 0 0 1 5.6-12.407 8.284 8.284 0 0 0 -7.34-4.373z" fill="#d4e1f4"/><path d="m231.65 466.08h6.208a45.44 45.44 0 0 0 45.356-45.421v-29.651a33.357 33.357 0 1 1 66.714 0v65.571a45.44 45.44 0 0 0 45.356 45.421h1.346a45.44 45.44 0 0 0 45.356-45.421v-219.279a20.105 20.105 0 0 0 15.506-19.537v-52.023a20.105 20.105 0 0 0 -15.506-19.54v-35.614a6 6 0 0 0 -12 0v36.114a20.107 20.107 0 0 0 -13.725 19.036v52.019a20.107 20.107 0 0 0 13.725 19.045v219.779a33.426 33.426 0 0 1 -33.356 33.421h-1.346a33.426 33.426 0 0 1 -33.356-33.421v-65.571a45.357 45.357 0 1 0 -90.714 0v29.651a33.426 33.426 0 0 1 -33.356 33.421h-6.208a33.427 33.427 0 0 1 -33.357-33.421v-63.266h-12v63.266a45.441 45.441 0 0 0 45.357 45.421zm204.7-308.424h1.063a8.093 8.093 0 0 1 8.084 8.084v26.019h-17.236v-26.019a8.093 8.093 0 0 1 8.084-8.084zm-8.084 46.1h17.231v14a8.093 8.093 0 0 1 -8.084 8.084h-1.063a8.093 8.093 0 0 1 -8.084-8.084z" fill="#1ae5be"/><g fill="#0635c9"><path d="m258.321 212.919v-109.312a14.873 14.873 0 0 0 -14.85-14.864h-102.356a14.873 14.873 0 0 0 -14.85 14.864v109.312a14.874 14.874 0 0 0 14.85 14.865h102.356a14.874 14.874 0 0 0 14.85-14.865zm-120.056 0v-109.312a2.86 2.86 0 0 1 2.85-2.864h102.356a2.86 2.86 0 0 1 2.85 2.864v109.312a2.86 2.86 0 0 1 -2.85 2.865h-102.356a2.86 2.86 0 0 1 -2.85-2.865z"/><path d="m229.266 118.384h-73.946a6 6 0 0 0 0 12h73.946a6 6 0 1 0 0-12z"/><path d="m229.266 152.263h-73.946a6 6 0 0 0 0 12h73.946a6 6 0 0 0 0-12z"/><path d="m229.266 186.143h-73.946a6 6 0 0 0 0 12h73.946a6 6 0 0 0 0-12z"/><path d="m154.2 353.531v-29.4h21.65v29.4a9.873 9.873 0 0 0 9.861 9.862h15.733a9.872 9.872 0 0 0 9.861-9.862v-29.4h21.65v29.4a9.872 9.872 0 0 0 9.861 9.862h15.732a9.873 9.873 0 0 0 9.862-9.862v-29.4h34.9a26.772 26.772 0 0 0 26.567-30.058 961.554 961.554 0 0 1 -7.309-123.161c.226-43.56 3.3-98.57 7.3-130.8a26.78 26.78 0 0 0 -26.56-30.112h-222.035a26.784 26.784 0 0 0 -26.507 30.485c4.161 30.076 7.546 82.723 8.049 125.183a862.388 862.388 0 0 1 -8.049 127.967 26.787 26.787 0 0 0 26.507 30.492h37.467v29.4a9.873 9.873 0 0 0 9.862 9.862h15.732a9.873 9.873 0 0 0 9.866-9.858zm0-41.4v-2.346a10.825 10.825 0 1 1 21.65 0v2.346zm57.105 0v-2.346a10.825 10.825 0 1 1 21.65 0v2.346zm-130.027 0a14.789 14.789 0 0 1 -14.626-16.851 874.535 874.535 0 0 0 8.163-129.755c-.437-36.789-3.38-92.117-8.163-126.685a14.786 14.786 0 0 1 14.621-16.84h222.035a14.78 14.78 0 0 1 14.648 16.627c-4.057 32.641-7.166 88.246-7.394 132.218a973.76 973.76 0 0 0 7.4 124.7 14.772 14.772 0 0 1 -14.662 16.582h-34.9v-10.709a2.493 2.493 0 0 1 2.49-2.489h12.747a23.094 23.094 0 0 0 22.913-25.946 790.184 790.184 0 0 1 -6-101.192c.163-31.547 2.322-81.046 6-110.645a23.1 23.1 0 0 0 -22.905-25.946h-182.707a23.116 23.116 0 0 0 -22.861 26.328c3.8 27.515 6.243 75.128 6.609 105.958a708.679 708.679 0 0 1 -6.61 105.114 23.118 23.118 0 0 0 22.861 26.331h15.327a2.479 2.479 0 0 1 2.476 2.476v10.722zm60.922 39.262h-11.46v-49.993a14.493 14.493 0 0 0 -14.476-14.476h-15.327a10.9 10.9 0 0 1 -8.332-3.794 11.2 11.2 0 0 1 -2.642-8.894 720.64 720.64 0 0 0 6.722-106.9c-.37-31.2-2.852-79.459-6.722-107.458a11.2 11.2 0 0 1 2.643-8.9 10.9 10.9 0 0 1 8.332-3.794h182.707a11.094 11.094 0 0 1 11 12.469c-3.737 30.057-5.929 80.17-6.094 112.063a802.253 802.253 0 0 0 6.095 102.735 11.095 11.095 0 0 1 -11 12.465h-12.746a14.506 14.506 0 0 0 -14.49 14.489v49.975h-11.46v-41.599a22.825 22.825 0 1 0 -45.65 0v41.612h-11.455v-41.612a22.825 22.825 0 1 0 -45.65 0z"/><path d="m106.221 80.045a6 6 0 0 0 -5.466 6.49c1.667 19.487 2.982 43.288 3.608 65.3a6 6 0 0 0 5.994 5.83h.174a6 6 0 0 0 5.827-6.168c-.632-22.23-1.961-46.281-3.647-65.984a6 6 0 0 0 -6.49-5.468z"/><path d="m104.886 72.572a6.065 6.065 0 0 0 .708-.041 6 6 0 0 0 5.258-6.66c-.183-1.551-.367-2.676-.545-3.763-.113-.69-.228-1.387-.344-2.223a6 6 0 1 0 -11.886 1.644c.131.947.26 1.738.388 2.521.164 1 .319 1.942.469 3.223a6 6 0 0 0 5.952 5.299z"/></g></svg>