<svg id="Layer_1" height="100" viewBox="0 0 512 512" width="100" xmlns="http://www.w3.org/2000/svg" data-name="Layer 1"><path d="m36 338h30c-11.05 0-20-9.43-20-20.47v-217.21a20.27 20.27 0 0 1 20-20.32h-30a20.27 20.27 0 0 0 -20 20.32v217.21c0 11.04 8.95 20.47 20 20.47z" fill="#d4e1f4"/><path d="m449.677 437.68a26.344 26.344 0 0 0 26.095-23.143l26.035-215.03a26.3 26.3 0 0 0 -22.952-29.274l-24.17-2.926-1.442 11.913 24.17 2.926a14.3 14.3 0 0 1 12.481 15.919l-26.035 215.029a14.327 14.327 0 0 1 -15.92 12.48l-394.476-47.756a14.3 14.3 0 0 1 -12.481-15.918l2.866-23.653-11.913-1.447-2.866 23.654a26.3 26.3 0 0 0 22.952 29.273l394.479 47.76a26.317 26.317 0 0 0 3.177.193z" fill="#1ae5be"/><path d="m423.96 364.7-287.726-33.135-1.373 11.921 287.726 33.134a6 6 0 1 0 1.373-11.92z" fill="#1ae5be"/><g fill="#0635c9"><path d="m36 343.525h397.964a26.029 26.029 0 0 0 26-26v-217.205a26.029 26.029 0 0 0 -26-26h-397.964a26.029 26.029 0 0 0 -26 26v217.205a26.029 26.029 0 0 0 26 26zm-14-243.205a14.015 14.015 0 0 1 14-14h397.964a14.015 14.015 0 0 1 14 14v217.205a14.015 14.015 0 0 1 -14 14h-397.964a14.015 14.015 0 0 1 -14-14z"/><path d="m70.067 169.768h23.006v23a7.664 7.664 0 0 0 7.655 7.655h17.664a7.664 7.664 0 0 0 7.655-7.655v-23h23.007a7.664 7.664 0 0 0 7.655-7.655v-17.662a7.664 7.664 0 0 0 -7.655-7.656h-23.007v-23a7.664 7.664 0 0 0 -7.655-7.655h-17.664a7.664 7.664 0 0 0 -7.655 7.655v23h-23.006a7.664 7.664 0 0 0 -7.655 7.656v17.662a7.664 7.664 0 0 0 7.655 7.655zm4.345-20.973h23a7.664 7.664 0 0 0 7.656-7.655v-23h8.974v23a7.664 7.664 0 0 0 7.656 7.655h23.006v8.973h-23.004a7.664 7.664 0 0 0 -7.656 7.655v23h-8.974v-23a7.664 7.664 0 0 0 -7.656-7.655h-23z"/><path d="m60.263 237.6h352.084a6 6 0 0 0 0-12h-352.084a6 6 0 0 0 0 12z"/><path d="m60.263 282.266h352.084a6 6 0 0 0 0-12h-352.084a6 6 0 1 0 0 12z"/><path d="m387.515 182.173a28.891 28.891 0 1 0 -28.893-28.891 28.925 28.925 0 0 0 28.893 28.891zm0-45.782a16.891 16.891 0 1 1 -16.893 16.891 16.911 16.911 0 0 1 16.893-16.891z"/><path d="m180.2 144.936h73.782a6 6 0 1 0 0-12h-73.782a6 6 0 0 0 0 12z"/><path d="m180.2 175.39h73.782a6 6 0 1 0 0-12h-73.782a6 6 0 0 0 0 12z"/><path d="m39.512 115.011a6 6 0 0 0 6-6v-2.362a6 6 0 0 0 -12 0v2.362a6 6 0 0 0 6 6z"/><path d="m39.512 192.909a6 6 0 0 0 6-6v-60.7a6 6 0 0 0 -12 0v60.7a6 6 0 0 0 6 6z"/></g></svg>