<svg width="194" height="194" viewBox="0 0 194 194" fill="none" xmlns="http://www.w3.org/2000/svg">
<path d="M158.504 0.778005C137.412 -2.82956 90.9456 5.39422 82.7211 40.5696C77.2531 63.9565 77.4137 83.0355 63.614 83.3936C55.4031 83.6065 51.1214 66.6042 39.7849 65.2057C24.9898 63.3805 14.7222 75.6995 8.3141 86.8556C-5.78311 111.398 -1.37491 153.133 17.1631 173.486C62.0589 222.776 115.374 171.231 138.17 130.931C152.79 105.085 185.774 84.1923 192.644 55.0559C198.395 30.6635 185.633 5.41809 158.504 0.778005V0.778005Z" fill="url(#paint0_linear)"/>
<path d="M42.8352 172.94C41.789 172.94 40.9406 172.092 40.9406 171.046C40.9406 169.723 39.8642 168.646 38.541 168.646C37.4949 168.646 36.6465 167.798 36.6465 166.752C36.6465 165.705 37.4949 164.857 38.541 164.857C39.8642 164.857 40.9406 163.781 40.9406 162.458C40.9406 161.411 41.789 160.563 42.8352 160.563C43.8813 160.563 44.7297 161.411 44.7297 162.458C44.7297 163.781 45.8062 164.857 47.1297 164.857C48.1758 164.857 49.0242 165.705 49.0242 166.752C49.0242 167.798 48.1758 168.646 47.1297 168.646C45.8065 168.646 44.7297 169.723 44.7297 171.046C44.7297 172.092 43.8813 172.94 42.8352 172.94V172.94Z" fill="#6583FE"/>
<path d="M149.733 20.9281C148.687 20.9281 147.839 20.0801 147.839 19.0335C147.839 17.7104 146.762 16.6339 145.439 16.6339C144.393 16.6339 143.545 15.7859 143.545 14.7394C143.545 13.6929 144.393 12.8449 145.439 12.8449C146.762 12.8449 147.839 11.7684 147.839 10.4453C147.839 9.39871 148.687 8.55072 149.733 8.55072C150.78 8.55072 151.628 9.39871 151.628 10.4453C151.628 11.7684 152.704 12.8449 154.027 12.8449C155.074 12.8449 155.922 13.6929 155.922 14.7394C155.922 15.7859 155.074 16.6339 154.027 16.6339C152.704 16.6339 151.628 17.7104 151.628 19.0335C151.628 20.0797 150.78 20.9281 149.733 20.9281Z" fill="#6583FE"/>
<path d="M167.574 24.9388C166.527 24.9388 165.679 24.0908 165.679 23.0443V22.9878C165.679 21.9413 166.527 21.0933 167.574 21.0933C168.62 21.0933 169.468 21.9413 169.468 22.9878V23.0443C169.468 24.0904 168.62 24.9388 167.574 24.9388Z" fill="#6583FE"/>
<path d="M167.574 35.4663C166.527 35.4663 165.679 34.6183 165.679 33.5718V33.515C165.679 32.4684 166.527 31.6204 167.574 31.6204C168.62 31.6204 169.468 32.4684 169.468 33.515V33.5718C169.468 34.6183 168.62 35.4663 167.574 35.4663Z" fill="#6583FE"/>
<path d="M163.038 27.557C162.718 27.557 162.393 27.4756 162.096 27.3047L162.046 27.2763C161.139 26.7549 160.826 25.5969 161.348 24.6898C161.869 23.7824 163.027 23.4694 163.934 23.9911L163.984 24.0196C164.891 24.5409 165.204 25.6989 164.682 26.606C164.332 27.2156 163.694 27.557 163.038 27.557V27.557Z" fill="#6583FE"/>
<path d="M172.155 32.8204C171.833 32.8204 171.506 32.7382 171.208 32.565L171.159 32.5366C170.253 32.0122 169.944 30.8535 170.468 29.9479C170.993 29.0419 172.152 28.7328 173.057 29.2575L173.106 29.286C174.012 29.8104 174.321 30.9691 173.797 31.8746C173.445 32.4817 172.809 32.8204 172.155 32.8204V32.8204Z" fill="#6583FE"/>
<path d="M162.992 32.8204C162.336 32.8204 161.698 32.4794 161.348 31.8693C160.826 30.9618 161.139 29.8043 162.046 29.2829L162.096 29.2545C163.003 28.7327 164.161 29.0461 164.682 29.9532C165.204 30.8607 164.891 32.0182 163.984 32.5396L163.934 32.568C163.636 32.7393 163.312 32.8204 162.992 32.8204V32.8204Z" fill="#6583FE"/>
<path d="M172.11 27.557C171.455 27.557 170.819 27.2179 170.468 26.6113C169.944 25.7057 170.253 24.547 171.159 24.0226L171.208 23.9942C172.113 23.4686 173.272 23.7793 173.796 24.6845C174.321 25.5901 174.011 26.7488 173.106 27.2732L173.057 27.3016C172.758 27.4748 172.431 27.557 172.11 27.557Z" fill="#6583FE"/>
<path d="M145.439 159.117C144.393 159.117 143.545 158.269 143.545 157.222V157.165C143.545 156.119 144.393 155.271 145.439 155.271C146.486 155.271 147.334 156.119 147.334 157.165V157.222C147.334 158.268 146.486 159.117 145.439 159.117Z" fill="#6583FE"/>
<path d="M145.439 169.644C144.393 169.644 143.545 168.796 143.545 167.75V167.693C143.545 166.646 144.393 165.798 145.439 165.798C146.486 165.798 147.334 166.646 147.334 167.693V167.75C147.334 168.796 146.486 169.644 145.439 169.644Z" fill="#6583FE"/>
<path d="M140.903 161.735C140.586 161.735 140.266 161.655 139.97 161.488L139.921 161.46C139.011 160.944 138.691 159.787 139.207 158.877C139.724 157.967 140.88 157.649 141.79 158.164L141.84 158.192C142.75 158.708 143.069 159.864 142.553 160.774C142.204 161.389 141.563 161.735 140.903 161.735Z" fill="#6583FE"/>
<path d="M150.02 166.999C149.698 166.999 149.372 166.916 149.073 166.743L149.024 166.715C148.118 166.19 147.809 165.032 148.333 164.126C148.858 163.22 150.018 162.911 150.922 163.436L150.971 163.464C151.877 163.989 152.186 165.147 151.662 166.053C151.311 166.66 150.674 166.999 150.02 166.999Z" fill="#6583FE"/>
<path d="M140.857 166.999C140.201 166.999 139.563 166.658 139.213 166.048C138.692 165.14 139.004 163.983 139.912 163.461L139.961 163.433C140.869 162.911 142.026 163.224 142.548 164.132C143.069 165.039 142.757 166.197 141.849 166.718L141.799 166.746C141.502 166.917 141.178 166.999 140.857 166.999V166.999Z" fill="#6583FE"/>
<path d="M149.975 161.735C149.317 161.735 148.678 161.392 148.328 160.78C147.809 159.871 148.125 158.714 149.033 158.195L149.082 158.167C149.991 157.648 151.148 157.964 151.667 158.872C152.186 159.78 151.87 160.937 150.962 161.456L150.913 161.484C150.617 161.654 150.293 161.735 149.975 161.735V161.735Z" fill="#6583FE"/>
<path d="M27.6254 164.352C26.5793 164.352 25.7309 163.504 25.7309 162.458C25.7309 161.134 24.6544 160.058 23.3313 160.058C22.2851 160.058 21.4368 159.21 21.4368 158.163C21.4368 157.116 22.2851 156.268 23.3313 156.268C24.6544 156.268 25.7309 155.192 25.7309 153.869C25.7309 152.822 26.5793 151.974 27.6254 151.974C28.6716 151.974 29.52 152.822 29.52 153.869C29.52 155.192 30.5964 156.268 31.9196 156.268C32.9657 156.268 33.8141 157.116 33.8141 158.163C33.8141 159.21 32.9657 160.058 31.9196 160.058C30.5964 160.058 29.52 161.134 29.52 162.458C29.52 163.504 28.6716 164.352 27.6254 164.352Z" fill="#6583FE"/>
<path opacity="0.1" d="M173.84 55.3176H142.423V35.7868C142.423 33.9495 140.934 32.4601 139.096 32.4601H54.9037C53.0664 32.4601 51.5769 33.9495 51.5769 35.7868V55.662H29.52C26.3812 55.662 23.8364 58.2067 23.8364 61.3456V138.98V149.541C23.8364 152.68 26.3812 155.225 29.52 155.225H77.7665V176.733H69.0653C66.9726 176.733 65.2763 178.429 65.2763 180.522V183.598C65.2763 184.645 66.1246 185.493 67.1708 185.493H126.829C127.875 185.493 128.723 184.645 128.723 183.598V180.522C128.723 178.429 127.027 176.733 124.934 176.733H116.233V155.225H164.48C167.619 155.225 170.164 152.68 170.164 149.541V138.98V87.0813H173.84C175.933 87.0813 177.63 85.3849 177.63 83.2922V59.1066C177.63 57.0139 175.933 55.3176 173.84 55.3176V55.3176Z" fill="#2626BC"/>
<path d="M77.7666 143.155H116.233V167.26H77.7666V143.155Z" fill="white"/>
<path d="M170.163 51.8718V129.506H23.8369V51.8718C23.8369 48.7345 26.3794 46.1882 29.5205 46.1882H164.479C167.62 46.1882 170.163 48.7345 170.163 51.8718V51.8718Z" fill="#6583FE"/>
<path d="M142.423 26.3146V129.506H51.5764V26.3146C51.5764 24.4769 53.0655 22.9878 54.9032 22.9878H139.096C140.934 22.9878 142.423 24.4769 142.423 26.3146V26.3146Z" fill="white"/>
<path d="M75.5013 60.4397C81.9295 60.4397 87.1405 55.2286 87.1405 48.8004C87.1405 42.3722 81.9295 37.1612 75.5013 37.1612C69.0731 37.1612 63.8621 42.3722 63.8621 48.8004C63.8621 55.2286 69.0731 60.4397 75.5013 60.4397Z" fill="#6583FE"/>
<path d="M80.9175 46.3481H77.9536V43.3843C77.9536 42.4594 77.2038 41.7095 76.2789 41.7095H74.7242C73.7993 41.7095 73.0495 42.4594 73.0495 43.3843V46.3481H70.0857C69.1607 46.3481 68.4109 47.098 68.4109 48.0229V49.5775C68.4109 50.5024 69.1607 51.2523 70.0857 51.2523H73.0495V54.2161C73.0495 55.141 73.7993 55.8909 74.7242 55.8909H76.2789C77.2038 55.8909 77.9536 55.141 77.9536 54.2161V51.2523H80.9175C81.8424 51.2523 82.5922 50.5024 82.5922 49.5775V48.0229C82.5922 47.098 81.8424 46.3481 80.9175 46.3481V46.3481Z" fill="white"/>
<path d="M130.461 51.7983H95.7839C94.7374 51.7983 93.8894 50.9499 93.8894 49.9038C93.8894 48.8576 94.7374 48.0092 95.7839 48.0092H130.461C131.508 48.0092 132.356 48.8576 132.356 49.9038C132.356 50.9503 131.508 51.7983 130.461 51.7983Z" fill="#0000CC"/>
<path d="M130.461 58.6834H95.7839C94.7374 58.6834 93.8894 57.835 93.8894 56.7889C93.8894 55.7427 94.7374 54.8943 95.7839 54.8943H130.461C131.508 54.8943 132.356 55.7427 132.356 56.7889C132.356 57.835 131.508 58.6834 130.461 58.6834Z" fill="#0000CC"/>
<path d="M105.833 42.1396H95.7839C94.7374 42.1396 93.8894 41.2912 93.8894 40.2451C93.8894 39.1989 94.7374 38.3505 95.7839 38.3505H105.833C106.879 38.3505 107.727 39.1989 107.727 40.2451C107.727 41.2912 106.879 42.1396 105.833 42.1396Z" fill="#0000CC"/>
<path d="M131.245 72.6548V85.9545C131.245 87.0002 130.397 87.849 129.351 87.849H64.6487C63.6029 87.849 62.7542 87.0002 62.7542 85.9545V72.6548C62.7542 71.6091 63.6029 70.7603 64.6487 70.7603H129.351C130.397 70.7603 131.245 71.6091 131.245 72.6548Z" fill="white"/>
<path d="M80.327 70.761H64.6475C63.6013 70.761 62.7529 71.6094 62.7529 72.6556V85.9537C62.7529 86.9998 63.6013 87.8482 64.6475 87.8482H80.327V70.761Z" fill="#6583FE"/>
<path d="M129.351 89.7435H64.6487C62.5594 89.7435 60.8596 88.0438 60.8596 85.9545V72.6548C60.8596 70.5656 62.5594 68.8658 64.6487 68.8658H129.351C131.44 68.8658 133.14 70.5656 133.14 72.6548V85.9545C133.14 88.0438 131.44 89.7435 129.351 89.7435ZM129.351 72.6526L64.6487 72.6548V85.9545H129.351V72.6526Z" fill="#0000CC"/>
<path d="M120.989 81.1992H88.2058C87.1593 81.1992 86.3113 80.3508 86.3113 79.3046C86.3113 78.2585 87.1593 77.4101 88.2058 77.4101H120.989C122.035 77.4101 122.883 78.2585 122.883 79.3046C122.883 80.3508 122.035 81.1992 120.989 81.1992Z" fill="#0000CC"/>
<path d="M114.338 106.811H78.2742V110.6H114.338C115.385 110.6 116.233 109.752 116.233 108.705C116.233 107.659 115.385 106.811 114.338 106.811Z" fill="#0000CC"/>
<path d="M93.4986 99.2518H78.2742V103.041H93.4986C94.5452 103.041 95.3932 102.192 95.3932 101.146C95.3932 100.1 94.5452 99.2518 93.4986 99.2518Z" fill="#0000CC"/>
<path d="M79.9018 101.146C79.9018 97.6751 77.0778 94.8515 73.607 94.8515C70.1359 94.8515 67.3123 97.6755 67.3123 101.146C67.3123 102.858 68.0011 104.411 69.1136 105.547C68.0011 106.682 67.3123 108.235 67.3123 109.947C67.3123 110.993 68.1606 111.841 69.2068 111.841C70.2529 111.841 71.1013 110.993 71.1013 109.947C71.1013 108.565 72.2255 107.441 73.607 107.441C74.9889 107.441 76.1127 108.565 76.1127 109.947C76.1127 110.993 76.9611 111.841 78.0073 111.841C79.0534 111.841 79.9018 110.993 79.9018 109.947C79.9018 108.235 79.2129 106.682 78.1001 105.547C79.2129 104.411 79.9018 102.858 79.9018 101.146ZM73.6066 98.6402C74.9885 98.6402 76.1124 99.7644 76.1124 101.146C76.1124 102.528 74.9881 103.652 73.6066 103.652C72.2252 103.652 71.1009 102.527 71.1009 101.146C71.1009 99.7644 72.2252 98.6402 73.6066 98.6402Z" fill="#0000CC"/>
<path d="M125.166 123.402H75.9954C74.9488 123.402 74.1008 122.554 74.1008 121.508C74.1008 120.461 74.9488 119.613 75.9954 119.613H125.166C126.213 119.613 127.061 120.461 127.061 121.508C127.061 122.554 126.213 123.402 125.166 123.402Z" fill="#0000CC"/>
<path d="M68.8333 123.424C69.8794 123.424 70.7278 122.576 70.7278 121.53V121.486C70.7278 120.44 69.8794 119.591 68.8333 119.591C67.7871 119.591 66.9387 120.44 66.9387 121.486V121.53C66.9387 122.576 67.7867 123.424 68.8333 123.424Z" fill="#0000CC"/>
<path d="M129.75 103.062C130.796 103.062 131.645 102.214 131.645 101.168V101.124C131.645 100.078 130.796 99.2298 129.75 99.2298C128.704 99.2298 127.855 100.078 127.855 101.124V101.168C127.855 102.214 128.704 103.062 129.75 103.062Z" fill="#0000CC"/>
<path d="M123.776 103.062C124.822 103.062 125.67 102.214 125.67 101.168V101.124C125.67 100.078 124.822 99.2298 123.776 99.2298C122.73 99.2298 121.881 100.078 121.881 101.124V101.168C121.881 102.214 122.73 103.062 123.776 103.062Z" fill="#0000CC"/>
<path d="M164.48 145.752H29.52C26.3812 145.752 23.8364 143.207 23.8364 140.068V129.507H170.164V140.068C170.163 143.207 167.619 145.752 164.48 145.752Z" fill="white"/>
<path d="M126.829 176.02H67.1709C66.1247 176.02 65.2764 175.172 65.2764 174.126V171.049C65.2764 168.957 66.9727 167.26 69.0654 167.26H124.934C127.027 167.26 128.723 168.957 128.723 171.049V174.126C128.723 175.172 127.875 176.02 126.829 176.02Z" fill="white"/>
<path d="M173.841 77.6083H130.85C128.757 77.6083 127.061 75.9119 127.061 73.8192V49.6337C127.061 47.541 128.757 45.8446 130.85 45.8446H173.84C175.933 45.8446 177.629 47.541 177.629 49.6337V73.8192C177.63 75.9119 175.933 77.6083 173.841 77.6083V77.6083Z" fill="white"/>
<path d="M173.84 43.9501H144.318V26.3139C144.318 23.4349 141.975 21.0929 139.096 21.0929H54.9033C52.024 21.0929 49.682 23.4353 49.682 26.3139V44.2945H29.52C25.3414 44.2945 21.9419 47.694 21.9419 51.8726V140.068C21.9419 144.247 25.3414 147.646 29.52 147.646H49.4672C50.5133 147.646 51.3617 146.798 51.3617 145.752C51.3617 144.705 50.5133 143.857 49.4672 143.857H29.52C27.4307 143.857 25.731 142.157 25.731 140.068V131.402H168.269V140.068C168.269 142.157 166.569 143.857 164.48 143.857H60.4933C59.4472 143.857 58.5988 144.705 58.5988 145.752C58.5988 146.798 59.4472 147.646 60.4933 147.646H75.872V165.366H69.0653C65.9314 165.366 63.3817 167.915 63.3817 171.049V174.126C63.3817 176.215 65.0815 177.915 67.1708 177.915H126.828C128.918 177.915 130.618 176.215 130.618 174.126V171.049C130.618 167.915 128.068 165.366 124.934 165.366H118.128V147.646H164.48C168.659 147.646 172.058 144.247 172.058 140.068V79.5028H173.84C176.975 79.5028 179.524 76.9532 179.524 73.8192V49.6336C179.524 46.4997 176.974 43.9501 173.84 43.9501V43.9501ZM126.829 171.049L126.831 174.126H67.1708V171.049C67.1708 170.005 68.0207 169.155 69.0653 169.155H124.934C125.979 169.155 126.829 170.005 126.829 171.049V171.049ZM114.339 165.366H79.6611V147.646H114.339V165.366ZM25.731 51.873C25.731 49.7837 27.4307 48.0839 29.52 48.0839H49.682V127.613H25.731V51.873ZM168.269 127.613H144.318V88.4367C144.318 87.3901 143.47 86.5421 142.423 86.5421C141.377 86.5421 140.529 87.3901 140.529 88.4367V127.613H53.4711V26.3139C53.4711 25.5242 54.1137 24.882 54.9033 24.882H139.096C139.886 24.882 140.529 25.5242 140.529 26.3139V43.9501H130.85C127.716 43.9501 125.166 46.4993 125.166 49.6336V73.8192C125.166 76.9532 127.716 79.5028 130.85 79.5028H168.269V127.613ZM175.735 73.8192C175.735 74.8639 174.885 75.7138 173.84 75.7138H130.85C129.805 75.7138 128.955 74.8639 128.955 73.8192V49.6336C128.955 48.589 129.805 47.7391 130.85 47.7391H173.84C174.885 47.7391 175.735 48.589 175.735 49.6336V73.8192Z" fill="#0000CC"/>
<path d="M166.574 56.064H159.533C158.486 56.064 157.638 55.2157 157.638 54.1695C157.638 53.1233 158.486 52.275 159.533 52.275H166.574C167.621 52.275 168.469 53.1233 168.469 54.1695C168.469 55.2157 167.62 56.064 166.574 56.064Z" fill="#0000CC"/>
<path d="M166.574 63.0291H144.377C143.33 63.0291 142.482 62.1808 142.482 61.1346C142.482 60.0884 143.33 59.2401 144.377 59.2401H166.574C167.621 59.2401 168.469 60.0884 168.469 61.1346C168.469 62.1808 167.62 63.0291 166.574 63.0291Z" fill="#0000CC"/>
<path d="M166.574 69.9937H144.377C143.33 69.9937 142.482 69.1454 142.482 68.0992C142.482 67.0531 143.33 66.2047 144.377 66.2047H166.574C167.621 66.2047 168.469 67.0531 168.469 68.0992C168.469 69.1454 167.62 69.9937 166.574 69.9937Z" fill="#0000CC"/>
<defs>
<linearGradient id="paint0_linear" x1="-0.000243327" y1="96.8307" x2="194" y2="96.8307" gradientUnits="userSpaceOnUse">
<stop stop-color="#D2DEFF" stop-opacity="0"/>
<stop offset="1" stop-color="#B7C5FF"/>
</linearGradient>
</defs>
</svg>
