<svg id="Layer_1" height="120" viewBox="0 0 512 512" width="120" xmlns="http://www.w3.org/2000/svg" data-name="Layer 1"><path d="m84 432a38.133 38.133 0 0 1 -38-38.16v-304.77a38.062 38.062 0 0 1 38-38.07h-30a38.062 38.062 0 0 0 -38 38.07v304.77a38.133 38.133 0 0 0 38 38.16z" fill="#d4e1f4"/><path d="m272.6 287.522h.034a6 6 0 0 0 5.645-3.968l26.966-74.932 15.027 28.771a6 6 0 0 0 10.4.406l20.073-32.064h46.862a6 6 0 0 0 0-12h-50.178a6 6 0 0 0 -5.086 2.816l-16.281 26.005-16.511-31.614a6 6 0 0 0 -10.964.747l-25.851 71.832-26.591-76.58a6 6 0 0 0 -10.632-1.4l-23.913 35.207-21.6-73.228a6 6 0 0 0 -11.423-.268l-27.4 78.957h-36.79a6 6 0 0 0 0 12h41.054a6 6 0 0 0 5.668-4.033l22.669-65.324 19.906 67.462a6 6 0 0 0 10.718 1.672l24.326-35.821 28.239 81.325a6 6 0 0 0 5.633 4.032z" fill="#1ae5be"/><g fill="#0635c9"><path d="m458 45.074h-404a44.049 44.049 0 0 0 -44 44v304.766a44.049 44.049 0 0 0 44 44h9.631v23.086a6 6 0 0 0 6 6h66.839a6 6 0 0 0 6-6v-23.086h227.06v23.086a6 6 0 0 0 6 6h66.839a6 6 0 0 0 6-6v-23.086h9.631a44.049 44.049 0 0 0 44-44v-304.766a44.049 44.049 0 0 0 -44-44zm-327.53 409.852h-54.839v-17.086h54.839zm305.9 0h-54.84v-17.086h54.839zm21.63-29.086h-404a32.036 32.036 0 0 1 -32-32v-40.194h468v40.194a32.036 32.036 0 0 1 -32 32zm-9.739-84.194h-384.522v-225.7a14.017 14.017 0 0 1 14-14h356.522a14.017 14.017 0 0 1 14 14zm41.739 0h-29.739v-225.7a26.03 26.03 0 0 0 -26-26h-356.522a26.03 26.03 0 0 0 -26 26v225.7h-29.739v-252.572a32.036 32.036 0 0 1 32-32h404a32.036 32.036 0 0 1 32 32z"/><path d="m55.153 374.53a16.074 16.074 0 1 0 16.047 16.07 16.08 16.08 0 0 0 -16.047-16.07zm0 20.148a4.074 4.074 0 1 1 4.047-4.078 4.066 4.066 0 0 1 -4.047 4.078z"/><path d="m101.914 374.53a16.074 16.074 0 1 0 16.051 16.07 16.081 16.081 0 0 0 -16.051-16.07zm0 20.148a4.074 4.074 0 1 1 4.051-4.074 4.066 4.066 0 0 1 -4.051 4.074z"/><path d="m297.814 374.53a16.074 16.074 0 1 0 16.05 16.074 16.08 16.08 0 0 0 -16.05-16.074zm0 20.148a4.074 4.074 0 1 1 4.05-4.074 4.066 4.066 0 0 1 -4.05 4.074z"/><path d="m344.575 374.53a16.074 16.074 0 1 0 16.05 16.074 16.081 16.081 0 0 0 -16.05-16.074zm0 20.148a4.074 4.074 0 1 1 4.05-4.074 4.067 4.067 0 0 1 -4.05 4.074z"/><path d="m390.167 374.53a16.074 16.074 0 1 0 16.051 16.07 16.08 16.08 0 0 0 -16.051-16.07zm0 20.148a4.074 4.074 0 1 1 4.051-4.074 4.066 4.066 0 0 1 -4.051 4.074z"/><path d="m449.787 374.53a16.074 16.074 0 1 0 16.051 16.07 16.081 16.081 0 0 0 -16.051-16.07zm0 20.148a4.074 4.074 0 1 1 4.051-4.074 4.066 4.066 0 0 1 -4.051 4.074z"/><path d="m81.512 114.649a6 6 0 0 0 -6 6v2.362a6 6 0 0 0 12 0v-2.362a6 6 0 0 0 -6-6z"/><path d="m81.512 134.211a6 6 0 0 0 -6 6v60.7a6 6 0 0 0 12 0v-60.7a6 6 0 0 0 -6-6z"/></g></svg>