<svg id="Capa_1" enable-background="new 0 0 512 512" height="100" viewBox="0 0 512 512" width="100" xmlns="http://www.w3.org/2000/svg"><g><g><path d="m99.5 306.404v93.096l-31.676-27.479c-16.57 0-31.676-15.951-31.676-32.521 0-8.55 4.207-20.405 9.957-25.855 5.38-5.14 12.66-8.29 20.68-8.29z" fill="#edc258"/><path d="m99.5 399.5c0 8.28-3.36 15.78-8.79 21.21s-12.93 8.79-21.21 8.79h-57c-2.76 0-5-2.24-5-5v-125c0-2.76 2.24-5 5-5h27l2.138 10.855-2.138 34.145c0 16.57 13.43 30 30 30s30 13.43 30 30z" fill="#ffd064"/><path d="m480.851 397.489-326.83-.532c-11.046 0-20-8.954-20-20l-2.702-269.894c0-9.665 5.036-22.293 14.15-24.157 1.302-.266 2.65-.406 4.031-.406h335c11.046 0 20 8.954 20 20v279c0 1.37-.138 2.708-.4 4-1.853 9.129-13.573 11.989-23.249 11.989z" fill="#f8f7f7"/><path d="m280.5 339.5h-16.5l-7.5-4.372-7.5 4.372h-22.5l-13.585-99.138 13.585-95.862h22.5l7.5 3.16 7.5-3.16h16.5c3.314 0 6 2.686 6 6v183c0 3.314-2.686 6-6 6z" fill="#d8d8d8"/><path d="m504.1 385.5c-1.85 9.13-9.92 16-19.6 16h-335c-11.05 0-20-8.95-20-20v-18l8-129.266-8-113.734v-18c0-9.68 6.87-17.75 16-19.6v281.6c0 11.6 9.4 21 21 21z" fill="#e8e8e8"/><path d="m226.5 144.5v195c0 6.62-2.69 12.62-7.03 16.97-4.35 4.34-10.35 7.03-16.97 7.03h-73l10.547-129.616-10.547-113.384h73c13.25 0 24 10.75 24 24z" fill="#e8e8e8"/><path d="m129.5 120.5h16v243h-16z" fill="#d8d8d8"/><path d="m457.681 242.2-123.362-.923c-2.761 0-5-2.239-5-5l-.83-83.404c0-2.761 2.239-5 5-5l6.011-3.372h120c2.761 0 5 2.239 5 5v82l-1.819 5.7c0 2.76-2.239 4.999-5 4.999z" fill="#afefa5"/><path d="m464.5 231.5v8c0 2.761-2.239 5-5 5h-128c-2.761 0-5-2.239-5-5v-90c0-2.761 2.239-5 5-5h8v77c0 5.523 4.477 10 10 10z" fill="#8ce1a4"/><path d="m456.66 336.66-122.277-1c-2.761 0-5-2.239-5-5l-.064-45.191c0-2.761 2.239-5 5-5l5.181-1.968h120c2.761 0 5 2.239 5 5v42l-2.84 6.16c0 2.76-2.239 4.999-5 4.999z" fill="#7bb1ff"/><path d="m464.5 325.5v8c0 2.761-2.239 5-5 5h-128c-2.761 0-5-2.239-5-5v-50c0-2.761 2.239-5 5-5h8v37c0 5.523 4.477 10 10 10z" fill="#62a5f4"/><path d="m264 180.5v123c0 3.314-2.686 6-6 6h-188.5c-8.02 0-15.3 3.15-20.68 8.29-5.75 5.45-9.32 13.16-9.32 21.71v-135c0-16.569 13.431-30 30-30h188.5c3.314 0 6 2.686 6 6z" fill="#ffe07d"/></g><g><path d="m484.5 75h-23c-4.142 0-7.5 3.357-7.5 7.5s3.358 7.5 7.5 7.5h23c6.893 0 12.5 5.607 12.5 12.5v279c0 6.893-5.607 12.5-12.5 12.5h-335c-6.893 0-12.5-5.607-12.5-12.5v-10.5h65.5c14.785 0 27.216-10.241 30.591-24h53.409c4.142 0 7.5-3.357 7.5-7.5v-76.224c0-4.143-3.358-7.5-7.5-7.5s-7.5 3.357-7.5 7.5v68.724h-15v-180h15v76.276c0 4.143 3.358 7.5 7.5 7.5s7.5-3.357 7.5-7.5v-83.776c0-4.143-3.358-7.5-7.5-7.5h-53.409c-3.374-13.759-15.806-24-30.591-24h-65.5v-10.5c0-6.893 5.607-12.5 12.5-12.5h277c4.142 0 7.5-3.357 7.5-7.5s-3.358-7.5-7.5-7.5h-277c-15.164 0-27.5 12.337-27.5 27.5v64.5h-52.5c-20.678 0-37.5 16.822-37.5 37.5v82.5h-19.5c-6.893 0-12.5 5.607-12.5 12.5v35.968c0 4.143 3.358 7.5 7.5 7.5s7.5-3.357 7.5-7.5v-33.468h17v37.5c0 20.678 16.822 37.5 37.5 37.5 12.407 0 22.5 10.094 22.5 22.5s-10.093 22.5-22.5 22.5h-54.5v-51.532c0-4.143-3.358-7.5-7.5-7.5s-7.5 3.357-7.5 7.5v54.032c0 6.893 5.607 12.5 12.5 12.5h57c20.678 0 37.5-16.822 37.5-37.5v-82.5h15v64.5c0 15.163 12.336 27.5 27.5 27.5h335c15.164 0 27.5-12.337 27.5-27.5v-279c0-15.163-12.336-27.5-27.5-27.5zm-250.5 257v-15h15v15zm15-165h-15v-15h15zm-202 37.5c0-12.406 10.093-22.5 22.5-22.5h91.351c4.142 0 7.5-3.357 7.5-7.5s-3.358-7.5-7.5-7.5h-23.851v-39h65.5c9.098 0 16.5 7.402 16.5 16.5v22.5h-23.149c-4.142 0-7.5 3.357-7.5 7.5s3.358 7.5 7.5 7.5h53.149v120h-179.5c-8.435 0-16.229 2.8-22.5 7.518zm45 165.021c-5.606-4.138-14.07-7.651-22.5-7.521-12.407 0-22.5-10.094-22.5-22.5s10.093-22.5 22.5-22.5h22.5zm127-52.521v22.5c0 9.098-7.402 16.5-16.5 16.5h-65.5v-39z"/><path d="m472 144.5c0-4.143-3.358-7.5-7.5-7.5h-138c-4.142 0-7.5 3.357-7.5 7.5v100c0 4.143 3.358 7.5 7.5 7.5h138c4.142 0 7.5-3.357 7.5-7.5zm-15 92.5h-123v-85h123z"/><path d="m464.5 271h-138c-4.142 0-7.5 3.357-7.5 7.5v60c0 4.143 3.358 7.5 7.5 7.5h138c4.142 0 7.5-3.357 7.5-7.5v-60c0-4.143-3.358-7.5-7.5-7.5zm-7.5 60h-123v-45h123z"/><path d="m353.5 202h15.993c2.899 0 5.538-1.671 6.778-4.29l1.681-3.55 10.587 26.154c1.146 2.832 3.897 4.686 6.953 4.686s5.806-1.854 6.952-4.687l10.587-26.16 1.687 3.559c1.241 2.619 3.88 4.288 6.777 4.288h16.005c4.142 0 7.5-3.357 7.5-7.5s-3.358-7.5-7.5-7.5h-11.261l-6.974-14.712c-1.275-2.689-4.017-4.365-6.995-4.285-2.975.087-5.618 1.925-6.734 4.684l-10.046 24.823-10.048-24.824c-1.117-2.759-3.76-4.597-6.736-4.683-2.989-.093-5.721 1.597-6.994 4.287l-6.966 14.71h-11.246c-4.142 0-7.5 3.357-7.5 7.5s3.358 7.5 7.5 7.5z"/><path d="m69.5 250h15.993c2.899 0 5.538-1.671 6.778-4.29l1.681-3.55 10.587 26.154c1.146 2.832 3.897 4.686 6.953 4.686s5.806-1.854 6.952-4.687l9.519-23.521 12.949 37.175c1.053 3.022 3.901 5.033 7.081 5.033.097 0 .195-.002.292-.006 3.296-.128 6.122-2.394 6.962-5.583l12.507-47.472 9.522 33.605c.874 3.083 3.609 5.271 6.81 5.444 3.193.16 6.156-1.705 7.358-4.676l10.587-26.16 1.687 3.559c1.241 2.619 3.88 4.288 6.777 4.288h16.005c4.142 0 7.5-3.357 7.5-7.5s-3.358-7.5-7.5-7.5h-11.261l-6.974-14.712c-1.275-2.69-4.029-4.385-6.995-4.285-2.975.087-5.618 1.925-6.734 4.684l-8.792 21.725-11.039-38.956c-.915-3.229-3.864-5.455-7.215-5.455-.023 0-.046 0-.07 0-3.38.031-6.322 2.32-7.183 5.589l-13.239 50.251-11.427-32.807c-1.027-2.949-3.775-4.954-6.897-5.031-3.115-.031-5.966 1.789-7.137 4.685l-10.047 24.823-10.048-24.824c-1.117-2.759-3.76-4.597-6.736-4.683-2.999-.11-5.721 1.596-6.994 4.287l-6.966 14.71h-11.246c-4.142 0-7.5 3.357-7.5 7.5s3.358 7.5 7.5 7.5z"/><path d="m434.52 316c4.142 0 7.5-3.357 7.5-7.5s-3.358-7.5-7.5-7.5h-.01c-4.142 0-7.495 3.357-7.495 7.5s3.363 7.5 7.505 7.5z"/><path d="m404.52 316c4.142 0 7.5-3.357 7.5-7.5s-3.358-7.5-7.5-7.5h-.01c-4.142 0-7.495 3.357-7.495 7.5s3.363 7.5 7.505 7.5z"/><path d="m356.5 316h18c4.142 0 7.5-3.357 7.5-7.5s-3.358-7.5-7.5-7.5h-18c-4.142 0-7.5 3.357-7.5 7.5s3.358 7.5 7.5 7.5z"/><path d="m379.383 122c4.142 0 7.5-3.357 7.5-7.5s-3.358-7.5-7.5-7.5h-15.883c-4.142 0-7.5 3.357-7.5 7.5s3.358 7.5 7.5 7.5z"/><path d="m464.5 107h-50.117c-4.142 0-7.5 3.357-7.5 7.5s3.358 7.5 7.5 7.5h50.117c4.142 0 7.5-3.357 7.5-7.5s-3.358-7.5-7.5-7.5z"/></g></g></svg>