<svg id="Layer_1" enable-background="new 0 0 512 512" height="130" viewBox="0 0 512 512" width="130" xmlns="http://www.w3.org/2000/svg"><g><g><path d="m422 30h-53.5v-16.5c0-7.444-6.056-13.5-13.5-13.5h-34.762c-4.143 0-7.5 3.358-7.5 7.5s3.357 7.5 7.5 7.5h33.262v15h-195v-15h129.738c4.143 0 7.5-3.358 7.5-7.5s-3.357-7.5-7.5-7.5h-131.238c-7.444 0-13.5 6.056-13.5 13.5v16.5h-53.5c-10.752 0-19.5 8.748-19.5 19.5v45.718c0 4.142 3.357 7.5 7.5 7.5s7.5-3.358 7.5-7.5v-45.718c0-2.481 2.019-4.5 4.5-4.5h81.5v15h-63.5c-4.143 0-7.5 3.358-7.5 7.5v407c0 4.142 3.357 7.5 7.5 7.5h296c4.143 0 7.5-3.358 7.5-7.5v-26.817c0-4.142-3.357-7.5-7.5-7.5s-7.5 3.358-7.5 7.5v19.317h-281v-392h56v1.763c0 12.261 9.976 22.237 22.237 22.237h124.525c12.262 0 22.237-9.976 22.237-22.237v-1.763h56v340.729c0 4.142 3.357 7.5 7.5 7.5s7.5-3.358 7.5-7.5v-348.229c0-4.142-3.357-7.5-7.5-7.5h-63.5v-15h81.501c2.481 0 4.5 2.019 4.5 4.5v443c0 2.481-2.019 4.5-4.5 4.5h-332c-2.481 0-4.5-2.019-4.5-4.5v-365.189c0-4.142-3.357-7.5-7.5-7.5s-7.5 3.358-7.5 7.5v365.189c0 10.752 8.748 19.5 19.5 19.5h332c10.752 0 19.5-8.748 19.5-19.5v-443c0-10.752-8.748-19.5-19.5-19.5zm-96.5 46.763c0 3.991-3.247 7.237-7.237 7.237h-124.526c-3.99 0-7.237-3.247-7.237-7.237v-1.763h139zm0-16.763h-139v-15h139z"/><path d="m199.392 132.983c-15.163 0-27.5 12.336-27.5 27.5v7.5h-7.5c-15.163 0-27.5 12.336-27.5 27.5s12.337 27.5 27.5 27.5h7.5v7.5c0 15.164 12.337 27.5 27.5 27.5s27.5-12.336 27.5-27.5v-7.5h7.5c15.163 0 27.5-12.336 27.5-27.5s-12.337-27.5-27.5-27.5h-7.5v-7.5c0-15.163-12.337-27.5-27.5-27.5zm35 50c6.893 0 12.5 5.607 12.5 12.5s-5.607 12.5-12.5 12.5h-11c-6.341 0-11.5 5.159-11.5 11.5v11c0 6.893-5.607 12.5-12.5 12.5s-12.5-5.607-12.5-12.5v-11c0-6.341-5.159-11.5-11.5-11.5h-11c-6.893 0-12.5-5.607-12.5-12.5s5.607-12.5 12.5-12.5h11c6.341 0 11.5-5.159 11.5-11.5v-11c0-6.893 5.607-12.5 12.5-12.5s12.5 5.607 12.5 12.5v11c0 6.341 5.159 11.5 11.5 11.5z"/><path d="m289.471 161.57h69.456c4.143 0 7.5-3.358 7.5-7.5s-3.357-7.5-7.5-7.5h-69.456c-4.143 0-7.5 3.358-7.5 7.5s3.357 7.5 7.5 7.5z"/><path d="m289.471 191.57h69.456c4.143 0 7.5-3.358 7.5-7.5s-3.357-7.5-7.5-7.5h-69.456c-4.143 0-7.5 3.358-7.5 7.5s3.357 7.5 7.5 7.5z"/><path d="m289.471 221.57h69.456c4.143 0 7.5-3.358 7.5-7.5s-3.357-7.5-7.5-7.5h-69.456c-4.143 0-7.5 3.358-7.5 7.5s3.357 7.5 7.5 7.5z"/><path d="m289.471 251.57h41.532c4.143 0 7.5-3.358 7.5-7.5s-3.357-7.5-7.5-7.5h-41.532c-4.143 0-7.5 3.358-7.5 7.5s3.357 7.5 7.5 7.5z"/><path d="m361.854 300.115h-211.708c-4.143 0-7.5 3.358-7.5 7.5s3.357 7.5 7.5 7.5h211.707c4.143 0 7.5-3.358 7.5-7.5s-3.357-7.5-7.499-7.5z"/><path d="m361.854 330.115h-211.708c-4.143 0-7.5 3.358-7.5 7.5s3.357 7.5 7.5 7.5h211.707c4.143 0 7.5-3.358 7.5-7.5s-3.357-7.5-7.499-7.5z"/><path d="m369.354 367.615c0-4.142-3.357-7.5-7.5-7.5h-211.708c-4.143 0-7.5 3.358-7.5 7.5s3.357 7.5 7.5 7.5h211.707c4.143 0 7.501-3.358 7.501-7.5z"/><path d="m150.146 390.115c-4.143 0-7.5 3.358-7.5 7.5s3.357 7.5 7.5 7.5h126.593c4.143 0 7.5-3.358 7.5-7.5s-3.357-7.5-7.5-7.5z"/></g></g></svg>