<svg width="652" height="542" viewBox="0 0 652 542" fill="none" xmlns="http://www.w3.org/2000/svg">
<path d="M517.198 19.3062C515.528 16.8662 516.078 10.5762 518.278 8.94616C520.878 7.01616 527.158 7.94616 530.228 7.94616C532.648 7.94616 535.738 7.87616 537.428 10.5862C538.858 12.8962 538.488 16.7161 538.488 16.7161" stroke="#442257" stroke-width="4" stroke-linecap="round" stroke-linejoin="round"/>
<path d="M518.279 8.9463C512.559 9.1563 512.179 6.50629 513.279 4.51629C515.099 1.20629 521.339 2.10629 529.229 2.12629C544.399 2.17629 539.959 8.6863 538.019 9.7763" stroke="#442257" stroke-width="4" stroke-linecap="round" stroke-linejoin="round"/>
<path d="M584.338 49.5963C580.946 46.0911 576.588 43.6752 571.818 42.6563C569.648 39.9363 567.558 36.8963 566.238 35.2163C555.838 21.9863 537.998 13.2163 520.588 15.6363C507.408 17.4963 493.508 25.8263 489.468 38.6363C487.738 44.1063 487.268 50.1663 489.728 55.4863C491.258 58.8063 495.268 67.5663 503.608 69.4863C504.791 66.01 506.15 62.5956 507.678 59.2563C516.038 63.7763 530.838 61.7563 535.288 55.2563C536.118 64.2563 548.948 61.6463 555.538 60.0363C555.538 63.7263 559.188 68.0363 562.128 70.0363C563.298 70.8178 564.553 71.4652 565.868 71.9664C564.978 75.4664 563.738 79.1863 562.338 83.0163C572.568 85.5363 585.338 77.8764 588.038 65.7164C589.218 60.2864 587.968 53.7063 584.338 49.5963Z" fill="#ABDDDF" stroke="#ABDDDF" stroke-width="4" stroke-linecap="round" stroke-linejoin="round"/>
<path d="M419.049 227.176C422.449 220.286 425.259 210.036 432.429 206.706" stroke="#442257" stroke-width="4" stroke-linecap="round" stroke-linejoin="round"/>
<path d="M464.307 174.216C455.698 174.359 447.168 175.892 439.047 178.756C425.207 183.826 410.647 196.926 401.047 207.756C390.777 219.386 374.887 232.346 369.947 235.086" stroke="#442257" stroke-width="4" stroke-linecap="round" stroke-linejoin="round"/>
<path d="M53.0488 499.216C49.2688 512.986 40.9788 539.746 40.9788 539.746H25.0488C25.0488 539.746 27.5088 512.626 28.8688 499.426" stroke="#442257" stroke-width="4" stroke-linecap="round" stroke-linejoin="round"/>
<path d="M243.197 499.216C246.977 512.986 255.267 539.746 255.267 539.746H271.207C271.207 539.746 268.757 510.626 267.387 497.426" stroke="#442257" stroke-width="4" stroke-linecap="round" stroke-linejoin="round"/>
<path d="M199.047 499.216C200.807 511.496 203.307 539.746 203.307 539.746H187.427C185.617 531.896 174.867 499.216 174.867 499.216" stroke="#442257" stroke-width="4" stroke-linecap="round" stroke-linejoin="round"/>
<path d="M563.049 496.216C566.829 509.986 576.129 539.746 576.129 539.746H592.049C592.049 539.746 589.599 510.626 588.239 497.426" stroke="#442257" stroke-width="4" stroke-linecap="round" stroke-linejoin="round"/>
<path d="M376.428 496.216C374.668 508.496 371.168 539.746 371.168 539.746H387.048C388.858 531.896 400.618 496.216 400.618 496.216" stroke="#442257" stroke-width="4" stroke-linecap="round" stroke-linejoin="round"/>
<path d="M627.218 193.456C616.688 189.336 601.028 189.126 586.478 189.126H585.778C585.418 192.366 584.898 195.846 584.508 199.536C581.388 228.926 570.018 259.086 560.718 287.056V287.846H376.498C367.778 287.326 356.258 288.316 349.908 295.126C344.278 301.126 346.858 310.896 347.368 318.796C348.298 333.196 350.818 347.706 353.028 362.066L354.208 369.526C348.138 370.686 346.768 378.526 339.748 378.456C335.058 378.456 332.938 374.586 328.808 373.526C315.708 370.176 311.408 386.866 299.518 385.696C292.908 385.056 290.268 381.536 282.968 386.256C280.628 387.776 278.258 392.336 276.298 393.256C273.778 394.396 236.068 396.326 229.028 397.176C226.568 397.476 221.138 397.016 219.028 395.176C216.918 393.336 214.858 382.076 213.668 370.666C212.478 359.256 208.468 344.576 193.148 343.806C177.828 343.036 141.448 341.596 114.148 344.236C82.4581 347.306 3.68806 330.636 2.48806 381.156C1.83806 408.086 1.09806 435.636 5.60806 462.386C7.03806 470.926 8.95806 483.826 15.0481 491.716C16.4217 493.53 18.1164 495.075 20.0481 496.276C27.0481 500.576 37.4381 498.906 45.1681 498.906H93.408C142.778 498.906 190.588 498.246 239.948 498.546C247.208 498.546 254.438 497.996 261.298 495.756H586.838C604.298 495.756 607.108 477.076 611.838 460.306C619.318 434.016 622.428 406.736 626.488 379.686C629.998 356.296 633.908 332.446 639.238 309.426C644.948 284.766 646.178 259.986 648.688 234.876C650.578 216.126 645.578 200.606 627.218 193.456Z" fill="#FAB550" stroke="#FAB550" stroke-width="4" stroke-linecap="round" stroke-linejoin="round"/>
<g opacity="0.4">
<path opacity="0.4" d="M497.738 103.756L501.668 109.266" stroke="#F15D4A" stroke-width="4" stroke-linecap="round" stroke-linejoin="round"/>
<path opacity="0.4" d="M503.639 99.0259L513.089 112.016" stroke="#F15D4A" stroke-width="4" stroke-linecap="round" stroke-linejoin="round"/>
<path opacity="0.4" d="M511.518 98.2461L521.358 112.416" stroke="#F15D4A" stroke-width="4" stroke-linecap="round" stroke-linejoin="round"/>
<path opacity="0.4" d="M522.139 98.6362L531.989 113.986" stroke="#F15D4A" stroke-width="4" stroke-linecap="round" stroke-linejoin="round"/>
<path opacity="0.4" d="M533.559 100.996L539.459 110.836" stroke="#F15D4A" stroke-width="4" stroke-linecap="round" stroke-linejoin="round"/>
</g>
<path d="M349.149 294.886C346.149 285.636 356.299 269.746 367.149 264.946C379.349 259.576 398.639 251.946 412.569 253.076" stroke="#442257" stroke-width="4" stroke-linecap="round" stroke-linejoin="round"/>
<path d="M451.278 240.826V240.556C444.208 221.966 398.708 229.016 384.278 231.436C353.828 236.546 329.278 258.436 298.658 267.166C293.258 268.716 273.148 270.166 260.888 276.956C257.478 276.956 254.098 277.326 250.808 277.486C239.898 278.016 226.648 281.056 217.458 282.276C210.778 281.606 203.248 281.966 196.548 282.276C190.408 282.556 153.928 286.666 153.928 286.666C161.538 288.666 167.328 296.666 170.428 304.336C174.688 314.796 176.428 329.856 175.688 341.336V342.977C182.688 343.187 188.778 343.466 193.128 343.686C208.448 344.456 212.458 359.127 213.648 370.547C214.838 381.967 216.818 393.096 219.008 395.056C221.198 397.016 226.538 397.396 229.008 397.056C236.008 396.206 273.758 394.276 276.278 393.136C278.278 392.246 280.608 387.686 282.948 386.136C290.248 381.416 292.888 384.936 299.498 385.576C311.388 386.746 315.688 370.056 328.788 373.406C332.918 374.466 335.038 378.306 339.728 378.336C346.728 378.336 348.148 370.767 354.218 369.607" stroke="#442257" stroke-width="4" stroke-linecap="round" stroke-linejoin="round"/>
<path d="M369.048 462.997C367.238 447.997 355.758 379.717 353.048 361.997C350.838 347.637 348.318 333.127 347.388 318.727C346.878 310.827 344.298 301.097 349.928 295.057C356.278 288.247 367.798 287.257 376.518 287.777H573.318C592.588 287.777 592.788 313.217 594.568 325.567" stroke="#442257" stroke-width="4" stroke-linecap="round" stroke-linejoin="round"/>
<path d="M560.718 287.006C570.018 259.006 581.388 228.876 584.508 199.486C586.228 183.316 590.398 171.036 572.508 166.576C565.908 164.926 553.018 163.236 547.508 163.406" stroke="#442257" stroke-width="4" stroke-linecap="round" stroke-linejoin="round"/>
<path d="M521.358 195.687C517.598 208.317 504.558 218.297 517.688 230.997C507.008 223.157 495.958 230.507 496.208 244.297C494.078 234.137 473.428 239.027 466.988 239.617C453.518 240.847 440.818 240.767 428.068 245.177C418.158 248.607 410.638 250.677 409.168 261.427C408.328 267.537 406.098 280.717 409.558 285.427" stroke="#442257" stroke-width="4" stroke-linecap="round" stroke-linejoin="round"/>
<path d="M549.748 240.957C550.76 240.569 551.814 240.304 552.888 240.167" stroke="#442257" stroke-width="4" stroke-linecap="round" stroke-linejoin="round"/>
<path d="M531.889 225.926C530.937 225.249 529.934 224.648 528.889 224.126" stroke="#442257" stroke-width="4" stroke-linecap="round" stroke-linejoin="round"/>
<path d="M536.707 214.456C537.597 213.416 538.149 212.128 538.287 210.766" stroke="#442257" stroke-width="4" stroke-linecap="round" stroke-linejoin="round"/>
<path d="M567.809 192.536C568.493 192.448 569.142 192.184 569.694 191.771C570.246 191.357 570.681 190.808 570.959 190.176" stroke="#442257" stroke-width="4" stroke-linecap="round" stroke-linejoin="round"/>
<path d="M559.928 179.936V178.366" stroke="#442257" stroke-width="4" stroke-linecap="round" stroke-linejoin="round"/>
<path d="M577.248 176.786C578.087 176.708 578.897 176.442 579.618 176.006" stroke="#442257" stroke-width="4" stroke-linecap="round" stroke-linejoin="round"/>
<path d="M570.957 226.386C572.317 225.976 573.567 226.146 574.097 227.176" stroke="#442257" stroke-width="4" stroke-linecap="round" stroke-linejoin="round"/>
<path d="M546.289 196.937L544.379 194.437" stroke="#442257" stroke-width="4" stroke-linecap="round" stroke-linejoin="round"/>
<path d="M515.847 286.226C511.047 271.456 523.227 267.757 534.757 266.717C548.757 265.447 554.927 249.216 569.377 253.946" stroke="#442257" stroke-width="4" stroke-linecap="round" stroke-linejoin="round"/>
<path d="M446.558 277.566C445.545 277.947 444.491 278.209 443.418 278.346" stroke="#442257" stroke-width="4" stroke-linecap="round" stroke-linejoin="round"/>
<path d="M427.669 262.606C427.209 261.896 426.937 261.08 426.879 260.236" stroke="#442257" stroke-width="4" stroke-linecap="round" stroke-linejoin="round"/>
<path d="M438.688 255.516V252.366" stroke="#442257" stroke-width="4" stroke-linecap="round" stroke-linejoin="round"/>
<path d="M470.178 265.756V268.116" stroke="#442257" stroke-width="4" stroke-linecap="round" stroke-linejoin="round"/>
<path d="M496.158 261.816C496.83 261.623 497.539 261.594 498.224 261.732C498.91 261.869 499.553 262.169 500.098 262.606" stroke="#442257" stroke-width="4" stroke-linecap="round" stroke-linejoin="round"/>
<path d="M511.908 244.456L513.478 242.876" stroke="#442257" stroke-width="4" stroke-linecap="round" stroke-linejoin="round"/>
<path d="M481.988 246.856C481.988 245.366 482.528 244.106 483.568 243.706" stroke="#442257" stroke-width="4" stroke-linecap="round" stroke-linejoin="round"/>
<path d="M379.919 271.836C371.719 271.756 356.819 281.476 356.299 290.516" stroke="#442257" stroke-width="4" stroke-linecap="round" stroke-linejoin="round"/>
<path d="M526.868 176.216C511.508 186.846 498.078 205.356 490.498 222.326C480.108 220.526 466.148 219.966 455.098 219.376C457.408 204.656 474.678 182.836 486.418 174.486C494.148 168.986 502.278 171.946 511.348 174.226C522.348 176.996 529.898 176.996 539.458 170.166C546.668 165.026 550.888 160.286 551.298 150.416C551.668 141.496 546.078 139.116 537.718 139.786C526.868 140.656 514.878 145.476 503.838 147.666C494.278 149.556 486.088 147.816 476.838 148.446C467.238 149.106 462.368 161.826 463.838 171.316C465.578 182.526 471.678 178.366 479.938 179.146" stroke="#442257" stroke-width="4" stroke-linecap="round" stroke-linejoin="round"/>
<path d="M484.498 223.296C483.234 225.164 482.335 227.254 481.848 229.456" stroke="#442257" stroke-width="4" stroke-linecap="round" stroke-linejoin="round"/>
<path d="M472.549 229.536C472.917 227.057 473.716 224.661 474.909 222.456" stroke="#442257" stroke-width="4" stroke-linecap="round" stroke-linejoin="round"/>
<path d="M466.428 220.976C464.848 224.126 464.038 228.586 463.518 230.896" stroke="#442257" stroke-width="4" stroke-linecap="round" stroke-linejoin="round"/>
<path d="M457.778 220.766C456.688 222.933 455.791 225.192 455.098 227.516" stroke="#442257" stroke-width="4" stroke-linecap="round" stroke-linejoin="round"/>
<path d="M68.5488 342.796C86.1488 342.796 102.879 345.206 114.169 344.116C132.169 342.366 157.169 342.406 174.469 342.856" stroke="#442257" stroke-width="4" stroke-linecap="round" stroke-linejoin="round"/>
<path d="M276.298 393.176C277.748 412.036 278.058 443.866 278.078 462.566C278.078 475.256 279.428 486.436 269.418 493.086" stroke="#442257" stroke-width="4" stroke-linecap="round" stroke-linejoin="round"/>
<path d="M204.867 493.996C206.747 447.486 207.807 397.096 197.777 353.926" stroke="#442257" stroke-width="4" stroke-linecap="round" stroke-linejoin="round"/>
<path d="M292.327 290.516C285.597 283.056 271.227 277.756 260.938 276.966" stroke="#442257" stroke-width="4" stroke-linecap="round" stroke-linejoin="round"/>
<path d="M51.6582 355.756C55.6582 350.436 63.6582 344.876 69.5082 343.006" stroke="#442257" stroke-width="4" stroke-linecap="round" stroke-linejoin="round"/>
<path d="M74.6875 354.076C75.5475 350.546 81.5775 344.076 84.8075 343.326" stroke="#442257" stroke-width="4" stroke-linecap="round" stroke-linejoin="round"/>
<path d="M214.098 337.676C253.198 337.676 263.838 337.526 275.428 346.366C283.918 352.836 286.198 366.106 292.308 374.366" stroke="#442257" stroke-width="4" stroke-linecap="round" stroke-linejoin="round"/>
<path d="M304.848 332.667C309.648 340.077 312.258 357.926 320.168 364.206" stroke="#442257" stroke-width="4" stroke-linecap="round" stroke-linejoin="round"/>
<path d="M316.658 314.566C324.488 320.426 328.228 352.436 337.538 358.976" stroke="#442257" stroke-width="4" stroke-linecap="round" stroke-linejoin="round"/>
<path d="M217.508 282.286C228.448 283.376 238.508 287.386 245.678 295.446" stroke="#442257" stroke-width="4" stroke-linecap="round" stroke-linejoin="round"/>
<path d="M115.848 355.706C118.968 350.506 124.638 343.876 130.598 343.056" stroke="#442257" stroke-width="4" stroke-linecap="round" stroke-linejoin="round"/>
<path d="M565.858 71.8965C563.088 82.8165 556.938 95.7965 552.948 108.176C559.008 108.276 571.818 109.016 570.008 118.526C568.528 126.326 555.818 126.576 549.838 126.526C548.108 130.526 545.338 139.766 545.338 139.766" stroke="#442257" stroke-width="4" stroke-linecap="round" stroke-linejoin="round"/>
<path d="M478.838 147.236C478.838 147.236 484.928 129.526 487.198 120.036C489.698 109.576 493.658 99.5764 497.198 89.4064C500.328 80.2564 503.288 68.7663 507.728 59.2563" stroke="#442257" stroke-width="4" stroke-linecap="round" stroke-linejoin="round"/>
<path d="M502.459 53.6465C506.589 64.5665 529.559 63.6465 535.289 55.2065C536.119 64.2065 548.949 61.5965 555.539 59.9865C555.539 63.6765 559.189 67.9865 562.129 69.9865C565.284 72.1765 569.087 73.2339 572.919 72.9865" stroke="#442257" stroke-width="4" stroke-linecap="round" stroke-linejoin="round"/>
<path d="M502.459 96.4862L504.039 92.1562" stroke="#442257" stroke-width="4" stroke-linecap="round" stroke-linejoin="round"/>
<path d="M367.438 255.126C369.717 256.616 373.017 258.246 372.557 261.426" stroke="#442257" stroke-width="4" stroke-linecap="round" stroke-linejoin="round"/>
<path d="M382.049 247.246C384.109 248.616 392.339 253.846 389.919 255.516" stroke="#442257" stroke-width="4" stroke-linecap="round" stroke-linejoin="round"/>
<path d="M528.928 98.6464L530.498 94.3164" stroke="#442257" stroke-width="4" stroke-linecap="round" stroke-linejoin="round"/>
<path d="M495.667 119.606C495.667 119.606 479.557 107.126 471.857 101.546C464.787 96.4263 457.857 90.8863 450.857 85.8163C447.857 91.6163 440.647 85.6863 443.567 79.9463C447.507 72.1963 456.697 80.3363 450.857 85.8163" fill="#F15D4A"/>
<path d="M495.667 119.606C495.667 119.606 479.557 107.126 471.857 101.546C464.787 96.4263 457.857 90.8863 450.857 85.8163C447.857 91.6163 440.647 85.6863 443.567 79.9463C447.507 72.1963 456.697 80.3363 450.857 85.8163" stroke="#F15D4A" stroke-width="4" stroke-linecap="round" stroke-linejoin="round"/>
<path d="M487.809 118.906C487.809 118.906 490.219 123.496 492.449 123.796C495.779 124.206 500.329 116.266 503.319 118.796C505.109 120.296 502.319 123.546 503.369 125.066C505.369 127.746 508.739 123.186 510.039 121.736C512.709 118.736 517.489 114.416 519.949 119.166C521.469 122.116 519.499 124.566 524.649 123.836" stroke="#442257" stroke-width="4" stroke-linecap="round" stroke-linejoin="round"/>
<path d="M447.818 65.8265C447.007 63.8881 446.6 61.8044 446.622 59.7031C446.644 57.6018 447.096 55.5271 447.948 53.6065C449.588 49.8365 446.238 46.0165 447.048 42.1465" stroke="#442257" stroke-width="4" stroke-linecap="round" stroke-linejoin="round"/>
<path d="M456.239 68.6364C455.516 65.5688 455.8 62.35 457.049 59.4564C457.432 58.3856 457.601 57.2496 457.544 56.1135C457.487 54.9775 457.207 53.8638 456.719 52.8364" stroke="#442257" stroke-width="4" stroke-linecap="round" stroke-linejoin="round"/>
<path d="M438.579 68.9164C436.799 65.3764 438.289 61.8364 439.149 58.7264C439.761 56.1928 439.647 53.5379 438.819 51.0664" stroke="#442257" stroke-width="4" stroke-linecap="round" stroke-linejoin="round"/>
<path d="M530.178 186.256C530.924 185.524 531.848 184.997 532.858 184.726" stroke="#442257" stroke-width="4" stroke-linecap="round" stroke-linejoin="round"/>
<path d="M539.748 172.456C540.48 172.659 541.144 173.056 541.668 173.606" stroke="#442257" stroke-width="4" stroke-linecap="round" stroke-linejoin="round"/>
<path d="M558.898 211.526C559.992 210.793 561.147 210.154 562.348 209.616" stroke="#442257" stroke-width="4" stroke-linecap="round" stroke-linejoin="round"/>
<path d="M508.729 208.456C510.001 209.541 511.418 210.443 512.939 211.136" stroke="#442257" stroke-width="4" stroke-linecap="round" stroke-linejoin="round"/>
<path d="M500.309 220.336C501.06 219.825 501.708 219.177 502.219 218.426" stroke="#442257" stroke-width="4" stroke-linecap="round" stroke-linejoin="round"/>
<path d="M437.498 217.276C438.016 217.919 438.668 218.441 439.408 218.806" stroke="#442257" stroke-width="4" stroke-linecap="round" stroke-linejoin="round"/>
<path d="M442.049 211.146C442.091 210.753 442.266 210.386 442.547 210.108C442.827 209.829 443.195 209.655 443.589 209.616" stroke="#442257" stroke-width="4" stroke-linecap="round" stroke-linejoin="round"/>
<path d="M457.408 199.656C457.993 200.033 458.645 200.294 459.328 200.426" stroke="#442257" stroke-width="4" stroke-linecap="round" stroke-linejoin="round"/>
<path d="M461.629 187.016C461.651 186.363 461.779 185.718 462.009 185.106" stroke="#442257" stroke-width="4" stroke-linecap="round" stroke-linejoin="round"/>
<path d="M454.348 178.066C454.628 176.746 454.908 175.486 455.118 174.236" stroke="#442257" stroke-width="4" stroke-linecap="round" stroke-linejoin="round"/>
<path d="M432.518 179.206C432.964 179.668 433.48 180.056 434.048 180.356" stroke="#442257" stroke-width="4" stroke-linecap="round" stroke-linejoin="round"/>
<path d="M423.709 198.896C424.268 198.583 424.783 198.196 425.239 197.746" stroke="#442257" stroke-width="4" stroke-linecap="round" stroke-linejoin="round"/>
<path d="M439.049 190.086C439.743 190.49 440.561 190.625 441.349 190.466" stroke="#442257" stroke-width="4" stroke-linecap="round" stroke-linejoin="round"/>
<path d="M580.648 206.166C582.47 206.141 584.282 205.903 586.048 205.456" stroke="#442257" stroke-width="4" stroke-linecap="round" stroke-linejoin="round"/>
<path d="M529.408 259.786C529.594 259.244 529.853 258.729 530.178 258.256" stroke="#442257" stroke-width="4" stroke-linecap="round" stroke-linejoin="round"/>
<path d="M491.109 284.206L489.969 285.746" stroke="#442257" stroke-width="4" stroke-linecap="round" stroke-linejoin="round"/>
<path d="M480.389 280.456H476.559" stroke="#442257" stroke-width="4" stroke-linecap="round" stroke-linejoin="round"/>
<path d="M461.627 245.237C461.605 244.74 461.742 244.25 462.017 243.837C462.292 243.423 462.691 243.108 463.157 242.937" stroke="#442257" stroke-width="4" stroke-linecap="round" stroke-linejoin="round"/>
<path d="M427.048 248.376L425.898 246.846" stroke="#442257" stroke-width="4" stroke-linecap="round" stroke-linejoin="round"/>
<path d="M416.818 278.937C416.3 279.797 415.652 280.572 414.898 281.237" stroke="#442257" stroke-width="4" stroke-linecap="round" stroke-linejoin="round"/>
<path d="M406.938 268.976C408.234 269.125 409.515 269.382 410.767 269.746" stroke="#442257" stroke-width="4" stroke-linecap="round" stroke-linejoin="round"/>
<path d="M387.648 222.636C386.883 222.139 386.229 221.489 385.729 220.726" stroke="#442257" stroke-width="4" stroke-linecap="round" stroke-linejoin="round"/>
<path d="M407.238 222.636C407.714 222.709 408.2 222.677 408.662 222.544C409.125 222.411 409.553 222.18 409.918 221.866" stroke="#442257" stroke-width="4" stroke-linecap="round" stroke-linejoin="round"/>
<path d="M409.159 210.376C408.791 209.655 408.532 208.883 408.389 208.086" stroke="#442257" stroke-width="4" stroke-linecap="round" stroke-linejoin="round"/>
<path d="M119.937 341.636C112.817 327.086 107.627 312.836 104.817 295.836C103.177 285.946 96.4171 255.966 104.617 248.336C124.817 229.556 140.207 302.336 142.227 315.406C143.277 322.156 143.897 336.736 140.177 342.356" stroke="#442257" stroke-width="4" stroke-linecap="round" stroke-linejoin="round"/>
<path d="M68.5485 342.796C61.253 329.004 56.1517 314.16 53.4285 298.796C51.7885 289.516 45.0284 261.376 53.2284 254.216C73.4184 236.596 88.8085 304.876 90.8385 317.156C91.8385 323.496 93.8385 337.696 89.6785 342.706" stroke="#442257" stroke-width="4" stroke-linecap="round" stroke-linejoin="round"/>
<path d="M102.049 279.926C99.3786 271.996 90.2386 262.326 82.2986 257.336C74.3586 252.346 63.1086 250.936 60.5586 251.386" stroke="#442257" stroke-width="4" stroke-linecap="round" stroke-linejoin="round"/>
<path d="M92.8574 318.456C97.4274 315.886 104.217 311.456 106.457 307.456" stroke="#442257" stroke-width="4" stroke-linecap="round" stroke-linejoin="round"/>
<path d="M112.348 245.256C128.998 249.036 144.068 268.596 151.548 283.096C154.368 288.556 153.298 294.596 151.978 298.846C150.658 303.096 145.418 312.896 143.248 314.776" stroke="#442257" stroke-width="4" stroke-linecap="round" stroke-linejoin="round"/>
</svg>
