<svg width="120" height="120" viewBox="0 0 120 120" fill="none" xmlns="http://www.w3.org/2000/svg">
<path d="M98.0436 0.585733C84.9969 -1.64575 56.255 3.44112 51.1677 25.1989C47.7852 39.665 47.8848 51.4664 39.3488 51.6879C34.2699 51.8196 31.6215 41.3028 24.6092 40.4377C15.4576 39.3087 9.10649 46.9287 5.14274 53.8294C-3.57718 69.0103 -0.850462 94.8258 10.6163 107.415C38.387 137.904 71.3656 106.02 85.4659 81.0926C94.5092 65.1052 114.912 52.182 119.161 34.1595C122.718 19.0716 114.825 3.45589 98.0436 0.585733Z" fill="url(#paint0_linear)"/>
<path opacity="0.1" d="M97.5338 25.6363H75.1053C74.1819 25.6363 73.333 26.1582 72.9315 26.9898C71.8374 29.255 70.1661 31.1888 68.1085 32.6005C66.1048 33.9763 63.733 34.8552 61.1717 35.0621V26.8081H65.9171C66.5642 26.8081 67.089 26.2834 67.089 25.6363C67.089 24.9891 66.5642 24.4644 65.9171 24.4644H63.3334C64.5512 23.4873 65.3316 21.9873 65.3316 20.3045C65.3316 17.3598 62.9445 14.9727 59.9998 14.9727C57.0551 14.9727 54.668 17.3598 54.668 20.3045C54.668 21.9873 55.4485 23.4873 56.6663 24.4644H54.0826C53.4355 24.4644 52.9107 24.9891 52.9107 25.6363C52.9107 26.2834 53.4355 26.8081 54.0826 26.8081H58.8277V35.0621C56.2662 34.8552 53.8946 33.9763 51.8909 32.6005C49.8334 31.1888 48.1623 29.255 47.068 26.9898C46.6662 26.1582 45.8176 25.6363 44.8941 25.6363H22.4654C21.256 25.6363 20.2754 26.6169 20.2754 27.8263C20.2754 30.463 22.4129 32.6005 25.0496 32.6005H30.6514V34.7905C30.6514 37.4272 32.7889 39.5647 35.4256 39.5647H38.9527V41.7538C38.9527 44.3905 41.0902 46.528 43.727 46.528H58.8277V52.5554C58.4966 52.3693 58.115 52.2622 57.7081 52.2622H51.2026C50.7078 52.2622 50.2866 52.5697 50.1144 53.003C44.2287 53.1448 39.4838 57.9732 39.4838 63.8923C39.4838 66.8591 40.677 69.5513 42.6071 71.518C40.6773 73.4848 39.4838 76.1771 39.4838 79.1436C39.4838 84.7351 43.718 89.3541 49.148 89.968C48.5434 91.3217 48.2044 92.8191 48.2044 94.3951C48.2044 100.312 52.9456 105.138 58.8275 105.284V109.284H57.4503C56.8032 109.284 56.2784 109.809 56.2784 110.456C56.2784 111.103 56.8032 111.628 57.4503 111.628H58.8277V114.32C58.8277 114.967 59.3525 115.492 59.9996 115.492C60.6467 115.492 61.1715 114.967 61.1715 114.32V111.628H62.5484C63.1955 111.628 63.7203 111.103 63.7203 110.456C63.7203 109.809 63.1955 109.284 62.5484 109.284H61.1715V105.284C67.0536 105.138 71.7945 100.312 71.7945 94.3951C71.7945 92.8191 71.4556 91.3217 70.8509 89.968C76.2809 89.3539 80.5151 84.7351 80.5151 79.1436C80.5151 76.1769 79.3219 73.4846 77.3919 71.518C79.3217 69.5511 80.5151 66.8588 80.5151 63.8923C80.5151 57.9732 75.7702 53.1448 69.8846 53.003C69.7123 52.5697 69.2912 52.2622 68.7964 52.2622H62.2909C61.884 52.2622 61.5024 52.3693 61.1712 52.5554V46.528H76.272C78.9087 46.528 81.0462 44.3905 81.0462 41.7538V39.5647H84.5733C87.2101 39.5647 89.3476 37.4272 89.3476 34.7905V32.6005H94.9494C97.5861 32.6005 99.7236 30.463 99.7236 27.8263C99.7238 26.6169 98.7432 25.6363 97.5338 25.6363ZM50.3799 59.537H54.6891H55.5744C56.863 59.537 58.0191 58.9829 58.828 58.104V68.2477H50.3801C47.9785 68.2477 46.0248 66.2938 46.0248 63.8923C46.0245 61.4907 47.9783 59.537 50.3799 59.537ZM46.0245 79.1438C46.0245 76.7422 47.9785 74.7884 50.3799 74.7884H58.8277V83.4995H50.3799C47.9783 83.4992 46.0245 81.5455 46.0245 79.1438ZM54.7451 94.3953C54.7451 92.0858 56.5534 90.1955 58.8277 90.0537V98.7371C56.5534 98.5951 54.7451 96.7048 54.7451 94.3953ZM61.1715 98.7369V90.0535C63.4459 90.1955 65.2541 92.0858 65.2541 94.3951C65.2541 96.7048 63.4459 98.5951 61.1715 98.7369ZM69.6193 83.4992H61.1715V74.7882H69.6193C72.0209 74.7882 73.9747 76.7422 73.9747 79.1436C73.9747 81.545 72.0209 83.4992 69.6193 83.4992ZM64.4251 59.537H65.3103H69.6195C72.0212 59.537 73.9749 61.4907 73.9749 63.8923C73.9749 66.294 72.0212 68.2477 69.6195 68.2477H61.1715V58.1038C61.9803 58.9829 63.1365 59.537 64.4251 59.537Z" fill="#2626BC"/>
<path d="M77.455 12.9415C76.8079 12.9415 76.2831 12.4167 76.2831 11.7696C76.2831 10.9512 75.6173 10.2853 74.7988 10.2853C74.1517 10.2853 73.627 9.76055 73.627 9.11344C73.627 8.46633 74.1517 7.94156 74.7988 7.94156C75.6173 7.94156 76.2831 7.2757 76.2831 6.45703C76.2831 5.80992 76.8079 5.28516 77.455 5.28516C78.1021 5.28516 78.6269 5.80992 78.6269 6.45703C78.6269 7.27547 79.2927 7.94156 80.1112 7.94156C80.7583 7.94156 81.283 8.46633 81.283 9.11344C81.283 9.76055 80.7583 10.2853 80.1112 10.2853C79.2927 10.2853 78.6269 10.9512 78.6269 11.7696C78.6269 12.417 78.1021 12.9415 77.455 12.9415Z" fill="#6583FE"/>
<path d="M95.6137 44.4969C94.9666 44.4969 94.4418 43.9721 94.4418 43.325C94.4418 42.5066 93.776 41.8407 92.9575 41.8407C92.3104 41.8407 91.7856 41.316 91.7856 40.6689C91.7856 40.0218 92.3104 39.497 92.9575 39.497C93.776 39.497 94.4418 38.8311 94.4418 38.0127C94.4418 37.3656 94.9666 36.8408 95.6137 36.8408C96.2608 36.8408 96.7856 37.3656 96.7856 38.0127C96.7856 38.8311 97.4514 39.497 98.2699 39.497C98.917 39.497 99.4417 40.0218 99.4417 40.6689C99.4417 41.316 98.917 41.8407 98.2699 41.8407C97.4514 41.8407 96.7856 42.5066 96.7856 43.325C96.7856 43.9721 96.2608 44.4969 95.6137 44.4969Z" fill="#6583FE"/>
<path d="M28.9511 58.6883C28.304 58.6883 27.7792 58.1636 27.7792 57.5164C27.7792 56.698 27.1134 56.0321 26.2949 56.0321C25.6478 56.0321 25.123 55.5074 25.123 54.8603C25.123 54.2132 25.6478 53.6884 26.2949 53.6884C27.1134 53.6884 27.7792 53.0225 27.7792 52.2041C27.7792 51.557 28.304 51.0322 28.9511 51.0322C29.5982 51.0322 30.123 51.557 30.123 52.2041C30.123 53.0225 30.7888 53.6884 31.6073 53.6884C32.2544 53.6884 32.7791 54.2132 32.7791 54.8603C32.7791 55.5074 32.2544 56.0321 31.6073 56.0321C30.7888 56.0321 30.123 56.698 30.123 57.5164C30.123 58.1636 29.5982 58.6883 28.9511 58.6883Z" fill="#6583FE"/>
<path d="M24.9897 41.3467C24.3426 41.3467 23.8179 40.8219 23.8179 40.1748V40.1396C23.8179 39.4925 24.3426 38.9678 24.9897 38.9678C25.6369 38.9678 26.1616 39.4925 26.1616 40.1396V40.1748C26.1616 40.8219 25.6369 41.3467 24.9897 41.3467Z" fill="#6583FE"/>
<path d="M24.9897 47.8584C24.3426 47.8584 23.8179 47.3336 23.8179 46.6865V46.6514C23.8179 46.0043 24.3426 45.4795 24.9897 45.4795C25.6369 45.4795 26.1616 46.0043 26.1616 46.6514V46.6865C26.1616 47.3339 25.6369 47.8584 24.9897 47.8584Z" fill="#6583FE"/>
<path d="M22.1838 42.9661C21.9846 42.9661 21.7828 42.9153 21.5979 42.8081L21.5674 42.7906C21.0072 42.4662 20.816 41.7495 21.1404 41.1893C21.4645 40.6294 22.1812 40.4381 22.7416 40.7623L22.7721 40.7799C23.3322 41.1042 23.5235 41.821 23.1991 42.3811C22.9821 42.7564 22.5883 42.9661 22.1838 42.9661Z" fill="#6583FE"/>
<path d="M27.8232 46.2223C27.624 46.2223 27.422 46.1714 27.237 46.0643L27.2066 46.0468C26.6464 45.7224 26.4552 45.0057 26.7795 44.4453C27.1037 43.8854 27.8204 43.6939 28.381 44.0182L28.4115 44.0358C28.9716 44.3602 29.1629 45.0769 28.8385 45.6373C28.6215 46.0125 28.2277 46.2223 27.8232 46.2223Z" fill="#6583FE"/>
<path d="M22.1557 46.2223C21.7512 46.2223 21.3576 46.0125 21.1404 45.6373C20.816 45.0772 21.0072 44.3602 21.5674 44.0358L21.5979 44.0182C22.1583 43.6939 22.875 43.8854 23.1991 44.4453C23.5235 45.0054 23.3322 45.7224 22.7721 46.0468L22.7416 46.0643C22.5569 46.1714 22.3549 46.2223 22.1557 46.2223Z" fill="#6583FE"/>
<path d="M27.7953 42.9662C27.3908 42.9662 26.9973 42.7564 26.78 42.3812C26.4556 41.821 26.6469 41.1041 27.2071 40.7799L27.2375 40.7623C27.7981 40.4382 28.5149 40.6292 28.839 41.1894C29.1634 41.7495 28.9721 42.4665 28.412 42.7906L28.3815 42.8082C28.1966 42.9151 27.9946 42.9662 27.7953 42.9662Z" fill="#6583FE"/>
<path d="M87.2876 91.543C86.6405 91.543 86.1157 91.0182 86.1157 90.3711V90.3359C86.1157 89.6888 86.6405 89.1641 87.2876 89.1641C87.9347 89.1641 88.4595 89.6888 88.4595 90.3359V90.3711C88.4595 91.0182 87.9347 91.543 87.2876 91.543Z" fill="#6583FE"/>
<path d="M87.2876 98.0547C86.6405 98.0547 86.1157 97.5299 86.1157 96.8828V96.8477C86.1157 96.2005 86.6405 95.6758 87.2876 95.6758C87.9347 95.6758 88.4595 96.2005 88.4595 96.8477V96.8828C88.4595 97.5299 87.9347 98.0547 87.2876 98.0547Z" fill="#6583FE"/>
<path d="M84.4817 93.1626C84.2824 93.1626 84.0806 93.1118 83.8957 93.0047L83.8653 92.9871C83.3051 92.6627 83.1138 91.946 83.4382 91.3856C83.7624 90.8257 84.4788 90.6344 85.0397 90.9586L85.0702 90.9761C85.6303 91.3005 85.8216 92.0172 85.4972 92.5776C85.2797 92.9529 84.8862 93.1626 84.4817 93.1626Z" fill="#6583FE"/>
<path d="M90.1213 96.4185C89.9221 96.4185 89.7203 96.3676 89.5354 96.2605L89.5049 96.243C88.9447 95.9186 88.7535 95.2019 89.0779 94.6415C89.402 94.0815 90.1185 93.8903 90.6791 94.2144L90.7096 94.232C91.2697 94.5564 91.461 95.2731 91.1366 95.8333C90.9193 96.2087 90.5258 96.4185 90.1213 96.4185Z" fill="#6583FE"/>
<path d="M84.4535 96.4183C84.049 96.4183 83.6555 96.2086 83.4382 95.8333C83.1138 95.2732 83.3051 94.5562 83.8653 94.2321L83.8957 94.2145C84.4561 93.8903 85.1731 94.0814 85.4972 94.6415C85.8216 95.2017 85.6303 95.9186 85.0702 96.243L85.0397 96.2606C84.8545 96.3675 84.6528 96.4183 84.4535 96.4183Z" fill="#6583FE"/>
<path d="M90.0932 93.1627C89.6887 93.1627 89.2951 92.9529 89.0779 92.5777C88.7535 92.0175 88.9447 91.3006 89.5049 90.9762L89.5354 90.9586C90.0958 90.6345 90.8125 90.8255 91.1366 91.3857C91.461 91.9458 91.2697 92.6628 90.7096 92.9871L90.6791 93.0047C90.4942 93.1118 90.2924 93.1627 90.0932 93.1627Z" fill="#6583FE"/>
<path d="M59.1006 99.4319C53.0926 99.4319 48.2045 94.544 48.2045 88.5358C48.2045 82.5276 53.0924 77.6397 59.1006 77.6397H69.6194C72.021 77.6397 73.9748 75.6857 73.9748 73.2843C73.9748 70.8827 72.021 68.9289 69.6194 68.9289H50.38C44.372 68.9289 39.4839 64.041 39.4839 58.0328C39.4839 52.0246 44.3718 47.1367 50.38 47.1367H54.6892C56.4953 47.1367 57.9594 48.6009 57.9594 50.407C57.9594 52.213 56.4953 53.6772 54.6892 53.6772H50.38C47.9783 53.6772 46.0246 55.6309 46.0246 58.0326C46.0246 60.4342 47.9786 62.388 50.38 62.388H69.6194C75.6273 62.388 80.5155 67.2759 80.5155 73.2841C80.5155 79.292 75.6276 84.1802 69.6194 84.1802H59.1006C56.699 84.1802 54.7452 86.1341 54.7452 88.5355C54.7452 90.9372 56.6992 92.8909 59.1006 92.8909C60.9067 92.8909 62.3708 94.3551 62.3708 96.1612C62.3708 97.9673 60.9067 99.4319 59.1006 99.4319Z" fill="white"/>
<path d="M60.8987 99.4319C66.9067 99.4319 71.7948 94.544 71.7948 88.5358C71.7948 82.5276 66.9069 77.6397 60.8987 77.6397H50.38C47.9783 77.6397 46.0246 75.6857 46.0246 73.2843C46.0246 70.8827 47.9786 68.9289 50.38 68.9289H69.6194C75.6273 68.9289 80.5155 64.041 80.5155 58.0328C80.5155 52.0246 75.6276 47.1367 69.6194 47.1367H65.3101C63.504 47.1367 62.0399 48.6009 62.0399 50.407C62.0399 52.213 63.504 53.6772 65.3101 53.6772H69.6194C72.021 53.6772 73.9748 55.6309 73.9748 58.0326C73.9748 60.4342 72.021 62.388 69.6194 62.388H50.38C44.372 62.388 39.4839 67.2759 39.4839 73.2841C39.4839 79.292 44.3718 84.1802 50.38 84.1802H60.8987C63.3004 84.1802 65.2541 86.1341 65.2541 88.5355C65.2541 90.9372 63.3001 92.8909 60.8987 92.8909C59.0926 92.8909 57.6285 94.3551 57.6285 96.1612C57.6285 97.9673 59.0926 99.4319 60.8987 99.4319Z" fill="#6583FE"/>
<path d="M62.0532 19.3541C64.7741 18.2262 66.0655 15.1063 64.9377 12.3854C63.8099 9.66452 60.6899 8.37308 57.9691 9.50089C55.2482 10.6287 53.9567 13.7487 55.0846 16.4695C56.2124 19.1904 59.3323 20.4819 62.0532 19.3541Z" fill="white"/>
<path d="M99.7239 21.9664C99.7239 24.6031 97.5864 26.7406 94.9497 26.7406H68.1084C70.166 25.3289 71.8371 23.3951 72.9314 21.1299C73.3331 20.2983 74.1818 19.7764 75.1052 19.7764H97.5337C98.7433 19.7764 99.7239 20.757 99.7239 21.9664Z" fill="white"/>
<path d="M89.3477 26.7402V28.9302C89.3477 31.567 87.2102 33.7045 84.5735 33.7045H59.9995V29.2499C63.0087 29.2499 65.8022 28.3237 68.1082 26.7402H89.3477Z" fill="white"/>
<path d="M59.9995 33.7041H81.0464V35.8939C81.0464 38.5306 78.9089 40.6681 76.2722 40.6681H59.9995V33.7041Z" fill="white"/>
<path d="M51.8909 26.7406H25.0496C22.4129 26.7406 20.2754 24.6031 20.2754 21.9664C20.2754 20.7568 21.256 19.7764 22.4654 19.7764H44.8939C45.8173 19.7764 46.6663 20.2983 47.0677 21.1299C48.162 23.3951 49.8334 25.3292 51.8909 26.7406Z" fill="white"/>
<path d="M59.9996 29.2509V33.7054H35.4256C32.7889 33.7054 30.6514 31.5679 30.6514 28.9312V26.7412H51.8907C54.1969 28.3244 56.9904 29.2509 59.9996 29.2509Z" fill="white"/>
<path d="M59.9995 33.7041H38.9526V35.8939C38.9526 38.5306 41.0901 40.6681 43.7269 40.6681H59.9995V33.7041Z" fill="white"/>
<path d="M69.9691 53.6771H64.4248C61.9807 53.6771 59.9995 51.6957 59.9995 49.2516V48.6938C59.9995 47.4282 61.0254 46.4023 62.291 46.4023H68.7965C69.4441 46.4023 69.9691 46.9273 69.9691 47.5749V53.6771Z" fill="white"/>
<path d="M50.0298 53.6771H55.5742C58.0182 53.6771 59.9996 51.6957 59.9996 49.2516V48.6938C59.9996 47.4282 58.9738 46.4023 57.7081 46.4023H51.2026C50.555 46.4023 50.03 46.9273 50.03 47.5749V53.6771H50.0298Z" fill="white"/>
<path d="M73.2351 70.8688H80.2418C79.1397 66.0198 74.7972 62.3882 69.6194 62.3882H50.38C49.0982 62.3882 47.9454 61.8304 47.1478 60.9463H39.8838C41.1614 65.5438 45.3813 68.9289 50.3803 68.9289H69.6196C71.1269 68.9289 72.4537 69.7014 73.2351 70.8688Z" fill="white"/>
<path d="M97.5341 18.605H75.1056C73.7354 18.605 72.4679 19.3962 71.8763 20.6209C70.877 22.6897 69.3449 24.4719 67.4457 25.7748L67.4455 25.775C67.4455 25.775 67.4455 25.775 67.4453 25.775C65.5731 27.0608 63.4238 27.8274 61.1717 28.0255V20.9487H65.9171C66.5642 20.9487 67.089 20.424 67.089 19.7769C67.089 19.1298 66.5642 18.605 65.9171 18.605H64.9946C65.9361 17.4767 66.5035 16.0259 66.5035 14.4451C66.5035 10.8589 63.586 7.94141 59.9999 7.94141C56.4137 7.94141 53.4962 10.8589 53.4962 14.4451C53.4962 16.0259 54.0638 17.4767 55.0051 18.605H54.0826C53.4355 18.605 52.9107 19.1298 52.9107 19.7769C52.9107 20.424 53.4355 20.9487 54.0826 20.9487H58.828V28.0255C56.5759 27.8274 54.4269 27.0608 52.5545 25.775C52.5545 25.775 52.5545 25.775 52.5542 25.775L52.554 25.7748C50.6546 24.4719 49.1225 22.6897 48.1234 20.6209C47.5318 19.3962 46.2643 18.605 44.8942 18.605H22.4659C20.612 18.605 19.104 20.1132 19.104 21.9669C19.104 25.2455 21.7714 27.913 25.0501 27.913H29.48V28.9311C29.48 32.2098 32.1474 34.8772 35.4261 34.8772H37.7811V35.8944C37.7811 39.173 40.4485 41.8405 43.7272 41.8405H58.828V45.4201C58.4762 45.2994 58.1005 45.2307 57.7084 45.2307H51.2028C50.5145 45.2307 49.8964 45.5307 49.4673 46.0046C43.2385 46.4731 38.3124 51.6859 38.3124 58.0327C38.3124 60.9233 39.3348 63.579 41.0359 65.6591C39.2762 67.8111 38.3124 70.4909 38.3124 73.284C38.3124 78.9669 42.2621 83.742 47.5597 85.0158C47.2119 86.1528 47.0331 87.3324 47.0331 88.5357C47.0331 95.0984 52.2997 100.451 58.828 100.597V103.425H57.4508C56.8037 103.425 56.2789 103.949 56.2789 104.596C56.2789 105.244 56.8037 105.768 57.4508 105.768H58.828V108.461C58.828 109.108 59.3528 109.633 59.9999 109.633C60.647 109.633 61.1717 109.108 61.1717 108.461V105.768H62.5487C63.1958 105.768 63.7206 105.244 63.7206 104.596C63.7206 103.949 63.1958 103.425 62.5487 103.425H61.1717V100.597C67.7 100.451 72.9667 95.0984 72.9667 88.5357C72.9667 87.312 72.7822 86.131 72.4419 85.0173C77.7803 83.7282 81.6873 78.8602 81.6873 73.2842C81.6873 70.393 80.6645 67.7368 78.9627 65.6562C79.9002 64.5064 80.6302 63.1801 81.0889 61.7801C81.2902 61.1649 80.9549 60.503 80.3399 60.3017C79.7246 60.1004 79.063 60.4358 78.8614 61.0508C78.5174 62.1015 77.9813 63.0999 77.2984 63.9816C76.2034 63.076 74.945 62.3626 73.5767 61.8861C74.5473 60.8898 75.1468 59.5301 75.1468 58.0327C75.1468 55.5127 73.4511 53.383 71.1413 52.7201V48.428C74.6865 48.9875 77.6806 51.474 78.845 54.9657C79.0496 55.5795 79.7134 55.9112 80.3274 55.7068C80.9415 55.5019 81.2731 54.8384 81.0685 54.2244C79.5179 49.5739 75.3498 46.3609 70.5282 45.9997C70.0991 45.5286 69.4829 45.2307 68.7971 45.2307H62.2916C61.8995 45.2307 61.5238 45.2994 61.172 45.4201V40.6686V34.8772H79.8751V35.8944C79.8751 37.8807 78.2591 39.4967 76.2728 39.4967H66.8204C66.1733 39.4967 65.6485 40.0215 65.6485 40.6686C65.6485 41.3157 66.1733 41.8405 66.8204 41.8405H76.2728C79.5514 41.8405 82.2188 39.173 82.2188 35.8944V34.8772H84.5741C87.8527 34.8772 90.5202 32.2098 90.5202 28.9311V27.913H94.9501C98.2288 27.913 100.896 25.2455 100.896 21.9669C100.896 20.1132 99.3877 18.605 97.5341 18.605ZM55.8399 14.4451C55.8399 12.1512 57.706 10.2852 59.9999 10.2852C62.2937 10.2852 64.1598 12.1512 64.1598 14.4451C64.1598 16.7389 62.2937 18.605 59.9999 18.605C57.706 18.605 55.8399 16.7389 55.8399 14.4451ZM21.4475 21.9671C21.4475 21.4055 21.9043 20.949 22.4656 20.949H44.8942C45.3709 20.949 45.8101 21.2204 46.0128 21.6404C46.7106 23.0846 47.6284 24.41 48.7262 25.5694H30.6517H25.0499C23.0635 25.5692 21.4475 23.9532 21.4475 21.9671ZM31.8235 28.9311V27.913H51.5352C53.7273 29.3431 56.222 30.185 58.828 30.3793V32.5327H38.953C38.9502 32.5327 38.9478 32.5334 38.945 32.5334H35.4259C33.4395 32.5337 31.8235 30.9177 31.8235 28.9311ZM43.7272 39.4967C41.7409 39.4967 40.1249 37.8807 40.1249 35.8944V34.8772H58.828V39.4967H43.7272ZM50.3802 61.2165C48.6247 61.2165 47.1967 59.7882 47.1967 58.0327C47.1967 56.2773 48.6249 54.8492 50.3802 54.8492H53.3631H55.5746C56.7873 54.8492 57.9104 54.4601 58.828 53.8023V61.2165H50.3802ZM51.2028 47.5747H57.7084C58.3257 47.5747 58.828 48.077 58.828 48.6943V49.2521C58.828 51.046 57.3685 52.5057 55.5746 52.5057H51.2024L51.2028 47.5747ZM49.3768 88.5359C49.3768 87.4383 49.5601 86.3656 49.918 85.3407C50.0717 85.3465 50.2253 85.3524 50.3804 85.3524H54.5867C53.9497 86.2531 53.5738 87.3512 53.5738 88.5359C53.5738 90.9127 55.082 92.9424 57.1913 93.7212C56.7285 94.4222 56.4568 95.2604 56.4568 96.1615C56.4568 96.8164 56.6031 97.4368 56.8585 97.9969C52.5744 96.9819 49.3768 93.1262 49.3768 88.5359ZM58.828 85.366V91.7056C57.2 91.5664 55.9173 90.199 55.9173 88.5357C55.9173 86.8723 57.2 85.5052 58.828 85.366ZM61.1717 85.3662C62.7997 85.5054 64.0824 86.8726 64.0824 88.5359C64.0824 90.1993 62.7997 91.5666 61.1717 91.7058V85.3662ZM60.8989 98.2601C59.7418 98.2601 58.8006 97.3186 58.8006 96.1618C58.8006 95.0047 59.7418 94.0634 60.8989 94.0634C63.9467 94.0634 66.4262 91.5837 66.4262 88.5362C66.4262 85.4886 63.9467 83.0089 60.8989 83.0089H59.102C59.1015 83.0089 59.1013 83.0089 59.1008 83.0089C59.0992 83.0089 59.0978 83.0089 59.0963 83.0089H50.3802C45.0181 83.0089 40.656 78.6467 40.656 73.2847C40.656 71.1167 41.3767 69.0333 42.6976 67.333C43.7935 68.24 45.0528 68.9544 46.4228 69.4313C45.4522 70.4276 44.8527 71.7873 44.8527 73.2847C44.8527 76.3325 47.3321 78.8119 50.3799 78.8119H59.1006H60.8987C66.2607 78.8119 70.6227 83.1741 70.6227 88.5362C70.6229 93.8977 66.2607 98.2601 60.8989 98.2601ZM69.6195 70.1009C71.375 70.1009 72.8031 71.5292 72.8031 73.2844C72.8031 75.0399 71.3748 76.468 69.6195 76.468H61.1717V70.1007H61.5458H69.6195V70.1009ZM58.828 76.468H50.3802C48.6247 76.468 47.1967 75.0397 47.1967 73.2844C47.1967 71.529 48.6249 70.1009 50.3802 70.1009H58.828V76.468ZM71.5245 82.8207C70.6707 81.2396 69.4738 79.8706 68.0347 78.8117H69.6195C72.6674 78.8117 75.1468 76.3323 75.1468 73.2844C75.1468 70.2366 72.6674 67.7572 69.6195 67.7572H61.5458H50.3802C45.0181 67.7572 40.656 63.395 40.656 58.033C40.656 53.1891 44.2173 49.1656 48.8584 48.433V52.7204C46.5484 53.3827 44.8529 55.513 44.8529 58.033C44.8529 61.0808 47.3324 63.5605 50.3802 63.5605H69.6195C74.9816 63.5605 79.3438 67.9226 79.3438 73.2847C79.3438 77.9056 76.014 81.9235 71.5245 82.8207ZM72.8031 58.033C72.8031 59.7884 71.3748 61.2167 69.6195 61.2167H61.1717V53.8025C62.0893 54.4606 63.2124 54.8494 64.4251 54.8494H69.6217C71.3762 54.8506 72.8031 56.2782 72.8031 58.033ZM62.2913 47.5747L68.7976 47.5754V52.5057H64.4251C62.6312 52.5057 61.1717 51.046 61.1717 49.2521V48.6943C61.1717 48.077 61.674 47.5747 62.2913 47.5747ZM88.1762 28.9311C88.1762 30.9174 86.5602 32.5334 84.5738 32.5334H81.0535C81.0512 32.5334 81.0491 32.5327 81.0467 32.5327H61.1717V30.3791C63.7778 30.1848 66.2724 29.3429 68.4645 27.9127H88.1762V28.9311ZM94.9499 25.5692H89.3481H71.2735C72.3713 24.4098 73.2892 23.0844 73.9869 21.6402C74.1896 21.2202 74.6288 20.9487 75.1056 20.9487H97.5341C98.0956 20.9487 98.5522 21.4055 98.5522 21.9669C98.5522 23.9532 96.9362 25.5692 94.9499 25.5692Z" fill="#0000CC"/>
<path d="M63.9718 50.4043L64.0032 50.4225C64.1881 50.5294 64.3897 50.58 64.5887 50.58C64.9934 50.58 65.3872 50.37 65.6042 49.9946C65.9281 49.4342 65.7364 48.7175 65.1762 48.3936L65.1448 48.3753C64.584 48.0514 63.8677 48.2431 63.5436 48.8032C63.2199 49.3634 63.4116 50.0801 63.9718 50.4043Z" fill="#0000CC"/>
<path d="M56.4554 49.9946C56.7793 49.4342 56.5876 48.7175 56.0275 48.3936L55.9961 48.3753C55.4354 48.0514 54.7189 48.2431 54.3948 48.8032C54.0709 49.3636 54.2626 50.0803 54.8228 50.4043L54.8542 50.4225C55.0389 50.5294 55.2407 50.58 55.4396 50.58C55.8446 50.5803 56.2384 50.3703 56.4554 49.9946Z" fill="#0000CC"/>
<defs>
<linearGradient id="paint0_linear" x1="2.05133" y1="94.0219" x2="122.86" y2="24.2731" gradientUnits="userSpaceOnUse">
<stop stop-color="#D2DEFF" stop-opacity="0"/>
<stop offset="1" stop-color="#B7C5FF"/>
</linearGradient>
</defs>
</svg>
