<svg width="120" height="128" viewBox="0 0 120 128" fill="none" xmlns="http://www.w3.org/2000/svg">
<g clip-path="url(#clip0)">
<path d="M105.89 10.9909C68.26 -13.4764 9.67702 8.83813 2.86046 26.4781C-6.25861 50.0764 9.08967 54.1101 11.9408 73.4466C14.2286 88.9619 -0.0549334 103.82 8.0985 117.517C16.9771 132.433 46.4106 128.687 57.598 121.629C78.0768 108.708 67.7486 93.6259 77.4458 74.8041C86.6821 56.8774 104.691 64.1479 115.171 49.8066C125.132 36.1764 118.525 19.2061 105.89 10.9909Z" fill="url(#paint0_linear)"/>
<g opacity="0.1">
<path opacity="0.1" d="M43.5829 110.45H39.2275C38.5802 110.45 38.0557 111.01 38.0557 111.7C38.0557 112.39 38.5802 112.95 39.2275 112.95H43.5829C44.2303 112.95 44.7548 112.39 44.7548 111.7C44.7548 111.01 44.2303 110.45 43.5829 110.45Z" fill="#2626BC"/>
<path opacity="0.1" d="M43.5829 115.046H29.8525C29.2052 115.046 28.6807 115.606 28.6807 116.296C28.6807 116.986 29.2052 117.546 29.8525 117.546H43.5829C44.2303 117.546 44.7548 116.986 44.7548 116.296C44.7548 115.606 44.2303 115.046 43.5829 115.046Z" fill="#2626BC"/>
<path opacity="0.1" d="M43.5829 119.642H29.8525C29.2052 119.642 28.6807 120.201 28.6807 120.892C28.6807 121.582 29.2052 122.142 29.8525 122.142H43.5829C44.2303 122.142 44.7548 121.582 44.7548 120.892C44.7548 120.201 44.2303 119.642 43.5829 119.642Z" fill="#2626BC"/>
<path opacity="0.1" d="M106.445 94.9821H98.3577C104.856 86.9911 108.788 76.5624 108.788 65.1539C108.788 39.9999 89.6713 19.6084 66.0895 19.6084C59.857 19.6084 53.9367 21.0336 48.5985 23.5939V23.0354C48.5985 21.6546 47.5492 20.5354 46.2548 20.5354H19.6626C18.3681 20.5354 17.3188 21.6546 17.3188 23.0354V38.9929C17.3188 40.3736 18.3681 41.4929 19.6626 41.4929H29.598C25.6595 48.3889 23.3906 56.4886 23.3906 65.1539C23.3906 69.3624 23.9282 73.4364 24.9299 77.3049H22.3225C21.8716 77.3049 21.5059 77.6949 21.5059 78.1759V85.2556L15.7579 81.7159C15.3674 81.4754 14.868 81.6181 14.6425 82.0346L11.3209 88.1714C11.0955 88.5879 11.2293 89.1207 11.6198 89.3611L17.3678 92.9011L11.6198 96.4411C11.2293 96.6816 11.0955 97.2144 11.3209 97.6309L14.6425 103.768C14.868 104.184 15.3674 104.327 15.7579 104.086L21.5059 100.547V107.626C21.5059 108.107 21.8716 108.497 22.3225 108.497H28.9656C29.4166 108.497 29.7822 108.107 29.7822 107.626V100.547L35.5302 104.086C35.9207 104.327 36.4202 104.184 36.6456 103.768L38.6561 100.053C46.0762 106.697 55.6438 110.7 66.0895 110.7C70.045 110.7 73.8738 110.124 77.5089 109.05V113.44C77.5089 114.821 78.5582 115.94 79.8527 115.94H106.445C107.739 115.94 108.788 114.821 108.788 113.44V97.4826C108.788 96.1014 107.739 94.9821 106.445 94.9821Z" fill="#2626BC"/>
</g>
<path d="M66.0895 104.449C89.6715 104.449 108.788 84.058 108.788 58.9039C108.788 33.7498 89.6715 13.3584 66.0895 13.3584C42.5076 13.3584 23.3906 33.7498 23.3906 58.9039C23.3906 84.058 42.5076 104.449 66.0895 104.449Z" fill="#6583FE"/>
<path d="M88.5864 49.3085H75.0853V34.9072C75.0853 32.8362 73.5112 31.1572 71.5696 31.1572H60.6091C58.6675 31.1572 57.0935 32.8362 57.0935 34.9072V49.3085H43.5923C41.6507 49.3085 40.0767 50.9875 40.0767 53.0585V64.7497C40.0767 66.8207 41.6507 68.4997 43.5923 68.4997H57.0935V82.901C57.0935 84.972 58.6675 86.651 60.6091 86.651H71.5696C73.5112 86.651 75.0853 84.972 75.0853 82.901V68.4997H88.5864C90.528 68.4997 92.1021 66.8207 92.1021 64.7497V53.0585C92.1021 50.9875 90.5282 49.3085 88.5864 49.3085Z" fill="white"/>
<path d="M39.9672 81.9212L36.6456 75.7844C36.4202 75.3679 35.9207 75.2252 35.5302 75.4657L29.7822 79.0054V71.9257C29.7822 71.4447 29.4166 71.0547 28.9656 71.0547H22.3225C21.8716 71.0547 21.5059 71.4447 21.5059 71.9257V79.0054L15.7579 75.4657C15.3674 75.2252 14.868 75.3679 14.6425 75.7844L11.3209 81.9212C11.0955 82.3377 11.2293 82.8704 11.6198 83.1109L17.3678 86.6509L11.6198 90.1907C11.2293 90.4312 11.0955 90.9639 11.3209 91.3804L14.6425 97.5172C14.868 97.9337 15.3674 98.0764 15.7579 97.8359L21.5059 94.2962V101.376C21.5059 101.857 21.8716 102.247 22.3225 102.247H28.9656C29.4166 102.247 29.7822 101.857 29.7822 101.376V94.2962L35.5302 97.8359C35.9207 98.0764 36.4202 97.9337 36.6456 97.5172L39.9672 91.3804C40.1927 90.9639 40.0588 90.4312 39.6684 90.1907L33.9203 86.6509L39.6684 83.1109C40.0588 82.8704 40.1927 82.3379 39.9672 81.9212Z" fill="white"/>
<path d="M46.2553 35.2427H19.6631C18.3686 35.2427 17.3193 34.1234 17.3193 32.7427V16.7852C17.3193 15.4044 18.3686 14.2852 19.6631 14.2852H46.255C47.5495 14.2852 48.5988 15.4044 48.5988 16.7852V32.7427C48.599 34.1234 47.5495 35.2427 46.2553 35.2427Z" fill="white"/>
<path d="M41.7607 21.0283H37.4053C36.7579 21.0283 36.2334 20.4686 36.2334 19.7783C36.2334 19.0881 36.7579 18.5283 37.4053 18.5283H41.7607C42.408 18.5283 42.9325 19.0881 42.9325 19.7783C42.9325 20.4686 42.4078 21.0283 41.7607 21.0283Z" fill="#0000CC"/>
<path d="M41.7607 25.624H28.0303C27.3829 25.624 26.8584 25.0643 26.8584 24.374C26.8584 23.6838 27.3829 23.124 28.0303 23.124H41.7607C42.408 23.124 42.9325 23.6838 42.9325 24.374C42.9325 25.0643 42.4078 25.624 41.7607 25.624Z" fill="#0000CC"/>
<path d="M41.7607 30.2188H28.0303C27.3829 30.2188 26.8584 29.659 26.8584 28.9688C26.8584 28.2785 27.3829 27.7188 28.0303 27.7188H41.7607C42.408 27.7188 42.9325 28.2785 42.9325 28.9688C42.9325 29.659 42.4078 30.2188 41.7607 30.2188Z" fill="#0000CC"/>
<path d="M106.445 109.69H79.8525C78.5581 109.69 77.5088 108.571 77.5088 107.19V91.2324C77.5088 89.8517 78.5581 88.7324 79.8525 88.7324H106.444C107.739 88.7324 108.788 89.8517 108.788 91.2324V107.19C108.788 108.571 107.739 109.69 106.445 109.69Z" fill="white"/>
<path d="M43.5829 104.2H39.2275C38.5802 104.2 38.0557 104.76 38.0557 105.45C38.0557 106.14 38.5802 106.7 39.2275 106.7H43.5829C44.2303 106.7 44.7548 106.14 44.7548 105.45C44.7548 104.76 44.2303 104.2 43.5829 104.2Z" fill="#0000CC"/>
<path d="M43.5829 108.796H29.8525C29.2052 108.796 28.6807 109.356 28.6807 110.046C28.6807 110.736 29.2052 111.296 29.8525 111.296H43.5829C44.2303 111.296 44.7548 110.736 44.7548 110.046C44.7548 109.356 44.2303 108.796 43.5829 108.796Z" fill="#0000CC"/>
<path d="M43.5829 113.392H29.8525C29.2052 113.392 28.6807 113.951 28.6807 114.642C28.6807 115.332 29.2052 115.892 29.8525 115.892H43.5829C44.2303 115.892 44.7548 115.332 44.7548 114.642C44.7548 113.951 44.2303 113.392 43.5829 113.392Z" fill="#0000CC"/>
<path d="M106.445 87.4821H100.83C106.731 79.3249 109.96 69.2547 109.96 58.9039C109.96 33.1009 90.2798 12.1084 66.0895 12.1084C60.3696 12.1084 54.8151 13.2664 49.5684 15.5444C49.0865 14.0856 47.7853 13.0354 46.2548 13.0354H19.6631C17.7246 13.0354 16.1475 14.7176 16.1475 16.7854V32.7429C16.1475 34.8106 17.7246 36.4929 19.6631 36.4929H27.5688C24.0646 43.3371 22.2189 51.0509 22.2189 58.9039C22.2189 60.1074 22.2625 61.3246 22.3483 62.5219C22.3952 63.1779 22.9089 63.6767 23.5153 63.6767C23.5453 63.6767 23.5757 63.6754 23.606 63.6729C24.2514 63.6204 24.7345 63.0196 24.685 62.3314C24.6037 61.1971 24.5627 60.0442 24.5627 58.9039C24.5627 51.0074 26.535 43.2614 30.2641 36.4929H46.2548C48.1933 36.4929 49.7704 34.8106 49.7704 32.7429V18.1369C49.8314 18.1211 49.8925 18.1039 49.9521 18.0771C55.0633 15.7756 60.4926 14.6086 66.0895 14.6086C88.9874 14.6086 107.617 34.4794 107.617 58.9042C107.617 69.3389 104.15 79.4724 97.8543 87.4377C97.8431 87.4519 97.836 87.4679 97.8257 87.4824H79.8529C77.9144 87.4824 76.3373 89.1646 76.3373 91.2324V101.835C73.0052 102.737 69.5613 103.199 66.0897 103.199C56.6873 103.199 47.4932 99.7591 40.1681 93.5097L40.9821 92.0059C41.2478 91.5154 41.3186 90.9434 41.1813 90.3961C41.0437 89.8489 40.7149 89.3916 40.2548 89.1084L36.2646 86.6512L40.2548 84.1936C40.7149 83.9104 41.0437 83.4531 41.1813 82.9059C41.3186 82.3584 41.2478 81.7867 40.9821 81.2962L37.6607 75.1599C37.1125 74.1469 35.8933 73.7987 34.9446 74.3837L30.9546 76.8409V71.9261C30.9546 70.7566 30.0625 69.8054 28.9661 69.8054H22.3228C21.2264 69.8054 20.3346 70.7569 20.3346 71.9261V76.8409L16.3443 74.3834C15.3944 73.7984 14.1761 74.1467 13.6282 75.1597L10.3066 81.2964C9.75839 82.3092 10.0849 83.6089 11.0343 84.1936L15.0243 86.6512L11.0341 89.1087C10.0846 89.6936 9.75839 90.9932 10.3066 92.0057L13.6282 98.1424C14.1764 99.1554 15.3951 99.5034 16.3443 98.9186L20.3346 96.4612V101.376C20.3346 102.545 21.2266 103.497 22.3228 103.497H28.9659C30.0625 103.497 30.9543 102.545 30.9543 101.376V96.4612L34.9443 98.9184C35.8938 99.5029 37.1123 99.1546 37.6605 98.1422L38.9835 95.6979C46.6764 102.151 56.2755 105.699 66.0895 105.699C69.5554 105.699 72.9967 105.264 76.3371 104.411V107.19C76.3371 109.257 77.9142 110.94 79.8527 110.94H93.2149C93.8622 110.94 94.3867 110.38 94.3867 109.69C94.3867 108.999 93.8622 108.44 93.2149 108.44H79.8527C79.2065 108.44 78.6808 107.879 78.6808 107.19V91.2321C78.6808 90.5429 79.2065 89.9821 79.8527 89.9821H106.445C107.091 89.9821 107.617 90.5429 107.617 91.2321V107.19C107.617 107.879 107.091 108.44 106.445 108.44H100.035C99.3878 108.44 98.8633 108.999 98.8633 109.69C98.8633 110.38 99.3878 110.94 100.035 110.94H106.445C108.383 110.94 109.96 109.257 109.96 107.19V91.2321C109.96 89.1644 108.384 87.4821 106.445 87.4821ZM47.4269 32.7429C47.4269 33.4321 46.9012 33.9929 46.255 33.9929H19.6631C19.0169 33.9929 18.4912 33.4321 18.4912 32.7429V16.7854C18.4912 16.0961 19.0169 15.5354 19.6631 15.5354H46.255C46.9012 15.5354 47.4269 16.0961 47.4269 16.7854V32.7429ZM35.8085 96.5637L30.3684 93.2134C30.0058 92.9899 29.5591 92.9899 29.1965 93.2134C28.8339 93.4367 28.6106 93.8494 28.6106 94.2959V100.997H22.6783V94.2959C22.6783 93.8494 22.455 93.4367 22.0924 93.2134C21.7298 92.9899 21.2831 92.9899 20.9205 93.2134L15.4802 96.5637L12.5139 91.0836L17.9543 87.7334C18.3168 87.5101 18.5402 87.0974 18.5402 86.6509C18.5402 86.2044 18.3168 85.7916 17.9543 85.5684L12.5139 82.2179L15.4802 76.7379L20.9205 80.0882C21.2831 80.3117 21.7298 80.3117 22.0924 80.0882C22.455 79.8649 22.6783 79.4522 22.6783 79.0057V72.3049H28.6108V79.0057C28.6108 79.4522 28.8342 79.8649 29.1968 80.0882C29.5593 80.3117 30.006 80.3117 30.3686 80.0882L35.8087 76.7379L38.775 82.2181L33.3346 85.5684C32.9721 85.7916 32.7487 86.2044 32.7487 86.6509C32.7487 87.0976 32.9721 87.5101 33.3346 87.7334L38.775 91.0836L35.8085 96.5637Z" fill="#0000CC"/>
<path d="M101.95 95.4746H97.5947C96.9474 95.4746 96.4229 94.9149 96.4229 94.2246C96.4229 93.5344 96.9474 92.9746 97.5947 92.9746H101.95C102.597 92.9746 103.122 93.5344 103.122 94.2246C103.122 94.9149 102.597 95.4746 101.95 95.4746Z" fill="#0000CC"/>
<path d="M101.95 100.07H88.2197C87.5724 100.07 87.0479 99.5106 87.0479 98.8203C87.0479 98.1301 87.5724 97.5703 88.2197 97.5703H101.95C102.597 97.5703 103.122 98.1301 103.122 98.8203C103.122 99.5106 102.597 100.07 101.95 100.07Z" fill="#0000CC"/>
<path d="M101.95 104.665H88.2197C87.5724 104.665 87.0479 104.105 87.0479 103.415C87.0479 102.725 87.5724 102.165 88.2197 102.165H101.95C102.597 102.165 103.122 102.725 103.122 103.415C103.122 104.106 102.597 104.665 101.95 104.665Z" fill="#0000CC"/>
<path d="M15.7895 41.9281C15.1422 41.9281 14.6177 41.3684 14.6177 40.6781V40.6406C14.6177 39.9504 15.1422 39.3906 15.7895 39.3906C16.4369 39.3906 16.9614 39.9504 16.9614 40.6406V40.6781C16.9614 41.3686 16.4369 41.9281 15.7895 41.9281Z" fill="#6583FE"/>
<path d="M15.7895 48.8744C15.1422 48.8744 14.6177 48.3147 14.6177 47.6244V47.5869C14.6177 46.8967 15.1422 46.3369 15.7895 46.3369C16.4369 46.3369 16.9614 46.8967 16.9614 47.5869V47.6244C16.9614 48.3147 16.4369 48.8744 15.7895 48.8744Z" fill="#6583FE"/>
<path d="M12.9843 43.6559C12.7874 43.6559 12.5879 43.6029 12.4044 43.4911L12.3737 43.4724C11.8117 43.1301 11.6162 42.3666 11.9371 41.7671C12.2575 41.1676 12.973 40.9591 13.5355 41.3014L13.5662 41.3201C14.1283 41.6624 14.3237 42.4259 14.0029 43.0254C13.7868 43.4291 13.3911 43.6559 12.9843 43.6559Z" fill="#6583FE"/>
<path d="M18.6238 47.1285C18.4243 47.1285 18.2225 47.0742 18.0378 46.96L18.0073 46.9412C17.4472 46.5952 17.2559 45.8307 17.5803 45.2332C17.9047 44.6357 18.6221 44.432 19.1816 44.7777L19.212 44.7965C19.7722 45.1425 19.9634 45.907 19.6391 46.5047C19.4218 46.9047 19.0283 47.1285 18.6238 47.1285Z" fill="#6583FE"/>
<path d="M12.9555 47.1288C12.5495 47.1288 12.1551 46.9038 11.9383 46.5013C11.6158 45.9025 11.8091 45.1385 12.3705 44.7945L12.4012 44.7758C12.9627 44.4318 13.6785 44.6383 14.001 45.2368C14.3235 45.8355 14.1302 46.5995 13.5688 46.9435L13.5381 46.9623C13.3544 47.075 13.1535 47.1288 12.9555 47.1288Z" fill="#6583FE"/>
<path d="M18.5951 43.656C18.1894 43.656 17.795 43.431 17.5782 43.029C17.2554 42.4305 17.4486 41.6662 18.0097 41.3222L18.0401 41.3035C18.6017 40.959 19.3177 41.1655 19.6402 41.7637C19.9629 42.3622 19.7698 43.1265 19.2087 43.4705L19.1782 43.4892C18.994 43.6022 18.7934 43.656 18.5951 43.656Z" fill="#6583FE"/>
<path d="M72.0601 112.842C71.4127 112.842 70.8882 112.282 70.8882 111.592V111.555C70.8882 110.864 71.4127 110.305 72.0601 110.305C72.7074 110.305 73.2319 110.864 73.2319 111.555V111.592C73.2319 112.282 72.7074 112.842 72.0601 112.842Z" fill="#6583FE"/>
<path d="M72.0601 119.788C71.4127 119.788 70.8882 119.229 70.8882 118.538V118.501C70.8882 117.811 71.4127 117.251 72.0601 117.251C72.7074 117.251 73.2319 117.811 73.2319 118.501V118.538C73.2319 119.229 72.7074 119.788 72.0601 119.788Z" fill="#6583FE"/>
<path d="M69.2543 114.57C69.0574 114.57 68.858 114.517 68.6744 114.405L68.6437 114.386C68.0817 114.044 67.8862 113.281 68.2071 112.681C68.5275 112.082 69.2433 111.873 69.8055 112.215L69.8362 112.234C70.3983 112.576 70.5937 113.34 70.2729 113.939C70.057 114.343 69.6614 114.57 69.2543 114.57Z" fill="#6583FE"/>
<path d="M74.8938 118.043C74.6955 118.043 74.4949 117.989 74.3106 117.876L74.2802 117.857C73.7191 117.513 73.5259 116.749 73.8487 116.15C74.1714 115.552 74.8874 115.346 75.4488 115.69L75.4792 115.709C76.0401 116.053 76.2334 116.817 75.9107 117.416C75.6939 117.818 75.2995 118.043 74.8938 118.043Z" fill="#6583FE"/>
<path d="M69.2259 118.044C68.819 118.044 68.4232 117.817 68.2071 117.413C67.8862 116.814 68.0817 116.05 68.6437 115.708L68.6744 115.689C69.2362 115.347 69.9525 115.555 70.2729 116.155C70.5937 116.754 70.3983 117.518 69.8362 117.86L69.8055 117.879C69.6227 117.99 69.4228 118.044 69.2259 118.044Z" fill="#6583FE"/>
<path d="M74.8656 114.57C74.4599 114.57 74.0655 114.345 73.8487 113.943C73.5259 113.344 73.7191 112.58 74.2802 112.236L74.3106 112.217C74.8722 111.873 75.5882 112.079 75.9107 112.678C76.2334 113.276 76.0403 114.04 75.4792 114.384L75.4487 114.403C75.2645 114.516 75.0639 114.57 74.8656 114.57Z" fill="#6583FE"/>
<path d="M107.809 30.2407C107.162 30.2407 106.638 29.681 106.638 28.9907C106.638 28.1177 105.972 27.4075 105.153 27.4075C104.506 27.4075 103.981 26.8477 103.981 26.1575C103.981 25.4672 104.506 24.9075 105.153 24.9075C105.972 24.9075 106.638 24.1972 106.638 23.3242C106.638 22.634 107.162 22.0742 107.809 22.0742C108.457 22.0742 108.981 22.634 108.981 23.3242C108.981 24.1972 109.647 24.9075 110.466 24.9075C111.113 24.9075 111.638 25.4672 111.638 26.1575C111.638 26.8477 111.113 27.4075 110.466 27.4075C109.647 27.4075 108.981 28.1177 108.981 28.9907C108.981 29.681 108.457 30.2407 107.809 30.2407Z" fill="#6583FE"/>
<path d="M61.4848 116.153C60.8374 116.153 60.3129 115.593 60.3129 114.903C60.3129 114.03 59.647 113.32 58.8286 113.32C58.1813 113.32 57.6567 112.76 57.6567 112.07C57.6567 111.379 58.1813 110.82 58.8286 110.82C59.647 110.82 60.3129 110.109 60.3129 109.236C60.3129 108.546 60.8374 107.986 61.4848 107.986C62.1321 107.986 62.6567 108.546 62.6567 109.236C62.6567 110.109 63.3227 110.82 64.1412 110.82C64.7885 110.82 65.3131 111.379 65.3131 112.07C65.3131 112.76 64.7885 113.32 64.1412 113.32C63.3227 113.32 62.6567 114.03 62.6567 114.903C62.6567 115.593 62.1321 116.153 61.4848 116.153Z" fill="#6583FE"/>
<path d="M100.251 21.2026C99.6038 21.2026 99.0793 20.6429 99.0793 19.9526C99.0793 19.0796 98.4132 18.3694 97.5947 18.3694C96.9474 18.3694 96.4229 17.8096 96.4229 17.1194C96.4229 16.4291 96.9474 15.8694 97.5947 15.8694C98.4132 15.8694 99.0793 15.1591 99.0793 14.2861C99.0793 13.5959 99.6038 13.0361 100.251 13.0361C100.898 13.0361 101.423 13.5959 101.423 14.2861C101.423 15.1591 102.089 15.8694 102.907 15.8694C103.555 15.8694 104.079 16.4291 104.079 17.1194C104.079 17.8096 103.555 18.3694 102.907 18.3694C102.089 18.3694 101.423 19.0796 101.423 19.9526C101.423 20.6429 100.898 21.2026 100.251 21.2026Z" fill="#6583FE"/>
</g>
<defs>
<linearGradient id="paint0_linear" x1="0.000143492" y1="64.0001" x2="120" y2="64.0001" gradientUnits="userSpaceOnUse">
<stop stop-color="#D2DEFF" stop-opacity="0"/>
<stop offset="1" stop-color="#B7C5FF"/>
</linearGradient>
<clipPath id="clip0">
<rect width="120" height="128" fill="white"/>
</clipPath>
</defs>
</svg>
