<svg width="120" height="120" viewBox="0 0 120 120" fill="none" xmlns="http://www.w3.org/2000/svg">
<g clip-path="url(#clip0)">
<path d="M3.76735 70.9877C8.15649 85.9884 20.8081 116.589 42.1866 113.842C63.6286 111.087 55.2548 83.4377 74.8838 79.6481C83.5245 77.9798 89.3815 92.9346 98.0414 92.4693C109.195 91.87 114.872 80.8296 117.989 71.5481C124.597 51.8681 114.701 18.4968 91.5375 12.7174C71.3238 7.67386 68.9597 32.3709 51.3839 25.1974C41.5052 21.1654 42.4922 9.12487 30.4608 6.69534C-5.93741 -0.654657 -2.07304 51.0274 3.76735 70.9877Z" fill="url(#paint0_linear)"/>
<path opacity="0.1" d="M100.368 91.5061L96.8643 89.0006C100.638 82.623 102.806 75.1833 102.806 67.2358C102.806 61.6734 101.745 56.359 99.8143 51.4837C99.182 49.8869 98.4493 48.3426 97.6272 46.8548L100.372 45.3483C101.012 44.9969 101.246 44.193 100.895 43.5529L98.5396 39.2632C98.1882 38.6231 97.3843 38.389 96.7443 38.7403L93.362 40.597C89.3875 35.7919 84.3304 31.8984 78.5788 29.2322L64.3539 22.638C61.5922 21.3576 58.4068 21.3576 55.6452 22.638L41.4222 29.2315C35.6694 31.8982 30.6121 35.7921 26.6373 40.5972L23.2548 38.7405C22.6147 38.3892 21.8111 38.6231 21.4595 39.2634L19.1045 43.5532C18.7532 44.1933 18.9871 44.9972 19.6274 45.3485L22.3733 46.8558C21.5296 48.382 20.7796 49.9676 20.1357 51.6082C18.1834 56.5837 17.1357 62.0137 17.1953 67.6959C17.2771 75.4924 19.4228 82.7707 23.109 89.0191L19.6314 91.5063C19.0375 91.931 18.9004 92.7569 19.325 93.3508L22.1718 97.3312C22.5964 97.9251 23.4224 98.0622 24.0163 97.6375L27.4982 95.1475C35.3418 104.28 46.9801 110.042 59.9994 110.042C72.9859 110.042 84.6205 104.258 92.4709 95.1267L95.9821 97.6378C96.576 98.0625 97.4019 97.9254 97.8266 97.3315L100.673 93.3511C101.099 92.7567 100.962 91.931 100.368 91.5061Z" fill="#2626BC"/>
<path d="M78.5793 23.3718L64.3544 16.7777C61.5925 15.4973 58.4074 15.4973 55.6457 16.7777L41.4227 23.3711C31.7442 27.8578 24.0332 35.8174 20.1365 45.7481C18.1842 50.7236 17.1365 56.1536 17.1963 61.8356C17.4433 85.3647 36.4699 104.182 60.0004 104.182C83.6416 104.182 102.806 85.0169 102.806 61.3757C102.806 55.8133 101.745 50.4989 99.8146 45.6236C95.9039 35.7485 88.2156 27.839 78.5793 23.3718Z" fill="white"/>
<path d="M91.4168 48.3527L92.6362 47.6833C93.2763 47.332 93.5104 46.5281 93.1591 45.888L87.472 35.528C87.1207 34.8879 86.3168 34.6537 85.6767 35.0053L84.4572 35.6747C83.8171 36.026 83.583 36.8299 83.9343 37.47L89.6214 47.8301C89.973 48.4701 90.7767 48.7043 91.4168 48.3527Z" fill="#6583FE"/>
<path d="M100.372 39.4881L89.751 45.3182C89.1109 45.6696 88.307 45.4356 87.9556 44.7953L85.6009 40.5056C85.2496 39.8655 85.4835 39.0616 86.1238 38.7103L96.7445 32.8802C97.3845 32.5289 98.1884 32.7628 98.5398 33.4031L100.895 37.6928C101.246 38.3329 101.012 39.1366 100.372 39.4881Z" fill="#6583FE"/>
<path d="M84.1136 87.5457L85.2452 88.355C85.8391 88.7797 86.6651 88.6425 87.0897 88.0486L93.9647 78.4358C94.3894 77.8419 94.2522 77.0159 93.6583 76.5912L92.5268 75.7819C91.9329 75.3572 91.1069 75.4943 90.6822 76.0883L83.8073 85.7011C83.3826 86.295 83.5197 87.121 84.1136 87.5457Z" fill="#6583FE"/>
<path d="M95.9826 91.7775L86.1278 84.7296C85.5339 84.3049 85.3968 83.479 85.8215 82.8851L88.6682 78.9047C89.0929 78.3108 89.9188 78.1736 90.5127 78.5983L100.367 85.6462C100.961 86.0709 101.099 86.8969 100.674 87.4908L97.8271 91.4712C97.4024 92.0651 96.5765 92.2022 95.9826 91.7775Z" fill="#6583FE"/>
<path d="M28.5829 48.3527L27.3635 47.6833C26.7234 47.332 26.4893 46.5281 26.8406 45.888L32.5277 35.528C32.879 34.8879 33.6829 34.6537 34.323 35.0053L35.5425 35.6747C36.1825 36.026 36.4167 36.8299 36.0654 37.47L30.3782 47.8301C30.0269 48.4701 29.223 48.7043 28.5829 48.3527Z" fill="#6583FE"/>
<path d="M19.6282 39.4881L30.2489 45.3182C30.889 45.6696 31.6929 45.4356 32.0443 44.7953L34.399 40.5056C34.7504 39.8655 34.5164 39.0616 33.8761 38.7103L23.2554 32.8802C22.6154 32.5289 21.8114 32.7628 21.4601 33.4031L19.1051 37.6928C18.754 38.3329 18.9879 39.1366 19.6282 39.4881Z" fill="#6583FE"/>
<path d="M35.8861 87.5457L34.7548 88.355C34.1609 88.7797 33.335 88.6426 32.9103 88.0487L26.0353 78.4358C25.6107 77.8419 25.7478 77.0159 26.3417 76.5912L27.4732 75.7819C28.0671 75.3572 28.8931 75.4943 29.3178 76.0883L36.1927 85.7012C36.6171 86.2951 36.48 87.121 35.8861 87.5457Z" fill="#6583FE"/>
<path d="M24.0171 91.7775L33.8719 84.7296C34.4658 84.3049 34.6029 83.479 34.1782 82.8851L31.3315 78.9047C30.9068 78.3108 30.0809 78.1736 29.487 78.5983L19.6322 85.6462C19.0383 86.0709 18.9012 86.8969 19.3259 87.4908L22.1726 91.4712C22.5975 92.0651 23.4232 92.2022 24.0171 91.7775Z" fill="#6583FE"/>
<path d="M101.049 84.6927L98.4082 82.8039C102.051 76.2866 103.978 68.8871 103.978 61.3759C103.978 56.4592 103.172 51.6315 101.583 47.0263C101.372 46.4146 100.705 46.0897 100.093 46.3007C99.4814 46.5118 99.1565 47.1789 99.3675 47.7906C100.872 52.1492 101.634 56.72 101.634 61.3757C101.634 68.3992 99.8536 75.3182 96.4882 81.4307L91.1946 77.645C90.6527 77.2571 89.9913 77.1036 89.3351 77.2131C88.6779 77.3223 88.1025 77.6807 87.7148 78.2228L84.8683 82.2032C84.0687 83.3218 84.3276 84.883 85.4463 85.6829L90.7315 89.4627C82.8445 98.0877 71.718 103.01 60.0002 103.01C50.182 103.01 40.6619 99.5549 33.1931 93.2807C32.6981 92.8646 31.9582 92.9286 31.5422 93.4241C31.1259 93.9196 31.1901 94.659 31.6856 95.075C39.5759 101.703 49.6315 105.354 60.0002 105.354C72.4725 105.354 84.3098 100.075 92.651 90.8352L95.3008 92.7304C95.7288 93.0367 96.2309 93.1965 96.7465 93.1965C96.8838 93.1965 97.0223 93.185 97.1604 93.1621C97.8176 93.0529 98.393 92.6945 98.7806 92.1524L101.627 88.1722C102.015 87.6304 102.169 86.9699 102.059 86.3125C101.95 85.656 101.591 85.0806 101.049 84.6927ZM99.7207 86.8093L96.874 90.7895C96.8498 90.8232 96.817 90.8439 96.7762 90.8504C96.7355 90.8575 96.6977 90.8486 96.6642 90.8247C96.664 90.8244 96.664 90.8244 96.664 90.8244L86.8094 83.777C86.7419 83.7287 86.7262 83.6345 86.7748 83.567L89.6212 79.5866C89.6454 79.5531 89.6782 79.5325 89.719 79.5257C89.7279 79.524 89.7365 79.5233 89.745 79.5233C89.7759 79.5233 89.8048 79.5327 89.831 79.5517L99.6858 86.5991C99.7195 86.6232 99.7401 86.6561 99.7467 86.6968C99.7535 86.7379 99.7448 86.7756 99.7207 86.8093Z" fill="#0000CC"/>
<path d="M34.5539 85.6826C35.6721 84.8829 35.9313 83.322 35.1316 82.2031L32.2849 78.2225C31.8975 77.6808 31.3221 77.3222 30.6649 77.213C30.0073 77.1038 29.3473 77.2573 28.8056 77.6447L23.4869 81.4484C20.2094 75.473 18.4404 68.7118 18.368 61.823C18.3112 56.4207 19.2731 51.1561 21.2273 46.1757C21.7043 44.9602 22.2511 43.7602 22.8508 42.5937L29.6845 46.3451C30.0579 46.55 30.4676 46.654 30.8815 46.654C31.1156 46.654 31.3512 46.6207 31.5823 46.5535C32.2216 46.3671 32.7504 45.9429 33.0712 45.3589L35.426 41.0689C36.0879 39.863 35.6451 38.344 34.44 37.6826L28.4681 34.4044C32.1733 30.24 36.798 26.806 41.9151 24.4339L56.138 17.8404C58.5923 16.703 61.4069 16.703 63.8613 17.8404L78.086 24.4348C83.2036 26.8071 87.828 30.2405 91.5323 34.4042L85.5598 37.6828C84.3544 38.3443 83.9116 39.8635 84.5735 41.0693L86.9283 45.3593C87.2489 45.9432 87.7779 46.3674 88.4173 46.5537C88.6483 46.621 88.8839 46.6543 89.118 46.6543C89.5322 46.6543 89.9419 46.5502 90.3148 46.3454L100.935 40.5153C101.519 40.1949 101.944 39.6659 102.13 39.0265C102.316 38.3867 102.242 37.7129 101.921 37.129L99.5665 32.8393C99.2461 32.2552 98.7173 31.8307 98.0775 31.6444C97.4376 31.4583 96.7641 31.5321 96.1798 31.853L93.6344 33.2503C89.6601 28.6667 84.6424 24.8914 79.0713 22.309L64.8473 15.7144C61.7672 14.2866 58.233 14.2866 55.1529 15.7144L40.9298 22.3079C35.3592 24.8902 30.341 28.666 26.3658 33.2506L23.8198 31.853C23.2355 31.5324 22.5619 31.4583 21.9218 31.6444C21.2822 31.8307 20.7534 32.255 20.433 32.839L18.078 37.129C17.4164 38.3344 17.8584 39.8536 19.0641 40.5153L20.7961 41.4661C20.1487 42.7203 19.5591 44.0117 19.0455 45.32C16.9807 50.5821 15.9642 56.1429 16.024 61.8481C16.1013 69.2164 18.0194 76.4471 21.5688 82.8202L18.9501 84.6931C18.4083 85.0805 18.0499 85.6559 17.9407 86.3131C17.8315 86.9705 17.9848 87.6307 18.3724 88.1726L21.2196 92.1532C21.607 92.6951 22.1824 93.0535 22.8396 93.1627C22.9779 93.1857 23.1162 93.1971 23.2535 93.1971C23.7691 93.1971 24.2712 93.0371 24.6991 92.731L24.6989 92.7312L34.5539 85.6826ZM97.3087 33.9073C97.3317 33.8946 97.3554 33.8883 97.38 33.8883C97.3943 33.8883 97.4083 33.8904 97.4231 33.8946C97.4627 33.9061 97.493 33.9303 97.5129 33.9668L99.8679 38.2568C99.8876 38.2929 99.892 38.3314 99.8803 38.371C99.8688 38.4106 99.8447 38.4408 99.8083 38.4607L89.1874 44.2908C89.1516 44.3105 89.1129 44.3152 89.0735 44.3035C89.0337 44.292 89.0034 44.2676 88.9835 44.2313L86.6287 39.9418C86.6088 39.9054 86.6046 39.867 86.6161 39.8271C86.6278 39.7875 86.6517 39.7573 86.6883 39.7374L97.3087 33.9073ZM20.1323 38.2568L22.4873 33.9666C22.5073 33.9305 22.5375 33.9061 22.5771 33.8946C22.6172 33.8827 22.6556 33.8874 22.6915 33.9073L33.3122 39.7376C33.3848 39.7775 33.4113 39.8691 33.3715 39.9415L31.0167 44.2311C30.9968 44.2674 30.9665 44.292 30.9267 44.3035C30.8869 44.3152 30.8484 44.3105 30.8126 44.2908L20.1919 38.4607C20.1194 38.4209 20.0927 38.3293 20.1323 38.2568ZM23.3355 90.8241C23.3355 90.8241 23.3355 90.8241 23.3353 90.8243C23.3018 90.8485 23.2638 90.8576 23.2233 90.8501C23.1825 90.8436 23.1497 90.8229 23.1258 90.7894L20.2788 86.8088C20.2547 86.7755 20.246 86.7375 20.253 86.6968C20.2596 86.656 20.2802 86.6232 20.3137 86.5993L30.169 79.5514C30.195 79.5326 30.2238 79.5232 30.2545 79.5232C30.2632 79.5232 30.2719 79.5239 30.2808 79.5256C30.3216 79.5321 30.3544 79.5528 30.3783 79.5863L33.225 83.5667C33.2733 83.6342 33.2578 83.7284 33.1903 83.7767L23.3355 90.8241Z" fill="#0000CC"/>
<path d="M75.1938 76.9174H44.8062C43.5138 76.9174 42.4624 75.866 42.4624 74.5736V68.6299C42.4624 67.3375 43.5138 66.2861 44.8062 66.2861H75.1938C76.4861 66.2861 77.5376 67.3375 77.5376 68.6299V74.5736C77.5376 75.8657 76.4861 76.9174 75.1938 76.9174ZM44.8062 68.6296V74.5734H75.1952L75.1938 68.6296H44.8062Z" fill="#0000CC"/>
<path d="M73.8964 84.1172H46.1035C45.4562 84.1172 44.9316 83.5927 44.9316 82.9453C44.9316 82.298 45.4562 81.7734 46.1035 81.7734H73.8964C74.5438 81.7734 75.0683 82.298 75.0683 82.9453C75.0683 83.5927 74.5435 84.1172 73.8964 84.1172Z" fill="#0000CC"/>
<path d="M69.209 88.9736H56.0972C55.4498 88.9736 54.9253 88.4491 54.9253 87.8018C54.9253 87.1544 55.4498 86.6299 56.0972 86.6299H69.209C69.8564 86.6299 70.3809 87.1544 70.3809 87.8018C70.3809 88.4489 69.8562 88.9736 69.209 88.9736Z" fill="#0000CC"/>
<path d="M73.8965 93.8291H56.6831C56.0358 93.8291 55.5112 93.3046 55.5112 92.6572C55.5112 92.0099 56.0358 91.4854 56.6831 91.4854H73.8965C74.5439 91.4854 75.0684 92.0099 75.0684 92.6572C75.0684 93.3046 74.5437 93.8291 73.8965 93.8291Z" fill="#0000CC"/>
<path d="M75.8056 31.509C75.6346 31.509 75.4611 31.4715 75.2968 31.392L63.1949 25.5474C61.1647 24.5668 58.8353 24.5668 56.8051 25.5474L44.7048 31.3913C44.1212 31.6735 43.4211 31.4281 43.1399 30.8459C42.8584 30.263 43.1026 29.5623 43.6853 29.281L55.7856 23.4371C58.464 22.1434 61.5357 22.1434 64.2142 23.4371L76.3161 29.2815C76.8988 29.563 77.143 30.2635 76.8615 30.8466C76.6595 31.265 76.2411 31.509 75.8056 31.509Z" fill="#0000CC"/>
<path d="M52.3701 92.4504L49.7704 87.5783C49.4174 86.9166 48.4691 86.9166 48.1162 87.5783L45.5165 92.4504C45.1832 93.0748 45.6358 93.8293 46.3436 93.8293H51.543C52.2508 93.8293 52.7031 93.0751 52.3701 92.4504Z" fill="#6583FE"/>
<path d="M73.8965 88.99C73.2491 88.99 72.7246 88.4655 72.7246 87.8181V87.7832C72.7246 87.1359 73.2491 86.6113 73.8965 86.6113C74.5438 86.6113 75.0684 87.1359 75.0684 87.7832V87.8181C75.0684 88.4655 74.5436 88.99 73.8965 88.99Z" fill="#0000CC"/>
<path d="M93.248 102.115C92.6007 102.115 92.0762 101.591 92.0762 100.943V100.908C92.0762 100.261 92.6007 99.7363 93.248 99.7363C93.8954 99.7363 94.4199 100.261 94.4199 100.908V100.943C94.4199 101.591 93.8954 102.115 93.248 102.115Z" fill="#6583FE"/>
<path d="M93.248 108.628C92.6007 108.628 92.0762 108.103 92.0762 107.456V107.421C92.0762 106.774 92.6007 106.249 93.248 106.249C93.8954 106.249 94.4199 106.774 94.4199 107.421V107.456C94.4199 108.103 93.8954 108.628 93.248 108.628Z" fill="#6583FE"/>
<path d="M90.4426 103.735C90.2431 103.735 90.0413 103.684 89.8567 103.577L89.8262 103.559C89.266 103.235 89.0748 102.518 89.3992 101.958C89.7235 101.398 90.441 101.207 91.0004 101.531L91.0309 101.549C91.591 101.873 91.7823 102.59 91.4579 103.15C91.2406 103.525 90.8469 103.735 90.4426 103.735Z" fill="#6583FE"/>
<path d="M96.0818 106.991C95.8825 106.991 95.6805 106.94 95.4958 106.833L95.4654 106.815C94.9052 106.491 94.7139 105.774 95.0383 105.214C95.3625 104.654 96.0801 104.463 96.6396 104.787L96.67 104.804C97.2302 105.129 97.4215 105.846 97.0971 106.406C96.88 106.781 96.4863 106.991 96.0818 106.991Z" fill="#6583FE"/>
<path d="M90.4144 106.991C90.0097 106.991 89.6164 106.781 89.3991 106.406C89.0747 105.846 89.2662 105.129 89.8261 104.805L89.8566 104.787C90.4168 104.462 91.1337 104.654 91.4579 105.214C91.7822 105.774 91.5908 106.491 91.0308 106.815L91.0004 106.833C90.8157 106.94 90.6134 106.991 90.4144 106.991Z" fill="#6583FE"/>
<path d="M96.0536 103.735C95.6488 103.735 95.2555 103.525 95.0383 103.15C94.7139 102.59 94.9054 101.873 95.4653 101.549L95.4958 101.531C96.0562 101.206 96.7729 101.398 97.097 101.958C97.4214 102.518 97.2299 103.235 96.67 103.559L96.6395 103.577C96.4548 103.684 96.2528 103.735 96.0536 103.735Z" fill="#6583FE"/>
<path d="M10.7427 78.5127C10.0953 78.5127 9.5708 77.9882 9.5708 77.3408V77.3057C9.5708 76.6583 10.0953 76.1338 10.7427 76.1338C11.39 76.1338 11.9146 76.6583 11.9146 77.3057V77.3408C11.9146 77.9882 11.39 78.5127 10.7427 78.5127Z" fill="#6583FE"/>
<path d="M10.7427 85.0244C10.0953 85.0244 9.5708 84.4999 9.5708 83.8525V83.8174C9.5708 83.17 10.0953 82.6455 10.7427 82.6455C11.39 82.6455 11.9146 83.17 11.9146 83.8174V83.8525C11.9146 84.4999 11.39 85.0244 10.7427 85.0244Z" fill="#6583FE"/>
<path d="M7.93674 80.1323C7.73729 80.1323 7.53549 80.0815 7.3508 79.9744L7.32033 79.9568C6.76018 79.6324 6.56893 78.9157 6.8933 78.3555C7.21768 77.7951 7.9351 77.6041 8.49455 77.9285L8.52502 77.9461C9.08518 78.2705 9.27643 78.9872 8.95205 79.5473C8.73502 79.9228 8.34127 80.1323 7.93674 80.1323Z" fill="#6583FE"/>
<path d="M13.5764 83.3884C13.3769 83.3884 13.1751 83.3375 12.9904 83.2304L12.96 83.2128C12.3998 82.8884 12.2086 82.1717 12.5329 81.6116C12.8573 81.0509 13.5747 80.8599 14.1342 81.1845L14.1647 81.2021C14.7248 81.5265 14.9161 82.2432 14.5917 82.8034C14.3744 83.1788 13.9807 83.3884 13.5764 83.3884Z" fill="#6583FE"/>
<path d="M7.90856 83.3883C7.5038 83.3883 7.11052 83.1786 6.89325 82.8033C6.56887 82.2432 6.76036 81.5264 7.32028 81.2021L7.35075 81.1845C7.91091 80.8596 8.62786 81.0516 8.952 81.6115C9.27638 82.1717 9.08489 82.8884 8.52497 83.2128L8.4945 83.2303C8.30981 83.3375 8.10778 83.3883 7.90856 83.3883Z" fill="#6583FE"/>
<path d="M13.5482 80.1323C13.1434 80.1323 12.7502 79.9226 12.5329 79.5473C12.2085 78.9872 12.4 78.2705 12.9599 77.9461L12.9904 77.9285C13.5508 77.6039 14.2675 77.7956 14.5916 78.3555C14.916 78.9157 14.7245 79.6324 14.1646 79.9568L14.1341 79.9744C13.9495 80.0817 13.7472 80.1323 13.5482 80.1323Z" fill="#6583FE"/>
<path d="M48.9435 14.7401C48.2962 14.7401 47.7716 14.2155 47.7716 13.5682C47.7716 12.7498 47.1055 12.0839 46.2871 12.0839C45.6398 12.0839 45.1152 11.5594 45.1152 10.912C45.1152 10.2647 45.6398 9.74016 46.2871 9.74016C47.1055 9.74016 47.7716 9.0743 47.7716 8.25586C47.7716 7.60852 48.2962 7.08398 48.9435 7.08398C49.5909 7.08398 50.1154 7.60852 50.1154 8.25586C50.1154 9.0743 50.7813 9.74016 51.5997 9.74016C52.247 9.74016 52.7716 10.2647 52.7716 10.912C52.7716 11.5594 52.247 12.0839 51.5997 12.0839C50.7813 12.0839 50.1154 12.7498 50.1154 13.5682C50.1154 14.2153 49.5909 14.7401 48.9435 14.7401Z" fill="#6583FE"/>
<path d="M39.4799 18.7823C38.8326 18.7823 38.308 18.2578 38.308 17.6104C38.308 16.792 37.6422 16.1261 36.8237 16.1261C36.1764 16.1261 35.6519 15.6016 35.6519 14.9543C35.6519 14.3069 36.1764 13.7824 36.8237 13.7824C37.6422 13.7824 38.308 13.1163 38.308 12.2979C38.308 11.6505 38.8326 11.126 39.4799 11.126C40.1272 11.126 40.6518 11.6505 40.6518 12.2979C40.6518 13.1163 41.3176 13.7824 42.1361 13.7824C42.7834 13.7824 43.3079 14.3069 43.3079 14.9543C43.3079 15.6016 42.7834 16.1261 42.1361 16.1261C41.3176 16.1261 40.6518 16.792 40.6518 17.6104C40.6518 18.2578 40.1272 18.7823 39.4799 18.7823Z" fill="#6583FE"/>
<path d="M105.463 101.426C104.815 101.426 104.291 100.901 104.291 100.254C104.291 99.4355 103.625 98.7697 102.807 98.7697C102.159 98.7697 101.635 98.2452 101.635 97.5978C101.635 96.9505 102.159 96.4259 102.807 96.4259C103.625 96.4259 104.291 95.7598 104.291 94.9414C104.291 94.2941 104.815 93.7695 105.463 93.7695C106.11 93.7695 106.635 94.2941 106.635 94.9414C106.635 95.7598 107.301 96.4259 108.119 96.4259C108.766 96.4259 109.291 96.9505 109.291 97.5978C109.291 98.2452 108.766 98.7697 108.119 98.7697C107.301 98.7697 106.635 99.4355 106.635 100.254C106.635 100.901 106.11 101.426 105.463 101.426Z" fill="#6583FE"/>
<path d="M49.7935 37.3756C49.1461 37.3756 48.6216 36.8508 48.6216 36.2037V36.1768C48.6216 35.5297 49.1461 35.0049 49.7935 35.0049C50.4408 35.0049 50.9653 35.5297 50.9653 36.1768V36.2037C50.9653 36.8508 50.4408 37.3756 49.7935 37.3756Z" fill="#0000CC"/>
<path d="M49.7935 41.8631C49.1461 41.8631 48.6216 41.3384 48.6216 40.6912V40.6641C48.6216 40.017 49.1461 39.4922 49.7935 39.4922C50.4408 39.4922 50.9653 40.017 50.9653 40.6641V40.691C50.9653 41.3384 50.4408 41.8631 49.7935 41.8631Z" fill="#0000CC"/>
<path d="M54.8965 35.1324C54.2491 35.1324 53.7246 34.6077 53.7246 33.9605V33.9336C53.7246 33.2865 54.2491 32.7617 54.8965 32.7617C55.5438 32.7617 56.0684 33.2865 56.0684 33.9336V33.9605C56.0684 34.6077 55.5438 35.1324 54.8965 35.1324Z" fill="#0000CC"/>
<path d="M54.8965 39.6197C54.2491 39.6197 53.7246 39.095 53.7246 38.4478V38.4209C53.7246 37.7738 54.2491 37.249 54.8965 37.249C55.5438 37.249 56.0684 37.7738 56.0684 38.4209V38.4478C56.0684 39.095 55.5438 39.6197 54.8965 39.6197Z" fill="#0000CC"/>
<path d="M60 32.8883C59.3527 32.8883 58.8281 32.3635 58.8281 31.7164V31.6895C58.8281 31.0423 59.3527 30.5176 60 30.5176C60.6473 30.5176 61.1719 31.0423 61.1719 31.6895V31.7164C61.1719 32.3635 60.6473 32.8883 60 32.8883Z" fill="#0000CC"/>
<path d="M60 37.3756C59.3527 37.3756 58.8281 36.8508 58.8281 36.2037V36.1768C58.8281 35.5297 59.3527 35.0049 60 35.0049C60.6473 35.0049 61.1719 35.5297 61.1719 36.1768V36.2037C61.1719 36.8508 60.6473 37.3756 60 37.3756Z" fill="#0000CC"/>
<path d="M60 41.8631C59.3527 41.8631 58.8281 41.3384 58.8281 40.6912V40.6641C58.8281 40.017 59.3527 39.4922 60 39.4922C60.6473 39.4922 61.1719 40.017 61.1719 40.6641V40.691C61.1719 41.3384 60.6473 41.8631 60 41.8631Z" fill="#0000CC"/>
<path d="M65.1035 35.1324C64.4562 35.1324 63.9316 34.6077 63.9316 33.9605V33.9336C63.9316 33.2865 64.4562 32.7617 65.1035 32.7617C65.7509 32.7617 66.2754 33.2865 66.2754 33.9336V33.9605C66.2754 34.6077 65.7509 35.1324 65.1035 35.1324Z" fill="#0000CC"/>
<path d="M65.1035 39.6197C64.4562 39.6197 63.9316 39.095 63.9316 38.4478V38.4209C63.9316 37.7738 64.4562 37.249 65.1035 37.249C65.7509 37.249 66.2754 37.7738 66.2754 38.4209V38.4478C66.2754 39.095 65.7509 39.6197 65.1035 39.6197Z" fill="#0000CC"/>
<path d="M70.2065 37.3756C69.5592 37.3756 69.0347 36.8508 69.0347 36.2037V36.1768C69.0347 35.5297 69.5592 35.0049 70.2065 35.0049C70.8539 35.0049 71.3784 35.5297 71.3784 36.1768V36.2037C71.3784 36.8508 70.8539 37.3756 70.2065 37.3756Z" fill="#0000CC"/>
<path d="M70.2065 41.8631C69.5592 41.8631 69.0347 41.3384 69.0347 40.6912V40.6641C69.0347 40.017 69.5592 39.4922 70.2065 39.4922C70.8539 39.4922 71.3784 40.017 71.3784 40.6641V40.691C71.3784 41.3384 70.8539 41.8631 70.2065 41.8631Z" fill="#0000CC"/>
<path d="M49.7935 46.3502C49.1461 46.3502 48.6216 45.8254 48.6216 45.1783V45.1514C48.6216 44.5043 49.1461 43.9795 49.7935 43.9795C50.4408 43.9795 50.9653 44.5043 50.9653 45.1514V45.1783C50.9653 45.8254 50.4408 46.3502 49.7935 46.3502Z" fill="#0000CC"/>
<path d="M54.8965 44.107C54.2491 44.107 53.7246 43.5823 53.7246 42.9352V42.9082C53.7246 42.2611 54.2491 41.7363 54.8965 41.7363C55.5438 41.7363 56.0684 42.2611 56.0684 42.9082V42.9352C56.0684 43.5823 55.5438 44.107 54.8965 44.107Z" fill="#0000CC"/>
<path d="M54.8965 48.5943C54.2491 48.5943 53.7246 48.0696 53.7246 47.4225V47.3955C53.7246 46.7484 54.2491 46.2236 54.8965 46.2236C55.5438 46.2236 56.0684 46.7484 56.0684 47.3955V47.4225C56.0684 48.0696 55.5438 48.5943 54.8965 48.5943Z" fill="#0000CC"/>
<path d="M60 46.3502C59.3527 46.3502 58.8281 45.8254 58.8281 45.1783V45.1514C58.8281 44.5043 59.3527 43.9795 60 43.9795C60.6473 43.9795 61.1719 44.5043 61.1719 45.1514V45.1783C61.1719 45.8254 60.6473 46.3502 60 46.3502Z" fill="#0000CC"/>
<path d="M60 50.8375C59.3527 50.8375 58.8281 50.3127 58.8281 49.6656V49.6387C58.8281 48.9916 59.3527 48.4668 60 48.4668C60.6473 48.4668 61.1719 48.9916 61.1719 49.6387V49.6656C61.1719 50.3127 60.6473 50.8375 60 50.8375Z" fill="#0000CC"/>
<path d="M65.1035 44.107C64.4562 44.107 63.9316 43.5823 63.9316 42.9352V42.9082C63.9316 42.2611 64.4562 41.7363 65.1035 41.7363C65.7509 41.7363 66.2754 42.2611 66.2754 42.9082V42.9352C66.2754 43.5823 65.7509 44.107 65.1035 44.107Z" fill="#0000CC"/>
<path d="M65.1035 48.5943C64.4562 48.5943 63.9316 48.0696 63.9316 47.4225V47.3955C63.9316 46.7484 64.4562 46.2236 65.1035 46.2236C65.7509 46.2236 66.2754 46.7484 66.2754 47.3955V47.4225C66.2754 48.0696 65.7509 48.5943 65.1035 48.5943Z" fill="#0000CC"/>
<path d="M70.2065 46.3502C69.5592 46.3502 69.0347 45.8254 69.0347 45.1783V45.1514C69.0347 44.5043 69.5592 43.9795 70.2065 43.9795C70.8539 43.9795 71.3784 44.5043 71.3784 45.1514V45.1783C71.3784 45.8254 70.8539 46.3502 70.2065 46.3502Z" fill="#0000CC"/>
</g>
<defs>
<linearGradient id="paint0_linear" x1="5.58305" y1="80.4539" x2="107.703" y2="21.495" gradientUnits="userSpaceOnUse">
<stop stop-color="#D2DEFF" stop-opacity="0"/>
<stop offset="1" stop-color="#B7C5FF"/>
</linearGradient>
<clipPath id="clip0">
<rect width="120" height="120" fill="white"/>
</clipPath>
</defs>
</svg>
