<svg width="446" height="450" viewBox="0 0 446 450" fill="none" xmlns="http://www.w3.org/2000/svg">
<path d="M19.9228 319.795C21.4087 328.303 24.1338 336.454 28.2908 343.891C34.0313 354.16 41.7873 362.033 50.42 368.855C62.8599 378.689 77.1251 386.341 89.835 395.829C96.7632 401.003 103.655 407.311 106.64 416.307C109.627 425.302 107.054 437.45 107.956 440.92L226.697 442.003L218.14 442.006H218.278V442.003L337.02 440.92C329.364 437.45 326.791 425.302 329.778 416.307C332.763 407.311 339.655 401.003 346.583 395.829C359.293 386.341 373.559 378.689 385.999 368.855C394.631 362.033 402.387 354.16 408.128 343.891C424.501 314.612 418.619 274.272 402.678 244.666C393.924 228.415 382.184 213.481 378.937 194.622C375.07 172.169 384.16 149.31 383.312 126.423C382.176 95.828 362.88 69.2175 339.586 55.5719C316.29 41.9293 289.533 39.1851 263.512 38.9672C248.395 38.8401 233.158 39.5027 218.433 43.5299C218.358 43.5511 218.284 43.5723 218.209 43.5934C218.134 43.5723 218.06 43.5511 217.985 43.5299C203.26 39.5027 188.023 38.8401 172.907 38.9672C146.886 39.1851 120.129 41.9293 96.8326 55.5719C73.5389 69.2175 54.2427 95.828 53.1064 126.423C52.2581 149.31 61.3483 172.169 57.4819 194.622C54.2347 213.481 42.4943 228.415 33.7408 244.666C21.8483 266.753 15.555 294.813 19.9228 319.795Z" fill="#25B9A9"/>
<path d="M218.14 442.006V442.003L99.3982 440.92C107.054 437.45 109.627 425.302 106.64 416.307C103.655 407.311 96.7632 401.003 89.835 395.829C77.1251 386.341 62.8599 378.689 50.4199 368.855C62.8599 378.689 77.1251 386.341 89.835 395.829C96.7632 401.003 103.655 407.311 106.64 416.307C109.627 425.302 107.054 437.45 107.956 440.92L222.488 441.967L218.278 442.003V442.006H218.14Z" fill="#FAC597"/>
<path d="M218.278 442.006H218.14H218.278ZM218.278 442.006V442.003L222.488 441.967L218.278 442.003V442.006ZM222.488 441.967L107.956 440.92C107.054 437.45 109.627 425.302 106.64 416.307C103.655 407.311 96.7632 401.003 89.835 395.829C77.1251 386.341 62.8599 378.689 50.4199 368.855H385.999C373.559 378.689 359.293 386.341 346.583 395.829C339.655 401.003 332.763 407.311 329.778 416.307C328.966 418.748 328.565 421.423 328.565 424.095C328.562 431.259 331.442 438.394 337.02 440.92L222.488 441.967Z" fill="#FAB57F"/>
<path d="M91.2945 450H345.123C347.892 450 350.136 447.359 350.136 444.1C350.136 440.841 347.892 438.2 345.123 438.2H91.2945C88.526 438.2 86.2815 440.841 86.2815 444.1C86.2815 447.359 88.526 450 91.2945 450Z" fill="#1479FF"/>
<path d="M48.0222 318.839H49.522C50.0179 318.839 50.42 318.367 50.42 317.783V313.544C50.42 312.96 50.0179 312.485 49.522 312.485H48.0222C47.5263 312.485 47.1243 312.96 47.1243 313.544V317.783C47.1243 318.367 47.5263 318.839 48.0222 318.839Z" fill="#25B9A9"/>
<path d="M40.4385 318.839H43.1411C43.6373 318.839 44.0394 319.314 44.0394 319.898V326.406C44.0394 326.99 43.6373 327.462 43.1411 327.462H40.4385C39.9426 327.462 39.5405 326.99 39.5405 326.406V319.898C39.5405 319.314 39.9426 318.839 40.4385 318.839Z" fill="#25B9A9"/>
<path d="M98.7093 311.35H100.209C100.705 311.35 101.107 310.878 101.107 310.294V306.055C101.107 305.471 100.705 304.996 100.209 304.996H98.7093C98.2131 304.996 97.811 305.471 97.811 306.055V310.294C97.811 310.878 98.2131 311.35 98.7093 311.35Z" fill="#25B9A9"/>
<path d="M91.1255 311.35H93.8282C94.3241 311.35 94.7261 311.825 94.7261 312.409V318.917C94.7261 319.501 94.3241 319.973 93.8282 319.973H91.1255C90.6294 319.973 90.2273 319.501 90.2273 318.917V312.409C90.2273 311.825 90.6294 311.35 91.1255 311.35Z" fill="#25B9A9"/>
<path d="M72.6194 331.265H71.1199C70.6237 331.265 70.2217 331.737 70.2217 332.321V336.56C70.2217 337.144 70.6237 337.619 71.1199 337.619H72.6194C73.1153 337.619 73.5174 337.144 73.5174 336.56V332.321C73.5174 331.737 73.1153 331.265 72.6194 331.265Z" fill="#25B9A9"/>
<path d="M80.2032 331.265H77.5005C77.0044 331.265 76.6023 330.79 76.6023 330.206V323.698C76.6023 323.114 77.0044 322.642 77.5005 322.642H80.2032C80.6991 322.642 81.1011 323.114 81.1011 323.698V330.206C81.1011 330.79 80.6991 331.265 80.2032 331.265Z" fill="#25B9A9"/>
<path d="M150.899 320.929H149.4C148.904 320.929 148.502 321.404 148.502 321.988V326.227C148.502 326.811 148.904 327.283 149.4 327.283H150.899C151.395 327.283 151.797 326.811 151.797 326.227V321.988C151.797 321.404 151.395 320.929 150.899 320.929Z" fill="#25B9A9"/>
<path d="M158.483 320.929H155.781C155.284 320.929 154.882 320.457 154.882 319.873V313.365C154.882 312.781 155.284 312.306 155.781 312.306H158.483C158.979 312.306 159.381 312.781 159.381 313.365V319.873C159.381 320.457 158.979 320.929 158.483 320.929Z" fill="#25B9A9"/>
<path d="M57.4732 346.242H55.9737C55.4778 346.242 55.0757 346.714 55.0757 347.298V351.537C55.0757 352.121 55.4778 352.596 55.9737 352.596H57.4732C57.9693 352.596 58.3714 352.121 58.3714 351.537V347.298C58.3714 346.714 57.9693 346.242 57.4732 346.242Z" fill="#25B9A9"/>
<path d="M57.4732 334.442H55.9737C55.4778 334.442 55.0757 334.914 55.0757 335.498V339.737C55.0757 340.321 55.4778 340.796 55.9737 340.796H57.4732C57.9693 340.796 58.3714 340.321 58.3714 339.737V335.498C58.3714 334.914 57.9693 334.442 57.4732 334.442Z" fill="#25B9A9"/>
<path d="M64.4554 349.419H62.9558C62.4599 349.419 62.0579 349.891 62.0579 350.475V354.714C62.0579 355.298 62.4599 355.773 62.9558 355.773H64.4554C64.9515 355.773 65.3536 355.298 65.3536 354.714V350.475C65.3536 349.891 64.9515 349.419 64.4554 349.419Z" fill="#25B9A9"/>
<path d="M65.0569 346.242H62.3543C61.8584 346.242 61.4563 345.767 61.4563 345.183V338.675C61.4563 338.091 61.8584 337.619 62.3543 337.619H65.0569C65.5531 337.619 65.9552 338.091 65.9552 338.675V345.183C65.9552 345.767 65.5531 346.242 65.0569 346.242Z" fill="#25B9A9"/>
<path d="M164.551 346.233H163.051C162.555 346.233 162.153 346.705 162.153 347.289V351.528C162.153 352.112 162.555 352.587 163.051 352.587H164.551C165.047 352.587 165.449 352.112 165.449 351.528V347.289C165.449 346.705 165.047 346.233 164.551 346.233Z" fill="#25B9A9"/>
<path d="M164.551 334.433H163.051C162.555 334.433 162.153 334.905 162.153 335.489V339.728C162.153 340.312 162.555 340.787 163.051 340.787H164.551C165.047 340.787 165.449 340.312 165.449 339.728V335.489C165.449 334.905 165.047 334.433 164.551 334.433Z" fill="#25B9A9"/>
<path d="M171.533 349.41H170.033C169.538 349.41 169.135 349.882 169.135 350.466V354.704C169.135 355.288 169.538 355.763 170.033 355.763H171.533C172.029 355.763 172.431 355.288 172.431 354.704V350.466C172.431 349.882 172.029 349.41 171.533 349.41Z" fill="#25B9A9"/>
<path d="M172.135 346.233H169.432C168.936 346.233 168.534 345.758 168.534 345.174V338.666C168.534 338.082 168.936 337.61 169.432 337.61H172.135C172.63 337.61 173.033 338.082 173.033 338.666V345.174C173.033 345.758 172.63 346.233 172.135 346.233Z" fill="#25B9A9"/>
<path d="M130.14 328.596H128.641C128.145 328.596 127.743 329.071 127.743 329.655V333.894C127.743 334.478 128.145 334.95 128.641 334.95H130.14C130.636 334.95 131.038 334.478 131.038 333.894V329.655C131.038 329.071 130.636 328.596 130.14 328.596Z" fill="#25B9A9"/>
<path d="M130.14 316.796H128.641C128.145 316.796 127.743 317.271 127.743 317.855V322.094C127.743 322.678 128.145 323.15 128.641 323.15H130.14C130.636 323.15 131.038 322.678 131.038 322.094V317.855C131.038 317.271 130.636 316.796 130.14 316.796Z" fill="#25B9A9"/>
<path d="M137.123 331.773H135.623C135.127 331.773 134.725 332.248 134.725 332.832V337.071C134.725 337.655 135.127 338.127 135.623 338.127H137.123C137.619 338.127 138.021 337.655 138.021 337.071V332.832C138.021 332.248 137.619 331.773 137.123 331.773Z" fill="#25B9A9"/>
<path d="M137.724 328.596H135.022C134.525 328.596 134.123 328.124 134.123 327.54V321.032C134.123 320.448 134.525 319.973 135.022 319.973H137.724C138.22 319.973 138.622 320.448 138.622 321.032V327.54C138.622 328.124 138.22 328.596 137.724 328.596Z" fill="#25B9A9"/>
<path d="M395.991 167.91L399.526 167.181C404.095 166.238 407.149 161.114 406.347 155.737L405.727 151.577C404.925 146.199 407.979 141.076 412.55 140.132C417.118 139.191 421.47 142.786 422.273 148.162L422.892 152.322C423.694 157.699 428.046 161.293 432.615 160.35L436.15 159.621C440.718 158.678 445.073 162.272 445.872 167.649C446.674 173.026 443.62 178.15 439.052 179.093L435.517 179.823C430.949 180.766 427.895 185.889 428.694 191.266L429.316 195.426C430.116 200.803 427.062 205.927 422.494 206.87C417.925 207.813 413.57 204.218 412.771 198.841L412.151 194.682C411.349 189.305 406.997 185.71 402.426 186.653L398.894 187.383C394.323 188.326 389.971 184.731 389.169 179.354C388.369 173.977 391.423 168.853 395.991 167.91Z" fill="#25B9A9"/>
<path d="M7.64383 186.664L10.0977 187.5C13.27 188.58 16.586 186.43 17.5043 182.696L18.2145 179.808C19.1328 176.075 22.4487 173.924 25.6211 175.005C28.7934 176.085 30.6205 179.988 29.7022 183.722L28.9921 186.61C28.0739 190.343 29.9009 194.246 33.0732 195.327L35.5273 196.163C38.6994 197.243 40.5267 201.146 39.6084 204.88C38.6901 208.613 35.3741 210.764 32.202 209.683L29.7482 208.847C26.5759 207.767 23.2597 209.917 22.3416 213.651L21.6312 216.539C20.713 220.272 17.397 222.423 14.2248 221.342H14.2247C11.0525 220.262 9.22527 216.359 10.1434 212.625L10.8538 209.737C11.772 206.003 9.94477 202.101 6.77257 201.02L4.31849 200.184C1.14641 199.103 -0.680848 195.201 0.2373 191.467C1.15555 187.733 4.47155 185.583 7.64383 186.664Z" fill="#25B9A9"/>
<path d="M34.8092 55.8956L36.9912 56.8154C39.8121 58.0015 42.9171 56.2738 43.9264 52.9547L44.7071 50.386C45.7164 47.0668 48.8214 45.3392 51.6423 46.5252C54.4632 47.7143 55.9316 51.3693 54.9223 54.6884L54.1416 57.2572C53.1323 60.5763 54.6005 64.2313 57.4214 65.4173L59.6035 66.3371C62.4244 67.5262 63.8928 71.1812 62.8835 74.5003C61.874 77.8194 58.769 79.547 55.9483 78.361L53.7663 77.4412C50.9454 76.2521 47.8404 77.9828 46.8311 81.3019L46.0504 83.8707C45.0408 87.1898 41.9359 88.9174 39.1152 87.7284C36.2943 86.5423 34.8259 82.8874 35.8352 79.5682L36.6159 76.9995C37.6254 73.6803 36.1568 70.0254 33.3361 68.8363L31.154 67.9165C28.3331 66.7304 26.8647 63.0755 27.874 59.7563C28.8833 56.4372 31.9883 54.7066 34.8092 55.8956Z" fill="#25B9A9"/>
<path d="M84.2243 31.2155L87.6051 29.8025C91.9756 27.972 94.2595 22.3201 92.706 17.1765L91.5044 13.1978C89.9509 8.05423 92.2348 2.40233 96.6053 0.574852C100.976 -1.25566 105.778 1.43414 107.332 6.57772L108.533 10.5564C110.087 15.7 114.889 18.3868 119.26 16.5593L122.641 15.1463C127.012 13.3158 131.814 16.0056 133.368 21.1492C134.921 26.2928 132.637 31.9447 128.267 33.7721L124.886 35.1881C120.515 37.0156 118.231 42.6675 119.785 47.8111L120.987 51.7898C122.54 56.9364 120.256 62.5883 115.886 64.4158C111.515 66.2433 106.712 63.5565 105.159 58.4129L103.957 54.4342C102.404 49.2906 97.6015 46.6009 93.2307 48.4283L89.8499 49.8443C85.4791 51.6718 80.6769 48.985 79.1233 43.8415C77.5698 38.6979 79.8534 33.043 84.2243 31.2155Z" fill="#1479FF"/>
<path d="M367.021 69.5352L370.402 68.1192C374.772 66.2917 377.055 60.6398 375.502 55.4962L374.302 51.5145C372.746 46.3709 375.032 40.719 379.402 38.8915C383.772 37.064 388.574 39.7508 390.127 44.8944L391.33 48.8731C392.883 54.0167 397.685 56.7065 402.056 54.876L405.436 53.463C409.806 51.6355 414.611 54.3223 416.164 59.4659C417.717 64.6094 415.434 70.2613 411.064 72.0918L407.683 73.5048C403.31 75.3323 401.027 80.9872 402.58 86.1308L403.783 90.1095C405.336 95.2531 403.053 100.905 398.683 102.732C394.31 104.563 389.508 101.873 387.955 96.7296L386.754 92.7509C385.199 87.6073 380.397 84.9205 376.027 86.748L372.646 88.161C368.276 89.9915 363.473 87.3017 361.918 82.1581C360.365 77.0145 362.651 71.3627 367.021 69.5352Z" fill="#1479FF"/>
<path d="M339.771 111.262L342.082 111.93C345.069 112.796 348.087 110.644 348.823 107.129L349.391 104.409C350.126 100.89 353.142 98.7416 356.131 99.6039C359.119 100.469 360.946 104.021 360.211 107.537L359.643 110.257C358.908 113.776 360.736 117.328 363.723 118.19L366.034 118.859C369.024 119.724 370.849 123.277 370.116 126.792C369.381 130.311 366.363 132.459 363.376 131.597L361.065 130.925C358.075 130.063 355.057 132.211 354.324 135.73L353.756 138.45C353.021 141.966 350.003 144.117 347.015 143.252C344.026 142.386 342.2 138.837 342.933 135.319L343.501 132.598C344.236 129.083 342.411 125.531 339.421 124.665L337.11 123.997C334.123 123.131 332.295 119.582 333.031 116.063C333.766 112.548 336.781 110.396 339.771 111.262Z" fill="white"/>
<path d="M422.316 231.159L423.792 231.586C425.696 232.137 427.622 230.765 428.09 228.522L428.455 226.786C428.923 224.542 430.848 223.17 432.753 223.722C434.661 224.274 435.825 226.54 435.357 228.783L434.995 230.519C434.527 232.763 435.692 235.029 437.599 235.58L439.072 236.007C440.98 236.558 442.144 238.824 441.676 241.068C441.209 243.312 439.283 244.683 437.376 244.132L435.9 243.705C433.995 243.154 432.069 244.525 431.602 246.769L431.239 248.505C430.769 250.749 428.843 252.12 426.938 251.569C425.031 251.017 423.866 248.751 424.334 246.507L424.696 244.772C425.164 242.528 424 240.262 422.095 239.711L420.619 239.284C418.712 238.732 417.547 236.467 418.015 234.223C418.485 231.979 420.408 230.607 422.316 231.159Z" fill="#1479FF"/>
<path d="M26.7096 160.871L28.0441 160.017C29.7691 158.915 30.408 156.375 29.4707 154.344L28.7457 152.774C27.8087 150.744 28.4475 148.204 30.1725 147.1C31.8972 145.999 34.0554 146.749 34.9927 148.78L35.7176 150.35C36.6547 152.38 38.8128 153.132 40.5378 152.029L41.8723 151.176C43.5973 150.073 45.7555 150.825 46.6925 152.855C47.6295 154.885 46.991 157.425 45.266 158.528L43.9315 159.381C42.2065 160.484 41.5679 163.024 42.505 165.055L43.2299 166.625C44.167 168.655 43.5284 171.195 41.8034 172.298C40.0782 173.401 37.9203 172.649 36.983 170.619L36.258 169.049C35.321 167.018 33.1628 166.267 31.4378 167.37L30.1033 168.223C28.3783 169.326 26.2202 168.574 25.2831 166.544C24.346 164.514 24.9848 161.974 26.7096 160.871Z" fill="#1479FF"/>
<path d="M78.3475 89.2018L79.8221 89.6284C81.7286 90.1791 83.6541 88.8084 84.1225 86.5634L84.4852 84.8297C84.9536 82.5847 86.8791 81.2141 88.7853 81.7648C90.6918 82.3154 91.8574 84.5816 91.3888 86.8266L91.0263 88.5634C90.5576 90.8054 91.7232 93.0716 93.6295 93.6222L95.1043 94.0488C97.0108 94.6025 98.1761 96.8687 97.7077 99.1107C97.2391 101.356 95.3138 102.726 93.4073 102.176L91.9325 101.749C90.0263 101.198 88.1008 102.569 87.6324 104.811L87.2699 106.548C86.8012 108.793 84.876 110.163 82.9695 109.613C81.063 109.059 79.8974 106.796 80.3661 104.551L80.7286 102.814C81.1972 100.572 80.0316 98.3059 78.1251 97.7552L76.6505 97.3286C74.7441 96.775 73.5787 94.5087 74.0471 92.2667C74.5158 90.0217 76.441 88.6511 78.3475 89.2018Z" fill="white"/>
<path d="M327.339 81.8134L328.853 81.6621C330.809 81.4624 332.259 79.4382 332.09 77.1357L331.961 75.3536C331.791 73.0541 333.241 71.027 335.198 70.8273C337.154 70.6306 338.876 72.3371 339.044 74.6396L339.175 76.4187C339.342 78.7212 341.064 80.4276 343.018 80.2279L344.532 80.0767C346.488 79.88 348.211 81.5834 348.378 83.8859C348.545 86.1884 347.098 88.2156 345.141 88.4123L343.627 88.5666C341.671 88.7633 340.224 90.7904 340.391 93.093L340.522 94.872C340.689 97.1745 339.239 99.2017 337.283 99.3984C335.326 99.595 333.606 97.8916 333.437 95.5891L333.308 93.807C333.138 91.5045 331.419 89.801 329.462 89.9977L327.948 90.152C325.992 90.3487 324.272 88.6422 324.102 86.3397C323.935 84.0372 325.385 82.0131 327.339 81.8134Z" fill="#1479FF"/>
<path d="M377.425 338.387C376.831 337.688 375.867 337.688 375.271 338.387L372.191 342.012C371.906 342.348 371.52 342.538 371.114 342.538H352.9C352.057 342.538 351.375 343.34 351.375 344.33C351.375 345.322 352.057 346.124 352.9 346.124L370.592 346.106C372.15 346.103 373.646 345.373 374.746 344.075L377.425 340.923C378.022 340.224 378.022 339.089 377.425 338.387Z" fill="#1479FF"/>
<path d="M353.144 353.715H349.607V281.894H353.144V353.715Z" fill="white"/>
<path d="M357.198 285.104H302.616C301.109 285.104 299.888 283.667 299.888 281.894C299.888 280.121 301.109 278.684 302.616 278.684H357.198C358.705 278.684 359.926 280.121 359.926 281.894C359.926 283.667 358.705 285.104 357.198 285.104Z" fill="#DDE8F7"/>
<path d="M351.671 321.543H301.657V293.201H358.453V313.562C358.453 317.967 355.417 321.543 351.671 321.543Z" fill="#1479FF"/>
<path d="M318.269 358.145L283.875 317.665L286.029 315.129L320.423 355.609L318.269 358.145Z" fill="white"/>
<path d="M283.875 355.609L318.269 315.129L320.423 317.665L286.029 358.145L283.875 355.609Z" fill="white"/>
<path d="M300.626 365.261V308.013H303.672V365.261H300.626Z" fill="white"/>
<path d="M277.828 334.844H326.47V338.43H277.828V334.844Z" fill="white"/>
<path d="M289.42 250.487C289.42 251.877 290.379 253.003 291.559 253.003H297.752C298.932 253.003 299.888 254.13 299.888 255.519V335.915C299.888 337.304 300.847 338.43 302.027 338.43H302.271C303.454 338.43 304.41 337.304 304.41 335.915V252.974C304.41 250.211 302.508 247.971 300.158 247.971H291.559C290.379 247.971 289.42 249.097 289.42 250.487Z" fill="white"/>
<path d="M279.911 255.085H290.674C293.076 255.085 295.024 252.794 295.024 249.966C295.024 247.14 293.076 244.848 290.674 244.848H279.911C277.51 244.848 275.563 247.14 275.563 249.966C275.563 252.794 277.51 255.085 279.911 255.085Z" fill="#DDE8F7"/>
<path d="M353.144 338.43H302.15V334.844H353.144V338.43Z" fill="white"/>
<path d="M302.15 309.974C289.656 309.974 279.494 321.934 279.494 336.638C279.494 351.34 289.656 363.303 302.15 363.303C314.642 363.303 324.804 351.34 324.804 336.638C324.804 321.934 314.642 309.974 302.15 309.974ZM302.15 368.855C287.055 368.855 274.777 354.402 274.777 336.638C274.777 318.875 287.055 304.422 302.15 304.422C317.243 304.422 329.521 318.875 329.521 336.638C329.521 354.402 317.243 368.855 302.15 368.855Z" fill="#DDE8F7"/>
<path d="M351.376 356.49C349.779 356.49 348.481 358.018 348.481 359.897C348.481 361.775 349.779 363.303 351.376 363.303C352.972 363.303 354.27 361.775 354.27 359.897C354.27 358.018 352.972 356.49 351.376 356.49ZM351.376 368.855C347.177 368.855 343.763 364.837 343.763 359.897C343.763 354.959 347.177 350.938 351.376 350.938C355.574 350.938 358.988 354.959 358.988 359.897C358.988 364.837 355.574 368.855 351.376 368.855Z" fill="#DDE8F7"/>
<path d="M307.161 336.638C307.161 339.897 304.917 342.538 302.15 342.538C299.382 342.538 297.137 339.897 297.137 336.638C297.137 333.38 299.382 330.738 302.15 330.738C304.917 330.738 307.161 333.38 307.161 336.638Z" fill="#DDE8F7"/>
<path d="M58.6733 343.216H55.5601V321.093H58.6733V343.216Z" fill="white"/>
<path d="M81.9028 343.216H78.7896V321.093H81.9028V343.216Z" fill="white"/>
<path d="M53.6321 368.855C52.5143 368.855 51.6084 367.79 51.6084 366.474V341.927C51.6084 340.611 52.5143 339.546 53.6321 339.546C54.7496 339.546 55.6556 340.611 55.6556 341.927V366.474C55.6556 367.79 54.7496 368.855 53.6321 368.855Z" fill="white"/>
<path d="M83.8306 368.855C82.7128 368.855 81.8069 367.79 81.8069 366.474V341.927C81.8069 340.611 82.7128 339.546 83.8306 339.546C84.9481 339.546 85.854 340.611 85.854 341.927V366.474C85.854 367.79 84.9481 368.855 83.8306 368.855Z" fill="white"/>
<path d="M86.5739 362.281H50.8883C49.9302 362.281 49.1538 361.367 49.1538 360.241C49.1538 359.113 49.9302 358.199 50.8883 358.199H86.5739C87.5321 358.199 88.3087 359.113 88.3087 360.241C88.3087 361.367 87.5321 362.281 86.5739 362.281Z" fill="white"/>
<path d="M104.174 343.216H101.061V321.093H104.174V343.216Z" fill="white"/>
<path d="M127.404 343.216H124.29V321.093H127.404V343.216Z" fill="white"/>
<path d="M99.1333 368.855C98.0156 368.855 97.1096 367.79 97.1096 366.474V341.927C97.1096 340.611 98.0156 339.546 99.1333 339.546C100.251 339.546 101.157 340.611 101.157 341.927V366.474C101.157 367.79 100.251 368.855 99.1333 368.855Z" fill="white"/>
<path d="M129.331 368.855C128.214 368.855 127.308 367.79 127.308 366.474V341.927C127.308 340.611 128.214 339.546 129.331 339.546C130.449 339.546 131.355 340.611 131.355 341.927V366.474C131.355 367.79 130.449 368.855 129.331 368.855Z" fill="white"/>
<path d="M132.075 362.281H96.3895C95.4314 362.281 94.655 361.367 94.655 360.241C94.655 359.113 95.4314 358.199 96.3895 358.199H132.075C133.033 358.199 133.81 359.113 133.81 360.241C133.81 361.367 133.033 362.281 132.075 362.281Z" fill="white"/>
<path d="M149.675 343.216H146.562V321.093H149.675V343.216Z" fill="white"/>
<path d="M172.905 343.216H169.792V321.093H172.905V343.216Z" fill="white"/>
<path d="M144.634 368.855C143.517 368.855 142.611 367.79 142.611 366.474V341.927C142.611 340.611 143.517 339.546 144.634 339.546C145.752 339.546 146.658 340.611 146.658 341.927V366.474C146.658 367.79 145.752 368.855 144.634 368.855Z" fill="white"/>
<path d="M174.833 368.855C173.715 368.855 172.809 367.79 172.809 366.474V341.927C172.809 340.611 173.715 339.546 174.833 339.546C175.95 339.546 176.856 340.611 176.856 341.927V366.474C176.856 367.79 175.95 368.855 174.833 368.855Z" fill="white"/>
<path d="M177.576 362.281H141.89C140.932 362.281 140.156 361.367 140.156 360.241C140.156 359.113 140.932 358.199 141.89 358.199H177.576C178.534 358.199 179.311 359.113 179.311 360.241C179.311 361.367 178.534 362.281 177.576 362.281Z" fill="white"/>
<path d="M85.8539 338.145H51.6084C48.5003 338.145 45.9807 341.11 45.9807 344.768C45.9807 348.426 48.5003 351.391 51.6084 351.391H85.8539C88.9622 351.391 91.4818 348.426 91.4818 344.768C91.4818 341.11 88.9622 338.145 85.8539 338.145Z" fill="#DDE8F7"/>
<path d="M82.5014 308.83H54.9612C52.3159 308.83 50.1716 311.356 50.1716 314.47V323.77C50.1716 326.884 52.3159 329.407 54.9612 329.407H82.5014C85.1464 329.407 87.291 326.884 87.291 323.77V314.47C87.291 311.356 85.1464 308.83 82.5014 308.83Z" fill="#1479FF"/>
<path d="M131.355 338.145H97.1096C94.0015 338.145 91.4819 341.11 91.4819 344.768C91.4819 348.426 94.0015 351.391 97.1096 351.391H131.355C134.463 351.391 136.983 348.426 136.983 344.768C136.983 341.11 134.463 338.145 131.355 338.145Z" fill="#1479FF"/>
<path d="M128.002 308.83H100.462C97.8171 308.83 95.6729 311.356 95.6729 314.47V323.77C95.6729 326.884 97.8171 329.407 100.462 329.407H128.002C130.648 329.407 132.792 326.884 132.792 323.77V314.47C132.792 311.356 130.648 308.83 128.002 308.83Z" fill="#DDE8F7"/>
<path d="M176.856 338.145H142.611C139.502 338.145 136.983 341.11 136.983 344.768C136.983 348.426 139.502 351.391 142.611 351.391H176.856C179.964 351.391 182.484 348.426 182.484 344.768C182.484 341.11 179.964 338.145 176.856 338.145Z" fill="#DDE8F7"/>
<path d="M173.503 308.83H145.963C143.318 308.83 141.174 311.356 141.174 314.47V323.77C141.174 326.884 143.318 329.407 145.963 329.407H173.503C176.149 329.407 178.293 326.884 178.293 323.77V314.47C178.293 311.356 176.149 308.83 173.503 308.83Z" fill="#1479FF"/>
<path d="M374.181 237.646C378.024 237.646 380.51 233.787 380.289 229.925C380.51 233.787 378.024 237.646 374.181 237.646ZM331.007 237.623C331.005 237.623 331.005 237.623 331.002 237.623C331.005 237.623 331.005 237.623 331.007 237.623ZM330.997 237.622C330.223 237.549 329.47 237.303 328.771 236.896L296.749 218.198L328.771 236.896C329.47 237.303 330.223 237.549 330.997 237.622Z" fill="url(#paint0_linear)"/>
<path d="M329.144 218.198H296.749C293.873 218.198 291.543 215.456 291.543 212.072V173.946C291.543 170.563 293.873 167.82 296.749 167.82H329.144C332.018 167.82 334.347 170.563 334.347 173.946V212.072C334.347 215.456 332.018 218.198 329.144 218.198Z" fill="white"/>
<path d="M322.027 189.276H317.796C316.868 189.276 316.117 188.392 316.117 187.3V182.321C316.117 181.23 315.364 180.345 314.439 180.345H311.451C310.526 180.345 309.773 181.23 309.773 182.321V187.3C309.773 188.392 309.022 189.276 308.094 189.276H303.865C302.937 189.276 302.186 190.161 302.186 191.252V194.766C302.186 195.858 302.937 196.742 303.865 196.742H308.094C309.022 196.742 309.773 197.627 309.773 198.718V203.698C309.773 204.789 310.526 205.673 311.451 205.673H314.439C315.364 205.673 316.117 204.789 316.117 203.698V198.718C316.117 197.627 316.868 196.742 317.796 196.742H322.027C322.953 196.742 323.706 195.858 323.706 194.766V191.252C323.706 190.161 322.953 189.276 322.027 189.276Z" fill="#1479FF"/>
<path d="M309.595 160.394C307.963 160.394 306.636 161.956 306.636 163.877V171.765C306.636 173.685 307.963 175.247 309.595 175.247H316.297C317.927 175.247 319.256 173.685 319.256 171.765V163.877C319.256 161.956 317.927 160.394 316.297 160.394H309.595ZM316.297 180.054H309.595C305.711 180.054 302.552 176.335 302.552 171.765V163.877C302.552 159.306 305.711 155.587 309.595 155.587H316.297C320.179 155.587 323.339 159.306 323.339 163.877V171.765C323.339 176.335 320.179 180.054 316.297 180.054Z" fill="white"/>
<path d="M143.733 162.753C143.733 181.928 130.525 197.473 114.232 197.473C97.9398 197.473 84.7322 181.928 84.7322 162.753C84.7322 143.578 97.9398 128.033 114.232 128.033C130.525 128.033 143.733 143.578 143.733 162.753Z" fill="white"/>
<path d="M114.232 131.058C99.3835 131.058 87.3029 145.276 87.3029 162.753C87.3029 180.229 99.3835 194.447 114.232 194.447C129.081 194.447 141.162 180.229 141.162 162.753C141.162 145.276 129.081 131.058 114.232 131.058ZM114.232 200.499C96.5484 200.499 82.1614 183.566 82.1614 162.753C82.1614 141.939 96.5484 125.007 114.232 125.007C131.916 125.007 146.303 141.939 146.303 162.753C146.303 183.566 131.916 200.499 114.232 200.499Z" fill="#1479FF"/>
<path d="M114.168 140.931C113.454 140.931 112.875 140.25 112.875 139.409V134.889C112.875 134.048 113.454 133.367 114.168 133.367C114.882 133.367 115.461 134.048 115.461 134.889V139.409C115.461 140.25 114.882 140.931 114.168 140.931Z" fill="#DDE8F7"/>
<path d="M114.168 192.139C113.454 192.139 112.875 191.458 112.875 190.617V186.098C112.875 185.257 113.454 184.575 114.168 184.575C114.882 184.575 115.461 185.257 115.461 186.098V190.617C115.461 191.458 114.882 192.139 114.168 192.139Z" fill="#DDE8F7"/>
<path d="M127.279 147.321C126.774 146.728 126.774 145.763 127.279 145.17L129.994 141.975C130.499 141.379 131.318 141.379 131.823 141.975C132.329 142.568 132.329 143.533 131.823 144.126L129.108 147.321C128.603 147.917 127.784 147.917 127.279 147.321Z" fill="#DDE8F7"/>
<path d="M96.5127 183.532C96.0075 182.938 96.0075 181.974 96.5127 181.379L99.2279 178.184C99.7331 177.589 100.552 177.589 101.057 178.184C101.562 178.778 101.562 179.742 101.057 180.337L98.3418 183.532C97.8369 184.127 97.0178 184.127 96.5127 183.532Z" fill="#DDE8F7"/>
<path d="M132.709 162.753C132.709 161.912 133.289 161.231 134.003 161.231H137.843C138.557 161.231 139.136 161.912 139.136 162.753C139.136 163.594 138.557 164.275 137.843 164.275H134.003C133.289 164.275 132.709 163.594 132.709 162.753Z" fill="#DDE8F7"/>
<path d="M89.1995 162.753C89.1995 161.912 89.7787 161.231 90.4931 161.231H94.333C95.0474 161.231 95.6264 161.912 95.6264 162.753C95.6264 163.594 95.0474 164.275 94.333 164.275H90.4931C89.7787 164.275 89.1995 163.594 89.1995 162.753Z" fill="#DDE8F7"/>
<path d="M127.279 178.184C127.784 177.589 128.603 177.589 129.108 178.184L131.823 181.379C132.329 181.974 132.329 182.938 131.823 183.532C131.318 184.127 130.499 184.127 129.994 183.532L127.279 180.337C126.774 179.742 126.774 178.778 127.279 178.184Z" fill="#DDE8F7"/>
<path d="M96.5127 141.975C97.0178 141.379 97.8369 141.379 98.3418 141.975L101.057 145.17C101.562 145.763 101.562 146.728 101.057 147.321C100.552 147.917 99.7331 147.917 99.2279 147.321L96.5127 144.126C96.0075 143.533 96.0075 142.568 96.5127 141.975Z" fill="#DDE8F7"/>
<path d="M98.7854 172.248C98.2908 172.248 97.8193 171.91 97.6078 171.343C97.3224 170.578 97.618 169.685 98.2682 169.35L113.245 161.611L118.839 145.881C119.113 145.11 119.866 144.746 120.521 145.07C121.176 145.394 121.485 146.277 121.21 147.049L115.418 163.337C115.291 163.695 115.051 163.982 114.749 164.138L99.3014 172.12C99.1333 172.207 98.9579 172.248 98.7854 172.248Z" fill="#1479FF"/>
<path d="M117.113 162.753C117.113 164.626 115.823 166.144 114.232 166.144C112.641 166.144 111.352 164.626 111.352 162.753C111.352 160.881 112.641 159.363 114.232 159.363C115.823 159.363 117.113 160.881 117.113 162.753Z" fill="#DDE8F7"/>
<path d="M187.429 96.0972C187.429 96.0972 170.23 112.496 157.132 132.847L185.877 162.753L199.682 102.073L187.429 96.0972Z" fill="#4BACC1"/>
<path d="M212.955 10.0996C212.723 10.0996 175.541 8.44765 185.279 55.932C195.048 103.565 185.279 124.139 185.279 124.139H212.457H213.453H240.631C240.631 124.139 230.862 103.565 240.631 55.932C250.37 8.44765 213.187 10.0996 212.955 10.0996Z" fill="#1479FF"/>
<path d="M222.528 82.6302L212.958 88.2852L203.388 82.6302C203.142 98.2576 199.682 102.073 199.682 102.073H212.958H226.234C226.234 102.073 222.774 98.2576 222.528 82.6302Z" fill="#FEF3EA"/>
<path d="M212.958 22.4684C212.958 22.4684 184.575 18.5805 188.517 51.4268C192.459 84.2731 201.658 90.6118 212.958 90.6118V22.4684Z" fill="#FEF3EA"/>
<path d="M191.965 51.1756C191.965 51.1756 183.555 45.9171 182.241 55.8139C180.927 65.7138 190.651 67.5685 194.987 61.5385" fill="#FEF3EA"/>
<path d="M212.958 100.887V268.908H175.187C175.187 268.908 175.766 213.699 183.862 181.349C191.251 151.825 177.93 155.605 177.433 140.571C176.733 119.392 187.429 96.0972 187.429 96.0972L202.551 93.2864L212.958 100.887Z" fill="#4BACC1"/>
<path d="M212.958 100.887V268.908H250.729C250.729 268.908 250.15 213.699 242.054 181.349C234.665 151.825 247.986 155.605 248.483 140.571C249.183 119.392 238.487 96.0972 238.487 96.0972L223.365 93.2864L212.958 100.887Z" fill="#4BACC1"/>
<path d="M238.485 96.0974C238.485 96.0974 254.124 111.867 267.221 132.217L238.477 162.123L224.672 101.444L238.485 96.0974Z" fill="#4BACC1"/>
<path d="M212.958 268.908H180.566L196.351 420.355C196.351 422.034 197.508 423.396 198.936 423.396H211.151L212.958 268.908Z" fill="#2E677A"/>
<path d="M198.936 423.411C197.621 423.58 184.928 425.453 178.457 434.445C177.391 435.928 178.298 438.2 179.948 438.2H209.288C210.361 438.2 211.231 437.177 211.231 435.916V425.683C211.231 424.418 210.361 423.396 209.288 423.396H199.149C199.077 423.396 199.007 423.399 198.936 423.411Z" fill="#4BACC1"/>
<path d="M212.958 22.4684C212.958 22.4684 241.341 18.5805 237.399 51.4268C233.457 84.2731 224.259 90.6118 212.958 90.6118V22.4684Z" fill="#FEF3EA"/>
<path d="M234.64 51.1756C234.64 51.1756 243.049 45.9171 244.363 55.8139C245.677 65.7138 235.954 67.5685 231.617 61.5385" fill="#FEF3EA"/>
<path d="M212.958 268.908H243.175L227.984 420.052C227.984 421.898 226.711 423.396 225.142 423.396H213.037L212.958 268.908Z" fill="#2E677A"/>
<path d="M225.142 423.396C225.142 423.396 238.987 424.966 245.795 434.533C246.828 435.988 245.95 438.2 244.339 438.2H212.958V423.396H225.142Z" fill="#4BACC1"/>
<path d="M205.665 74.3732C205.759 72.0889 208.059 67.3356 213.005 67.3356C217.952 67.3356 221.819 70.0435 222.284 74.3732C222.748 78.7029 205.423 80.2671 205.665 74.3732Z" fill="#FEF3EA"/>
<path d="M212.958 81.3684C206.917 81.1294 205.599 75.771 205.599 75.771C205.949 76.0615 206.328 76.3519 206.733 76.6333C206.992 76.8451 207.291 77.0357 207.624 77.2021C209.128 78.0886 210.927 78.7694 212.958 78.839V81.3684Z" fill="#FAC08F"/>
<path d="M213.382 81.3774C213.238 81.3774 213.097 81.3744 212.958 81.3684V78.8389C213.073 78.8419 213.19 78.845 213.306 78.845C214.912 78.845 216.657 78.4607 218.511 77.5016C219.416 77.2384 220.219 76.9055 220.848 76.5183C220.268 77.9948 218.39 81.3774 213.382 81.3774Z" fill="#FAC08F"/>
<path d="M218.511 77.5017C219.344 77.0721 220.198 76.5245 221.071 75.8467C221.071 75.8467 221.01 76.1099 220.848 76.5184C220.219 76.9057 219.416 77.2385 218.511 77.5017ZM207.624 77.2022C207.291 77.0358 206.992 76.8452 206.733 76.6334C207.017 76.83 207.314 77.0207 207.624 77.2022Z" fill="#FAC08F"/>
<path d="M205.599 75.771C208.805 78.4366 214.365 81.0599 221.071 75.8467C222.566 74.6848 221.606 72.5971 219.564 72.5971H207.2C205.217 72.5971 204.195 74.6031 205.599 75.771Z" fill="white"/>
<path d="M212.958 65.0027C207.941 64.3128 209.855 53.2814 210.8 51.0757C211.02 50.5644 211.862 50.2013 212.831 50.2013H212.958V65.0027Z" fill="#FAC08F"/>
<path d="M213.467 65.0361C213.29 65.0361 213.12 65.024 212.958 65.0029V50.2014H214.04C215.006 50.2014 215.846 50.5615 216.068 51.0698C217.061 53.3451 219.121 65.0361 213.467 65.0361Z" fill="#FAC08F"/>
<path d="M201.431 49.0003C203.142 49.0003 203.714 50.4193 203.836 51.9351C203.899 52.7157 203.844 53.5176 203.765 54.1711C203.718 54.5614 203.568 54.9094 203.347 55.1817C203.107 55.4752 202.779 55.6748 202.417 55.7202L200.97 55.9199C200.158 56.0319 199.405 55.3783 199.271 54.4283C198.979 52.3194 198.916 49.0003 201.431 49.0003Z" fill="#291330"/>
<path d="M224.485 49.0003C222.774 49.0003 222.202 50.4193 222.08 51.9351C222.017 52.7157 222.072 53.5176 222.151 54.1711C222.198 54.5614 222.348 54.9094 222.569 55.1817C222.809 55.4752 223.137 55.6748 223.499 55.7202L224.946 55.9199C225.758 56.0319 226.511 55.3783 226.645 54.4283C226.937 52.3194 227 49.0003 224.485 49.0003Z" fill="#291330"/>
<path d="M206.026 63.7954C206.026 66.6849 203.363 69.0298 200.078 69.0298C196.793 69.0298 194.13 66.6849 194.13 63.7954C194.13 60.906 196.793 58.5611 200.078 58.5611C203.363 58.5611 206.026 60.906 206.026 63.7954Z" fill="#FDDDC5"/>
<path d="M232.776 63.7954C232.776 66.6849 230.114 69.0298 226.829 69.0298C223.544 69.0298 220.881 66.6849 220.881 63.7954C220.881 60.906 223.544 58.5611 226.829 58.5611C230.114 58.5611 232.776 60.906 232.776 63.7954Z" fill="#FDDDC5"/>
<path d="M188.455 278.192H204.115C208.639 278.192 212.443 274.198 212.958 268.908H180.567C180.567 274.035 184.099 278.192 188.455 278.192Z" fill="#14272C"/>
<path d="M243.175 268.908H212.958V375.433L213.037 423.396C217.479 423.396 220.913 418.806 220.35 413.62L221.922 286.121C221.43 281.584 224.433 277.568 228.32 277.568H235.816C239.88 277.568 243.175 273.691 243.175 268.908Z" fill="#14272C"/>
<path d="M202.551 93.2865L212.958 116.417L223.365 93.2865C223.365 93.2865 213.287 88.7964 202.551 93.2865Z" fill="#FEF3EA"/>
<path d="M219.564 72.5972H207.2C207.2 72.5972 208.975 70.6365 213.487 70.6365C217.998 70.6365 219.564 72.5972 219.564 72.5972Z" fill="#FAC08F"/>
<path d="M232.68 215.817H191.974C190.325 215.817 188.987 214.243 188.987 212.302V146.87C188.987 144.928 190.325 143.355 191.974 143.355H232.68C234.329 143.355 235.666 144.928 235.666 146.87V212.302C235.666 214.243 234.329 215.817 232.68 215.817Z" fill="#14272C"/>
<path d="M259.422 179.612C258.92 180.617 258.344 181.524 257.689 182.314C252.341 188.765 237.114 187.03 222.919 185.295C213.405 184.133 204.355 182.97 199.053 184.272C191.284 186.178 187.7 182.81 186.947 178.49C186.086 173.558 188.914 167.386 193.415 166.402C201.86 164.559 202.433 161.631 201.233 160.511C200.032 159.392 198.521 157.852 199.215 156.554C201.76 151.792 210.444 161.83 213.269 162.862C217.436 164.384 242.589 163.359 242.589 163.359L242.697 157.734L260.72 138.98C260.72 138.98 265.789 166.938 259.422 179.612Z" fill="#FEF3EA"/>
<path d="M242.115 186.892C240.053 186.892 237.889 186.795 235.666 186.635C231.52 186.335 227.174 185.815 222.919 185.295C216.385 184.497 210.068 183.698 205.035 183.698C202.74 183.698 200.713 183.864 199.053 184.272C197.526 184.646 196.161 184.817 194.947 184.817C192.252 184.817 190.303 183.974 188.987 182.648C187.881 181.533 187.224 180.075 186.947 178.49C186.947 178.49 193.888 181.39 200.501 181.39C201.649 181.39 202.786 181.302 203.876 181.098C210.299 179.889 218.31 174.597 222.918 174.597C223.596 174.597 224.2 174.712 224.714 174.971C228.725 176.989 221.012 180.263 222.642 181.098C223.198 181.382 227.2 181.604 232.612 181.604C240.662 181.604 251.831 181.114 259.422 179.612C258.92 180.617 258.345 181.524 257.689 182.314C254.803 185.795 249.04 186.892 242.115 186.892Z" fill="#F2DCCE"/>
<path d="M221.204 152.531H203.45C202.256 152.531 201.289 151.392 201.289 149.986V144.483C201.289 143.079 202.256 141.942 203.45 141.942H221.204C222.398 141.942 223.365 143.079 223.365 144.483V149.986C223.365 151.392 222.398 152.531 221.204 152.531Z" fill="white"/>
<path d="M212.327 146.465C210.204 146.465 208.482 144.441 208.482 141.942C208.482 139.443 210.204 137.416 212.327 137.416C214.45 137.416 216.171 139.443 216.171 141.942C216.171 144.441 214.45 146.465 212.327 146.465ZM212.327 135.788C209.44 135.788 207.1 138.544 207.1 141.942C207.1 145.34 209.44 148.093 212.327 148.093C215.214 148.093 217.554 145.34 217.554 141.942C217.554 138.544 215.214 135.788 212.327 135.788Z" fill="white"/>
<path d="M162.637 138.574C162.637 138.574 157.601 188.248 165.767 199.836C173.933 211.423 211.131 202.867 224.08 207.357C240.381 213.009 239.215 192.722 230.924 190.082C222.633 187.443 222.264 184.468 223.537 183.467C224.81 182.466 226.421 181.074 225.82 179.716C223.608 174.727 214.264 183.908 211.378 184.667C207.12 185.787 182.121 182.375 182.121 182.375L183.925 160.722L162.637 138.574Z" fill="#FEF3EA"/>
<path d="M212.958 22.4683C212.958 22.4683 205.057 39.7659 188.141 49.7808C188.141 49.7808 180.138 15.4004 212.958 22.4683Z" fill="#1479FF"/>
<path d="M212.958 22.4683C212.958 22.4683 220.859 39.7659 237.775 49.7808C237.775 49.7808 245.778 15.4004 212.958 22.4683Z" fill="#1479FF"/>
<path d="M194.195 45.7959C194.213 43.56 195.452 40.4769 198.3 39.5026C201.008 38.4436 205.326 39.4935 208.273 43.557C208.947 44.4828 208.437 44.7279 207.633 44.1137C204.774 41.436 198.032 41.2181 195.747 46.7066C195.418 47.5901 194.2 46.9759 194.195 45.7959Z" fill="#DDE8F7"/>
<path d="M232.562 45.7959C232.543 43.56 231.305 40.4769 228.457 39.5026C225.749 38.4436 221.43 39.4935 218.484 43.557C217.809 44.4828 218.319 44.7279 219.123 44.1137C221.983 41.436 228.725 41.2181 231.01 46.7066C231.339 47.5901 232.556 46.9759 232.562 45.7959Z" fill="#DDE8F7"/>
<defs>
<linearGradient id="paint0_linear" x1="311.405" y1="193.215" x2="376.901" y2="225.821" gradientUnits="userSpaceOnUse">
<stop stop-color="#88401A"/>
<stop offset="1" stop-color="#FDDDC5"/>
</linearGradient>
</defs>
</svg>
