<svg width="467" height="430" viewBox="0 0 467 430" fill="none" xmlns="http://www.w3.org/2000/svg">
<path d="M457.03 193.969C458.986 175.52 452.8 154.548 440.837 139.444C438.963 137.076 436.735 134.711 434.197 134.255C430.821 133.652 428.771 135.852 427.457 139.001C424.079 147.109 422.639 156.595 423.247 166.293C423.906 176.825 428.255 186.543 434.268 195.263C437.612 200.109 442.401 206.162 447.738 205.88C453.03 205.601 456.414 199.775 457.03 193.969Z" fill="#D5E5FE"/>
<path d="M442.168 420.844C429.18 423.058 415.829 414.134 408.959 400.614C402.088 387.094 401.274 369.832 405.103 354.652C412.399 325.746 434.605 305.07 441.899 276.161C446.075 259.614 444.913 240.203 438.429 224.699C432.334 210.116 421.586 198.854 417.217 183.123C414.032 171.646 414.778 159.205 415.289 147.116C416.172 126.311 415.616 105.343 406.727 86.9292C397.805 68.4502 385.143 52.9428 370.023 41.8337C344.601 23.1578 314.67 15.9354 285.279 10.4186C238.752 1.6842 190.151 -6.86652 144.032 9.40514C131.07 13.9773 117.818 21.203 110.474 34.9131C99.0955 56.1538 104.344 84.9023 102.223 108.826C100.375 129.68 94.8281 150.169 81.3435 164.191C70.8265 175.129 55.7899 176.343 44.0048 185.327C31.8653 194.58 21.6495 207.595 14.9097 222.944C4.18599 247.366 2.40883 277.338 10.1151 303.371C16.8779 326.219 36.7798 340.057 40.8227 364.666C44.4789 386.923 32.7315 409.033 18.123 423.268L442.168 420.844Z" fill="#25B9A9"/>
<path d="M406.327 378.819C406.129 378.628 401.41 373.981 398.063 360.464C395.046 348.273 392.564 326.015 397.887 289.238L400.686 289.779C395.5 325.622 397.822 347.269 400.684 359.113C403.764 371.868 408.105 376.26 408.15 376.303L406.327 378.819" fill="#296F6E"/>
<path d="M393.958 284.475C392.641 283.412 391.247 282.441 390.137 281.1C389.03 279.755 388.223 277.938 388.405 276.095C388.595 274.196 389.771 272.635 391.014 271.375C391.622 270.762 392.275 270.175 393.038 269.86C393.799 269.548 394.693 269.548 395.372 270.053C396.113 270.608 396.459 271.634 396.746 272.595C398.145 277.289 399.17 282.127 399.803 287.033C399.991 284.183 399.823 281.313 400.022 278.463C400.218 275.616 400.823 272.7 402.353 270.453C402.509 270.221 402.685 269.991 402.918 269.87C403.153 269.751 403.42 269.755 403.676 269.771C405.918 269.896 408.138 270.598 410.126 271.808C410.682 272.146 411.244 272.549 411.562 273.179C412.272 274.573 411.508 276.318 410.75 277.679C408.317 282.058 405.677 286.558 401.745 289.093C403.528 287.909 405.481 287.122 407.42 286.345C409.782 285.393 412.178 284.436 414.674 284.232C416.244 284.101 418.12 284.495 418.784 286.141C419.06 286.82 419.071 287.598 419.074 288.349C419.085 289.782 419.094 291.212 419.102 292.645C419.105 292.901 419.105 293.173 418.992 293.396C418.889 293.6 418.713 293.731 418.54 293.849C417.467 294.574 416.252 295.017 415.014 295.138C412.868 295.351 410.745 294.607 408.683 293.872C406.123 292.957 403.556 292.042 401.069 290.877C402.884 293.567 404.533 296.404 406.006 299.359C406.75 300.852 407.457 302.403 407.738 304.092C407.889 305.011 407.903 306.008 407.517 306.831C407.062 307.799 406.143 308.343 405.257 308.753C404.118 309.281 402.935 309.691 401.731 309.97C399.687 304.109 399.451 297.647 399.241 291.333C399.153 296.02 397.555 300.537 395.326 304.456C394.554 305.814 393.481 307.248 392.076 307.211C390.875 307.182 389.924 306.08 389.112 305.057C388.377 304.132 387.63 303.18 387.196 302.032C386.759 300.884 386.679 299.477 387.264 298.418C387.536 297.926 387.934 297.542 388.323 297.165C389.671 295.863 391.023 294.561 392.371 293.255C393.793 291.884 395.25 290.487 396.981 289.729C392.947 290.021 388.913 290.313 384.879 290.605C384.047 290.664 383.159 290.71 382.443 290.218C381.393 289.497 381.098 287.814 381.447 286.463C381.799 285.111 382.648 284.022 383.482 282.993C383.908 282.471 384.362 281.936 384.953 281.713C385.365 281.562 385.805 281.576 386.236 281.615C388.238 281.802 390.168 282.517 391.982 283.491C393.697 284.409 395.761 285.531 397.166 286.997C397.121 287.05 397.061 287.122 397.016 287.178C395.945 286.43 395 285.311 393.958 284.475" fill="white"/>
<path d="M402.674 289.507C402.674 291.668 401.158 293.419 399.287 293.419C397.416 293.419 395.9 291.668 395.9 289.507C395.9 287.345 397.416 285.594 399.287 285.594C401.158 285.594 402.674 287.345 402.674 289.507Z" fill="#FCD283"/>
<path d="M409.524 372.104C409.368 372.045 405.688 370.586 401.041 363.577C396.851 357.253 390.974 344.911 386.767 322.004L388.51 321.577C392.61 343.901 398.276 355.931 402.304 362.091C406.642 368.726 410.052 370.137 410.086 370.153L409.524 372.104" fill="#296F6E"/>
<path d="M383.525 320.266C382.543 319.997 381.535 319.8 380.621 319.308C379.704 318.816 378.872 317.97 378.611 316.845C378.344 315.684 378.722 314.46 379.199 313.394C379.431 312.873 379.695 312.358 380.079 311.971C380.462 311.587 380.984 311.347 381.481 311.466C382.023 311.593 382.432 312.099 382.79 312.584C384.541 314.955 386.103 317.51 387.448 320.21C386.991 318.494 386.321 316.861 385.87 315.142C385.419 313.427 385.191 311.564 385.637 309.845C385.685 309.668 385.742 309.484 385.853 309.353C385.966 309.222 386.123 309.153 386.276 309.094C387.613 308.573 389.05 308.392 390.449 308.573C390.844 308.622 391.25 308.707 391.562 308.989C392.255 309.616 392.155 310.839 391.985 311.836C391.434 315.041 390.787 318.37 388.993 320.895C389.799 319.731 390.784 318.754 391.761 317.783C392.953 316.602 394.162 315.405 395.579 314.621C396.47 314.129 397.646 313.86 398.361 314.644C398.656 314.969 398.818 315.421 398.972 315.861C399.261 316.694 399.551 317.527 399.84 318.36C399.894 318.511 399.948 318.672 399.925 318.832C399.908 318.977 399.829 319.101 399.752 319.216C399.27 319.924 398.648 320.505 397.95 320.905C396.737 321.601 395.349 321.728 393.998 321.847C392.32 321.991 390.637 322.138 388.953 322.119C390.549 323.208 392.076 324.428 393.527 325.763C394.256 326.438 394.977 327.157 395.48 328.069C395.749 328.567 395.957 329.144 395.894 329.728C395.82 330.414 395.395 330.975 394.957 331.45C394.395 332.064 393.788 332.615 393.138 333.1C390.778 330.217 389.353 326.504 387.976 322.87C388.857 325.632 388.822 328.695 388.3 331.578C388.118 332.575 387.778 333.7 386.949 334.051C386.239 334.353 385.464 333.963 384.786 333.579C384.175 333.231 383.551 332.877 383.065 332.323C382.583 331.765 382.256 330.965 382.387 330.191C382.449 329.83 382.602 329.502 382.756 329.18C383.287 328.059 383.815 326.937 384.345 325.819C384.902 324.638 385.475 323.437 386.336 322.532C384.039 323.775 381.739 325.018 379.44 326.258C378.966 326.514 378.455 326.776 377.938 326.681C377.183 326.537 376.675 325.635 376.609 324.753C376.547 323.867 376.825 323.004 377.109 322.184C377.254 321.765 377.413 321.332 377.714 321.046C377.921 320.846 378.182 320.738 378.443 320.646C379.65 320.223 380.922 320.131 382.174 320.216C383.358 320.298 384.788 320.403 385.901 320.889C385.884 320.931 385.864 320.99 385.847 321.033C385.072 320.879 384.297 320.479 383.525 320.266" fill="white"/>
<path d="M389.617 320.892C390.046 322.155 389.51 323.582 388.417 324.077C387.324 324.575 386.089 323.955 385.66 322.689C385.229 321.427 385.768 320.003 386.861 319.505C387.954 319.009 389.189 319.629 389.617 320.892Z" fill="#FCD283"/>
<path d="M184.691 43.8344H65.7624C58.6143 43.8344 52.8198 50.5287 52.8198 58.7875V417.804H197.633V58.7875C197.633 50.5287 191.839 43.8344 184.691 43.8344" fill="white"/>
<path d="M367.84 381.036C367.071 364.492 370.418 347.928 376.002 332.67C386.551 340.185 395.176 351.251 400.541 364.154C400.093 351.412 399.673 338.381 402.892 326.179C406.9 310.997 416.249 298.392 426.747 288.152C434.489 280.598 443.664 272.415 453.169 268.112C455.329 267.131 463.497 301.603 464.096 304.755C466.588 317.888 467.642 331.483 466.049 344.855C464.195 360.428 458.821 375.25 451.71 388.655C445.683 400.017 437.819 411.05 427.238 416.954C421.782 419.998 415.448 422.005 409.578 423.668C402.565 425.656 395.238 426.502 388.121 424.708C386.347 424.262 384.604 423.645 382.934 422.815C371.65 417.21 368.408 393.263 367.84 381.036" fill="#2F8286"/>
<path d="M389.078 408.535C386.049 403.339 380.547 401.02 375.411 399.013C378.77 398.449 382.196 398.439 385.558 398.984C381.89 392.998 379.15 386.254 377.504 379.17C377.24 378.038 376.998 376.877 376.482 375.867C375.374 373.709 373.1 372.397 372.533 369.979C374.114 370.284 375.695 370.593 377.274 370.901C376.658 362.15 376.978 353.314 378.225 344.655C379.255 357.676 380.365 371.049 385.43 382.741C385.603 377.448 386.98 372.21 389.385 367.696C389.288 375.47 389.194 383.302 390.35 390.964C391.508 398.623 394.006 406.189 398.517 411.962C399.366 408.797 400.635 405.786 402.268 403.064C401.385 410.116 402.199 417.44 404.595 424.003C400.084 424.242 396.496 425.764 393.867 420.834C391.815 416.987 391.278 412.307 389.078 408.535" fill="#296F6E"/>
<path d="M402.815 419.112C405.362 416.61 408.377 414.806 410.906 412.284C416.513 406.701 419.201 398.255 421.666 390.193C422.04 388.97 422.418 387.71 422.395 386.412C422.367 385.044 421.896 383.748 421.433 382.492C419.454 377.139 417.478 371.787 415.5 366.434C418.31 366.903 420.928 368.736 422.583 371.399C423.02 372.098 423.514 372.938 424.263 372.961C425.041 372.987 425.583 372.108 425.961 371.317C433.961 354.623 434.299 333.343 426.838 316.317C429.552 319.203 432.269 322.089 434.983 324.972C435.457 325.477 435.977 326.002 436.615 326.074C437.788 326.199 438.603 324.795 439.116 323.569C443.593 312.883 446.472 301.308 447.591 289.507C450.441 299.645 449.425 310.721 447.148 321.05C444.871 331.378 441.382 341.319 439.264 351.694C443.778 348.952 448.113 345.816 452.221 342.326C449.941 349.299 445.924 355.502 440.78 359.998C439.528 361.091 438.2 362.098 437.158 363.456C434.816 366.499 434.256 370.789 433.589 374.791C432.209 383.043 429.938 391.099 426.847 398.708C429.916 399.413 433.223 398.619 435.792 396.556C434.157 402.706 429.013 406.544 424.241 409.853C417.05 414.839 409.861 419.824 402.673 424.81" fill="#296F6E"/>
<path d="M221.75 390.429L191.414 355.38C192.216 353.996 192.792 352.419 193.083 350.726H236.01C235.479 366.011 230.164 379.894 221.75 390.429V390.429ZM128.151 350.726H171.078C171.369 352.419 171.945 353.996 172.747 355.38L142.41 390.429C133.997 379.894 128.683 366.011 128.151 350.726ZM142.41 305.945L172.747 340.995C171.945 342.382 171.369 343.956 171.078 345.649H128.151C128.683 330.364 133.997 316.481 142.41 305.945V305.945ZM184.277 360.9C185.744 360.563 187.107 359.897 188.307 358.972L218.644 394.021C209.523 403.739 197.506 409.879 184.277 410.496V360.9ZM175.854 358.972C177.054 359.897 178.417 360.563 179.884 360.9V410.496C166.655 409.879 154.638 403.739 145.517 394.021L175.854 358.972ZM179.884 335.475C178.417 335.812 177.054 336.478 175.854 337.406L145.517 302.354C154.638 292.636 166.655 286.496 179.884 285.879V335.475ZM188.307 337.406C187.107 336.478 185.744 335.812 184.277 335.475V285.879C197.506 286.496 209.523 292.636 218.644 302.354L188.307 337.406ZM236.01 345.649H193.083C192.792 343.956 192.216 342.382 191.414 340.995L221.75 305.945C230.164 316.481 235.479 330.364 236.01 345.649V345.649ZM182.08 278.571C148.856 278.571 121.826 309.803 121.826 348.187C121.826 386.576 148.856 417.804 182.08 417.804C215.306 417.804 242.335 386.576 242.335 348.187C242.335 309.803 215.306 278.571 182.08 278.571Z" fill="#14293A"/>
<path d="M104.598 377.556C104.598 377.556 88.963 379.265 86.7577 390.049C86.4846 391.384 87.3726 392.663 88.5607 392.663H118.929V372.239L104.598 377.556" fill="#14293A"/>
<path d="M203.933 276.977C203.933 276.977 125.825 261.775 102.183 282.199C78.5419 302.623 104.59 349.155 104.59 377.556H118.921V295.132H200.836L203.933 276.977Z" fill="#296F6E"/>
<path d="M205.503 290.743L209.707 266.111C210.675 260.427 206.914 255.136 201.9 255.136H132.881C130.439 255.136 128.461 257.422 128.461 260.243V296.119H199.842C202.599 296.119 204.972 293.869 205.503 290.743ZM214.448 238.32L222.616 190.453C223.584 184.779 227.89 180.689 232.898 180.689H249.756V186.714H235.961C232.949 186.714 230.366 189.19 229.812 192.611L213.068 296.119L212.887 297.244C211.973 302.892 207.706 306.985 202.732 306.985H128.461H120.929V296.119V257.891C120.929 250.371 126.207 244.27 132.718 244.27H208.183C211.235 244.27 213.858 241.777 214.448 238.32Z" fill="#88C9CD"/>
<path d="M126.365 249.875C124.289 249.879 123.353 246.923 124.908 245.333C128.112 242.056 134.332 238.379 145.793 239.432C165.57 241.246 190.397 236.483 191.632 223.323C192.866 210.163 194.164 194.557 199.995 194.306C205.826 194.054 212.43 194.962 213.154 208.122C213.878 221.281 210.664 248.898 187.92 249.387C169.639 249.783 138.054 249.862 126.365 249.875" fill="#F0BB66"/>
<path d="M214.088 278.571L205.69 312.646H124.694L123.292 295.132L214.088 278.571" fill="#296F6E"/>
<path d="M341.376 71.4447C341.376 71.4447 340.82 65.2784 347.181 65.3834C353.541 65.4884 360.595 76.5581 357.126 82.4029C354.435 86.9357 357.66 92.5346 361.186 94.3976C362.225 94.9453 362.12 96.3458 361.041 96.8247C358.151 98.1104 353.674 99.0452 349.379 95.6636C342.225 90.0352 351.576 78.5096 344.059 76.604C336.541 74.6984 341.376 71.4447 341.376 71.4447" fill="#14293A"/>
<path d="M342.503 81.4353C342.503 81.4353 347.471 79.4903 343.02 72.3008C338.568 65.1079 334.23 72.3008 334.23 72.3008L342.503 81.4353Z" fill="#F46FBE"/>
<path d="M109.103 394.365C103.501 394.365 98.9602 399.613 98.9602 406.084C98.9602 412.556 103.501 417.804 109.103 417.804C114.704 417.804 119.245 412.556 119.245 406.084C119.245 399.613 114.704 394.365 109.103 394.365" fill="#14293A"/>
<path d="M342.415 212.234C342.415 212.234 348.161 221.797 350.037 233.703C355.806 270.368 336.28 292.59 352.848 322.473C361.095 337.344 361.884 402.936 361.884 402.936L351.721 414.97C351.721 414.97 345.719 345.79 308.348 240.524L342.415 212.234Z" fill="#CF3DA6"/>
<path d="M305.921 149.677C305.921 149.677 300.286 181.04 284.592 182.309C268.899 183.578 248.03 176.143 243.164 179.406C238.301 182.67 235.868 187.747 239.712 189.922C243.556 192.096 281.921 194.274 281.921 194.274L305.921 190.532L322.077 153.666" fill="#F0BB66"/>
<path d="M334.75 116.015C334.75 116.015 342.92 133.884 341.234 144.78C339.783 154.184 331.218 201.357 342.503 212.234L301.694 223.474C301.694 223.474 308.581 188.292 305.921 173.788C303.261 159.284 299.795 148.408 305.921 137.532C312.05 126.652 321.2 116.015 321.2 116.015H334.75Z" fill="#F46FBE"/>
<path d="M280.353 402.936C280.353 402.936 274.82 407.731 265.316 413.602C263.084 414.98 263.928 418.889 266.454 418.889H291.022L291.337 402.936H280.353" fill="#BCDDE0"/>
<path d="M110.363 377.556C110.363 377.556 95.5116 379.176 92.7164 389.245C92.2471 390.935 93.3424 392.663 94.8785 392.663H124.695V372.239L110.363 377.556Z" fill="#1E3F63"/>
<path d="M306.088 96.3491C307.136 105.897 311.701 110.732 322.074 111.702C322.074 111.702 321.6 114.986 319.897 121.096C318.707 125.35 332.53 128.04 334.75 116.012C334.75 116.012 346.256 72.3008 327.423 72.3008C312.234 72.3008 306.983 81.7436 306.074 90.4026V90.4092C305.85 92.4788 305.887 94.5058 306.088 96.3491Z" fill="#FCD283"/>
<path d="M322.628 108.731C322.628 108.731 330.182 102.742 334.23 100.475C334.23 100.475 330.318 113.992 321.2 116.016L322.628 108.731" fill="#F0BB66"/>
<path d="M342.503 212.234C342.503 212.234 344.68 223.602 342.503 235.439C335.8 271.89 309.98 282.986 315.494 317.901C318.239 335.274 291.337 402.936 291.337 402.936H280.354C280.354 402.936 301.694 337.249 301.694 223.474L342.503 212.234Z" fill="#E451B0"/>
<path d="M196.56 184.182C196.56 184.182 186.998 191.785 182.604 210.771C178.211 229.756 153.873 220.439 153.873 295.132H209.86C209.86 295.132 238.329 196.51 209.86 184.182H196.56" fill="#66ACAA"/>
<path d="M213.245 262.601L171.346 260.273L178.492 255.261C181.776 255.241 184.876 255.205 187.678 255.149C187.687 255.149 187.698 255.149 187.707 255.146C187.715 255.146 187.721 255.146 187.729 255.146C187.885 255.143 188.039 255.14 188.193 255.136C197.287 254.943 203.223 250.111 207.053 243.768L209.861 245.841L212.668 235.366L214.448 249.183L213.245 262.601" fill="#439898"/>
<path d="M209.707 276.977C209.707 276.977 131.599 261.775 107.957 282.199C84.3154 302.623 110.363 349.155 110.363 377.556H124.694V295.132H206.61L209.707 276.977Z" fill="#2F8286"/>
<path d="M77.6565 392.663H126.344V399.312H83.4101C80.2325 399.312 77.6565 396.337 77.6565 392.663" fill="#BCDDE0"/>
<path d="M197.071 182.65L196.557 190.04C196.557 190.04 202.553 198.016 209.861 190.04C209.861 190.04 219.47 152.619 206.917 148.756C195.322 145.18 183.548 145.941 181.161 162.843C180.96 164.237 180.828 165.742 180.765 167.363C179.926 188.639 197.071 182.65 197.071 182.65" fill="#FCD283"/>
<path d="M205.503 301.609L209.707 276.977C210.675 271.293 206.914 266.003 201.9 266.003H132.88C130.439 266.003 128.461 268.289 128.461 271.11V306.985H199.842C202.599 306.985 204.972 304.732 205.503 301.609ZM214.448 249.183L222.616 201.32C223.584 195.645 227.89 191.555 232.898 191.555H249.756V197.578H235.961C232.949 197.578 230.366 200.057 229.812 203.476L213.068 306.985L212.887 308.11C211.973 313.758 207.706 317.852 202.732 317.852H128.461H120.929V306.985V268.758C120.929 261.237 126.207 255.136 132.718 255.136H208.183C211.235 255.136 213.858 252.644 214.448 249.183Z" fill="#BCDDE0"/>
<path d="M201.739 414.012H206.13V282.363H201.739V414.012Z" fill="#88C9CD"/>
<path d="M242.667 396.527L245.776 392.939L165.2 299.848L162.093 303.436L242.667 396.527" fill="#88C9CD"/>
<path d="M260.907 350.726V345.649H146.959V350.726H260.907" fill="#88C9CD"/>
<path d="M245.776 303.436L242.667 299.848L162.093 392.939L165.2 396.527L245.776 303.436" fill="#88C9CD"/>
<path d="M192.714 348.187C192.714 355.347 197.738 361.15 203.933 361.15C210.13 361.15 215.152 355.347 215.152 348.187C215.152 341.027 210.13 335.225 203.933 335.225C197.738 335.225 192.714 341.027 192.714 348.187Z" fill="#14293A"/>
<path d="M197.111 348.187C197.111 352.54 200.165 356.072 203.933 356.072C207.703 356.072 210.757 352.54 210.757 348.187C210.757 343.835 207.703 340.306 203.933 340.306C200.165 340.306 197.111 343.835 197.111 348.187Z" fill="#BCDDE0"/>
<path d="M200.827 348.188C200.827 350.169 202.218 351.776 203.933 351.776C205.65 351.776 207.041 350.169 207.041 348.188C207.041 346.206 205.65 344.599 203.933 344.599C202.218 344.599 200.827 346.206 200.827 348.188Z" fill="#14293A"/>
<path d="M203.933 285.823C233.699 285.823 257.912 313.801 257.912 348.187C257.912 382.574 233.699 410.552 203.933 410.552C174.17 410.552 149.955 382.574 149.955 348.187C149.955 313.801 174.17 285.823 203.933 285.823V285.823ZM203.933 417.804C237.159 417.804 264.189 386.576 264.189 348.187C264.189 309.803 237.159 278.571 203.933 278.571C170.709 278.571 143.679 309.803 143.679 348.187C143.679 386.576 170.709 417.804 203.933 417.804" fill="#2B5883"/>
<path d="M350.9 402.936C350.9 402.936 345.367 407.731 335.863 413.602C333.631 414.98 334.474 418.889 337.004 418.889H361.572L361.884 402.936H350.9" fill="#88C9CD"/>
<path d="M316.942 87.7917C316.516 87.6113 316.047 87.8803 315.92 88.3821C315.656 89.4186 315.397 91.0192 316.192 91.4161C317.061 91.849 317.43 89.9237 317.569 88.8184C317.623 88.3986 317.413 87.9951 317.067 87.8475L316.942 87.7917" fill="#1F3950"/>
<path d="M189.944 161.026C189.519 160.845 189.05 161.114 188.922 161.616C188.657 162.653 188.399 164.253 189.195 164.65C190.062 165.086 190.433 163.158 190.572 162.052C190.625 161.633 190.415 161.229 190.069 161.081L189.944 161.026" fill="#1F3950"/>
<path d="M308.552 86.621C308.268 86.4996 307.953 86.68 307.868 87.0146C307.692 87.7099 307.519 88.7791 308.05 89.0448C308.632 89.3367 308.879 88.0477 308.972 87.3097C309.006 87.0244 308.867 86.7554 308.637 86.657L308.552 86.621Z" fill="#1F3950"/>
<path d="M183.311 159.756C183.027 159.635 182.714 159.815 182.628 160.15C182.45 160.845 182.278 161.915 182.81 162.18C183.39 162.469 183.638 161.18 183.731 160.442C183.766 160.16 183.626 159.891 183.395 159.792L183.311 159.756Z" fill="#1F3950"/>
<path d="M312.402 87.595C312.209 86.6603 311.108 86.5028 310.719 87.3556C309.407 90.2321 307.565 95.1323 309.478 96.5361C311.925 98.3335 313.654 93.7023 312.402 87.595Z" fill="#E4587E"/>
<path d="M186.843 160.157C186.651 159.219 185.547 159.061 185.159 159.914C183.848 162.79 182.006 167.694 183.918 169.098C186.366 170.895 188.095 166.264 186.843 160.157Z" fill="#E4587E"/>
<path d="M321.308 86.4634C321.401 86.611 321.603 86.5322 321.6 86.3486C321.583 85.1777 321.234 82.5013 318.545 81.4845C317.64 81.1434 317.302 82.6456 317.824 82.8162C319.153 83.2491 320.692 85.4925 321.308 86.4634" fill="#1F3950"/>
<path d="M194.815 159.642C194.908 159.789 195.112 159.71 195.109 159.527C195.09 158.356 194.743 155.679 192.053 154.663C191.148 154.322 190.809 155.824 191.333 155.994C192.66 156.427 194.199 158.671 194.815 159.642" fill="white"/>
<path d="M307.854 82.4423C307.754 82.4948 307.655 82.3734 307.709 82.2651C308.044 81.5698 308.998 80.0905 310.894 80.4776C311.533 80.6088 311.317 81.6354 310.957 81.5436C310.04 81.3107 308.493 82.088 307.854 82.4423" fill="#1F3950"/>
<path d="M182.764 155.62C182.666 155.673 182.566 155.552 182.619 155.443C182.955 154.748 183.908 153.269 185.805 153.656C186.443 153.787 186.229 154.814 185.868 154.722C184.95 154.489 183.403 155.266 182.764 155.62" fill="white"/>
<path d="M327.062 95.7719L335.8 86.5389L336.572 87.8345L325.296 99.839L323.561 106.494L336.572 96.5164L337.265 97.9957L321.6 110.804" fill="#66ACAA"/>
<path d="M306.088 96.3491C307.136 105.897 311.701 110.732 322.074 111.702C327.644 102.587 327.062 95.7719 327.062 95.7719C308.095 94.4369 306.074 90.4092 306.074 90.4092C305.85 92.4788 305.887 94.5058 306.088 96.3491" fill="#66ACAA"/>
<path d="M337.929 99.8389C337.929 99.8389 330.531 98.809 329.605 89.6089C329.605 89.6089 316.615 80.4349 318.659 73.6062C320.7 66.7774 335.156 67.1316 339.434 72.3008C343.715 77.4666 345.214 95.6242 337.929 99.8389" fill="#14293A"/>
<path d="M311.303 78.2046C311.303 78.2046 313.642 66.5085 327.079 70.2542C327.079 70.2542 319.482 79.8741 311.303 78.2046Z" fill="#14293A"/>
<path d="M316.658 131.005C316.658 131.005 316.967 196.268 274.914 189.741C232.861 183.214 234.534 183.697 233.489 192.401C232.441 201.102 239.345 189.984 246.667 192.401C253.991 194.817 240.6 195.301 243.32 199.531C246.04 203.761 249.807 194.576 256.711 194.576C263.615 194.576 286.838 213.43 304.831 202.794C322.824 192.159 336.01 149.133 335.797 131.005H316.658Z" fill="#FCD283"/>
<path d="M326.486 127.741C326.486 127.741 337.421 125.563 338.231 132.999C339.04 140.431 330.409 171.974 330.409 171.974L305.921 160.193L314.531 127.443L326.486 127.741" fill="#F46FBE"/>
<path d="M120.929 399.312H128.461V306.985H120.929V399.312Z" fill="#BCDDE0"/>
<path d="M114.552 406.084C114.552 412.556 119.093 417.804 124.694 417.804C130.296 417.804 134.837 412.556 134.837 406.084C134.837 399.613 130.296 394.365 124.694 394.365C119.093 394.365 114.552 399.613 114.552 406.084Z" fill="#2B5883"/>
<path d="M197.057 167.395L205.168 159.979L203.604 159.045L195.11 167.481V169.8L197.057 167.395" fill="#66ACAA"/>
<path d="M198.144 171.177L209.159 168.196V170.469L196.322 173.135L198.144 171.177" fill="#66ACAA"/>
<path d="M118.698 406.085C118.698 409.912 121.383 413.012 124.694 413.012C128.006 413.012 130.691 409.912 130.691 406.085C130.691 402.257 128.006 399.157 124.694 399.157C121.383 399.157 118.698 402.257 118.698 406.085Z" fill="#BCDDE0"/>
<path d="M122.168 406.084C122.168 407.698 123.299 409.004 124.694 409.004C126.09 409.004 127.221 407.698 127.221 406.084C127.221 404.471 126.09 403.165 124.694 403.165C123.299 403.165 122.168 404.471 122.168 406.084Z" fill="#14293A"/>
<path d="M190.865 146.246C189.206 147.46 189.676 150.422 191.59 150.927C195.578 151.98 200.898 154.105 201.006 157.979C201.179 164.188 207.425 158.576 206.729 164.991C206.425 167.822 205.298 169.052 204.134 169.544C202.686 170.154 202.144 172.2 203.03 173.657C204.109 175.421 205.576 177.045 207.251 176.792C210.763 176.264 212.095 174.021 213.247 172.469C217.832 166.293 216.924 156.572 213.247 150.294C209.906 144.59 198.593 140.595 190.865 146.246" fill="white"/>
<path d="M197.071 182.65C200.305 174.523 197.057 167.395 197.057 167.395C187.677 168.228 181.161 162.843 181.161 162.843C180.96 164.237 180.828 165.742 180.765 167.363C179.926 188.639 197.071 182.65 197.071 182.65Z" fill="#66ACAA"/>
<path d="M126.56 255.245C128.273 255.245 130.425 255.127 132.881 255.12C138.141 255.107 144.884 255.153 152.084 255.195C164.516 255.274 178.311 255.35 188.193 255.136C199.851 254.89 206.315 247.022 209.812 238.117C213.134 229.642 213.719 219.789 213.364 213.376C212.643 200.221 206.037 199.315 200.208 199.563C194.372 199.812 193.075 215.42 191.84 228.584C191.729 229.754 191.437 230.852 190.972 231.895C186.233 242.532 164.022 246.34 146.002 244.69C134.546 243.64 128.322 247.31 125.116 250.59C123.562 252.178 124.485 255.245 126.56 255.245" fill="#FCD283"/>
<path d="M132.88 255.136C138.08 255.126 144.729 255.166 151.837 255.208C164.332 255.281 178.245 255.353 188.193 255.136C199.85 254.89 206.315 247.022 209.812 238.117L203.933 230.339L190.972 231.895L194.605 238.881C195.672 240.931 194.902 243.601 192.979 244.486C187.289 247.107 174.994 251.584 157.409 251.584C133.387 251.584 132.887 254.913 132.88 255.136" fill="#F0BB66"/>
<path d="M209.86 245.841L187.244 229.139L191.523 198.008L206.948 195.275L216.353 201.616L214.088 230.075L209.86 245.841" fill="#66ACAA"/>
<path d="M197.071 182.65C197.071 182.65 203.521 179.82 206.948 177.717C206.948 177.717 206.681 185.829 196.557 190.04L197.071 182.65" fill="#F0BB66"/>
<path d="M175.67 242.302H190.973V225.409H175.67V242.302Z" fill="#439898"/>
<path d="M190.973 231.893L187.244 229.139L187.757 225.409L192.882 218.245C192.48 221.651 192.157 225.198 191.839 228.584C191.816 228.828 191.78 229.067 191.742 229.306L190.973 231.893Z" fill="#439898"/>
<path d="M5.38187 429.789H452.221C455.085 429.789 457.408 427.106 457.408 423.796C457.408 420.487 455.085 417.804 452.221 417.804H5.38187C2.51685 417.804 0.194336 420.487 0.194336 423.796C0.194336 427.106 2.51685 429.789 5.38187 429.789Z" fill="#CF3DA6"/>
<path d="M184 169.045C182.01 169.042 182.354 166.372 182.354 166.372C182.801 168.087 184.401 168.373 185.414 168.373C185.917 168.373 186.275 168.301 186.275 168.301C185.295 168.835 184.557 169.045 184 169.045" fill="#439898"/>
<path d="M190.518 173.417C187.86 173.417 184.512 172.728 182.191 169.822C182.191 169.822 187.287 172.883 193.699 172.883C194.05 172.883 194.404 172.873 194.762 172.853C194.762 172.853 192.922 173.417 190.518 173.417" fill="#439898"/>
<path d="M191.672 176.999C188.923 176.999 185.411 176.304 182.973 173.325C182.973 173.325 188.312 176.487 194.973 176.487C195.28 176.487 195.589 176.481 195.899 176.464C195.899 176.464 194.078 176.999 191.672 176.999" fill="#439898"/>
<path d="M190.258 180.171C188.189 180.171 185.791 179.518 184.159 177.028C184.159 177.028 187.799 179.482 192.658 179.482C193.233 179.482 193.824 179.449 194.429 179.37C194.429 179.37 192.545 180.171 190.258 180.171Z" fill="#439898"/>
<path d="M309.949 96.828C307.959 96.828 308.302 94.1581 308.302 94.1581C308.751 95.8702 310.349 96.1556 311.363 96.1556C311.865 96.1556 312.226 96.0834 312.226 96.0834C311.244 96.6181 310.505 96.828 309.949 96.828" fill="#439898"/>
<path d="M316.467 101.2C313.81 101.203 310.46 100.511 308.141 97.6053C308.141 97.6053 313.236 100.665 319.65 100.665C319.999 100.665 320.354 100.656 320.711 100.636C320.711 100.636 318.872 101.2 316.467 101.2Z" fill="#439898"/>
<path d="M317.623 104.782C314.872 104.782 311.36 104.086 308.921 101.112C308.921 101.112 314.261 104.27 320.924 104.27C321.228 104.27 321.537 104.263 321.85 104.247C321.85 104.247 320.027 104.782 317.623 104.782" fill="#439898"/>
<path d="M316.206 107.953C314.139 107.953 311.74 107.301 310.108 104.811C310.108 104.811 313.747 107.265 318.608 107.265C319.181 107.265 319.775 107.232 320.379 107.156C320.379 107.156 318.494 107.953 316.206 107.953Z" fill="#439898"/>
<path d="M162.797 99.5536H87.657C86.5234 99.5536 85.6047 98.4909 85.6047 97.1822V75.0919C85.6047 73.78 86.5234 72.7205 87.657 72.7205H162.797C163.93 72.7205 164.849 73.78 164.849 75.0919V97.1822C164.849 98.4909 163.93 99.5536 162.797 99.5536Z" fill="#66ACAA"/>
<path d="M100.378 91.1275C100.475 91.708 100.15 92.2624 99.6497 92.387C99.1438 92.5116 98.4929 92.6035 97.7431 92.6035C93.9835 92.6035 92.0474 89.9008 92.0474 86.3192C92.0474 82.0323 94.6935 79.6478 97.9853 79.6478C98.6748 79.6478 99.2747 79.7331 99.7491 79.8544C100.264 79.9856 100.579 80.5859 100.449 81.1763L100.408 81.3599C100.281 81.9339 99.7831 82.2685 99.2846 82.1405C98.936 82.052 98.54 81.9962 98.0982 81.9962C96.1456 81.9962 94.6291 83.3574 94.6291 86.1519C94.6291 88.6676 95.9197 90.2551 98.1141 90.2551C98.4931 90.2551 98.8931 90.2058 99.2582 90.1271C99.7661 90.0222 100.256 90.3961 100.354 90.9799L100.378 91.1275Z" fill="white"/>
<path d="M103.763 86.1716C103.763 88.6315 104.763 90.3666 106.409 90.3666C108.071 90.3666 109.023 88.5397 109.023 86.0962C109.023 83.8396 108.087 81.9011 106.393 81.9011C104.731 81.9011 103.763 83.728 103.763 86.1716ZM111.621 86.0043C111.621 90.1239 109.459 92.6199 106.28 92.6199C103.053 92.6199 101.165 89.8058 101.165 86.2273C101.165 82.462 103.247 79.6478 106.458 79.6478C109.798 79.6478 111.621 82.5374 111.621 86.0043Z" fill="white"/>
<path d="M113.236 91.3374V80.9303C113.236 80.3333 113.654 79.8512 114.169 79.8512H115.565C115.9 79.8512 116.21 80.0611 116.376 80.3989L118.367 84.4562C119.012 85.778 119.658 87.3458 120.142 88.7627H120.19C120.029 87.1031 119.981 85.4073 119.981 83.5247V80.9303C119.981 80.3333 120.398 79.8512 120.914 79.8512H121.307C121.822 79.8512 122.24 80.3333 122.24 80.9303V91.3374C122.24 91.9344 121.822 92.4165 121.307 92.4165H120.208C119.868 92.4165 119.556 92.2033 119.391 91.8589L117.334 87.5688C116.689 86.2273 115.979 84.6037 115.446 83.1343L115.398 83.1507C115.463 84.8104 115.495 86.5816 115.495 88.6315V91.3374C115.495 91.9344 115.077 92.4165 114.562 92.4165H114.169C113.654 92.4165 113.236 91.9344 113.236 91.3374Z" fill="white"/>
<path d="M124.195 90.6913C124.325 90.0812 124.876 89.7434 125.395 89.9336C125.931 90.1304 126.549 90.2715 127.178 90.2715C128.308 90.2715 128.905 89.7303 128.905 88.9103C128.905 88.1297 128.388 87.6803 127.082 87.1391C125.274 86.4143 124.096 85.2565 124.096 83.4295C124.096 81.2878 125.645 79.6478 128.211 79.6478C128.962 79.6478 129.592 79.7593 130.115 79.9233C130.609 80.0775 130.892 80.6744 130.755 81.2451L130.709 81.4419C130.57 82.0192 130.05 82.3472 129.547 82.1865C129.163 82.0684 128.7 81.9765 128.163 81.9765C127.098 81.9765 126.581 82.5374 126.581 83.1868C126.581 83.9904 127.194 84.3447 128.598 84.958C130.518 85.778 131.422 86.9358 131.422 88.7069C131.422 90.8126 130.018 92.6035 127.033 92.6035C126.215 92.6035 125.403 92.4395 124.77 92.2197C124.298 92.0524 124.026 91.485 124.144 90.9307L124.195 90.6913" fill="white"/>
<path d="M134.605 79.8511C135.12 79.8511 135.538 80.3333 135.538 80.9302V87.0834C135.538 89.2482 136.248 90.3469 137.506 90.3469C138.797 90.3469 139.507 89.3039 139.507 87.0834V80.9302C139.507 80.3333 139.925 79.8511 140.44 79.8511H141.027C141.542 79.8511 141.96 80.3333 141.96 80.9302V86.8997C141.96 90.7766 140.265 92.6199 137.426 92.6199C134.682 92.6199 133.069 90.8685 133.069 86.8604V80.9302C133.069 80.3333 133.487 79.8511 134.002 79.8511H134.605" fill="white"/>
<path d="M145.023 79.8512H145.626C146.142 79.8512 146.559 80.3333 146.559 80.9303V88.9529C146.559 89.5466 146.977 90.0287 147.492 90.0287H149.951C150.466 90.0287 150.884 90.5142 150.884 91.1078V91.3374C150.884 91.9344 150.466 92.4165 149.951 92.4165H145.023C144.508 92.4165 144.091 91.9344 144.091 91.3374V80.9303C144.091 80.3333 144.508 79.8512 145.023 79.8512Z" fill="white"/>
<path d="M151.823 82.2389H150.769C150.254 82.2389 149.836 81.7568 149.836 81.1599V80.9303C149.836 80.3333 150.254 79.8512 150.769 79.8512H157.261C157.776 79.8512 158.194 80.3333 158.194 80.9303V81.1599C158.194 81.7568 157.776 82.2389 157.261 82.2389H156.158C155.643 82.2389 155.225 82.7211 155.225 83.3147V91.3374C155.225 91.9344 154.807 92.4165 154.292 92.4165H153.689C153.174 92.4165 152.756 91.9344 152.756 91.3374V83.3147C152.756 82.7211 152.339 82.2389 151.823 82.2389" fill="white"/>
<path d="M327.911 167.654L327.079 170.305L326.678 170.892C321.191 184.792 313.58 197.623 304.83 202.794L303.629 212.234C330.619 205.487 332.322 153.593 332.322 153.593L332.319 153.597C331.124 158.179 329.639 162.948 327.911 167.654" fill="#E451B0"/>
</svg>

