<svg width="283" height="291" viewBox="0 0 283 291" fill="none" xmlns="http://www.w3.org/2000/svg">
<path d="M247.086 144.436H172.519C163.459 144.436 156.114 151.78 156.114 160.841V286.026H249.269V229.191H261.1C270.85 229.191 278.755 221.287 278.755 211.536V176.104C278.755 158.614 264.576 144.436 247.086 144.436Z" fill="#5647AD"/>
<path d="M183.882 229.19H249.269V245.346H183.882V229.19Z" fill="#5647AD"/>
<path d="M249.269 144.519V205.908H210.12V229.191H261.1C262.319 229.191 263.509 229.067 264.658 228.832C268.469 228.052 272.069 225.982 274.723 222.765C275.623 221.676 276.394 220.476 277.013 219.19C278.129 216.874 278.754 214.278 278.754 211.535V176.103C278.754 159.348 265.74 145.641 249.269 144.519Z" fill="#5647AD"/>
<path d="M154.346 17.4017V75.4272H256.811V48.9949C256.811 27.7434 239.583 10.5161 218.332 10.5161H186.114C182.888 10.5161 179.727 9.60329 176.997 7.88373L174.473 6.29401C165.731 0.785528 154.346 7.06902 154.346 17.4017Z" fill="#BE694E"/>
<path d="M190.03 99.2988V147.203C190.03 154.604 196.03 160.602 203.43 160.602H207.726C215.127 160.602 221.126 154.603 221.126 147.203V99.2988H190.03Z" fill="#EBAE9D"/>
<path d="M149.741 75.4264C149.741 82.6431 155.592 88.4935 162.808 88.4935H248.348C255.565 88.4935 261.415 82.6431 261.415 75.4264C261.415 68.2097 255.565 62.3594 248.348 62.3594H162.809C155.592 62.3594 149.741 68.2097 149.741 75.4264Z" fill="#FFCDBE"/>
<path d="M173.854 41.1667V96.0746C173.854 112.632 187.277 126.055 203.835 126.055H207.322C223.879 126.055 237.302 112.632 237.302 96.0746V60.4662C237.302 48.8681 227.9 39.4658 216.302 39.4658H175.554C174.615 39.4658 173.854 40.2272 173.854 41.1667Z" fill="#FFCDBE"/>
<path d="M195.8 245.032H78.823C75.1837 245.032 72.2339 242.083 72.2339 238.443V141.909C72.2339 138.27 75.1837 135.32 78.823 135.32H195.799C199.439 135.32 202.388 138.27 202.388 141.909V238.443C202.389 242.082 199.439 245.032 195.8 245.032Z" fill="#80B6FC"/>
<path d="M195.8 135.32H179.8C183.44 135.32 186.389 138.27 186.389 141.909V238.443C186.389 242.082 183.44 245.032 179.8 245.032H195.8C199.439 245.032 202.389 242.082 202.389 238.443V141.909C202.389 138.27 199.439 135.32 195.8 135.32Z" fill="#62A4FB"/>
<path d="M195.799 264.274H78.823C75.1837 264.274 72.2339 261.324 72.2339 257.685V161.152C72.2339 157.512 75.1837 154.562 78.823 154.562H195.799C199.439 154.562 202.39 157.512 202.39 161.151V257.685C202.39 261.324 199.439 264.274 195.799 264.274Z" fill="#DDEBFD"/>
<path d="M202.39 161.151V257.685C202.39 261.325 199.439 264.274 195.799 264.274H179.799C183.439 264.274 186.387 261.324 186.387 257.684V154.562H195.799C199.439 154.562 202.39 157.511 202.39 161.151Z" fill="#BED9FD"/>
<path d="M121.375 175.534V208.078C121.375 210.216 123.72 211.525 125.54 210.403L151.948 194.131C153.68 193.064 153.68 190.547 151.948 189.48L125.54 173.208C123.72 172.087 121.375 173.396 121.375 175.534Z" fill="#DF646E"/>
<path d="M123.081 247.381C127.602 245.507 129.748 240.322 127.874 235.801C126 231.28 120.815 229.134 116.294 231.008C111.773 232.882 109.627 238.067 111.501 242.588C113.375 247.109 118.56 249.255 123.081 247.381Z" fill="#DF646E"/>
<path d="M210.12 229.191H197.348C191.543 229.191 186.837 224.485 186.837 218.68V205.908H210.12V229.191Z" fill="#FFCDBE"/>
<path d="M135.165 280.688H121.626C118.217 280.688 115.453 277.924 115.453 274.515V264.274H141.337V274.515C141.337 277.924 138.574 280.688 135.165 280.688Z" fill="#FFCDBE"/>
<path d="M63.3468 172.459C95.9862 172.459 122.446 145.639 122.446 112.554C122.446 79.4698 95.9862 52.6494 63.3468 52.6494C30.7075 52.6494 4.24805 79.4698 4.24805 112.554C4.24805 145.639 30.7075 172.459 63.3468 172.459Z" fill="#F5DE46"/>
<path d="M108.358 73.7383C111.972 81.4913 113.997 90.1549 113.997 99.2986C113.997 132.383 87.5371 159.204 54.8978 159.204C36.8682 159.204 20.7278 151.017 9.8877 138.115C19.3501 158.413 39.7296 172.459 63.3476 172.459C95.9869 172.459 122.446 145.639 122.446 112.554C122.446 97.7452 117.141 84.1934 108.358 73.7383Z" fill="#ECC52E"/>
<path d="M35.9297 107.7V136.301C35.9297 137.696 36.8623 138.915 38.1964 139.261L61.8506 145.404C62.8326 145.659 63.8616 145.659 64.8435 145.404L88.4978 139.261C89.8318 138.915 90.7644 137.696 90.7644 136.301V107.7H35.9297Z" fill="#407194"/>
<path d="M62.4864 93.8283L20.9801 106.364C19.6687 106.76 19.6687 108.642 20.9801 109.038L62.4864 121.574C63.0483 121.744 63.6464 121.744 64.2083 121.574L105.715 109.038C107.026 108.643 107.026 106.76 105.715 106.364L64.2083 93.8283C63.6464 93.6588 63.0483 93.6588 62.4864 93.8283Z" fill="#5D91B9"/>
<path d="M206.195 110.377C210.04 110.377 213.695 108.89 216.484 106.19C218.171 104.557 218.215 101.865 216.581 100.179C214.948 98.4913 212.256 98.4471 210.569 100.081C209.375 101.237 207.821 101.874 206.195 101.874H204.957C203.33 101.874 201.777 101.238 200.582 100.081C198.894 98.4471 196.203 98.4913 194.57 100.179C192.937 101.866 192.98 104.558 194.668 106.19C197.457 108.89 201.111 110.377 204.957 110.377H206.195Z" fill="black"/>
<path d="M120.704 214.179C121.762 214.77 122.936 215.064 124.108 215.064C125.38 215.064 126.651 214.717 127.772 214.027L154.179 197.757C156.258 196.476 157.499 194.253 157.499 191.811C157.499 189.369 156.258 187.146 154.179 185.865L127.772 169.594C125.62 168.268 122.911 168.211 120.704 169.443C118.496 170.675 117.125 173.011 117.125 175.54V208.081C117.126 210.61 118.496 212.946 120.704 214.179ZM125.629 178.263L147.617 191.811L125.629 205.359V178.263Z" fill="black"/>
<path d="M172.852 234.952H131.992C130.222 229.804 125.334 226.092 119.593 226.092C113.852 226.092 108.964 229.804 107.193 234.953H101.771C99.4228 234.953 97.519 236.857 97.5195 239.205C97.5195 241.554 99.4233 243.457 101.772 243.457H107.194C108.965 248.605 113.852 252.315 119.593 252.315C125.334 252.315 130.221 248.604 131.992 243.457H172.852C175.2 243.457 177.104 241.554 177.104 239.205C177.104 236.857 175.201 234.952 172.852 234.952ZM119.593 243.81C117.053 243.81 114.986 241.744 114.986 239.203C114.986 236.662 117.053 234.595 119.593 234.595C122.133 234.595 124.2 236.662 124.2 239.203C124.2 241.744 122.133 243.81 119.593 243.81Z" fill="black"/>
<path d="M282.999 205.907V176.111C282.999 156.305 266.886 140.191 247.079 140.191H225.378V125.147C235.078 119.097 241.55 108.335 241.55 96.0842V92.7568H248.344C257.893 92.7568 265.663 84.9873 265.663 75.437C265.663 70.9094 263.914 66.7837 261.06 63.6944V49.0076C261.06 36.2132 255.392 24.1967 245.512 16.0389C243.701 14.5439 241.021 14.8001 239.526 16.611C238.031 18.4218 238.287 21.1018 240.098 22.5968C248.015 29.1332 252.556 38.76 252.556 49.0076V58.6389C251.207 58.3004 249.796 58.1184 248.344 58.1184H241.436C240.242 45.2975 229.427 35.2273 216.299 35.2273H175.554C172.271 35.2273 169.601 37.8976 169.601 41.1797V58.1184H162.806C161.355 58.1184 159.947 58.2999 158.6 58.6378V17.4132C158.6 14.1345 160.314 11.2306 163.185 9.64599C166.057 8.05967 169.43 8.15718 172.203 9.90282L174.729 11.4976C178.14 13.6464 182.076 14.7826 186.112 14.7826H218.33C220.108 14.7826 221.879 14.9181 223.593 15.1857C225.915 15.5457 228.088 13.9599 228.449 11.6394C228.812 9.31886 227.224 7.14518 224.904 6.78346C222.757 6.4484 220.545 6.27888 218.33 6.27888H186.112C183.683 6.27888 181.314 5.59514 179.265 4.30476L176.738 2.70937C171.303 -0.713872 164.699 -0.904366 159.075 2.20138C153.452 5.30543 150.095 10.9925 150.095 17.4138V63.6893C147.237 66.7792 145.486 70.9071 145.486 75.4376C145.486 84.9879 153.255 92.7573 162.805 92.7573H169.6V96.0848C169.6 108.337 176.074 119.1 185.777 125.149V131.075H124.007C125.755 125.211 126.699 118.997 126.699 112.563C126.699 77.1889 98.2812 48.4094 63.3515 48.4094C28.4217 48.4094 0.00341797 77.1889 0.00341797 112.563C0.00341797 147.938 28.4212 176.717 63.3509 176.717C64.9089 176.717 66.4533 176.657 67.9829 176.544V257.685C67.9829 263.662 72.8479 268.525 78.8281 268.525H111.203V274.516C111.203 280.263 115.879 284.94 121.626 284.94H135.165C140.912 284.94 145.589 280.263 145.589 274.516V268.525H151.858V286.026C151.858 288.374 153.762 290.278 156.111 290.278H249.261C251.61 290.278 253.514 288.374 253.514 286.026V271.337C253.514 268.988 251.61 267.085 249.261 267.085C246.913 267.085 245.009 268.988 245.009 271.337V281.774H160.363V268.525H195.796C201.776 268.525 206.641 263.662 206.641 257.685V233.445H245.01V251.495C245.01 253.843 246.914 255.747 249.263 255.747C251.611 255.747 253.515 253.843 253.515 251.495V233.445H261.094C265.247 233.445 269.132 232.284 272.445 230.269C278.768 226.422 283 219.465 283 211.539L282.999 205.907ZM257.159 75.4376C257.159 80.2986 253.205 84.2531 248.344 84.2531H241.55V66.6221H248.344C253.205 66.6221 257.159 70.5766 257.159 75.4376ZM162.806 84.2531C157.945 84.2531 153.991 80.2981 153.991 75.4376C153.991 70.5771 157.945 66.6221 162.806 66.6221H169.601V84.2531H162.806ZM178.105 96.0842V88.5596C178.105 88.5415 178.108 88.5234 178.108 88.5046C178.108 88.4859 178.105 88.4684 178.105 88.4497V62.4244C178.105 62.4063 178.108 62.3881 178.108 62.3694C178.108 62.3507 178.105 62.3331 178.105 62.3144V43.7298H216.299C225.534 43.7298 233.046 51.2425 233.046 60.477V96.0831C233.046 110.269 221.505 121.811 207.319 121.811H203.832C189.646 121.812 178.105 110.27 178.105 96.0842ZM194.282 128.95C197.316 129.833 200.518 130.315 203.832 130.315H207.319C210.635 130.315 213.839 129.832 216.874 128.949V147.209C216.874 152.255 212.769 156.359 207.724 156.359H206.641V141.914C206.641 135.937 201.776 131.075 195.796 131.075H194.282V128.95ZM202.422 224.942C202.41 224.942 202.4 224.94 202.389 224.94C202.378 224.94 202.367 224.942 202.356 224.942H197.345C193.894 224.942 191.087 222.135 191.087 218.684V210.164H205.864V224.942L202.422 224.942ZM195.795 139.579C197.086 139.579 198.137 140.627 198.137 141.915V150.578C197.382 150.412 196.6 150.317 195.795 150.317H114.535C116.95 146.968 119.053 143.374 120.799 139.579L195.795 139.579ZM8.50709 112.563C8.50709 81.8776 33.1098 56.9131 63.3509 56.9131C93.592 56.9131 118.195 81.8776 118.195 112.563C118.195 143.249 93.592 168.213 63.3509 168.213C33.1098 168.213 8.50709 143.249 8.50709 112.563ZM137.085 274.516C137.085 275.575 136.224 276.436 135.165 276.436H121.627C120.568 276.436 119.707 275.575 119.707 274.516V268.525H137.085L137.085 274.516ZM198.137 257.686C198.137 258.974 197.087 260.022 195.796 260.022H78.8286C77.5377 260.022 76.4871 258.974 76.4871 257.686V175.326C88.2542 172.803 98.8255 166.964 107.199 158.821H195.795C197.086 158.821 198.137 159.868 198.137 161.156V201.661H175.194C172.846 201.661 170.942 203.565 170.942 205.913C170.942 208.261 172.846 210.165 175.194 210.165H182.583V218.685C182.583 226.825 189.205 233.447 197.345 233.447H198.137V257.686ZM273.172 217.344C271.005 221.835 266.405 224.941 261.094 224.941C258.582 224.941 216.856 224.942 214.368 224.942V210.165H256.805C259.154 210.165 261.057 208.261 261.057 205.912C261.057 203.564 259.154 201.66 256.805 201.66H253.516V174.64C253.516 172.291 251.612 170.387 249.264 170.387C246.915 170.387 245.012 172.291 245.012 174.64V201.66H206.64V164.863H207.723C216.957 164.863 224.552 157.736 225.31 148.694H247.079C262.196 148.694 274.495 160.993 274.495 176.111V211.538C274.496 212.694 274.386 214.924 273.172 217.344Z" fill="black"/>
<path d="M106.945 113.117C109.341 112.394 110.951 110.221 110.951 107.71C110.951 105.2 109.342 103.027 106.945 102.302L65.4413 89.7676C64.0744 89.3548 62.6281 89.3548 61.2606 89.7676L19.756 102.303C17.3601 103.027 15.7505 105.2 15.7505 107.71C15.7505 108.889 16.1094 109.991 16.7336 110.906V124.954C16.7336 127.302 18.6374 129.206 20.9857 129.206C23.334 129.206 25.2378 127.302 25.2378 124.954V114.773L31.6835 116.719V136.307C31.6835 139.64 33.9252 142.549 37.1335 143.382L60.7844 149.527C61.624 149.746 62.4881 149.855 63.3521 149.855C64.2156 149.855 65.0785 149.746 65.9176 149.527L89.5684 143.382C92.7785 142.549 95.0202 139.64 95.0202 136.307V116.719L106.945 113.117ZM63.351 98.0195L95.4369 107.71L63.351 117.4L31.2651 107.71L63.351 98.0195ZM86.516 135.389L63.7773 141.298C63.4984 141.37 63.2041 141.37 62.9241 141.298L40.1871 135.39V119.289L61.2606 125.653C61.9444 125.86 62.648 125.963 63.351 125.963C64.0546 125.963 64.7576 125.86 65.4413 125.653L86.516 119.288V135.389Z" fill="black"/>
</svg>
