<svg width="120" height="118" viewBox="0 0 120 118" fill="none" xmlns="http://www.w3.org/2000/svg">
<g clip-path="url(#clip0)">
<path d="M4.76643 30.5727C-0.850841 39.5943 -1.44287 55.2147 2.67182 64.9794C6.2758 73.5323 13.4451 81.5601 22.8562 82.5658C26.317 82.9356 29.8542 82.3313 33.2793 82.9409C45.0585 85.0366 49.4399 99.2196 58.5942 106.759C64.9652 112.006 73.8046 113.862 82.0724 112.851C90.3403 111.841 98.0807 108.189 104.895 103.503C110.276 99.8035 115.31 95.2547 117.965 89.3731C123.53 77.0447 116.983 62.2379 106.811 53.1384C103.644 50.3043 100.113 47.8044 97.4657 44.4994C94.8189 41.1942 93.1345 36.7837 94.3957 32.7721C95.4018 29.5716 98.1103 27.0905 99.1364 23.8959C100.533 19.5488 98.425 14.6721 94.964 11.6185C91.503 8.56497 86.9231 7.02984 82.386 5.97627C63.3775 1.56117 21.7244 3.33742 4.76643 30.5727Z" fill="url(#paint0_linear)"/>
<g opacity="0.1">
<path opacity="0.1" d="M34.8128 92.5158C33.4345 94.9923 30.8652 99.8624 30.8652 101.757C30.8652 104.346 33.0135 106.445 35.6634 106.445C38.3132 106.445 40.4615 104.346 40.4615 101.757C40.4615 99.8624 37.8923 94.9923 36.5139 92.5158C36.1469 91.8567 35.1796 91.8567 34.8128 92.5158Z" fill="#2626BC"/>
<path opacity="0.1" d="M101.192 31.2796L86.8253 17.2436C85.8153 16.2567 84.1778 16.2567 83.1678 17.2436C82.1579 18.2303 82.1579 19.8303 83.1678 20.817L87.8296 25.3715L74.8841 38.0194L69.613 32.8695C68.7624 32.0385 67.3836 32.0385 66.5333 32.8695C65.6828 33.7005 65.6828 35.0476 66.5333 35.8784L68.2824 37.5873L61.3023 44.407C60.2129 36.6514 53.4083 30.676 45.171 30.676C36.1756 30.676 28.8833 37.8005 28.8833 46.5892C28.8833 54.6372 34.9993 61.2854 42.9374 62.3497L39.2342 65.9675L37.2444 67.9093C36.328 68.8046 36.328 70.2541 37.2444 71.1495L38.5255 72.4011L34.7321 76.1073C33.8169 77.0015 33.8169 78.4514 34.7321 79.3456L35.3516 79.9508L17.2222 97.6634C16.7645 98.1104 16.7645 98.8354 17.2222 99.2824C17.451 99.5061 17.751 99.6178 18.0507 99.6178C18.3505 99.6178 18.6507 99.5061 18.8792 99.2824L37.0086 81.5697L37.6281 82.175C38.5433 83.0692 40.0274 83.0692 40.9426 82.175L44.736 78.4688L46.0168 79.7202C46.9332 80.6156 48.4168 80.6156 49.3332 79.7202L80.3687 49.3959L82.1178 51.1049C82.9684 51.9358 84.3472 51.9358 85.1975 51.1049C86.0481 50.2739 86.0481 48.9267 85.1975 48.096L79.9264 42.946L92.8719 30.2982L97.5336 34.8525C98.5435 35.8394 100.181 35.8394 101.191 34.8525C102.201 33.8662 102.201 32.2663 101.192 31.2796Z" fill="#2626BC"/>
</g>
<path d="M89.063 18.4268L94.1053 23.3532L55.2425 61.3226L50.2001 56.3962L89.063 18.4268Z" fill="#6583FE"/>
<path d="M37.628 76.4505L34.7318 73.6209C33.8166 72.7267 33.8166 71.2767 34.7318 70.3826L40.4489 64.7969L46.6597 70.8648L40.9425 76.4505C40.0273 77.3447 38.5432 77.3447 37.628 76.4505Z" fill="white"/>
<path d="M80.7585 43.2903L49.3335 73.9952C48.4171 74.8905 46.9335 74.8905 46.0171 73.9952L37.2444 65.4242C36.328 64.5289 36.328 63.0794 37.2444 62.184L39.2343 60.2422L68.6718 31.4814L80.7585 43.2903Z" fill="white"/>
<path d="M46.0176 73.9953L37.244 65.4234C36.3288 64.5292 36.3288 63.0792 37.244 62.185L45.5327 54.0869L57.6208 65.8971L49.3322 73.9953C48.4169 74.8895 46.9329 74.8895 46.0176 73.9953Z" fill="white"/>
<path d="M50.1904 56.4092L71.7895 35.3066L76.8325 40.2337L55.2334 61.3363L50.1904 56.4092Z" fill="#6583FE"/>
<path d="M58.1506 65.3805C57.3537 66.1591 56.3107 66.5484 55.2654 66.5484C54.2201 66.5484 53.1771 66.1591 52.3803 65.3805L46.0615 59.207C44.4678 57.6499 44.4678 55.1265 46.0615 53.5694C46.5186 53.1228 47.1186 52.8984 47.7186 52.8984C48.3186 52.8984 48.9186 53.1228 49.3756 53.5694L54.4311 58.5086L58.1506 62.1426C59.0646 63.0357 59.0646 64.4875 58.1506 65.3805Z" fill="#6583FE"/>
<path d="M82.1181 45.3806L66.5329 30.1536C65.6824 29.3229 65.6824 27.9757 66.5329 27.1447C67.3835 26.3137 68.7623 26.3137 69.6126 27.1447L85.1978 42.3717C86.0484 43.2027 86.0484 44.5498 85.1978 45.3806C84.3475 46.2116 82.9687 46.2116 82.1181 45.3806Z" fill="white"/>
<path d="M97.5338 29.1281L83.1676 15.0919C82.1577 14.1052 82.1577 12.5053 83.1676 11.5183C84.1775 10.5316 85.8151 10.5316 86.8253 11.5183L101.192 25.5543C102.202 26.541 102.202 28.141 101.192 29.1279C100.182 30.1151 98.544 30.1151 97.5338 29.1281Z" fill="white"/>
<path d="M40.4615 96.0324C40.4615 98.6213 38.3132 100.72 35.6634 100.72C33.0133 100.72 30.8652 98.6213 30.8652 96.0324C30.8652 94.1377 33.4345 89.2676 34.8128 86.7911C35.1796 86.1321 36.1471 86.1321 36.5139 86.7911C37.892 89.2676 40.4615 94.138 40.4615 96.0324Z" fill="white"/>
<path d="M45.17 56.7781C54.1654 56.7781 61.4576 49.6535 61.4576 40.8649C61.4576 32.0763 54.1654 24.9517 45.17 24.9517C36.1746 24.9517 28.8823 32.0763 28.8823 40.8649C28.8823 49.6535 36.1746 56.7781 45.17 56.7781Z" fill="white"/>
<path d="M102.02 24.7452L87.6535 10.7094C86.1882 9.27732 83.8039 9.27709 82.3386 10.7094C80.8733 12.1408 80.8733 14.4701 82.3386 15.9019L86.1716 19.6468L74.8834 30.6755L70.4408 26.335C69.1348 25.0598 67.01 25.0591 65.7036 26.3353C64.3981 27.6112 64.3981 29.6874 65.7038 30.9633L66.6237 31.8621L62.0073 36.3724C60.2998 30.3073 55.2237 25.4651 48.7004 24.156C48.0666 24.0278 47.4467 24.428 47.3169 25.0472C47.1866 25.6666 47.5951 26.2718 48.2291 26.3989C55.2155 27.801 60.286 33.8845 60.286 40.8647C60.286 49.0079 53.5051 55.6328 45.1702 55.6328C36.8354 55.6328 30.0545 49.0077 30.0545 40.8647C30.0545 33.9912 35.0349 27.9279 41.8967 26.4477C42.5286 26.3112 42.9277 25.7 42.7885 25.0827C42.6488 24.4653 42.0233 24.0756 41.3914 24.2114C37.5702 25.036 34.0991 27.1319 31.6168 30.1131C29.098 33.1389 27.7107 36.9573 27.7107 40.8645C27.7107 48.7146 33.1681 55.3392 40.5697 57.3172L36.4152 61.3762C35.0443 62.7153 35.0443 64.8944 36.4152 66.2335L36.8682 66.6761L33.9031 69.5731C33.2389 70.2218 32.8733 71.0844 32.8733 72.0017C32.8733 72.919 33.2389 73.7814 33.9029 74.4301L34.5226 75.0355L17.2217 91.9385C16.764 92.3854 16.764 93.1104 17.2217 93.5574C17.4505 93.7811 17.7505 93.8929 18.0502 93.8929C18.35 93.8929 18.6502 93.7811 18.8788 93.5574L36.1796 76.6547L36.7988 77.2597H36.7991C37.463 77.9086 38.3459 78.2659 39.2848 78.2659C40.224 78.2659 41.1066 77.9086 41.7706 77.2597L44.7357 74.3628L45.1885 74.8052C45.8738 75.475 46.7743 75.8098 47.6743 75.8098C48.5745 75.8098 49.475 75.475 50.1601 74.8052L80.3687 45.2913L81.2886 46.19V46.1903C81.9416 46.828 82.7991 47.147 83.6569 47.147C84.5145 47.147 85.3723 46.828 86.0258 46.19C87.3313 44.9141 87.3312 42.8379 86.0255 41.562L81.5832 37.2218L82.7145 36.1162C83.172 35.669 83.172 34.9443 82.7143 34.497C82.2566 34.0503 81.5148 34.0501 81.057 34.4973L79.9259 35.6026L76.5402 32.2944L87.8284 21.2655L91.2144 24.5737L85.8802 29.7854C85.4225 30.2324 85.4225 30.9574 85.8802 31.4043C86.109 31.6281 86.409 31.7398 86.7087 31.7398C87.0085 31.7398 87.3087 31.6281 87.5373 31.4043L92.8716 26.1926L96.7048 29.9377C97.4375 30.6537 98.3996 31.0114 99.3622 31.0114C100.324 31.0114 101.287 30.6535 102.02 29.9379C102.729 29.2445 103.12 28.3224 103.12 27.3414C103.121 26.3607 102.73 25.4388 102.02 24.7452ZM40.1138 75.641C39.6566 76.0873 38.9136 76.0873 38.4563 75.641H38.4566L35.5604 72.8114C35.1036 72.3649 35.1036 71.6387 35.5604 71.1922L38.5257 68.2953L43.0791 72.7441L40.1138 75.641ZM48.5035 73.1862C48.2823 73.4024 47.9879 73.5215 47.6748 73.5215C47.3616 73.5215 47.0673 73.4024 46.846 73.1862L38.0724 64.6143C37.8512 64.3982 37.7293 64.1106 37.7293 63.8049C37.7293 63.4989 37.8512 63.2113 38.0724 62.9952L43.3585 57.8308C43.9543 57.891 44.5585 57.9226 45.1702 57.9226C54.7974 57.9226 62.6298 50.2704 62.6298 40.8647C62.6298 40.2693 62.5941 39.6806 62.5316 39.0985L68.281 33.4813L78.7119 43.6723L48.5035 73.1862ZM84.3692 44.5711C83.9769 44.9544 83.3389 44.9544 82.9466 44.5711V44.5713L67.3616 29.3444C66.9695 28.961 66.9695 28.3377 67.3613 27.9547C67.7537 27.5709 68.3916 27.5716 68.784 27.9544L84.369 43.1814C84.7609 43.5645 84.7609 44.188 84.3692 44.5711ZM100.363 28.3187C100.095 28.5798 99.7402 28.7236 99.3624 28.7236C98.9846 28.7236 98.6295 28.5798 98.3621 28.3187L83.9959 14.2827C83.4444 13.7437 83.4444 12.8671 83.9956 12.3283C84.2715 12.0591 84.6338 11.9242 84.9959 11.9242C85.3583 11.9242 85.7206 12.0591 85.9962 12.3283L100.362 26.3643C100.63 26.6256 100.777 26.9725 100.777 27.3417C100.777 27.7108 100.63 28.0575 100.363 28.3187Z" fill="#0000CC"/>
<path d="M35.6631 85.1514C34.8784 85.1514 34.1582 85.57 33.7834 86.2436C31.0694 91.1195 29.6934 94.4127 29.6934 96.0319C29.6934 99.248 32.3716 101.865 35.6636 101.865C38.9554 101.865 41.6336 99.248 41.6336 96.0319C41.6336 94.4127 40.2576 91.1195 37.5435 86.2439C37.1683 85.57 36.448 85.1514 35.6631 85.1514ZM35.6634 99.5748C33.6639 99.5748 32.0369 97.9856 32.0369 96.0319C32.0369 95.1531 32.9941 92.4961 35.6631 87.6606C38.3329 92.4961 39.2896 95.1531 39.2896 96.0319C39.2896 97.9854 37.6628 99.5748 35.6634 99.5748Z" fill="#0000CC"/>
<path d="M42.1206 48.753C38.5345 48.753 35.6172 45.9026 35.6172 42.3989C35.6172 38.8951 38.5345 36.0449 42.1206 36.0449C45.7068 36.0449 48.6241 38.8951 48.6241 42.3989C48.6241 45.9026 45.7068 48.753 42.1206 48.753ZM42.1206 38.3348C39.827 38.3348 37.9609 40.158 37.9609 42.3989C37.9609 44.64 39.827 46.4632 42.1206 46.4632C44.4142 46.4632 46.2803 44.64 46.2803 42.3989C46.2803 40.158 44.4142 38.3348 42.1206 38.3348Z" fill="#0000CC"/>
<path d="M51.9443 40.3509C51.297 40.3509 50.7725 39.8385 50.7725 39.206V34.9233C50.7725 34.2908 51.297 33.7783 51.9443 33.7783C52.5917 33.7783 53.1162 34.2908 53.1162 34.9233V39.206C53.1162 39.8385 52.5917 40.3509 51.9443 40.3509Z" fill="#0000CC"/>
<path d="M54.136 38.2098H49.7524C49.1051 38.2098 48.5806 37.6973 48.5806 37.0649C48.5806 36.4324 49.1051 35.9199 49.7524 35.9199H54.136C54.7833 35.9199 55.3078 36.4324 55.3078 37.0649C55.3078 37.6973 54.7833 38.2098 54.136 38.2098Z" fill="#0000CC"/>
<path d="M64.9839 69.8887C64.3365 69.8887 63.812 69.3762 63.812 68.7437V68.7094C63.812 68.0769 64.3365 67.5645 64.9839 67.5645C65.6312 67.5645 66.1558 68.0769 66.1558 68.7094V68.7437C66.1558 69.3762 65.631 69.8887 64.9839 69.8887Z" fill="#6583FE"/>
<path d="M64.9839 76.251C64.3365 76.251 63.812 75.7385 63.812 75.106V75.0717C63.812 74.4392 64.3365 73.9268 64.9839 73.9268C65.6312 73.9268 66.1558 74.4392 66.1558 75.0717V75.106C66.1558 75.7385 65.631 76.251 64.9839 76.251Z" fill="#6583FE"/>
<path d="M62.1784 71.4711C61.9813 71.4711 61.7816 71.4223 61.5981 71.32L61.5676 71.303C61.0058 70.9893 60.8106 70.29 61.1316 69.7411C61.4525 69.1922 62.1683 69.0013 62.7303 69.3152L62.7608 69.3322C63.3226 69.6459 63.5178 70.3452 63.1967 70.8941C62.9806 71.2639 62.5852 71.4711 62.1784 71.4711Z" fill="#6583FE"/>
<path d="M67.8176 74.6523C67.6184 74.6523 67.4163 74.6026 67.2317 74.4979L67.2012 74.4807C66.641 74.1638 66.4498 73.4636 66.7742 72.9163C67.0983 72.3688 67.8157 72.1822 68.3754 72.4991L68.4059 72.5163C68.966 72.8332 69.1573 73.5334 68.8329 74.0807C68.6159 74.4473 68.2221 74.6523 67.8176 74.6523Z" fill="#6583FE"/>
<path d="M62.1503 74.6524C61.7455 74.6524 61.3522 74.4474 61.1349 74.0808C60.8106 73.5335 61.0021 72.8333 61.562 72.5164L61.5925 72.4992C62.1526 72.1818 62.8696 72.3694 63.1937 72.9164C63.5181 73.4637 63.3266 74.1639 62.7667 74.4809L62.7362 74.498C62.5515 74.6027 62.3492 74.6524 62.1503 74.6524Z" fill="#6583FE"/>
<path d="M67.7894 71.4712C67.3825 71.4712 66.9871 71.264 66.7708 70.8939C66.4497 70.345 66.6449 69.6457 67.2067 69.332L67.2372 69.3151C67.7992 69.0013 68.515 69.1923 68.8359 69.741C69.157 70.2899 68.9617 70.9892 68.3999 71.3029L68.3695 71.3198C68.1864 71.4224 67.9865 71.4712 67.7894 71.4712Z" fill="#6583FE"/>
<path d="M19.7134 46.3015C19.066 46.3015 18.5415 45.7891 18.5415 45.1566V45.1225C18.5415 44.49 19.066 43.9775 19.7134 43.9775C20.3607 43.9775 20.8853 44.49 20.8853 45.1225V45.1566C20.8853 45.7891 20.3607 46.3015 19.7134 46.3015Z" fill="#6583FE"/>
<path d="M19.7134 52.6641C19.066 52.6641 18.5415 52.1516 18.5415 51.5191V51.4848C18.5415 50.8523 19.066 50.3398 19.7134 50.3398C20.3607 50.3398 20.8853 50.8523 20.8853 51.4848V51.5191C20.8853 52.1516 20.3607 52.6641 19.7134 52.6641Z" fill="#6583FE"/>
<path d="M16.9079 47.8838C16.7085 47.8838 16.5067 47.8341 16.322 47.7295L16.2915 47.7123C15.7314 47.3954 15.5401 46.6951 15.8645 46.1479C16.1886 45.6003 16.9061 45.4135 17.4657 45.7306L17.4962 45.7478C18.0564 46.0647 18.2476 46.765 17.9232 47.3123C17.706 47.6791 17.3122 47.8838 16.9079 47.8838Z" fill="#6583FE"/>
<path d="M22.5471 51.0654C22.3476 51.0654 22.1458 51.0157 21.9612 50.911L21.9307 50.8938C21.3705 50.5769 21.1793 49.8767 21.5037 49.3294C21.828 48.7819 22.5455 48.5953 23.1049 48.9122L23.1354 48.9294C23.6955 49.2463 23.8868 49.9465 23.5624 50.4938C23.3451 50.8604 22.9516 51.0654 22.5471 51.0654Z" fill="#6583FE"/>
<path d="M16.8798 51.0645C16.475 51.0645 16.0817 50.8595 15.8644 50.4929C15.5401 49.9456 15.7315 49.2454 16.2915 48.9285L16.3219 48.9113C16.8821 48.5939 17.599 48.7815 17.9232 49.3285C18.2476 49.8758 18.0561 50.576 17.4962 50.893L17.4657 50.9101C17.281 51.0148 17.079 51.0645 16.8798 51.0645Z" fill="#6583FE"/>
<path d="M22.5194 47.8838C22.1146 47.8838 21.7214 47.6789 21.5041 47.3123C21.1797 46.765 21.3712 46.0647 21.9311 45.7478L21.9616 45.7306C22.522 45.4133 23.2387 45.6008 23.5628 46.1479C23.8872 46.6951 23.6957 47.3954 23.1358 47.7123L23.1053 47.7295C22.9207 47.8341 22.7186 47.8838 22.5194 47.8838Z" fill="#6583FE"/>
<path d="M94.1118 54.7588C93.4645 54.7588 92.9399 54.2463 92.9399 53.6138V53.5795C92.9399 52.947 93.4645 52.4346 94.1118 52.4346C94.7592 52.4346 95.2837 52.947 95.2837 53.5795V53.6138C95.2837 54.2461 94.7592 54.7588 94.1118 54.7588Z" fill="#6583FE"/>
<path d="M94.1118 61.1211C93.4645 61.1211 92.9399 60.6086 92.9399 59.9761V59.9418C92.9399 59.3093 93.4645 58.7969 94.1118 58.7969C94.7592 58.7969 95.2837 59.3093 95.2837 59.9418V59.9761C95.2837 60.6086 94.7592 61.1211 94.1118 61.1211Z" fill="#6583FE"/>
<path d="M91.3064 56.3407C91.1069 56.3407 90.9051 56.2911 90.7204 56.1864L90.69 56.1692C90.1298 55.8523 89.9386 55.1521 90.2629 54.6048C90.5873 54.0573 91.3047 53.8707 91.8642 54.1876L91.8947 54.2047C92.4548 54.5217 92.6461 55.2219 92.3217 55.7692C92.1044 56.1358 91.7109 56.3407 91.3064 56.3407Z" fill="#6583FE"/>
<path d="M96.946 59.5215C96.7466 59.5215 96.5448 59.4718 96.3601 59.3672L96.3296 59.35C95.7695 59.0331 95.5782 58.3328 95.9026 57.7856C96.2267 57.238 96.9441 57.0512 97.5038 57.3683L97.5343 57.3855C98.0944 57.7024 98.2857 58.4027 97.9613 58.95C97.7441 59.3168 97.3503 59.5215 96.946 59.5215Z" fill="#6583FE"/>
<path d="M91.2782 59.5224C90.8734 59.5224 90.4801 59.3175 90.2629 58.9509C89.9385 58.4036 90.13 57.7034 90.6899 57.3864L90.7204 57.3693C91.2805 57.0521 91.9977 57.2392 92.3216 57.7865C92.646 58.3338 92.4545 59.034 91.8946 59.3509L91.8641 59.3681C91.6795 59.473 91.4774 59.5224 91.2782 59.5224Z" fill="#6583FE"/>
<path d="M96.9178 56.3408C96.5131 56.3408 96.1198 56.1359 95.9025 55.7693C95.5782 55.222 95.7696 54.5218 96.3296 54.2048L96.36 54.1877C96.9202 53.8703 97.6371 54.0578 97.9613 54.6049C98.2856 55.1522 98.0942 55.8524 97.5342 56.1693L97.5038 56.1865C97.3188 56.2912 97.1168 56.3408 96.9178 56.3408Z" fill="#6583FE"/>
<path d="M94.1122 44.6044C93.4649 44.6044 92.9403 44.0919 92.9403 43.4594C92.9403 42.6598 92.2745 42.0092 91.4561 42.0092C90.8087 42.0092 90.2842 41.4968 90.2842 40.8643C90.2842 40.2318 90.8087 39.7194 91.4561 39.7194C92.2745 39.7194 92.9403 39.0686 92.9403 38.269C92.9403 37.6365 93.4649 37.124 94.1122 37.124C94.7596 37.124 95.2841 37.6365 95.2841 38.269C95.2841 39.0686 95.95 39.7194 96.7684 39.7194C97.4157 39.7194 97.9403 40.2318 97.9403 40.8643C97.9403 41.4968 97.4157 42.0092 96.7684 42.0092C95.95 42.0092 95.2841 42.6598 95.2841 43.4594C95.2841 44.0919 94.7596 44.6044 94.1122 44.6044Z" fill="#6583FE"/>
<path d="M24.1503 67.1647C23.503 67.1647 22.9784 66.6522 22.9784 66.0197C22.9784 65.2201 22.3126 64.5695 21.4941 64.5695C20.8468 64.5695 20.3223 64.0571 20.3223 63.4246C20.3223 62.7922 20.8468 62.2797 21.4941 62.2797C22.3126 62.2797 22.9784 61.6291 22.9784 60.8295C22.9784 60.197 23.503 59.6846 24.1503 59.6846C24.7977 59.6846 25.3222 60.197 25.3222 60.8295C25.3222 61.6291 25.9883 62.2797 26.8067 62.2797C27.4541 62.2797 27.9786 62.7922 27.9786 63.4246C27.9786 64.0571 27.4541 64.5695 26.8067 64.5695C25.9883 64.5695 25.3222 65.2201 25.3222 66.0197C25.3222 66.6522 24.7977 67.1647 24.1503 67.1647Z" fill="#6583FE"/>
</g>
<defs>
<linearGradient id="paint0_linear" x1="-5.92885e-05" y1="58.6208" x2="120" y2="58.6208" gradientUnits="userSpaceOnUse">
<stop stop-color="#D2DEFF" stop-opacity="0"/>
<stop offset="1" stop-color="#B7C5FF"/>
</linearGradient>
<clipPath id="clip0">
<rect width="120" height="117.241" fill="white"/>
</clipPath>
</defs>
</svg>
