<svg width="244" height="244" viewBox="0 0 244 244" fill="none" xmlns="http://www.w3.org/2000/svg">
<g clip-path="url(#clip0)">
<path d="M2.33317 154.53C10.6482 236.914 141.688 234.183 202.872 219.468C242.174 210.016 244.617 191.126 243.907 150.843C243.45 124.877 245.548 56.1381 228.655 34.5031C202.707 1.271 179.461 22.1135 147.327 32.9615C106.11 46.8756 90.0493 22.0329 50.8344 22.773C-6.65861 23.8582 -1.95827 112.01 2.33317 154.53Z" fill="url(#paint0_linear)"/>
<g opacity="0.1">
<path opacity="0.1" d="M198.671 126.071C182.606 114.749 148.929 82.7122 116.199 82.7122C107.113 82.7122 97.9541 85.1832 89.1186 88.9919C90.1914 85.7326 90.7794 82.2537 90.7794 78.6352C90.7794 60.3447 75.9521 45.517 57.6612 45.517C39.3707 45.517 24.543 60.3443 24.543 78.6352C24.543 95.2896 36.8378 109.068 52.8455 111.401C45.181 117.221 38.6287 122.613 33.722 126.071C31.0147 127.979 31.0147 131.976 33.722 133.885C49.787 145.207 83.4647 177.244 116.194 177.244C120.266 177.244 124.352 176.747 128.418 175.857V203.249C128.418 205.881 130.551 208.014 133.183 208.014H187.254C189.886 208.014 192.019 205.881 192.019 203.249V172.83C192.019 170.198 189.886 168.064 187.254 168.064H149.462C169.959 157.703 188.116 141.324 198.671 133.885C201.379 131.976 201.379 127.979 198.671 126.071Z" fill="#2626BC"/>
<path opacity="0.1" d="M117.198 188.111H108.342C107.026 188.111 105.959 189.178 105.959 190.494C105.959 191.81 107.026 192.877 108.342 192.877H117.198C118.514 192.877 119.581 191.81 119.581 190.494C119.581 189.178 118.514 188.111 117.198 188.111Z" fill="#2626BC"/>
<path opacity="0.1" d="M117.198 196.871H89.2793C87.9635 196.871 86.8965 197.938 86.8965 199.254C86.8965 200.57 87.9635 201.637 89.2793 201.637H117.198C118.514 201.637 119.581 200.57 119.581 199.254C119.581 197.938 118.514 196.871 117.198 196.871Z" fill="#2626BC"/>
<path opacity="0.1" d="M117.198 205.631H89.2793C87.9635 205.631 86.8965 206.697 86.8965 208.014C86.8965 209.33 87.9635 210.396 89.2793 210.396H117.198C118.514 210.396 119.581 209.33 119.581 208.014C119.581 206.698 118.514 205.631 117.198 205.631Z" fill="#2626BC"/>
</g>
<path d="M57.6617 99.8394C75.9524 99.8394 90.7799 85.0118 90.7799 66.7211C90.7799 48.4304 75.9524 33.6029 57.6617 33.6029C39.371 33.6029 24.5435 48.4304 24.5435 66.7211C24.5435 85.0118 39.371 99.8394 57.6617 99.8394Z" fill="#6583FE"/>
<path d="M73.0722 59.7438H64.6394V51.3105C64.6394 48.6785 62.5058 46.5449 59.8738 46.5449H55.4503C52.8183 46.5449 50.6847 48.6785 50.6847 51.3105V59.7438H42.251C39.6189 59.7438 37.4854 61.8774 37.4854 64.5094V68.9329C37.4854 71.5649 39.6189 73.6985 42.251 73.6985H50.6838V82.1313C50.6838 84.7633 52.8173 86.8969 55.4494 86.8969H59.8728C62.5049 86.8969 64.6385 84.7633 64.6385 82.1313V73.6985H73.0712C75.7033 73.6985 77.8369 71.5649 77.8369 68.9329V64.5094C77.8378 61.8774 75.7038 59.7438 73.0722 59.7438Z" fill="white"/>
<path d="M116.199 70.7981C83.4662 70.7981 49.7876 102.835 33.7227 114.157C31.0153 116.065 31.0153 120.062 33.7227 121.97C49.7876 133.293 83.4653 165.329 116.195 165.329C148.928 165.329 182.606 133.293 198.671 121.97C201.379 120.062 201.379 116.066 198.671 114.157C182.606 102.835 148.929 70.7981 116.199 70.7981Z" fill="white"/>
<path d="M151.313 123.563C154.297 104.165 140.991 86.0203 121.593 83.0359C102.195 80.0516 84.0503 93.3577 81.066 112.756C78.0816 132.154 91.3877 150.299 110.786 153.283C130.184 156.267 148.329 142.961 151.313 123.563Z" fill="#6583FE"/>
<path d="M136.71 121.355C138.57 110.019 130.889 99.321 119.553 97.4604C108.217 95.5998 97.5187 103.281 95.6581 114.617C93.7974 125.953 101.479 136.652 112.815 138.512C124.151 140.373 134.849 132.691 136.71 121.355Z" fill="#6583FE"/>
<path d="M116.197 141.243C103.416 141.243 93.0181 130.845 93.0181 118.064C93.0181 105.283 103.416 94.8842 116.197 94.8842C128.978 94.8842 139.376 105.282 139.376 118.064C139.376 130.845 128.979 141.243 116.197 141.243ZM116.197 99.6503C106.044 99.6503 97.7837 107.911 97.7837 118.064C97.7837 128.218 106.044 136.478 116.197 136.478C126.35 136.478 134.611 128.218 134.611 118.064C134.611 107.911 126.35 99.6503 116.197 99.6503Z" fill="#0000CC"/>
<path d="M129.042 114.388C134.106 114.388 138.211 110.283 138.211 105.219C138.211 100.155 134.106 96.0503 129.042 96.0503C123.978 96.0503 119.873 100.155 119.873 105.219C119.873 110.283 123.978 114.388 129.042 114.388Z" fill="white"/>
<path d="M135.725 113.819C138.445 113.819 140.65 111.615 140.65 108.895C140.65 106.175 138.445 103.97 135.725 103.97C133.005 103.97 130.8 106.175 130.8 108.895C130.8 111.615 133.005 113.819 135.725 113.819Z" fill="white"/>
<path d="M187.254 196.1H133.184C130.552 196.1 128.418 193.966 128.418 191.334V160.915C128.418 158.283 130.552 156.149 133.184 156.149H187.254C189.886 156.149 192.02 158.283 192.02 160.915V191.334C192.02 193.966 189.886 196.1 187.254 196.1Z" fill="white"/>
<path d="M178.116 169.003H169.26C167.943 169.003 166.877 167.936 166.877 166.62C166.877 165.304 167.943 164.237 169.26 164.237H178.116C179.432 164.237 180.499 165.304 180.499 166.62C180.499 167.936 179.432 169.003 178.116 169.003Z" fill="#0000CC"/>
<path d="M178.116 177.762H150.197C148.881 177.762 147.814 176.695 147.814 175.38C147.814 174.064 148.881 172.997 150.197 172.997H178.116C179.432 172.997 180.499 174.064 180.499 175.38C180.499 176.696 179.432 177.762 178.116 177.762Z" fill="#0000CC"/>
<path d="M178.116 186.522H150.197C148.881 186.522 147.814 185.455 147.814 184.14C147.814 182.824 148.881 181.757 150.197 181.757H178.116C179.432 181.757 180.499 182.824 180.499 184.14C180.499 185.455 179.432 186.522 178.116 186.522Z" fill="#0000CC"/>
<path d="M200.044 112.21C197.182 110.192 193.754 107.508 189.784 104.4C171.481 90.0708 143.821 68.4153 116.2 68.4153C108.257 68.4153 100.312 70.2077 92.5871 73.0995C92.9673 71.004 93.1632 68.8714 93.1632 66.7216C93.1632 47.1463 77.2379 31.2206 57.6622 31.2206C38.0864 31.2206 22.1606 47.1463 22.1606 66.7216C22.1606 78.8859 28.284 90.0694 38.5406 96.6374C38.9385 96.8919 39.3831 97.0139 39.823 97.0139C40.6084 97.0139 41.3771 96.6259 41.8317 95.9154C42.5413 94.8074 42.2182 93.3334 41.1102 92.6238C32.2285 86.936 26.9263 77.2532 26.9263 66.7212C26.9263 49.7736 40.7142 35.9857 57.6617 35.9857C74.6092 35.9857 88.3971 49.7736 88.3971 66.7212C88.3971 69.6468 87.9825 72.5333 87.1752 75.3121C70.1081 82.8742 54.4125 95.16 42.609 104.401C38.6392 107.508 35.2113 110.192 32.35 112.209C30.4462 113.551 29.3096 115.739 29.3096 118.063C29.3096 120.387 30.4462 122.576 32.35 123.917C35.2113 125.934 38.6397 128.618 42.609 131.726C60.9123 146.056 88.573 167.712 116.195 167.712C119.48 167.712 122.765 167.402 126.036 166.837V191.334C126.036 195.276 129.242 198.482 133.184 198.482H158.605C159.921 198.482 160.988 197.416 160.988 196.099C160.988 194.783 159.921 193.716 158.605 193.716H133.184C131.87 193.716 130.801 192.648 130.801 191.334V160.915C130.801 159.601 131.87 158.532 133.184 158.532H187.255C188.569 158.532 189.638 159.601 189.638 160.915V191.334C189.638 192.648 188.569 193.716 187.255 193.716H172.473C171.156 193.716 170.09 194.783 170.09 196.099C170.09 197.416 171.156 198.482 172.473 198.482H187.255C191.196 198.482 194.403 195.276 194.403 191.334V160.915C194.403 156.973 191.196 153.766 187.255 153.766H158.757C170.515 146.805 181.184 138.46 189.785 131.726C193.754 128.619 197.183 125.935 200.044 123.917C201.948 122.576 203.085 120.387 203.085 118.063C203.085 115.74 201.948 113.551 200.044 112.21ZM197.298 120.023C194.339 122.109 190.867 124.827 186.846 127.975C176.584 136.009 163.291 146.402 148.894 153.767H133.184C129.241 153.767 126.035 156.974 126.035 160.916V161.999C122.754 162.61 119.467 162.947 116.194 162.947C90.2162 162.947 63.3347 141.901 45.5465 127.975C41.5262 124.827 38.0545 122.109 35.095 120.023C34.4464 119.566 34.0747 118.852 34.0747 118.064C34.0747 117.276 34.4464 116.562 35.095 116.105C38.0545 114.02 41.5262 111.302 45.5465 108.154C63.3352 94.2274 90.2176 73.1814 116.199 73.1814C142.177 73.1814 169.058 94.2269 186.846 108.153C190.866 111.301 194.339 114.02 197.299 116.105C197.947 116.562 198.32 117.276 198.32 118.064C198.32 118.852 197.947 119.566 197.298 120.023Z" fill="#0000CC"/>
<path d="M117.197 176.197H108.342C107.026 176.197 105.959 177.264 105.959 178.58C105.959 179.896 107.026 180.963 108.342 180.963H117.198C118.514 180.963 119.581 179.896 119.581 178.58C119.58 177.264 118.514 176.197 117.197 176.197Z" fill="#0000CC"/>
<path d="M117.197 184.957H89.2793C87.9635 184.957 86.8965 186.023 86.8965 187.34C86.8965 188.656 87.9635 189.722 89.2793 189.722H117.198C118.514 189.722 119.581 188.656 119.581 187.34C119.58 186.024 118.514 184.957 117.197 184.957Z" fill="#0000CC"/>
<path d="M117.197 193.717H89.2793C87.9635 193.717 86.8965 194.784 86.8965 196.1C86.8965 197.416 87.9635 198.483 89.2793 198.483H117.198C118.514 198.483 119.581 197.416 119.581 196.1C119.58 194.784 118.514 193.717 117.197 193.717Z" fill="#0000CC"/>
<path d="M46.5581 172.021C45.2423 172.021 44.1753 170.954 44.1753 169.638C44.1753 167.974 42.8214 166.62 41.1572 166.62C39.8414 166.62 38.7744 165.554 38.7744 164.237C38.7744 162.921 39.8414 161.854 41.1572 161.854C42.8214 161.854 44.1753 160.5 44.1753 158.836C44.1753 157.52 45.2423 156.453 46.5581 156.453C47.8739 156.453 48.9409 157.52 48.9409 158.836C48.9409 160.5 50.2948 161.854 51.9595 161.854C53.2753 161.854 54.3423 162.921 54.3423 164.237C54.3423 165.554 53.2753 166.62 51.9595 166.62C50.2953 166.62 48.9409 167.974 48.9409 169.638C48.9409 170.954 47.8739 172.021 46.5581 172.021Z" fill="#6583FE"/>
<path d="M214.055 154.74C212.739 154.74 211.672 153.674 211.672 152.358C211.672 150.694 210.318 149.34 208.654 149.34C207.338 149.34 206.271 148.273 206.271 146.957C206.271 145.641 207.338 144.574 208.654 144.574C210.318 144.574 211.672 143.22 211.672 141.556C211.672 140.24 212.739 139.173 214.055 139.173C215.371 139.173 216.438 140.24 216.438 141.556C216.438 143.22 217.792 144.574 219.457 144.574C220.773 144.574 221.839 145.641 221.839 146.957C221.839 148.273 220.773 149.34 219.457 149.34C217.792 149.34 216.438 150.694 216.438 152.358C216.438 153.674 215.371 154.74 214.055 154.74Z" fill="#6583FE"/>
<path d="M143.612 63.5059C142.295 63.5059 141.229 62.4393 141.229 61.123C141.229 59.4589 139.875 58.105 138.211 58.105C136.894 58.105 135.828 57.0384 135.828 55.7222C135.828 54.4059 136.894 53.3393 138.211 53.3393C139.875 53.3393 141.229 51.985 141.229 50.3208C141.229 49.0045 142.295 47.938 143.612 47.938C144.928 47.938 145.994 49.0045 145.994 50.3208C145.994 51.985 147.349 53.3393 149.013 53.3393C150.329 53.3393 151.396 54.4059 151.396 55.7222C151.396 57.0384 150.329 58.105 149.013 58.105C147.349 58.105 145.994 59.4589 145.994 61.123C145.994 62.4393 144.927 63.5059 143.612 63.5059Z" fill="#6583FE"/>
<path d="M57.6616 179.307C56.3458 179.307 55.2788 178.241 55.2788 176.924V176.853C55.2788 175.537 56.3458 174.47 57.6616 174.47C58.9774 174.47 60.0444 175.537 60.0444 176.853V176.924C60.0444 178.241 58.9774 179.307 57.6616 179.307Z" fill="#6583FE"/>
<path d="M57.6616 192.548C56.3458 192.548 55.2788 191.481 55.2788 190.165V190.094C55.2788 188.777 56.3458 187.711 57.6616 187.711C58.9774 187.711 60.0444 188.777 60.0444 190.094V190.165C60.0444 191.481 58.9774 192.548 57.6616 192.548Z" fill="#6583FE"/>
<path d="M51.9573 182.6C51.5574 182.6 51.1528 182.499 50.7806 182.287L50.7187 182.252C49.5749 181.601 49.1756 180.146 49.8265 179.002C50.478 177.859 51.9334 177.461 53.0762 178.11L53.1382 178.146C54.2819 178.797 54.6813 180.252 54.0303 181.395C53.5909 182.167 52.7855 182.6 51.9573 182.6Z" fill="#6583FE"/>
<path d="M63.4238 189.221C63.0187 189.221 62.6084 189.117 62.2319 188.899L62.1699 188.864C61.0309 188.204 60.6421 186.747 61.3016 185.608C61.9607 184.468 63.4176 184.079 64.558 184.739L64.6199 184.775C65.7589 185.435 66.1478 186.892 65.4882 188.031C65.0465 188.794 64.2463 189.221 63.4238 189.221Z" fill="#6583FE"/>
<path d="M51.8995 189.22C51.0755 189.22 50.2744 188.793 49.8331 188.028C49.1755 186.888 49.5667 185.431 50.7066 184.773L50.7686 184.737C51.9081 184.079 53.3654 184.471 54.023 185.611C54.6807 186.751 54.2894 188.208 53.1495 188.865L53.0876 188.901C52.7125 189.117 52.3031 189.22 51.8995 189.22Z" fill="#6583FE"/>
<path d="M63.3662 182.6C62.5389 182.6 61.7349 182.168 61.295 181.398C60.6422 180.256 61.0391 178.8 62.1819 178.148L62.2439 178.112C63.3857 177.459 64.8421 177.856 65.495 178.999C66.1479 180.141 65.7509 181.596 64.6081 182.249L64.5461 182.285C64.1735 182.498 63.7674 182.6 63.3662 182.6Z" fill="#6583FE"/>
<path d="M117.197 42.3436C115.881 42.3436 114.814 41.277 114.814 39.9608V39.8898C114.814 38.5735 115.881 37.507 117.197 37.507C118.513 37.507 119.58 38.5735 119.58 39.8898V39.9608C119.58 41.2766 118.513 42.3436 117.197 42.3436Z" fill="#6583FE"/>
<path d="M117.197 55.5844C115.881 55.5844 114.814 54.5179 114.814 53.2016V53.1306C114.814 51.8143 115.881 50.7478 117.197 50.7478C118.513 50.7478 119.58 51.8143 119.58 53.1306V53.2016C119.58 54.5174 118.513 55.5844 117.197 55.5844Z" fill="#6583FE"/>
<path d="M111.493 45.6366C111.088 45.6366 110.677 45.5332 110.301 45.3154L110.239 45.2796C109.1 44.6201 108.711 43.1627 109.37 42.0238C110.03 40.8843 111.487 40.4954 112.627 41.1555L112.689 41.1912C113.828 41.8508 114.217 43.3081 113.557 44.4471C113.115 45.2101 112.315 45.6366 111.493 45.6366Z" fill="#6583FE"/>
<path d="M122.96 52.2565C122.554 52.2565 122.144 52.1531 121.768 51.9353L121.706 51.8995C120.567 51.24 120.178 49.7827 120.838 48.6437C121.497 47.5042 122.955 47.1158 124.093 47.7754L124.155 47.8111C125.294 48.4707 125.683 49.928 125.024 51.067C124.582 51.8304 123.782 52.2565 122.96 52.2565Z" fill="#6583FE"/>
<path d="M111.435 52.2566C110.612 52.2566 109.812 51.83 109.37 51.0671C108.711 49.9281 109.1 48.4707 110.239 47.8112L110.301 47.7754C111.441 47.1149 112.898 47.5048 113.557 48.6437C114.217 49.7827 113.828 51.2401 112.689 51.8996L112.627 51.9354C112.251 52.1531 111.841 52.2566 111.435 52.2566Z" fill="#6583FE"/>
<path d="M122.902 45.6366C122.08 45.6366 121.28 45.2101 120.838 44.4471C120.178 43.3081 120.567 41.8508 121.706 41.1912L121.768 41.1555C122.909 40.4955 124.366 40.8853 125.025 42.0238C125.684 43.1628 125.295 44.6201 124.156 45.2797L124.094 45.3154C123.718 45.5332 123.307 45.6366 122.902 45.6366Z" fill="#6583FE"/>
</g>
<defs>
<linearGradient id="paint0_linear" x1="45.9996" y1="216.216" x2="211.92" y2="18.4792" gradientUnits="userSpaceOnUse">
<stop stop-color="#D2DEFF" stop-opacity="0"/>
<stop offset="1" stop-color="#25B9A9" stop-opacity="0.59"/>
</linearGradient>
<clipPath id="clip0">
<rect width="244" height="244" fill="white"/>
</clipPath>
</defs>
</svg>
