<svg width="245" height="223" viewBox="0 0 245 223" fill="none" xmlns="http://www.w3.org/2000/svg">
<path d="M7.69167 133.206C16.6528 163.833 42.4831 226.308 86.1309 220.7C129.908 215.075 112.812 158.625 152.888 150.888C170.529 147.481 182.487 178.014 200.168 177.064C222.939 175.841 234.53 153.3 240.893 134.35C254.386 94.1705 234.18 26.0371 186.889 14.2374C145.619 3.94021 140.792 54.3633 104.909 39.7174C84.7399 31.4855 86.7549 6.9027 62.1908 1.9424C-12.1222 -13.0634 -4.23246 92.4536 7.69167 133.206Z" fill="url(#paint0_linear)"/>
<g opacity="0.1">
<path opacity="0.1" d="M152.022 107.254L142.716 102.13C146.942 99.1285 149.702 94.1984 149.702 88.6208C149.702 85.5583 148.871 82.6905 147.421 80.2305C143.89 74.2376 141.994 67.4235 141.74 60.4721L140.671 31.2582C140.502 26.63 136.701 22.9656 132.07 22.9656C127.439 22.9656 123.637 26.63 123.468 31.2582L122.741 51.1286C117.661 39.2653 105.883 30.952 92.1607 30.952C73.7953 30.952 58.9067 45.8405 58.9067 64.206C58.9067 82.5714 73.7948 97.4599 92.1607 97.4599C100.734 97.4599 108.548 94.2137 114.445 88.8859C114.532 94.3539 117.265 99.1764 121.423 102.13L112.117 107.254C109.385 108.758 107.687 111.631 107.687 114.75V213.95C107.687 218.676 111.519 222.508 116.245 222.508H147.893C152.619 222.508 156.451 218.676 156.451 213.95V114.75C156.452 111.631 154.755 108.758 152.022 107.254Z" fill="#2626BC"/>
<g opacity="0.1">
<path opacity="0.1" d="M94.0058 114.328H85.1135C83.7923 114.328 82.7209 113.256 82.7209 111.935C82.7209 110.614 83.7923 109.542 85.1135 109.542H94.0058C95.327 109.542 96.3984 110.614 96.3984 111.935C96.3984 113.256 95.327 114.328 94.0058 114.328Z" fill="#2626BC"/>
</g>
<g opacity="0.1">
<path opacity="0.1" d="M94.0058 123.124H65.9729C64.6517 123.124 63.5803 122.052 63.5803 120.731C63.5803 119.41 64.6517 118.339 65.9729 118.339H94.0058C95.327 118.339 96.3984 119.41 96.3984 120.731C96.3984 122.052 95.327 123.124 94.0058 123.124Z" fill="#2626BC"/>
</g>
<g opacity="0.1">
<path opacity="0.1" d="M94.0058 131.919H65.9729C64.6517 131.919 63.5803 130.848 63.5803 129.527C63.5803 128.205 64.6517 127.134 65.9729 127.134H94.0058C95.327 127.134 96.3984 128.205 96.3984 129.527C96.3984 130.848 95.327 131.919 94.0058 131.919Z" fill="#2626BC"/>
</g>
</g>
<path d="M142.717 90.1664C146.943 87.1651 149.703 82.235 149.703 76.6574C149.703 73.5949 148.871 70.7272 147.422 68.2671C143.891 62.2742 141.995 55.4601 141.74 48.5087L140.672 19.2949C140.502 14.6667 136.701 11.0022 132.07 11.0022C127.439 11.0022 123.638 14.6667 123.469 19.2949L122.4 48.5087C122.146 55.4596 120.25 62.2742 116.719 68.2671C115.27 70.7272 114.438 73.5949 114.438 76.6574C114.438 82.235 117.198 87.1651 121.424 90.1664L112.118 95.2903C109.386 96.7953 107.688 99.6673 107.688 102.787V201.986C107.688 206.713 111.519 210.544 116.246 210.544H147.894C152.62 210.544 156.452 206.713 156.452 201.986V102.787C156.452 99.6678 154.754 96.7957 152.021 95.2908L142.717 90.1664Z" fill="white"/>
<path d="M142.717 90.1664C146.943 87.1651 149.703 82.235 149.703 76.6574C149.703 73.5949 148.871 70.7272 147.422 68.2671C143.891 62.2742 141.995 55.4601 141.74 48.5087L140.672 19.2949C140.502 14.6667 136.701 11.0022 132.07 11.0022C127.439 11.0022 123.638 14.6667 123.469 19.2949L122.4 48.5087C122.146 55.4596 120.25 62.2742 116.719 68.2671C115.27 70.7272 114.438 73.5949 114.438 76.6574C114.438 82.235 117.198 87.1651 121.424 90.1664H142.717Z" fill="white"/>
<path d="M107.688 112.05H156.452V189.962H107.688V112.05Z" fill="white"/>
<path d="M107.688 112.05H156.452V130.957H107.688V112.05Z" fill="#6583FE"/>
<path d="M156.452 123.709H122.385C121.063 123.709 119.992 122.638 119.992 121.317C119.992 119.996 121.063 118.924 122.385 118.924H156.452V123.709Z" fill="#0000CC"/>
<path d="M156.452 147.417H122.385C121.063 147.417 119.992 146.346 119.992 145.024C119.992 143.703 121.063 142.632 122.385 142.632H156.452V147.417Z" fill="#0000CC"/>
<path d="M156.452 156.399H134.348C133.026 156.399 131.955 155.328 131.955 154.007C131.955 152.685 133.026 151.614 134.348 151.614H156.452V156.399Z" fill="#0000CC"/>
<path d="M156.452 165.381H134.348C133.026 165.381 131.955 164.31 131.955 162.989C131.955 161.668 133.026 160.596 134.348 160.596H156.452V165.381Z" fill="#0000CC"/>
<path d="M119.594 184.54C118.981 184.54 118.369 184.306 117.902 183.839C116.967 182.904 116.967 181.39 117.902 180.455L120.694 177.664C121.628 176.73 123.143 176.73 124.077 177.664L126.868 180.455C127.803 181.39 127.803 182.905 126.868 183.839C125.934 184.773 124.419 184.773 123.485 183.839L122.385 182.739L121.285 183.839C120.818 184.306 120.206 184.54 119.594 184.54Z" fill="#0000CC"/>
<path d="M83.2949 151.794C81.9737 151.794 80.9023 150.723 80.9023 149.402V149.33C80.9023 148.009 81.9737 146.938 83.2949 146.938C84.6161 146.938 85.6875 148.009 85.6875 149.33V149.402C85.6875 150.723 84.6161 151.794 83.2949 151.794Z" fill="#6583FE"/>
<path d="M83.2949 165.09C81.9737 165.09 80.9023 164.018 80.9023 162.697V162.625C80.9023 161.304 81.9737 160.233 83.2949 160.233C84.6161 160.233 85.6875 161.304 85.6875 162.625V162.697C85.6875 164.018 84.6161 165.09 83.2949 165.09Z" fill="#6583FE"/>
<path d="M77.5666 155.1C77.1618 155.1 76.7521 154.998 76.376 154.781L76.3138 154.745C75.1682 154.087 74.774 152.624 75.4329 151.479C76.0913 150.333 77.5537 149.939 78.6997 150.598L78.7619 150.633C79.9075 151.292 80.3018 152.755 79.6429 153.9C79.2002 154.67 78.3949 155.1 77.5666 155.1Z" fill="#6583FE"/>
<path d="M89.0807 161.748C88.6749 161.748 88.2644 161.645 87.8878 161.427L87.8256 161.391C86.6809 160.732 86.2881 159.268 86.9484 158.124C87.6083 156.979 89.0711 156.586 90.2162 157.247L90.2784 157.282C91.423 157.942 91.8159 159.406 91.1555 160.55C90.7124 161.318 89.908 161.748 89.0807 161.748Z" fill="#6583FE"/>
<path d="M77.5092 161.748C76.6833 161.748 75.8798 161.32 75.4362 160.553C74.774 159.41 75.1645 157.946 76.3081 157.284L76.3703 157.248C77.5149 156.586 78.9777 156.977 79.6395 158.12C80.3018 159.263 79.9113 160.727 78.7677 161.389L78.7055 161.425C78.3284 161.644 77.9159 161.748 77.5092 161.748Z" fill="#6583FE"/>
<path d="M89.0231 155.1C88.1934 155.1 87.3871 154.668 86.9449 153.897C86.2879 152.75 86.6851 151.289 87.8316 150.632L87.8938 150.596C89.0399 149.938 90.5022 150.335 91.1592 151.482C91.8162 152.629 91.4191 154.091 90.2725 154.748L90.2103 154.784C89.8352 154.998 89.426 155.1 89.0231 155.1Z" fill="#6583FE"/>
<path d="M187.711 183.706C186.39 183.706 185.319 182.635 185.319 181.314V181.242C185.319 179.921 186.39 178.849 187.711 178.849C189.033 178.849 190.104 179.921 190.104 181.242V181.314C190.104 182.635 189.033 183.706 187.711 183.706Z" fill="#6583FE"/>
<path d="M187.711 197.001C186.39 197.001 185.319 195.93 185.319 194.609V194.537C185.319 193.216 186.39 192.145 187.711 192.145C189.033 192.145 190.104 193.216 190.104 194.537V194.609C190.104 195.93 189.033 197.001 187.711 197.001Z" fill="#6583FE"/>
<path d="M181.983 187.012C181.576 187.012 181.164 186.909 180.787 186.69L180.725 186.654C179.581 185.992 179.191 184.528 179.853 183.385C180.515 182.241 181.98 181.851 183.122 182.513L183.184 182.549C184.328 183.211 184.719 184.674 184.056 185.818C183.613 186.584 182.809 187.012 181.983 187.012Z" fill="#6583FE"/>
<path d="M193.497 193.66C193.09 193.66 192.678 193.556 192.301 193.338L192.239 193.302C191.095 192.639 190.704 191.176 191.367 190.032C192.029 188.889 193.494 188.499 194.636 189.161L194.698 189.196C195.842 189.859 196.232 191.322 195.57 192.466C195.126 193.232 194.323 193.66 193.497 193.66Z" fill="#6583FE"/>
<path d="M181.926 193.66C181.099 193.66 180.296 193.232 179.853 192.465C179.191 191.322 179.582 189.858 180.725 189.196L180.787 189.16C181.931 188.498 183.394 188.888 184.056 190.032C184.718 191.175 184.327 192.639 183.184 193.301L183.122 193.337C182.745 193.556 182.332 193.66 181.926 193.66Z" fill="#6583FE"/>
<path d="M193.439 187.012C192.613 187.012 191.81 186.584 191.366 185.818C190.704 184.674 191.095 183.21 192.238 182.549L192.3 182.513C193.445 181.851 194.908 182.241 195.57 183.385C196.232 184.528 195.841 185.992 194.698 186.654L194.636 186.69C194.258 186.908 193.846 187.012 193.439 187.012Z" fill="#6583FE"/>
<path d="M64.3312 182.966C63.01 182.966 61.9386 181.894 61.9386 180.573C61.9386 178.902 60.5792 177.542 58.9077 177.542C57.5865 177.542 56.5151 176.471 56.5151 175.15C56.5151 173.829 57.5865 172.757 58.9077 172.757C60.5787 172.757 61.9386 171.398 61.9386 169.727C61.9386 168.406 63.01 167.334 64.3312 167.334C65.6524 167.334 66.7238 168.406 66.7238 169.727C66.7238 171.398 68.0833 172.757 69.7542 172.757C71.0754 172.757 72.1468 173.829 72.1468 175.15C72.1468 176.471 71.0754 177.542 69.7542 177.542C68.0833 177.542 66.7238 178.902 66.7238 180.573C66.7238 181.894 65.6524 182.966 64.3312 182.966Z" fill="#6583FE"/>
<path d="M167.804 60.5506C166.483 60.5506 165.412 59.4792 165.412 58.158C165.412 56.4871 164.052 55.1276 162.381 55.1276C161.06 55.1276 159.989 54.0562 159.989 52.735C159.989 51.4138 161.06 50.3424 162.381 50.3424C164.052 50.3424 165.412 48.983 165.412 47.3115C165.412 45.9903 166.483 44.9189 167.804 44.9189C169.126 44.9189 170.197 45.9903 170.197 47.3115C170.197 48.9825 171.556 50.3424 173.227 50.3424C174.549 50.3424 175.62 51.4138 175.62 52.735C175.62 54.0562 174.549 55.1276 173.227 55.1276C171.556 55.1276 170.197 56.4871 170.197 58.158C170.197 59.4792 169.126 60.5506 167.804 60.5506Z" fill="#6583FE"/>
<path d="M178.651 165.914C177.329 165.914 176.258 164.843 176.258 163.521C176.258 161.85 174.899 160.491 173.228 160.491C171.906 160.491 170.835 159.42 170.835 158.098C170.835 156.777 171.906 155.706 173.228 155.706C174.899 155.706 176.258 154.346 176.258 152.675C176.258 151.354 177.329 150.283 178.651 150.283C179.973 150.283 181.044 151.354 181.044 152.675C181.044 154.346 182.403 155.706 184.074 155.706C185.396 155.706 186.467 156.777 186.467 158.098C186.467 159.42 185.396 160.491 184.074 160.491C182.403 160.491 181.044 161.85 181.044 163.521C181.044 164.843 179.973 165.914 178.651 165.914Z" fill="#6583FE"/>
<path d="M92.1617 85.4969C110.527 85.4969 125.416 70.6086 125.416 52.243C125.416 33.8773 110.527 18.989 92.1617 18.989C73.796 18.989 58.9077 33.8773 58.9077 52.243C58.9077 70.6086 73.796 85.4969 92.1617 85.4969Z" fill="#6583FE"/>
<path d="M107.636 45.2366H99.1682V36.7693C99.1682 34.1264 97.0259 31.9841 94.383 31.9841H89.9415C87.2986 31.9841 85.1563 34.1264 85.1563 36.7693V45.2371H76.689C74.0461 45.2371 71.9038 47.3794 71.9038 50.0222V54.4638C71.9038 57.1067 74.0461 59.249 76.689 59.249H85.1563V67.7163C85.1563 70.3592 87.2986 72.5015 89.9415 72.5015H94.383C97.0259 72.5015 99.1682 70.3592 99.1682 67.7163V59.249H107.636C110.278 59.249 112.421 57.1067 112.421 54.4638V50.0222C112.421 47.3794 110.278 45.2366 107.636 45.2366Z" fill="white"/>
<path d="M153.177 93.1949L146.868 89.7209C150.188 86.2268 152.096 81.5531 152.096 76.6579C152.096 73.2748 151.192 69.9534 149.484 67.0531C146.226 61.5239 144.375 55.0816 144.132 48.4221L143.064 19.2078C142.847 13.2651 138.018 8.60962 132.071 8.60962C126.124 8.60962 121.295 13.2646 121.078 19.2073L120.653 30.8458C114.143 22.199 103.795 16.5965 92.1627 16.5965C72.5071 16.5965 56.5161 32.5871 56.5161 52.2431C56.5161 60.4276 59.3604 68.4217 64.5245 74.752C69.614 80.9913 76.7277 85.365 84.5547 87.0675C85.8477 87.3489 87.1205 86.5297 87.4014 85.2382C87.6823 83.9466 86.8636 82.6724 85.5721 82.3915C71.5085 79.3323 61.3013 66.6526 61.3013 52.2431C61.3013 35.2261 75.1457 21.3817 92.1627 21.3817C109.18 21.3817 123.024 35.2261 123.024 52.2431C123.024 66.7813 112.71 79.4855 98.4996 82.4503C97.2062 82.7202 96.3765 83.9878 96.6463 85.2812C96.8818 86.41 97.8766 87.1852 98.9863 87.1852C99.148 87.1852 99.3126 87.1685 99.4772 87.1345C104.327 86.1225 108.78 84.1223 112.654 81.3813C113.459 84.4989 115.047 87.3757 117.275 89.7204L110.965 93.1944C107.468 95.1195 105.296 98.795 105.296 102.787V157.763C105.296 159.085 106.368 160.156 107.689 160.156C109.01 160.156 110.082 159.085 110.082 157.763V102.787C110.082 100.54 111.305 98.4706 113.273 97.3862L122.04 92.559H125.374C126.696 92.559 127.767 91.4876 127.767 90.1664C127.767 88.8452 126.696 87.7738 125.374 87.7738H122.226C119.155 85.3449 117.226 81.7493 116.889 77.8714C123.66 71.3143 127.808 62.1483 127.808 52.2426C127.808 47.4718 126.859 42.9206 125.152 38.758L125.86 19.3824C125.983 16.0252 128.711 13.3953 132.071 13.3953C135.431 13.3953 138.159 16.0252 138.281 19.3824L139.349 48.5968C139.622 56.0482 141.701 63.2705 145.361 69.4821C146.636 71.6469 147.31 74.1285 147.31 76.6579C147.31 80.9923 145.305 85.0932 141.915 87.7743H138.729C137.408 87.7743 136.337 88.8457 136.337 90.1669C136.337 91.4881 137.408 92.5594 138.729 92.5594H142.101L150.868 97.3867C152.837 98.4706 154.06 100.54 154.06 102.787V201.987C154.06 205.386 151.294 208.152 147.894 208.152H116.246C112.846 208.152 110.081 205.386 110.081 201.987V171.689C110.081 170.368 109.01 169.296 107.689 169.296C106.367 169.296 105.296 170.368 105.296 171.689V201.987C105.296 208.025 110.208 212.937 116.246 212.937H147.894C153.932 212.937 158.845 208.025 158.845 201.987V102.787C158.845 98.7955 156.673 95.12 153.177 93.1949Z" fill="#0000CC"/>
<path d="M94.0058 97.5796H85.1135C83.7923 97.5796 82.7209 98.651 82.7209 99.9722C82.7209 101.293 83.7923 102.365 85.1135 102.365H94.0058C95.327 102.365 96.3984 101.293 96.3984 99.9722C96.3984 98.6505 95.327 97.5796 94.0058 97.5796Z" fill="#0000CC"/>
<path d="M94.0058 106.375H65.9729C64.6517 106.375 63.5803 107.447 63.5803 108.768C63.5803 110.089 64.6517 111.161 65.9729 111.161H94.0058C95.327 111.161 96.3984 110.089 96.3984 108.768C96.3984 107.447 95.327 106.375 94.0058 106.375Z" fill="#0000CC"/>
<path d="M94.0058 115.171H65.9729C64.6517 115.171 63.5803 116.243 63.5803 117.564C63.5803 118.885 64.6517 119.956 65.9729 119.956H94.0058C95.327 119.956 96.3984 118.885 96.3984 117.564C96.3984 116.243 95.327 115.171 94.0058 115.171Z" fill="#0000CC"/>
<defs>
<linearGradient id="paint0_linear" x1="32.8128" y1="194.302" x2="189.016" y2="8.14638" gradientUnits="userSpaceOnUse">
<stop stop-color="#D2DEFF" stop-opacity="0"/>
<stop offset="1" stop-color="#FFCAEA"/>
</linearGradient>
</defs>
</svg>
