<svg width="245" height="229" viewBox="0 0 245 229" fill="none" xmlns="http://www.w3.org/2000/svg">
<path d="M9.73169 55.8877C-1.73689 74.7402 -2.94562 107.382 5.4552 127.788C12.8133 145.661 27.4506 162.436 46.665 164.538C53.7307 165.311 60.9525 164.048 67.9455 165.322C91.9947 169.701 100.94 199.339 119.63 215.094C132.637 226.058 150.685 229.938 167.565 227.826C184.445 225.714 200.248 218.082 214.161 208.291C225.146 200.56 235.424 191.054 240.845 178.763C252.207 153 238.84 122.059 218.074 103.043C211.606 97.1209 204.397 91.8969 198.993 84.9905C193.589 78.0836 190.15 68.8669 192.725 60.4838C194.779 53.7956 200.309 48.6109 202.404 41.9351C205.255 32.851 200.951 22.6605 193.885 16.279C186.819 9.89801 177.468 6.69004 168.205 4.48839C129.396 -4.73787 44.3542 -1.02603 9.73169 55.8877Z" fill="url(#paint0_linear)"/>
<g opacity="0.1">
<g opacity="0.1">
<path opacity="0.1" d="M118.879 51.6165H127.771C129.092 51.6165 130.164 50.5455 130.164 49.2239C130.164 47.9022 129.092 46.8313 127.771 46.8313H118.879C117.557 46.8313 116.486 47.9022 116.486 49.2239C116.486 50.5455 117.557 51.6165 118.879 51.6165Z" fill="#2626BC"/>
<path opacity="0.1" d="M118.879 60.4126H146.912C148.233 60.4126 149.304 59.3417 149.304 58.02C149.304 56.6984 148.233 55.6274 146.912 55.6274H118.879C117.557 55.6274 116.486 56.6984 116.486 58.02C116.486 59.3412 117.557 60.4126 118.879 60.4126Z" fill="#2626BC"/>
<path opacity="0.1" d="M118.879 69.2087H146.912C148.233 69.2087 149.304 68.1378 149.304 66.8162C149.304 65.4945 148.233 64.4236 146.912 64.4236H118.879C117.557 64.4236 116.486 65.4945 116.486 66.8162C116.486 68.1378 117.557 69.2087 118.879 69.2087Z" fill="#2626BC"/>
</g>
<path opacity="0.1" d="M217.381 132.118H193.903C203.23 126.817 209.525 116.799 209.525 105.304C209.525 88.2779 195.723 74.4756 178.696 74.4756C161.669 74.4756 147.867 88.2779 147.867 105.304C147.867 116.799 154.163 126.817 163.489 132.118H163.088C160.445 132.118 158.303 134.26 158.303 136.903V167.447C158.303 170.09 160.445 172.232 163.088 172.232H173.979V196.514C173.979 203.864 167.893 209.817 160.5 209.597C153.379 209.382 147.809 203.357 147.809 196.237V167.856C147.809 154.563 136.866 143.777 123.515 144.031C110.471 144.275 100.144 155.204 100.144 168.258V198.218C100.144 204.429 95.1438 209.496 88.9566 209.602C82.5924 209.707 77.3813 204.328 77.3813 197.959V150.452C77.3813 144.729 80.7405 139.49 85.942 137.102L96.8569 132.087C104.671 128.498 109.715 120.626 109.715 112.032V78.5554C109.715 77.2352 108.643 76.1638 107.323 76.1628V40.0382C107.323 34.8516 104.047 30.1784 99.171 28.4094L93.6408 26.4039C92.8379 23.6812 90.3194 21.6867 87.3402 21.6867H85.5434C85.4874 20.4148 84.4471 19.3984 83.1613 19.3984C81.8401 19.3984 80.7687 20.4694 80.7687 21.791V32.437V34.7253C80.7687 36.047 81.8401 37.1179 83.1613 37.1179C84.4471 37.1179 85.4879 36.1015 85.5434 34.8296H87.3402C89.8596 34.8296 92.0493 33.4027 93.1518 31.3163L97.5393 32.9074C100.529 33.9922 102.538 36.8576 102.538 40.0378V76.1619H102.537C101.216 76.1619 100.144 77.2337 100.144 78.5544V112.031C100.144 116.898 97.2876 121.358 92.8661 123.387L81.9464 128.406C78.1699 130.14 74.9825 132.784 72.5952 136.006C70.2079 132.784 67.0205 130.138 63.245 128.404L52.3267 123.389C47.8894 121.35 45.0451 116.915 45.0451 112.031V78.5525C45.0451 77.2313 43.9742 76.1599 42.6526 76.1599V40.0373C42.6526 36.8571 44.6614 33.9912 47.6511 32.9069L51.9626 31.3436C53.0699 33.4151 55.2524 34.8291 57.7607 34.8291H59.5576C59.6131 36.101 60.6538 37.1174 61.9396 37.1174C63.2608 37.1174 64.3322 36.0465 64.3322 34.7248V32.4365V21.7915C64.3322 20.4698 63.2608 19.3989 61.9396 19.3989C60.6538 19.3989 59.6131 20.4153 59.5576 21.6872H57.7607C54.7686 21.6872 52.242 23.6998 51.4506 26.4408L46.0189 28.4098C41.1428 30.1784 37.8665 34.8521 37.8665 40.0387V76.1614C36.5453 76.1614 35.4739 77.2328 35.4739 78.554V112.033C35.4739 120.655 40.4954 128.488 48.3311 132.087L59.2494 137.102C64.4494 139.491 67.8096 144.731 67.8096 150.453V157.906C67.8096 157.911 67.8101 157.916 67.8105 157.921V198.218C67.8105 209.65 77.0124 218.971 88.4011 219.167C100.12 219.368 109.714 209.573 109.714 197.849V167.856C109.714 159.85 116.346 153.362 124.409 153.601C132.166 153.831 138.238 160.401 138.238 168.157V196.514C138.238 209.152 148.641 219.406 161.332 219.167C173.735 218.933 183.549 208.544 183.549 196.136V172.232H217.38C220.023 172.232 222.165 170.09 222.165 167.447V136.903C222.166 134.261 220.023 132.118 217.381 132.118Z" fill="#2626BC"/>
</g>
<path d="M217.381 160.269H163.089C160.446 160.269 158.303 158.127 158.303 155.484V124.94C158.303 122.298 160.446 120.155 163.089 120.155H217.381C220.023 120.155 222.166 122.298 222.166 124.94V155.484C222.166 158.127 220.023 160.269 217.381 160.269Z" fill="#6583FE"/>
<path d="M208.204 133.061H199.312C197.99 133.061 196.919 131.99 196.919 130.669C196.919 129.348 197.99 128.276 199.312 128.276H208.204C209.526 128.276 210.597 129.348 210.597 130.669C210.597 131.99 209.526 133.061 208.204 133.061Z" fill="#0000CC"/>
<path d="M208.204 141.857H180.171C178.849 141.857 177.779 140.786 177.779 139.464C177.779 138.143 178.849 137.072 180.171 137.072H208.204C209.526 137.072 210.597 138.143 210.597 139.464C210.597 140.786 209.526 141.857 208.204 141.857Z" fill="#0000CC"/>
<path d="M208.204 150.653H180.171C178.849 150.653 177.779 149.582 177.779 148.26C177.779 146.939 178.849 145.868 180.171 145.868H208.204C209.526 145.868 210.597 146.939 210.597 148.26C210.597 149.582 209.526 150.653 208.204 150.653Z" fill="#0000CC"/>
<path d="M61.94 20.4747H57.7612C55.4533 20.4747 53.5823 18.6037 53.5823 16.2958C53.5823 13.9879 55.4533 12.1169 57.7612 12.1169H61.94V20.4747Z" fill="white"/>
<path d="M83.1614 20.4747H87.3402C89.6481 20.4747 91.5191 18.6037 91.5191 16.2958C91.5191 13.9879 89.6481 12.1169 87.3402 12.1169H83.1614V20.4747Z" fill="white"/>
<path d="M45.0457 66.5906V100.069C45.0457 104.953 47.8899 109.389 52.3272 111.427L63.2455 116.442C71.8325 120.386 77.3813 129.041 77.3813 138.49V145.779C77.3813 148.328 75.4577 150.553 72.9144 150.718C70.1275 150.898 67.811 148.691 67.811 145.943V138.49C67.811 132.768 64.4514 127.528 59.2509 125.139L48.3326 120.124C40.4974 116.525 35.4753 108.693 35.4753 100.07V66.5916C35.4753 65.2704 36.5467 64.199 37.8679 64.199H42.6531C43.9743 64.198 45.0457 65.2694 45.0457 66.5906Z" fill="#6583FE"/>
<path d="M183.55 104.123V184.173C183.55 196.581 173.736 206.97 161.333 207.204C148.642 207.444 138.239 197.189 138.239 184.551V156.195C138.239 148.438 132.167 141.868 124.41 141.638C116.347 141.399 109.715 147.888 109.715 155.893V185.886C109.715 197.61 100.121 207.405 88.402 207.204C77.0134 207.008 67.8115 197.687 67.8115 186.255V138.49C67.8115 129.039 73.3575 120.387 81.9469 116.444L92.8666 111.425C97.2881 109.396 100.145 104.936 100.145 100.069V66.5925C100.145 65.2718 101.217 64.2 102.537 64.2H107.323C108.643 64.2 109.715 65.2718 109.715 66.5925V100.069C109.715 108.664 104.672 116.535 96.8574 120.124L85.9425 125.139C80.741 127.527 77.3818 132.766 77.3818 138.49V185.997C77.3818 192.366 82.5929 197.744 88.9571 197.639C95.1443 197.534 100.145 192.466 100.145 186.255V156.295C100.145 143.241 110.471 132.312 123.516 132.068C136.866 131.814 147.81 142.6 147.81 155.893V184.274C147.81 191.394 153.38 197.419 160.5 197.634C167.893 197.854 173.98 191.901 173.98 184.551V104.285C173.98 101.735 175.903 99.5096 178.444 99.3469C181.234 99.1651 183.55 101.371 183.55 104.123Z" fill="white"/>
<path d="M208.711 100.502C212.628 83.9353 202.372 67.3309 185.806 63.4148C169.239 59.4988 152.635 69.7541 148.719 86.3207C144.803 102.887 155.058 119.492 171.624 123.408C188.191 127.324 204.795 117.069 208.711 100.502Z" fill="white"/>
<path d="M178.696 108.29C186.952 108.29 193.645 101.597 193.645 93.3414C193.645 85.0857 186.952 78.3931 178.696 78.3931C170.44 78.3931 163.748 85.0857 163.748 93.3414C163.748 101.597 170.44 108.29 178.696 108.29Z" fill="#0000CC"/>
<path d="M178.696 103.911C184.534 103.911 189.266 99.179 189.266 93.3414C189.266 87.5038 184.534 82.7715 178.696 82.7715C172.859 82.7715 168.126 87.5038 168.126 93.3414C168.126 99.179 172.859 103.911 178.696 103.911Z" fill="#6583FE"/>
<path d="M217.381 117.763H201.189C207.78 111.688 211.917 102.99 211.917 93.3415C211.917 75.0235 197.015 60.1201 178.696 60.1201C160.377 60.1201 145.475 75.0235 145.475 93.3415C145.475 103.995 150.521 113.487 158.343 119.57C156.855 120.886 155.911 122.803 155.911 124.94V155.484C155.911 159.442 159.131 162.662 163.089 162.662H171.586V184.554C171.586 187.464 170.432 190.187 168.336 192.222C166.241 194.255 163.475 195.324 160.569 195.24C154.853 195.071 150.203 190.152 150.203 184.275V155.894C150.203 148.805 147.409 142.159 142.336 137.182C137.265 132.206 130.57 129.533 123.472 129.674C109.291 129.943 97.7541 141.885 97.7541 156.294V186.256C97.7541 191.13 93.7906 195.162 88.9188 195.245C86.5803 195.29 84.3193 194.369 82.588 192.666C80.7998 190.908 79.7744 188.477 79.7744 185.997V138.491C79.7744 133.7 82.5871 129.313 86.9401 127.314L97.8594 122.299C106.516 118.322 112.11 109.597 112.11 100.071V66.5916C112.11 63.953 109.963 61.8064 107.324 61.8064V28.0758C107.324 22.8892 104.048 18.216 99.172 16.447L93.6417 14.442C92.8388 11.7192 90.3204 9.72478 87.3411 9.72478H85.5443C85.4883 8.45288 84.448 7.43651 83.1623 7.43651C81.8411 7.43651 80.7697 8.50743 80.7697 9.82909V12.1174V22.7634C80.7697 24.085 81.8411 25.1559 83.1623 25.1559C84.448 25.1559 85.4888 24.1396 85.5443 22.8677H87.3411C89.8605 22.8677 92.0502 21.4408 93.1527 19.3544L97.5402 20.9455C100.53 22.0303 102.539 24.8956 102.539 28.0758V61.8055C99.9007 61.8055 97.7541 63.9521 97.7541 66.5906V75.1804C97.7541 76.5021 98.8255 77.573 100.147 77.573C101.468 77.573 102.539 76.5021 102.539 75.1804V66.5906H107.324V100.07C107.324 107.732 102.825 114.751 95.8616 117.949L84.9423 122.964C78.8958 125.742 74.9892 131.836 74.9892 138.49V185.997C74.9892 189.751 76.5358 193.425 79.2332 196.077C81.8865 198.686 85.3644 200.092 89.0001 200.028C96.4659 199.902 102.54 193.723 102.54 186.255V156.293C102.54 144.473 111.971 134.678 123.564 134.458C129.362 134.332 134.838 136.528 138.985 140.596C143.134 144.667 145.418 150.099 145.418 155.893V184.275C145.418 192.713 152.151 199.777 160.428 200.023C160.586 200.028 160.744 200.03 160.901 200.03C164.944 200.03 168.752 198.487 171.669 195.655C174.701 192.712 176.371 188.769 176.371 184.553V126.473C177.14 126.526 177.914 126.563 178.696 126.563C179.525 126.563 180.343 126.522 181.157 126.462V184.174C181.157 195.346 172.243 204.604 161.287 204.812C155.806 204.904 150.632 202.856 146.712 199.01C142.792 195.163 140.632 190.029 140.632 184.554V156.196C140.632 147.115 133.387 139.511 124.481 139.246C119.944 139.11 115.646 140.781 112.384 143.946C109.121 147.114 107.324 151.357 107.324 155.893V185.884C107.324 190.952 105.236 195.912 101.595 199.491C98.0182 203.007 93.3532 204.901 88.4403 204.813C78.3843 204.641 70.2031 196.316 70.2031 186.256V145.943V138.49C70.2031 129.972 75.2045 122.172 82.944 118.617L93.8633 113.602C99.1332 111.181 102.538 105.87 102.538 100.07V89.1062C102.538 87.7845 101.466 86.7136 100.145 86.7136C98.8241 86.7136 97.7527 87.7845 97.7527 89.1062V100.07C97.7527 104.006 95.4419 107.611 91.8655 109.253L80.9462 114.268C77.7368 115.742 74.9155 117.816 72.5875 120.319C70.2237 117.785 67.3822 115.71 64.2432 114.268L53.3249 109.253C49.7485 107.61 47.4372 104.006 47.4372 100.07V66.5911C47.4372 63.9526 45.2906 61.8059 42.6521 61.8059V28.0758C42.6521 24.8956 44.6609 22.0298 47.6507 20.9455L51.9621 19.3822C53.0694 21.4537 55.2519 22.8677 57.7603 22.8677H59.5571C59.6126 24.1396 60.6534 25.1559 61.9391 25.1559C63.2603 25.1559 64.3317 24.085 64.3317 22.7634V12.1169V9.82861C64.3317 8.50695 63.2603 7.43604 61.9391 7.43604C60.6534 7.43604 59.6126 8.4524 59.5571 9.7243H57.7603C54.7681 9.7243 52.2415 11.7369 51.4501 14.4779L46.0184 16.447C41.1424 18.2156 37.866 22.8892 37.866 28.0758V61.8059C35.2274 61.8059 33.0808 63.9526 33.0808 66.5911V100.07C33.0808 109.596 38.6747 118.321 47.332 122.298L58.2503 127.313C62.6038 129.313 65.4165 133.7 65.4165 138.49V145.943V186.255C65.4165 198.909 75.7075 209.381 88.357 209.597C94.5423 209.703 100.449 207.326 104.948 202.903C109.498 198.43 112.107 192.227 112.107 185.884V155.893C112.107 152.662 113.389 149.638 115.715 147.38C118.04 145.123 121.104 143.934 124.337 144.029C130.683 144.218 135.845 149.676 135.845 156.196V184.554C135.845 191.325 138.514 197.671 143.359 202.426C148.086 207.064 154.294 209.601 160.887 209.601C161.049 209.601 161.212 209.6 161.375 209.596C174.92 209.339 185.939 197.935 185.939 184.174V125.758C188.976 125.079 191.861 123.992 194.523 122.543C194.539 122.543 194.554 122.548 194.569 122.548H217.379C218.698 122.548 219.771 123.622 219.771 124.941V155.484C219.771 156.804 218.698 157.877 217.379 157.877H197.473C196.152 157.877 195.08 158.948 195.08 160.27C195.08 161.591 196.152 162.662 197.473 162.662H217.379C221.337 162.662 224.556 159.443 224.556 155.484V124.941C224.558 120.983 221.338 117.763 217.381 117.763ZM87.3402 18.082H85.5539V14.5095H87.3402C88.325 14.5095 89.1265 15.311 89.1265 16.2957C89.1265 17.2805 88.325 18.082 87.3402 18.082ZM57.7612 14.5095H59.5475V18.082H57.7612C56.7764 18.082 55.9749 17.2805 55.9749 16.2962C55.9754 15.311 56.7764 14.5095 57.7612 14.5095ZM60.2495 122.964L49.3312 117.949C42.3678 114.75 37.8679 107.732 37.8679 100.07V66.5911H42.653V100.07C42.653 105.869 46.0582 111.181 51.3285 113.601L62.2468 118.616C65.0562 119.906 67.5818 121.809 69.6179 124.155C68.6671 125.645 67.8655 127.229 67.2239 128.883C65.506 126.36 63.1235 124.285 60.2495 122.964ZM171.586 157.877H163.089C161.769 157.877 160.696 156.803 160.696 155.484V124.94C160.696 123.682 161.676 122.659 162.91 122.566C165.6 124.025 168.516 125.116 171.586 125.789V157.877ZM150.26 93.3415C150.26 77.6615 163.016 64.9053 178.696 64.9053C194.376 64.9053 207.133 77.6615 207.133 93.3415C207.133 109.022 194.376 121.778 178.696 121.778C163.016 121.778 150.26 109.022 150.26 93.3415Z" fill="#0000CC"/>
<path d="M118.879 39.6536H127.771C129.092 39.6536 130.163 38.5826 130.163 37.261C130.163 35.9393 129.092 34.8684 127.771 34.8684H118.879C117.557 34.8684 116.486 35.9393 116.486 37.261C116.486 38.5826 117.557 39.6536 118.879 39.6536Z" fill="#0000CC"/>
<path d="M118.879 48.4497H146.912C148.233 48.4497 149.304 47.3788 149.304 46.0571C149.304 44.7355 148.233 43.6646 146.912 43.6646H118.879C117.557 43.6646 116.486 44.7355 116.486 46.0571C116.486 47.3783 117.557 48.4497 118.879 48.4497Z" fill="#0000CC"/>
<path d="M118.879 57.2456H146.912C148.233 57.2456 149.304 56.1747 149.304 54.853C149.304 53.5314 148.233 52.4604 146.912 52.4604H118.879C117.557 52.4604 116.486 53.5314 116.486 54.853C116.486 56.1747 117.557 57.2456 118.879 57.2456Z" fill="#0000CC"/>
<path d="M183.55 49.9749C182.229 49.9749 181.157 48.904 181.157 47.5824C181.157 45.9114 179.798 44.5519 178.127 44.5519C176.806 44.5519 175.734 43.481 175.734 42.1593C175.734 40.8377 176.806 39.7668 178.127 39.7668C179.798 39.7668 181.157 38.4073 181.157 36.7363C181.157 35.4147 182.229 34.3438 183.55 34.3438C184.871 34.3438 185.943 35.4147 185.943 36.7363C185.943 38.4073 187.302 39.7668 188.973 39.7668C190.294 39.7668 191.366 40.8377 191.366 42.1593C191.366 43.481 190.294 44.5519 188.973 44.5519C187.302 44.5519 185.943 45.9114 185.943 47.5824C185.943 48.904 184.871 49.9749 183.55 49.9749Z" fill="#6583FE"/>
<path d="M44.7909 173.508C43.4697 173.508 42.3984 172.437 42.3984 171.115C42.3984 169.444 41.0389 168.085 39.3679 168.085C38.0467 168.085 36.9753 167.014 36.9753 165.692C36.9753 164.37 38.0467 163.299 39.3679 163.299C41.0389 163.299 42.3984 161.94 42.3984 160.269C42.3984 158.947 43.4697 157.876 44.7909 157.876C46.1121 157.876 47.1835 158.947 47.1835 160.269C47.1835 161.94 48.543 163.299 50.2144 163.299C51.5356 163.299 52.607 164.37 52.607 165.692C52.607 167.014 51.5356 168.085 50.2144 168.085C48.5435 168.085 47.1835 169.444 47.1835 171.115C47.1835 172.437 46.1121 173.508 44.7909 173.508Z" fill="#6583FE"/>
<path d="M201.704 38.9854C200.383 38.9854 199.312 37.9145 199.312 36.5929C199.312 34.9219 197.952 33.5624 196.281 33.5624C194.96 33.5624 193.889 32.4915 193.889 31.1698C193.889 29.8482 194.96 28.7773 196.281 28.7773C197.952 28.7773 199.312 27.4173 199.312 25.7463C199.312 24.4247 200.383 23.3538 201.704 23.3538C203.025 23.3538 204.097 24.4247 204.097 25.7463C204.097 27.4173 205.456 28.7773 207.127 28.7773C208.448 28.7773 209.52 29.8482 209.52 31.1698C209.52 32.4915 208.448 33.5624 207.127 33.5624C205.456 33.5624 204.097 34.9219 204.097 36.5929C204.097 37.9145 203.026 38.9854 201.704 38.9854Z" fill="#6583FE"/>
<path d="M214.694 53.8003C213.372 53.8003 212.301 52.7294 212.301 51.4077V51.3364C212.301 50.0148 213.372 48.9438 214.694 48.9438C216.015 48.9438 217.086 50.0148 217.086 51.3364V51.4077C217.086 52.7294 216.015 53.8003 214.694 53.8003Z" fill="#6583FE"/>
<path d="M214.694 67.0959C213.372 67.0959 212.301 66.025 212.301 64.7034V64.6321C212.301 63.3104 213.372 62.2395 214.694 62.2395C216.015 62.2395 217.086 63.3104 217.086 64.6321V64.7034C217.086 66.0246 216.015 67.0959 214.694 67.0959Z" fill="#6583FE"/>
<path d="M208.966 57.1068C208.559 57.1068 208.147 57.003 207.77 56.7843L207.707 56.7484C206.564 56.0862 206.173 54.6229 206.835 53.4792C207.498 52.3356 208.961 51.9446 210.105 52.6074L210.167 52.6433C211.311 53.3055 211.701 54.7688 211.039 55.9125C210.595 56.6791 209.792 57.1068 208.966 57.1068Z" fill="#6583FE"/>
<path d="M220.48 63.7543C220.073 63.7543 219.661 63.6504 219.284 63.4318L219.221 63.3959C218.078 62.7336 217.687 61.2703 218.35 60.1267C219.011 58.983 220.475 58.5921 221.619 59.2548L221.681 59.2907C222.825 59.953 223.215 61.4163 222.553 62.5599C222.109 63.3265 221.306 63.7543 220.48 63.7543Z" fill="#6583FE"/>
<path d="M208.908 63.7542C208.082 63.7542 207.279 63.3264 206.835 62.5598C206.173 61.4162 206.564 59.9529 207.707 59.2906L207.77 59.2547C208.914 58.592 210.377 58.9834 211.039 60.1266C211.701 61.2702 211.311 62.7335 210.167 63.3958L210.105 63.4317C209.727 63.6504 209.315 63.7542 208.908 63.7542Z" fill="#6583FE"/>
<path d="M220.423 57.1067C219.597 57.1067 218.793 56.6785 218.35 55.9124C217.687 54.7687 218.078 53.3054 219.221 52.6431L219.284 52.6073C220.428 51.9445 221.892 52.3359 222.553 53.4791C223.215 54.6228 222.825 56.0861 221.681 56.7483L221.619 56.7842C221.241 57.0034 220.829 57.1067 220.423 57.1067Z" fill="#6583FE"/>
<path d="M77.3809 50.4587C76.0597 50.4587 74.9883 49.3878 74.9883 48.0662V47.9944C74.9883 46.6727 76.0597 45.6018 77.3809 45.6018C78.702 45.6018 79.7734 46.6727 79.7734 47.9944V48.0662C79.7734 49.3878 78.7025 50.4587 77.3809 50.4587Z" fill="#6583FE"/>
<path d="M77.3809 63.7539C76.0597 63.7539 74.9883 62.683 74.9883 61.3613V61.2896C74.9883 59.9679 76.0597 58.897 77.3809 58.897C78.702 58.897 79.7734 59.9679 79.7734 61.2896V61.3613C79.7734 62.683 78.7025 63.7539 77.3809 63.7539Z" fill="#6583FE"/>
<path d="M71.653 53.7653C71.2472 53.7653 70.8366 53.6619 70.46 53.4447L70.3978 53.4088C69.2532 52.7484 68.8603 51.2851 69.5207 50.141C70.181 48.9964 71.6434 48.6035 72.7885 49.2639L72.8507 49.2998C73.9953 49.9601 74.3882 51.4234 73.7278 52.5675C73.2847 53.336 72.4803 53.7653 71.653 53.7653Z" fill="#6583FE"/>
<path d="M83.1664 60.4128C82.7597 60.4128 82.3472 60.309 81.9697 60.0903L81.9075 60.0544C80.7638 59.3922 80.3734 57.9289 81.0356 56.7852C81.6974 55.6411 83.1602 55.2501 84.3048 55.9133L84.367 55.9492C85.5107 56.6115 85.9012 58.0748 85.2389 59.2185C84.7958 59.9846 83.9924 60.4128 83.1664 60.4128Z" fill="#6583FE"/>
<path d="M71.595 60.4129C70.7677 60.4129 69.9633 59.9832 69.5202 59.2152C68.8599 58.0705 69.2527 56.6077 70.3973 55.9474L70.4595 55.9115C71.6041 55.2497 73.0674 55.644 73.7273 56.7886C74.3877 57.9332 73.9948 59.396 72.8502 60.0564L72.788 60.0923C72.4119 60.3095 72.0003 60.4129 71.595 60.4129Z" fill="#6583FE"/>
<path d="M83.109 53.7652C82.2831 53.7652 81.4797 53.3375 81.0361 52.5709C80.3738 51.4272 80.7643 49.9639 81.908 49.3017L81.9702 49.2658C83.1143 48.6026 84.5781 48.994 85.2399 50.1376C85.9021 51.2813 85.5116 52.7446 84.368 53.4068L84.3058 53.4427C83.9282 53.6614 83.5158 53.7652 83.109 53.7652Z" fill="#6583FE"/>
<defs>
<linearGradient id="paint0_linear" x1="0.000123093" y1="114.5" x2="245" y2="114.5" gradientUnits="userSpaceOnUse">
<stop stop-color="#D2DEFF" stop-opacity="0"/>
<stop offset="1" stop-color="#C2D7FB"/>
</linearGradient>
</defs>
</svg>
