<svg width="219" height="201" viewBox="0 0 219 201" fill="none" xmlns="http://www.w3.org/2000/svg">
<path d="M2.09409 130.331C9.5572 204.274 127.171 201.823 182.086 188.616C217.361 180.133 219.554 163.178 218.916 127.022C218.506 103.717 220.389 42.0206 205.227 22.6023C181.938 -7.22492 161.073 11.482 132.232 21.2186C95.2379 33.7071 80.8229 11.4098 45.6259 12.0736C-5.9764 13.048 -1.75766 92.1677 2.09409 130.331Z" fill="url(#paint0_linear)"/>
<path opacity="0.1" d="M189.943 46.4648H91.9579L79.8731 33.2692C78.2524 31.4997 75.9636 30.4919 73.5644 30.4919H33.3347C30.9723 30.4919 29.0574 32.4069 29.0574 34.7693V188.887C29.0574 191.249 30.9723 193.164 33.3347 193.164H189.942C192.305 193.164 194.22 191.249 194.22 188.887V50.7422C194.22 48.3798 192.305 46.4648 189.943 46.4648Z" fill="#2626BC"/>
<path d="M91.9576 35.7715L79.8728 22.5759C78.2526 20.8064 75.9633 19.7991 73.5642 19.7991H33.3345C30.9721 19.7991 29.0571 21.714 29.0571 24.0764V132.073H194.219V40.0489C194.219 37.6865 192.304 35.7715 189.942 35.7715H91.9576Z" fill="white"/>
<path d="M163.715 97.1967H59.562C57.1996 97.1967 55.2847 95.2818 55.2847 92.9194V50.2507C55.2847 47.8884 57.1996 45.9734 59.562 45.9734H163.715C166.077 45.9734 167.992 47.8884 167.992 50.2507V92.9194C167.992 95.2813 166.077 97.1967 163.715 97.1967Z" fill="#6583FE"/>
<path d="M170.131 112.4H53.146C50.7836 112.4 48.8687 110.485 48.8687 108.122V65.4536C48.8687 63.0912 50.7836 61.1763 53.146 61.1763H170.131C172.493 61.1763 174.408 63.0912 174.408 65.4536V108.122C174.408 110.485 172.493 112.4 170.131 112.4Z" fill="white"/>
<path d="M170.131 114.538H53.1462C49.608 114.538 46.7302 111.66 46.7302 108.122V65.4536C46.7302 61.9158 49.608 59.0376 53.1462 59.0376H170.131C173.669 59.0376 176.547 61.9158 176.547 65.4536V108.122C176.547 111.66 173.669 114.538 170.131 114.538ZM53.1462 63.3149C51.967 63.3149 51.0076 64.2744 51.0076 65.4536V108.122C51.0076 109.302 51.967 110.261 53.1462 110.261H170.131C171.31 110.261 172.269 109.302 172.269 108.122V65.4536C172.269 64.2744 171.31 63.3149 170.131 63.3149H53.1462Z" fill="#0000CC"/>
<path d="M80.4881 98.9166C87.1932 96.1373 90.3756 88.4488 87.5964 81.7437C84.8171 75.0387 77.1286 71.8562 70.4235 74.6354C63.7185 77.4147 60.536 85.1032 63.3152 91.8083C66.0945 98.5133 73.7831 101.696 80.4881 98.9166Z" fill="#6583FE"/>
<path d="M81.5303 84.0198H78.1846V80.674C78.1846 79.6299 77.3381 78.7834 76.294 78.7834H74.539C73.4949 78.7834 72.6484 79.6299 72.6484 80.674V84.0198H69.3027C68.2586 84.0198 67.4121 84.8663 67.4121 85.9104V87.6654C67.4121 88.7095 68.2586 89.5559 69.3027 89.5559H72.6484V92.9017C72.6484 93.9458 73.4949 94.7923 74.539 94.7923H76.294C77.3381 94.7923 78.1846 93.9458 78.1846 92.9017V89.5559H81.5303C82.5744 89.5559 83.4209 88.7095 83.4209 87.6654V85.9104C83.4209 84.8663 82.5744 84.0198 81.5303 84.0198Z" fill="white"/>
<path d="M109.571 80.2627L94.9616 94.7243H33.3345C30.9721 94.7243 29.0571 96.6393 29.0571 99.0017V178.193C29.0571 180.556 30.9721 182.471 33.3345 182.471H189.942C192.304 182.471 194.219 180.556 194.219 178.193V82.0647C194.219 79.7023 192.304 77.7874 189.942 77.7874H115.589C113.335 77.7874 111.173 78.677 109.571 80.2627Z" fill="white"/>
<path d="M189.942 33.6328H92.8991L81.4499 21.131C79.4289 18.9252 76.555 17.6599 73.5638 17.6599H33.335C29.7972 17.6599 26.9189 20.5377 26.9189 24.0759V82.3458C26.9189 83.5272 27.8762 84.4844 29.0576 84.4844C30.239 84.4844 31.1963 83.5272 31.1963 82.3458V24.0759C31.1963 22.8967 32.1557 21.9373 33.335 21.9373H73.5647C75.359 21.9373 77.0841 22.6961 78.2963 24.0199L90.381 37.2159C90.7861 37.6582 91.3584 37.9101 91.9585 37.9101H189.943C191.122 37.9101 192.082 38.8696 192.082 40.0488V76.023C191.411 75.7852 190.694 75.6487 189.943 75.6487H161.191C160.009 75.6487 159.052 76.606 159.052 77.7874C159.052 78.9688 160.009 79.9261 161.191 79.9261H189.943C191.122 79.9261 192.082 80.8855 192.082 82.0647V178.193C192.082 179.372 191.122 180.332 189.943 180.332H33.335C32.1557 180.332 31.1963 179.372 31.1963 178.193V99.0017C31.1963 97.8225 32.1557 96.8631 33.335 96.8631H94.9621C95.5254 96.8631 96.0661 96.6406 96.4669 96.2446L111.076 81.7824C112.285 80.5852 113.888 79.9261 115.59 79.9261H148.743C149.925 79.9261 150.882 78.9688 150.882 77.7874C150.882 76.606 149.925 75.6487 148.743 75.6487H115.59C112.754 75.6487 110.082 76.7471 108.067 78.7421L94.0827 92.5853H33.335C29.7972 92.5853 26.9189 95.4635 26.9189 99.0013V178.193C26.9189 181.731 29.7967 184.609 33.335 184.609H189.943C193.481 184.609 196.359 181.731 196.359 178.193V40.0488C196.358 36.5106 193.48 33.6328 189.942 33.6328Z" fill="#0000CC"/>
<path d="M72.778 36.2065H41.9426C40.7617 36.2065 39.804 35.2488 39.804 34.0678V30.8782C39.804 29.6972 40.7617 28.7395 41.9426 28.7395H69.9443C70.5551 28.7395 71.1372 29.0008 71.5431 29.4577L74.3773 32.6473C75.6023 34.0267 74.6228 36.2065 72.778 36.2065Z" fill="#6583FE"/>
<path d="M147.595 159.854C164.012 159.854 177.32 146.545 177.32 130.129C177.32 113.712 164.012 100.404 147.595 100.404C131.179 100.404 117.87 113.712 117.87 130.129C117.87 146.545 131.179 159.854 147.595 159.854Z" fill="#6583FE"/>
<path d="M161.427 123.866H153.858V116.298C153.858 113.935 151.943 112.02 149.581 112.02H145.611C143.248 112.02 141.333 113.935 141.333 116.298V123.866H133.765C131.402 123.866 129.487 125.781 129.487 128.144V132.114C129.487 134.476 131.402 136.391 133.765 136.391H141.333V143.96C141.333 146.322 143.248 148.237 145.611 148.237H149.581C151.943 148.237 153.858 146.322 153.858 143.96V136.391H161.427C163.789 136.391 165.704 134.476 165.704 132.114V128.144C165.704 125.781 163.789 123.866 161.427 123.866Z" fill="white"/>
<path d="M52.8431 151.992H44.8945C43.7131 151.992 42.7559 151.034 42.7559 149.853C42.7559 148.672 43.7131 147.714 44.8945 147.714H52.8431C54.0245 147.714 54.9818 148.672 54.9818 149.853C54.9818 151.034 54.0245 151.992 52.8431 151.992Z" fill="#0000CC"/>
<path d="M69.9525 159.854H44.8945C43.7131 159.854 42.7559 158.896 42.7559 157.715C42.7559 156.534 43.7131 155.576 44.8945 155.576H69.9525C71.1339 155.576 72.0912 156.534 72.0912 157.715C72.0912 158.896 71.1339 159.854 69.9525 159.854Z" fill="#0000CC"/>
<path d="M69.9525 167.717H44.8945C43.7131 167.717 42.7559 166.759 42.7559 165.578C42.7559 164.396 43.7131 163.439 44.8945 163.439H69.9525C71.1339 163.439 72.0912 164.396 72.0912 165.578C72.0912 166.759 71.1339 167.717 69.9525 167.717Z" fill="#0000CC"/>
<path d="M147.212 12.4587C146.03 12.4587 145.073 11.5014 145.073 10.32V10.2559C145.073 9.07446 146.03 8.11719 147.212 8.11719C148.393 8.11719 149.35 9.07446 149.35 10.2559V10.32C149.35 11.5014 148.393 12.4587 147.212 12.4587Z" fill="#6583FE"/>
<path d="M147.212 24.343C146.03 24.343 145.073 23.3857 145.073 22.2043V22.1401C145.073 20.9587 146.03 20.0015 147.212 20.0015C148.393 20.0015 149.35 20.9587 149.35 22.1401V22.2043C149.35 23.3857 148.393 24.343 147.212 24.343Z" fill="#6583FE"/>
<path d="M142.091 15.4139C141.727 15.4139 141.359 15.3211 141.022 15.1256L140.966 15.0935C139.944 14.5015 139.595 13.1935 140.187 12.1712C140.779 11.1481 142.088 10.7995 143.109 11.3919L143.165 11.424C144.187 12.016 144.536 13.324 143.944 14.3463C143.548 15.0315 142.829 15.4139 142.091 15.4139Z" fill="#6583FE"/>
<path d="M152.384 21.3564C152.022 21.3564 151.656 21.2644 151.321 21.0715L151.264 21.0394C150.24 20.4509 149.887 19.1437 150.476 18.1197C151.064 17.0953 152.371 16.7424 153.395 17.331L153.451 17.363C154.476 17.9516 154.829 19.2588 154.24 20.2828C153.845 20.971 153.124 21.3564 152.384 21.3564Z" fill="#6583FE"/>
<path d="M142.04 21.3564C141.301 21.3564 140.583 20.9736 140.187 20.2888C139.595 19.2665 139.944 17.9585 140.966 17.3665L141.022 17.3344C142.045 16.7416 143.353 17.0919 143.944 18.1138C144.536 19.1361 144.187 20.4441 143.165 21.0361L143.109 21.0681C142.772 21.2636 142.403 21.3564 142.04 21.3564Z" fill="#6583FE"/>
<path d="M152.332 15.4139C151.591 15.4139 150.871 15.029 150.476 14.3403C149.887 13.3159 150.24 12.0092 151.264 11.4206L151.321 11.3885C152.345 10.7995 153.652 11.1528 154.24 12.1773C154.829 13.2017 154.476 14.5084 153.451 15.097L153.395 15.1291C153.06 15.322 152.693 15.4139 152.332 15.4139Z" fill="#6583FE"/>
<path d="M14.4275 167.394C13.2461 167.394 12.2888 166.437 12.2888 165.255V165.191C12.2888 164.01 13.2461 163.053 14.4275 163.053C15.6089 163.053 16.5662 164.01 16.5662 165.191V165.255C16.5662 166.436 15.6089 167.394 14.4275 167.394Z" fill="#6583FE"/>
<path d="M14.4275 179.278C13.2461 179.278 12.2888 178.321 12.2888 177.139V177.076C12.2888 175.894 13.2461 174.937 14.4275 174.937C15.6089 174.937 16.5662 175.894 16.5662 177.076V177.139C16.5662 178.32 15.6089 179.278 14.4275 179.278Z" fill="#6583FE"/>
<path d="M9.30752 170.349C8.94352 170.349 8.57524 170.257 8.23819 170.061L8.18258 170.029C7.16029 169.437 6.81126 168.129 7.40325 167.107C7.9948 166.084 9.3041 165.735 10.3255 166.327L10.3811 166.359C11.4034 166.951 11.7525 168.259 11.1605 169.282C10.764 169.967 10.0454 170.349 9.30752 170.349Z" fill="#6583FE"/>
<path d="M19.5993 176.291C19.2353 176.291 18.867 176.198 18.5299 176.003L18.4743 175.971C17.452 175.379 17.103 174.071 17.695 173.048C18.287 172.025 19.5963 171.677 20.6173 172.269L20.6729 172.301C21.6952 172.893 22.0442 174.201 21.4522 175.223C21.0561 175.909 20.3375 176.291 19.5993 176.291Z" fill="#6583FE"/>
<path d="M9.2561 176.291C8.51783 176.291 7.79966 175.908 7.40315 175.223C6.81117 174.201 7.16063 172.893 8.18249 172.301L8.23809 172.269C9.26038 171.676 10.5688 172.026 11.1604 173.048C11.7524 174.071 11.4029 175.379 10.381 175.971L10.3254 176.003C9.98838 176.199 9.61925 176.291 9.2561 176.291Z" fill="#6583FE"/>
<path d="M19.5478 170.349C18.8091 170.349 18.0914 169.966 17.6949 169.282C17.1029 168.259 17.4524 166.951 18.4742 166.359L18.5298 166.327C19.5521 165.735 20.8606 166.085 21.4521 167.107C22.0441 168.129 21.6946 169.437 20.6728 170.029L20.6172 170.061C20.2801 170.257 19.9114 170.349 19.5478 170.349Z" fill="#6583FE"/>
<path d="M200.636 200.721C199.454 200.721 198.497 199.764 198.497 198.582C198.497 197.089 197.282 195.873 195.788 195.873C194.607 195.873 193.649 194.916 193.649 193.734C193.649 192.553 194.607 191.596 195.788 191.596C197.282 191.596 198.497 190.38 198.497 188.887C198.497 187.705 199.454 186.748 200.636 186.748C201.817 186.748 202.774 187.705 202.774 188.887C202.774 190.38 203.99 191.596 205.484 191.596C206.665 191.596 207.622 192.553 207.622 193.734C207.622 194.916 206.665 195.873 205.484 195.873C203.99 195.873 202.774 197.089 202.774 198.582C202.774 199.763 201.817 200.721 200.636 200.721Z" fill="#6583FE"/>
<path d="M124.857 14.2521C123.675 14.2521 122.718 13.2948 122.718 12.1134C122.718 10.6198 121.503 9.40458 120.009 9.40458C118.828 9.40458 117.87 8.44731 117.87 7.26591C117.87 6.08451 118.828 5.12724 120.009 5.12724C121.503 5.12724 122.718 3.91162 122.718 2.41797C122.718 1.23657 123.675 0.279297 124.857 0.279297C126.038 0.279297 126.995 1.23657 126.995 2.41797C126.995 3.91162 128.211 5.12724 129.704 5.12724C130.886 5.12724 131.843 6.08451 131.843 7.26591C131.843 8.44731 130.886 9.40458 129.704 9.40458C128.211 9.40458 126.995 10.6198 126.995 12.1134C126.995 13.2948 126.038 14.2521 124.857 14.2521Z" fill="#6583FE"/>
<path d="M113.023 29.5976C111.841 29.5976 110.884 28.6403 110.884 27.4589C110.884 25.9652 109.669 24.7496 108.175 24.7496C106.994 24.7496 106.037 23.7923 106.037 22.6109C106.037 21.4295 106.994 20.4723 108.175 20.4723C109.669 20.4723 110.884 19.2571 110.884 17.7634C110.884 16.582 111.841 15.6248 113.023 15.6248C114.204 15.6248 115.161 16.582 115.161 17.7634C115.161 19.2571 116.377 20.4723 117.87 20.4723C119.052 20.4723 120.009 21.4295 120.009 22.6109C120.009 23.7923 119.052 24.7496 117.87 24.7496C116.377 24.7496 115.161 25.9652 115.161 27.4589C115.161 28.6403 114.204 29.5976 113.023 29.5976Z" fill="#6583FE"/>
<defs>
<linearGradient id="paint0_linear" x1="11.7968" y1="158.207" x2="215.806" y2="40.4221" gradientUnits="userSpaceOnUse">
<stop stop-color="#D2DEFF" stop-opacity="0"/>
<stop offset="1" stop-color="#C7EBFF"/>
</linearGradient>
</defs>
</svg>
