<svg width="214" height="200" viewBox="0 0 214 200" fill="none" xmlns="http://www.w3.org/2000/svg">
<path d="M8.50012 48.8038C-1.51733 65.2709 -2.57312 93.7827 4.76474 111.606C11.1918 127.218 23.9771 141.871 40.7602 143.707C46.9319 144.382 53.2399 143.279 59.3481 144.391C80.354 148.216 88.1679 174.105 104.493 187.866C115.854 197.443 131.618 200.832 146.363 198.987C161.107 197.142 174.911 190.476 187.063 181.923C196.658 175.17 205.635 166.867 210.37 156.132C220.294 133.629 208.619 106.602 190.48 89.9929C184.831 84.8197 178.534 80.2568 173.814 74.2242C169.094 68.1913 166.09 60.1408 168.339 52.8184C170.133 46.9764 174.963 42.4477 176.793 36.6166C179.283 28.6819 175.525 19.7809 169.352 14.2068C163.18 8.63322 155.013 5.83116 146.922 3.90809C113.023 -4.15077 38.7418 -0.908589 8.50012 48.8038Z" fill="url(#paint0_linear)"/>
<path opacity="0.1" d="M164.457 191.772H49.542C47.2336 191.772 45.3623 189.901 45.3623 187.593V35.3953C45.3623 33.0868 47.2336 31.2156 49.542 31.2156H164.457C166.766 31.2156 168.637 33.0868 168.637 35.3953V187.593C168.637 189.901 166.766 191.772 164.457 191.772Z" fill="#2626BC"/>
<path d="M164.457 181.323H49.542C47.2336 181.323 45.3623 179.452 45.3623 177.144V24.946C45.3623 22.6376 47.2336 20.7664 49.542 20.7664H164.457C166.766 20.7664 168.637 22.6376 168.637 24.946V177.144C168.637 179.452 166.766 181.323 164.457 181.323Z" fill="#6583FE"/>
<path d="M153.436 165.951H60.5633C58.5366 165.951 56.8936 164.308 56.8936 162.281V24.4361C56.8936 22.4094 58.5366 20.7664 60.5633 20.7664H153.436C155.462 20.7664 157.105 22.4094 157.105 24.4361V162.281C157.106 164.308 155.463 165.951 153.436 165.951Z" fill="white"/>
<path d="M164.457 183.413H49.542C46.085 183.413 43.2725 180.601 43.2725 177.144V24.946C43.2725 21.489 46.085 18.6765 49.542 18.6765H67.6935C68.8476 18.6765 69.7834 19.6123 69.7834 20.7664C69.7834 21.9204 68.8476 22.8562 67.6935 22.8562H49.542C48.3897 22.8562 47.4521 23.7937 47.4521 24.946V177.144C47.4521 178.296 48.3897 179.233 49.542 179.233H164.457C165.61 179.233 166.547 178.296 166.547 177.144V135.583C166.547 134.429 167.483 133.493 168.637 133.493C169.792 133.493 170.727 134.429 170.727 135.583V177.144C170.727 180.601 167.915 183.413 164.457 183.413Z" fill="#0000CC"/>
<path d="M131.506 22.8562H92.5664C91.4124 22.8562 90.4766 21.9204 90.4766 20.7664C90.4766 19.6123 91.4124 18.6765 92.5664 18.6765H131.506C132.661 18.6765 133.596 19.6123 133.596 20.7664C133.596 21.9204 132.661 22.8562 131.506 22.8562Z" fill="#0000CC"/>
<path d="M168.637 125.51C167.483 125.51 166.547 124.574 166.547 123.42V24.946C166.547 23.7937 165.61 22.8562 164.458 22.8562H147.304C146.149 22.8562 145.214 21.9204 145.214 20.7664C145.214 19.6123 146.149 18.6765 147.304 18.6765H164.458C167.915 18.6765 170.727 21.489 170.727 24.946V123.42C170.727 124.574 169.791 125.51 168.637 125.51Z" fill="#0000CC"/>
<path d="M78.3134 33.5917H69.7834C68.6294 33.5917 67.6936 32.6559 67.6936 31.5019V16.2051C67.6936 15.0506 68.6294 14.1152 69.7834 14.1152H78.3134C79.4674 14.1152 80.4032 15.0506 80.4032 16.2051V31.5015C80.4032 32.6559 79.4678 33.5917 78.3134 33.5917Z" fill="white"/>
<path d="M78.3138 35.6816H69.7834C67.4788 35.6816 65.6038 33.8066 65.6038 31.5019V16.2051C65.6038 13.9004 67.4788 12.0254 69.7834 12.0254H78.3138C80.6184 12.0254 82.4935 13.9004 82.4935 16.2051V31.5015C82.4935 33.8066 80.6184 35.6816 78.3138 35.6816ZM69.7834 16.2051V31.5015H78.3163L78.3138 16.2051H69.7834Z" fill="#0000CC"/>
<path d="M144.216 33.5917H135.686C134.532 33.5917 133.596 32.6559 133.596 31.5019V16.2051C133.596 15.0506 134.532 14.1152 135.686 14.1152H144.216C145.371 14.1152 146.306 15.0506 146.306 16.2051V31.5015C146.306 32.6559 145.37 33.5917 144.216 33.5917Z" fill="white"/>
<path d="M144.216 35.6816H135.686C133.382 35.6816 131.507 33.8066 131.507 31.5019V16.2051C131.507 13.9004 133.382 12.0254 135.686 12.0254H144.216C146.521 12.0254 148.396 13.9004 148.396 16.2051V31.5015C148.396 33.8066 146.521 35.6816 144.216 35.6816ZM135.686 16.2051V31.5015H144.219L144.216 16.2051H135.686Z" fill="#0000CC"/>
<path d="M89.26 69.3368C95.5425 66.0467 97.9683 58.2865 94.6781 52.004C91.3879 45.7215 83.6277 43.2957 77.3452 46.5858C71.0627 49.876 68.6369 57.6362 71.9271 63.9187C75.2173 70.2012 82.9775 72.627 89.26 69.3368Z" fill="#6583FE"/>
<path d="M89.2595 55.2664H85.9902V51.9971C85.9902 50.9768 85.163 50.1497 84.1427 50.1497H82.4278C81.4076 50.1497 80.5804 50.9768 80.5804 51.9971V55.2664H77.311C76.2908 55.2664 75.4636 56.0936 75.4636 57.1139V58.8288C75.4636 59.849 76.2908 60.6762 77.311 60.6762H80.5804V63.9456C80.5804 64.9658 81.4076 65.793 82.4278 65.793H84.1427C85.163 65.793 85.9902 64.9658 85.9902 63.9456V60.6762H89.2595C90.2798 60.6762 91.1069 59.849 91.1069 58.8288V57.1139C91.1069 56.0936 90.2798 55.2664 89.2595 55.2664Z" fill="white"/>
<path d="M143.911 61.2783H105.658C104.504 61.2783 103.569 60.3425 103.569 59.1885C103.569 58.0345 104.504 57.0986 105.658 57.0986H143.911C145.065 57.0986 146.001 58.0345 146.001 59.1885C146.001 60.3429 145.065 61.2783 143.911 61.2783Z" fill="#0000CC"/>
<path d="M143.911 68.8733H105.658C104.504 68.8733 103.569 67.9375 103.569 66.7834C103.569 65.6294 104.504 64.6936 105.658 64.6936H143.911C145.065 64.6936 146.001 65.6294 146.001 66.7834C146.001 67.9375 145.065 68.8733 143.911 68.8733Z" fill="#0000CC"/>
<path d="M116.743 50.624H105.658C104.504 50.624 103.569 49.6882 103.569 48.5342C103.569 47.3802 104.504 46.4443 105.658 46.4443H116.743C117.897 46.4443 118.833 47.3802 118.833 48.5342C118.833 49.6882 117.897 50.624 116.743 50.624Z" fill="#0000CC"/>
<path d="M142.687 101.045H71.312C70.158 101.045 69.2222 100.109 69.2222 98.9549V84.2859C69.2222 83.1315 70.158 82.196 71.312 82.196H142.687C143.841 82.196 144.777 83.1315 144.777 84.2859V98.9549C144.777 100.109 143.842 101.045 142.687 101.045Z" fill="white"/>
<path d="M88.6082 82.196H71.3123C70.1582 82.196 69.2224 83.1319 69.2224 84.2859V98.9549C69.2224 100.109 70.1582 101.045 71.3123 101.045H88.6082V82.196Z" fill="#6583FE"/>
<path d="M133.462 93.7102H97.2991C96.1446 93.7102 95.2092 92.7744 95.2092 91.6204C95.2092 90.4663 96.1446 89.5305 97.2991 89.5305H133.462C134.616 89.5305 135.552 90.4663 135.552 91.6204C135.552 92.7744 134.616 93.7102 133.462 93.7102Z" fill="#0000CC"/>
<path d="M126.126 121.962H86.3438V126.142H126.126C127.28 126.142 128.216 125.206 128.216 124.052C128.216 122.898 127.28 121.962 126.126 121.962Z" fill="#0000CC"/>
<path d="M103.138 113.624H86.3438V117.804H103.138C104.292 117.804 105.228 116.868 105.228 115.714C105.228 114.56 104.292 113.624 103.138 113.624Z" fill="#0000CC"/>
<path d="M88.1394 115.714C88.1394 111.885 85.0243 108.77 81.1957 108.77C77.3667 108.77 74.252 111.885 74.252 115.714C74.252 117.602 75.0118 119.315 76.239 120.568C75.0118 121.821 74.252 123.533 74.252 125.421C74.252 126.575 75.1878 127.511 76.3418 127.511C77.4958 127.511 78.4316 126.575 78.4316 125.421C78.4316 123.897 79.6718 122.657 81.1957 122.657C82.72 122.657 83.9597 123.898 83.9597 125.421C83.9597 126.575 84.8955 127.511 86.0495 127.511C87.2035 127.511 88.1394 126.575 88.1394 125.421C88.1394 123.533 87.3795 121.821 86.1519 120.568C87.3791 119.315 88.1394 117.602 88.1394 115.714ZM81.1952 112.949C82.7196 112.949 83.9593 114.189 83.9593 115.713C83.9593 117.237 82.7192 118.477 81.1952 118.477C79.6713 118.477 78.4312 117.237 78.4312 115.713C78.4312 114.189 79.6713 112.949 81.1952 112.949Z" fill="#0000CC"/>
<path d="M138.07 140.264H83.8301C82.6756 140.264 81.7402 139.328 81.7402 138.174C81.7402 137.02 82.6756 136.084 83.8301 136.084H138.07C139.224 136.084 140.16 137.02 140.16 138.174C140.16 139.328 139.224 140.264 138.07 140.264Z" fill="#0000CC"/>
<path d="M75.9297 140.288C77.0837 140.288 78.0195 139.352 78.0195 138.198V138.15C78.0195 136.996 77.0837 136.061 75.9297 136.061C74.7757 136.061 73.8398 136.996 73.8398 138.15V138.198C73.8398 139.352 74.7753 140.288 75.9297 140.288Z" fill="#0000CC"/>
<path d="M143.126 117.827C144.28 117.827 145.216 116.892 145.216 115.738V115.689C145.216 114.535 144.28 113.6 143.126 113.6C141.972 113.6 141.037 114.535 141.037 115.689V115.738C141.037 116.892 141.972 117.827 143.126 117.827Z" fill="#0000CC"/>
<path d="M136.536 117.827C137.69 117.827 138.626 116.892 138.626 115.738V115.689C138.626 114.535 137.69 113.6 136.536 113.6C135.382 113.6 134.447 114.535 134.447 115.689V115.738C134.447 116.892 135.382 117.827 136.536 117.827Z" fill="#0000CC"/>
<path d="M138.07 148.423H83.8301C82.6756 148.423 81.7402 147.487 81.7402 146.333C81.7402 145.179 82.6756 144.243 83.8301 144.243H138.07C139.224 144.243 140.16 145.179 140.16 146.333C140.16 147.488 139.224 148.423 138.07 148.423Z" fill="#0000CC"/>
<path d="M75.9297 148.447C77.0837 148.447 78.0195 147.511 78.0195 146.357V146.309C78.0195 145.155 77.0837 144.219 75.9297 144.219C74.7757 144.219 73.8398 145.155 73.8398 146.309V146.357C73.8398 147.511 74.7753 148.447 75.9297 148.447Z" fill="#0000CC"/>
<path d="M138.07 156.583H83.8301C82.6756 156.583 81.7402 155.647 81.7402 154.493C81.7402 153.339 82.6756 152.403 83.8301 152.403H138.07C139.224 152.403 140.16 153.339 140.16 154.493C140.16 155.647 139.224 156.583 138.07 156.583Z" fill="#0000CC"/>
<path d="M75.9297 156.607C77.0837 156.607 78.0195 155.671 78.0195 154.517V154.469C78.0195 153.315 77.0837 152.379 75.9297 152.379C74.7757 152.379 73.8398 153.315 73.8398 154.469V154.517C73.8398 155.671 74.7753 156.607 75.9297 156.607Z" fill="#0000CC"/>
<path d="M26.7373 83.7556C25.5833 83.7556 24.6475 82.8197 24.6475 81.6657V81.603C24.6475 80.449 25.5833 79.5132 26.7373 79.5132C27.8913 79.5132 28.8272 80.449 28.8272 81.603V81.6657C28.8272 82.8197 27.8913 83.7556 26.7373 83.7556Z" fill="#6583FE"/>
<path d="M26.7373 95.3684C25.5833 95.3684 24.6475 94.4325 24.6475 93.2785V93.2158C24.6475 92.0618 25.5833 91.126 26.7373 91.126C27.8913 91.126 28.8272 92.0618 28.8272 93.2158V93.2785C28.8272 94.4329 27.8913 95.3684 26.7373 95.3684Z" fill="#6583FE"/>
<path d="M21.7338 86.6432C21.3802 86.6432 21.0224 86.5533 20.6939 86.3644L20.6395 86.3331C19.6389 85.758 19.2945 84.4802 19.87 83.4796C20.4456 82.479 21.7225 82.1346 22.7235 82.7101L22.7778 82.7415C23.7785 83.3166 24.1229 84.5943 23.5473 85.5949C23.1611 86.267 22.4573 86.6432 21.7338 86.6432Z" fill="#6583FE"/>
<path d="M31.791 92.4496C31.4386 92.4496 31.0817 92.3606 30.754 92.1725L30.6996 92.1411C29.6982 91.5673 29.3517 90.2904 29.9252 89.2889C30.499 88.2879 31.7763 87.9401 32.7774 88.5148L32.8317 88.5462C33.8332 89.1201 34.1797 90.397 33.6062 91.3984C33.2204 92.0722 32.5157 92.4496 31.791 92.4496Z" fill="#6583FE"/>
<path d="M21.6836 92.4497C20.9601 92.4497 20.2567 92.0735 19.87 91.4014C19.2945 90.4008 19.6389 89.1231 20.6395 88.548L20.6939 88.5166C21.6949 87.9407 22.9722 88.2859 23.5473 89.2861C24.1229 90.2867 23.7785 91.5644 22.7778 92.1396L22.7235 92.1709C22.3954 92.3603 22.0372 92.4497 21.6836 92.4497Z" fill="#6583FE"/>
<path d="M31.7408 86.6433C31.0161 86.6433 30.3118 86.2659 29.9256 85.5921C29.3517 84.5907 29.6986 83.3138 30.7001 82.7399L30.7544 82.7086C31.7559 82.1343 33.0328 82.4812 33.6066 83.4831C34.1805 84.4845 33.8336 85.7614 32.8321 86.3353L32.7778 86.3666C32.4501 86.5543 32.0932 86.6433 31.7408 86.6433Z" fill="#6583FE"/>
<path d="M31.7929 117.293C30.6389 117.293 29.7031 116.357 29.7031 115.203C29.7031 113.744 28.5156 112.556 27.0557 112.556C25.9017 112.556 24.9658 111.62 24.9658 110.466C24.9658 109.312 25.9017 108.376 27.0557 108.376C28.5152 108.376 29.7031 107.189 29.7031 105.729C29.7031 104.575 30.6389 103.639 31.7929 103.639C32.9469 103.639 33.8828 104.575 33.8828 105.729C33.8828 107.189 35.0702 108.376 36.5298 108.376C37.6838 108.376 38.6196 109.312 38.6196 110.466C38.6196 111.62 37.6838 112.556 36.5298 112.556C35.0702 112.556 33.8828 113.744 33.8828 115.203C33.8828 116.358 32.9474 117.293 31.7929 117.293Z" fill="#6583FE"/>
<path d="M185.532 70.238C184.377 70.238 183.442 69.3022 183.442 68.1482C183.442 66.6886 182.254 65.5008 180.795 65.5008C179.64 65.5008 178.705 64.5649 178.705 63.4109C178.705 62.2569 179.64 61.3211 180.795 61.3211C182.254 61.3211 183.442 60.1336 183.442 58.6741C183.442 57.5201 184.377 56.5842 185.532 56.5842C186.686 56.5842 187.621 57.5201 187.621 58.6741C187.621 60.1336 188.809 61.3211 190.268 61.3211C191.423 61.3211 192.358 62.2569 192.358 63.4109C192.358 64.5649 191.423 65.5008 190.268 65.5008C188.809 65.5008 187.621 66.6882 187.621 68.1482C187.621 69.3022 186.686 70.238 185.532 70.238Z" fill="#6583FE"/>
<path d="M185.531 128.618C184.377 128.618 183.442 127.682 183.442 126.528V126.465C183.442 125.311 184.377 124.375 185.531 124.375C186.686 124.375 187.621 125.311 187.621 126.465V126.528C187.621 127.682 186.686 128.618 185.531 128.618Z" fill="#6583FE"/>
<path d="M185.531 140.231C184.377 140.231 183.442 139.295 183.442 138.141V138.078C183.442 136.924 184.377 135.988 185.531 135.988C186.686 135.988 187.621 136.924 187.621 138.078V138.141C187.621 139.295 186.686 140.231 185.531 140.231Z" fill="#6583FE"/>
<path d="M180.528 131.506C180.174 131.506 179.816 131.416 179.488 131.227L179.434 131.195C178.433 130.62 178.089 129.343 178.664 128.342C179.239 127.341 180.517 126.997 181.518 127.572L181.572 127.604C182.573 128.179 182.917 129.457 182.341 130.457C181.955 131.129 181.251 131.506 180.528 131.506Z" fill="#6583FE"/>
<path d="M190.585 137.312C190.231 137.312 189.873 137.222 189.545 137.033L189.49 137.002C188.49 136.427 188.145 135.149 188.721 134.148C189.296 133.148 190.573 132.803 191.574 133.379L191.629 133.41C192.629 133.985 192.974 135.263 192.398 136.264C192.012 136.936 191.309 137.312 190.585 137.312Z" fill="#6583FE"/>
<path d="M180.478 137.312C179.754 137.312 179.051 136.936 178.664 136.264C178.089 135.263 178.433 133.985 179.434 133.41L179.488 133.379C180.489 132.803 181.766 133.148 182.342 134.148C182.917 135.149 182.573 136.427 181.572 137.002L181.518 137.033C181.189 137.222 180.831 137.312 180.478 137.312Z" fill="#6583FE"/>
<path d="M190.534 131.505C189.811 131.505 189.107 131.129 188.721 130.457C188.145 129.457 188.49 128.179 189.49 127.604L189.545 127.572C190.547 126.997 191.823 127.342 192.398 128.342C192.974 129.342 192.629 130.62 191.629 131.195L191.574 131.227C191.246 131.416 190.888 131.505 190.534 131.505Z" fill="#6583FE"/>
<path d="M187.105 161.32C185.951 161.32 185.015 160.384 185.015 159.23C185.015 157.77 183.828 156.583 182.368 156.583C181.214 156.583 180.279 155.647 180.279 154.493C180.279 153.339 181.214 152.403 182.368 152.403C183.828 152.403 185.015 151.216 185.015 149.756C185.015 148.602 185.951 147.666 187.105 147.666C188.26 147.666 189.195 148.602 189.195 149.756C189.195 151.216 190.383 152.403 191.842 152.403C192.997 152.403 193.932 153.339 193.932 154.493C193.932 155.647 192.997 156.583 191.842 156.583C190.383 156.583 189.195 157.77 189.195 159.23C189.195 160.384 188.26 161.32 187.105 161.32Z" fill="#6583FE"/>
<path d="M142.688 103.135H71.3125C69.0078 103.135 67.1328 101.26 67.1328 98.9549V84.2859C67.1328 81.9812 69.0078 80.1062 71.3125 80.1062H142.688C144.992 80.1062 146.867 81.9812 146.867 84.2859V98.9549C146.867 101.26 144.992 103.135 142.688 103.135ZM71.3125 84.2859V98.9549H142.69L142.688 84.2863H71.3125V84.2859Z" fill="#0000CC"/>
<defs>
<linearGradient id="paint0_linear" x1="26.6375" y1="150.701" x2="193.873" y2="54.1479" gradientUnits="userSpaceOnUse">
<stop stop-color="#D2DEFF" stop-opacity="0"/>
<stop offset="1" stop-color="#E1CCFF"/>
</linearGradient>
</defs>
</svg>
