<svg width="53" height="35" viewBox="0 0 53 35" fill="none" xmlns="http://www.w3.org/2000/svg">
<g filter="url(#filter0_i)">
<path d="M0 10C0 4.47715 4.47715 0 10 0C15.5228 0 20 4.47715 20 10V25C20 30.5228 15.5228 35 10 35C4.47715 35 0 30.5228 0 25V10Z" fill="url(#paint0_linear)"/>
<path d="M33 10C33 4.47715 37.4772 0 43 0C48.5228 0 53 4.47715 53 10V25C53 30.5228 48.5228 35 43 35C37.4772 35 33 30.5228 33 25V10Z" fill="url(#paint1_linear)"/>
<path d="M21.0875 15.1895C20.1136 13.8491 20.4108 11.9729 21.7512 10.9991C23.0916 10.0252 24.9677 10.3223 25.9416 11.6628L32.0308 20.0438C33.0047 21.3842 32.7075 23.2604 31.3671 24.2342C30.0267 25.2081 28.1506 24.911 27.1767 23.5705L21.0875 15.1895Z" fill="url(#paint2_linear)"/>
</g>
<defs>
<filter id="filter0_i" x="0" y="0" width="53" height="39" filterUnits="userSpaceOnUse" color-interpolation-filters="sRGB">
<feFlood flood-opacity="0" result="BackgroundImageFix"/>
<feBlend mode="normal" in="SourceGraphic" in2="BackgroundImageFix" result="shape"/>
<feColorMatrix in="SourceAlpha" type="matrix" values="0 0 0 0 0 0 0 0 0 0 0 0 0 0 0 0 0 0 127 0" result="hardAlpha"/>
<feOffset dy="4"/>
<feGaussianBlur stdDeviation="2"/>
<feComposite in2="hardAlpha" operator="arithmetic" k2="-1" k3="1"/>
<feColorMatrix type="matrix" values="0 0 0 0 0 0 0 0 0 0 0 0 0 0 0 0 0 0 0.25 0"/>
<feBlend mode="normal" in2="shape" result="effect1_innerShadow"/>
</filter>
<linearGradient id="paint0_linear" x1="21.7512" y1="10.9991" x2="31.3671" y2="24.2343" gradientUnits="userSpaceOnUse">
<stop stop-color="#1479FF"/>
<stop offset="1" stop-color="#25B9A9"/>
</linearGradient>
<linearGradient id="paint1_linear" x1="21.7512" y1="10.9991" x2="31.3671" y2="24.2343" gradientUnits="userSpaceOnUse">
<stop stop-color="#1479FF"/>
<stop offset="1" stop-color="#25B9A9"/>
</linearGradient>
<linearGradient id="paint2_linear" x1="21.7512" y1="10.9991" x2="31.3671" y2="24.2343" gradientUnits="userSpaceOnUse">
<stop stop-color="#1479FF"/>
<stop offset="1" stop-color="#25B9A9"/>
</linearGradient>
</defs>
</svg>
