<?xml version="1.0"?>
<svg xmlns="http://www.w3.org/2000/svg" id="Layer_1" data-name="Layer 1" viewBox="0 0 512 512" width="120" height="120"><title>medical treatment</title><path d="M291.887,373.385a106.078,106.078,0,0,1,90.919-104.854,105.92,105.92,0,1,0,0,209.706A106.078,106.078,0,0,1,291.887,373.385Z" style="fill:#d4e1f4"/><path d="M306.124,177.685a7.782,7.782,0,0,0-1.5-2.678A6.966,6.966,0,0,0,306.124,177.685Z" style="fill:#d4e1f4"/><path d="M232.439,141.24a7,7,0,0,1-3.748,12.084c-.332.048-.645.075-.973.118a69.245,69.245,0,0,0,20.973-.118,7,7,0,0,0,3.748-12.084,127.062,127.062,0,0,1-9.649-9.892c11.16.969,22.47,1.519,32.923-5.029a83.27,83.27,0,0,0-5.805-14.835c-13.874,21.831-30.661,21.293-47.118,19.864A127.062,127.062,0,0,0,232.439,141.24Z" style="fill:#d4e1f4"/><path d="M198.5,274.783c-23.511-14.843-26.657-44.063-27.049-49.77a7.048,7.048,0,0,0-7-6.718c-.1,0-.2,0-.305,0-10.252,0-21.077-16.724-24.8-32.465-1.425-6.04.446-10.153,2.787-11.419,2.647-1.428,5.47,1.087,6.56,2.236a7,7,0,0,0,12.027-3.988,6.974,6.974,0,0,0,.908-3.96c-.688-9.938-.089-37,9.7-51.367-.091-.263-.184-.531-.273-.786-1.053-3.045-2.457-7.1-3.509-8.619a18.735,18.735,0,0,0-13.68,6.19c-12.233,13.109-12.984,43.845-12.24,54.582a6.974,6.974,0,0,1-.908,3.96,7,7,0,0,1-12.027,3.988c-1.09-1.149-3.913-3.664-6.56-2.236-2.341,1.266-4.212,5.379-2.787,11.419,3.72,15.741,14.545,32.465,24.8,32.465.1,0,.2,0,.305,0a7.048,7.048,0,0,1,7,6.718c.392,5.707,3.538,34.927,27.049,49.77,9.276,5.864,20.818,8.836,34.31,8.836a84.992,84.992,0,0,0,10.063-.581A58.18,58.18,0,0,1,198.5,274.783Z" style="fill:#d4e1f4"/><path d="M202.275,338.905c-7.384-7.921-11.563-16.749-12.972-23.251,1.718-.527,3.4-1.055,5.044-1.589a7,7,0,0,0,4.13-3.594l6.413-13.187a77.037,77.037,0,0,1-26.713-6.757l-9.7,19.944a7,7,0,0,1-4.13,3.594c-1.64.534-3.326,1.062-5.044,1.589,1.409,6.5,5.588,15.33,12.972,23.251a54.158,54.158,0,0,0,40.53,17.582,58.7,58.7,0,0,0,15.178-1.931A54.549,54.549,0,0,1,202.275,338.905Z" style="fill:#d4e1f4"/><path d="M66.249,472.427V409.689c0-43.358,44.356-61.082,86.477-73.534a60.771,60.771,0,0,1-6.894-16.571q-2.856.805-5.789,1.627C93.8,334.172,36.249,350.3,36.249,399.689v62.738c0,7.664,3.454,16.573,7.907,16.573H67.032A29.419,29.419,0,0,1,66.249,472.427Z" style="fill:#d4e1f4"/><path d="M370.249,479H44.156c-4.453,0-7.907-8.909-7.907-16.573V399.689c0-49.387,57.551-65.517,103.794-78.478q2.935-.824,5.789-1.627c5.066,21.278,27.851,50.9,66.973,50.9,29.356,0,46.643-16.037,54.334-25.6a7,7,0,1,0-10.907-8.776c-6.122,7.609-19.9,20.372-43.427,20.372a54.158,54.158,0,0,1-40.53-17.582c-7.384-7.921-11.563-16.749-12.972-23.251,1.718-.527,3.4-1.055,5.044-1.589a7,7,0,0,0,4.13-3.594l9.7-19.944c10.045,4.706,21.652,7.092,34.628,7.092,12.788,0,24.241-2.266,34.18-6.732l7.026,19.929a7,7,0,0,0,4.343,4.3c4.068,1.387,8.643,2.828,13.985,4.406a7,7,0,1,0,3.967-13.425c-3.788-1.119-7.165-2.163-10.23-3.164l-6.794-19.27c21-15.733,26.752-40.3,28.322-52.2,14.122-3.831,27.091-20.424,32.287-42.413,2.8-11.893-1.3-22.966-10.206-27.555a17.462,17.462,0,0,0-7.98-1.936c.46-3.451.94-7.672,1.437-12.855,1.162-12.127,1.9-24.376,1.9-27.48,0-2.2.044-4.468.09-6.869.371-19.149.832-42.979-20.29-64.343h0c-18.956-19.172-45.792-29.741-73.617-28.972-27.719.758-53.712,12.586-71.316,32.451q-.81.917-1.646,1.846C127.648,65.2,113.105,81.449,114.149,123.06c.1,4.073,4,22.739,8.039,36.965a17.632,17.632,0,0,0-6.714,2.074c-8.549,4.62-12.469,15.45-9.755,26.951,5.2,22.027,18.211,38.64,32.365,42.429,1.692,11.67,7.615,35.994,28.079,51.74L157.2,301.651c-6.4,2.006-13.488,3.993-20.933,6.079C88.148,321.217,22.249,339.686,22.249,399.689v62.738c0,14.821,7.678,30.573,21.907,30.573H370.249a7,7,0,0,0,0-14ZM148.7,62.669q.858-.958,1.693-1.9c15.044-16.978,37.357-27.089,61.219-27.741,23.977-.666,47.037,8.392,63.279,24.821,16.966,17.159,16.585,36.852,16.249,54.227-.048,2.472-.093,4.807-.093,7.141,0,1.484-.15,4.563-.406,8.48-3.385-12.583-8.118-24.736-14.635-31.842l-.518-1.036a7,7,0,0,0-12.634.233c-11.279,24.809-22.452,23.81-40.962,22.159-2.149-.192-4.335-.387-6.557-.541-7.043-.5-9.591,3.616-10.36,5.4-2.282,5.3.889,11.023,6.694,17.809-18.479-2.206-23.163-15.722-27.383-27.914-2.929-8.462-6.248-18.054-15.9-18.054a32.606,32.606,0,0,0-24.769,10.671c-7.173,7.7-11.215,18.678-13.465,29.436a88.6,88.6,0,0,1-2-11.314C127.239,86.648,138.64,73.908,148.7,62.669Zm2.747,162.344a7.048,7.048,0,0,0-7-6.718c-.1,0-.2,0-.305,0-10.252,0-21.077-16.724-24.8-32.465-1.425-6.04.446-10.153,2.787-11.419,2.647-1.428,5.47,1.087,6.56,2.236a7,7,0,0,0,12.027-3.988,6.974,6.974,0,0,0,.908-3.96c-.744-10.737.007-41.473,12.24-54.582a18.735,18.735,0,0,1,13.68-6.19c1.052,1.519,2.456,5.574,3.509,8.619,5.188,14.988,14.844,42.88,57.636,36.775a7,7,0,0,0,3.748-12.084,127.062,127.062,0,0,1-9.649-9.892c16.457,1.429,33.244,1.967,47.118-19.864,8.768,16.444,13.333,49.143,14.451,62.128a7,7,0,0,0,6.967,6.4c.2,0,.4-.009.607-.027a7,7,0,0,0,5.844-4.244c1.382-1.366,3.49-2.84,5.5-1.807,2.568,1.323,4.42,5.836,2.993,11.9-3.721,15.744-14.545,32.467-24.8,32.467l-.175,0a7.056,7.056,0,0,0-3.848,1.068,6.979,6.979,0,0,0-3.283,5.731c-.3,5.724-3.011,34.993-26.86,49.816-.04.023-.076.05-.115.074-9.285,5.729-20.853,8.634-34.382,8.634-13.492,0-25.034-2.972-34.31-8.836C154.984,259.94,151.838,230.72,151.446,225.013Z" style="fill:#1ae5be"/><path d="M422.249,352h-31V321a9.01,9.01,0,0,0-9-9h-28a9.01,9.01,0,0,0-9,9v31h-32a9.01,9.01,0,0,0-9,9v28a9.01,9.01,0,0,0,9,9h32v32a9.01,9.01,0,0,0,9,9h28a9.01,9.01,0,0,0,9-9V398h31a9.01,9.01,0,0,0,9-9V361A9.01,9.01,0,0,0,422.249,352Zm-5,32h-31a9.01,9.01,0,0,0-9,9v32h-18V393a9.01,9.01,0,0,0-9-9h-32V366h32a9.01,9.01,0,0,0,9-9V326h18v31a9.01,9.01,0,0,0,9,9h31Z" style="fill:#0635c9"/><path d="M369.83,253.158A119.92,119.92,0,1,0,489.751,373.079,120.056,120.056,0,0,0,369.83,253.158Zm0,225.84A105.92,105.92,0,1,1,475.751,373.079,106.039,106.039,0,0,1,369.83,479Z" style="fill:#0635c9"/></svg>
