<svg height="100pt" viewBox="0 -52 486.804 486" width="100pt" xmlns="http://www.w3.org/2000/svg"><path d="m331.226562 291.554688-22.367187-138.25h-277.882813l-22.34375 138.101562-.039062.148438c-3.050781 11.480468-4.59375 23.285156-4.59375 35.140624v.003907c0 29.078125 24.332031 52.65625 54.347656 52.65625h223.125c30.015625 0 54.347656-23.574219 54.347656-52.65625v-.003907c-.003906-11.851562-1.542968-23.660156-4.59375-35.140624zm0 0" fill="#4671c6"/><path d="m281.46875 383.355469h-223.121094c-32.171875 0-58.347656-25.414063-58.347656-56.65625 0-12.175781 1.585938-24.332031 4.710938-36.121094l22.316406-137.910156c.3125-1.941407 1.984375-3.363281 3.945312-3.363281h277.882813c1.960937 0 3.632812 1.421874 3.949219 3.363281l22.335937 138.054687c3.101563 11.746094 4.671875 23.847656 4.671875 35.972656.003906 31.246094-26.167969 56.660157-58.34375 56.660157zm-247.089844-226.050781-21.800781 134.742187c-.019531.128906-.046875.253906-.082031.378906-3 11.292969-4.5 22.773438-4.5 34.273438 0 26.832031 22.589844 48.660156 50.351562 48.660156h223.121094c27.761719 0 50.347656-21.828125 50.347656-48.65625 0-11.503906-1.5-22.980469-4.457031-34.117187-.035156-.128907-.0625-.257813-.082031-.390626l-21.828125-134.890624zm0 0" fill="#3762cc"/><path d="m293.039062 209.804688c-.257812 0-.511718.035156-.773437.042968v-11.5625c0-67.578125-54.78125-122.359375-122.359375-122.359375-67.574219 0-122.355469 54.78125-122.355469 122.359375v11.5625c-.261719-.007812-.511719-.042968-.773437-.042968-20.617188 0-37.332032 16.714843-37.332032 37.332031 0 20.617187 16.714844 37.328125 37.332032 37.328125 1.351562 0 2.6875-.078125 4.003906-.21875 12.625 54.128906 61.152344 94.464844 119.125 94.464844 57.976562 0 106.5-40.335938 119.128906-94.464844 1.316406.136718 2.652344.21875 4.003906.21875 20.617188 0 37.332032-16.710938 37.332032-37.328125 0-20.617188-16.714844-37.332031-37.332032-37.332031zm0 0" fill="#f9cfcf"/><path d="m169.90625 382.710938c-57.894531 0-107.667969-38.585938-122.203125-94.257813-23.25.523437-42.257813-18.222656-42.257813-41.320313 0-21.699218 16.816407-39.550781 38.101563-41.203124v-7.644532c0-69.675781 56.683594-126.359375 126.359375-126.359375 69.671875 0 126.359375 56.683594 126.359375 126.359375v7.644532c21.285156 1.652343 38.101563 19.503906 38.101563 41.203124 0 23.097657-19.105469 41.808594-42.257813 41.320313-14.53125 55.671875-64.304687 94.257813-122.203125 94.257813zm-119.121094-102.464844c1.839844 0 3.46875 1.261718 3.894532 3.089844 12.546874 53.800781 59.933593 91.375 115.226562 91.375 55.296875 0 102.683594-37.574219 115.230469-91.375.460937-1.964844 2.304687-3.292969 4.320312-3.070313 1.253907.132813 2.425781.199219 3.582031.199219 18.378907 0 33.332032-14.949219 33.332032-33.328125 0-18.371094-14.945313-33.320313-33.316406-33.332031-.335938.027343-.523438.039062-.710938.039062-1.050781.054688-2.113281-.390625-2.878906-1.144531-.765625-.75-1.195313-1.777344-1.195313-2.851563v-11.5625c0-65.261718-53.097656-118.355468-118.359375-118.355468-65.261718 0-118.359375 53.09375-118.359375 118.355468v11.5625c0 1.074219-.429687 2.101563-1.195312 2.851563-.769531.753906-1.800781 1.199219-2.878907 1.144531-.1875 0-.375-.011719-.566406-.027344-.003906 0-.011718 0-.015625 0-18.5 0-33.441406 14.949219-33.441406 33.320313 0 18.378906 14.949219 33.328125 33.328125 33.328125 1.15625 0 2.328125-.066406 3.582031-.199219.140625-.015625.28125-.019531.421875-.019531zm0 0" fill="#3762cc"/><path d="m171.257812 318.964844c-17.441406 0-31.625-12.808594-31.625-28.550782 0-2.210937 1.792969-4 4-4 2.207032 0 4 1.789063 4 4 0 11.332032 10.597657 20.550782 23.625 20.550782 13.023438 0 23.621094-9.21875 23.621094-20.550782 0-2.210937 1.792969-4 4-4 2.210938 0 4 1.789063 4 4 0 15.742188-14.183594 28.550782-31.621094 28.550782zm0 0" fill="#3762cc"/><path d="m119.550781 180.613281h-84.832031c-2.078125 0-3.761719-1.683593-3.761719-3.761719v-31.214843c0-54.75 44.386719-99.132813 99.136719-99.132813h41.511719c12.769531 0 23.121093 10.351563 23.121093 23.121094v35.808594c.003907 41.519531-33.65625 75.179687-75.175781 75.179687zm0 0" fill="#4671c6"/><path d="m257.488281 180.613281h48.230469c1.734375 0 3.140625-1.40625 3.140625-3.140625v-40.269531c0-50.09375-40.613281-90.699219-90.703125-90.699219h-.65625c-12.574219 0-22.769531 10.191406-22.769531 22.765625v48.582031c0 34.664063 28.097656 62.761719 62.757812 62.761719zm0 0" fill="#4671c6"/><path d="m119.550781 184.613281h-84.832031c-4.277344 0-7.757812-3.480469-7.757812-7.757812v-31.21875c0-56.867188 46.265624-103.132813 103.136718-103.132813h41.507813c14.957031 0 27.125 12.167969 27.125 27.121094v35.808594c0 43.660156-35.519531 79.179687-79.179688 79.179687zm-84.589843-8h84.589843c39.25 0 71.179688-31.929687 71.179688-71.179687v-35.808594c0-10.542969-8.578125-19.121094-19.121094-19.121094h-41.511719c-52.460937 0-95.136718 42.675782-95.136718 95.132813zm0 0" fill="#3762cc"/><path d="m305.71875 184.613281h-48.226562c-36.8125 0-66.761719-29.949219-66.761719-66.757812v-48.585938c0-14.757812 12.007812-26.765625 26.769531-26.765625h.65625c52.21875 0 94.703125 42.480469 94.703125 94.703125v40.269531c0 3.933594-3.203125 7.136719-7.140625 7.136719zm-88.21875-134.109375c-10.347656 0-18.769531 8.417969-18.769531 18.765625v48.585938c0 32.398437 26.363281 58.757812 58.761719 58.757812h47.367187v-39.410156c0-47.808594-38.894531-86.703125-86.703125-86.703125h-.65625zm0 0" fill="#3762cc"/><path d="m105.316406 252.039062c-6.871094 0-12.445312-5.570312-12.445312-12.441406v-20.738281c0-6.875 5.570312-12.445313 12.445312-12.445313 6.871094 0 12.445313 5.570313 12.445313 12.445313v20.738281c-.003907 6.871094-5.574219 12.441406-12.445313 12.441406zm0 0" fill="#3762cc"/><path d="m234.503906 252.039062c-6.875 0-12.445312-5.570312-12.445312-12.441406v-20.738281c0-6.875 5.570312-12.445313 12.445312-12.445313 6.871094 0 12.441406 5.570313 12.441406 12.445313v20.738281c0 6.871094-5.570312 12.441406-12.441406 12.441406zm0 0" fill="#3762cc"/><path d="m280.761719 48.875-13.109375-8.796875c-30.890625-20.734375-64.144532-31.425781-97.746094-31.425781-33.597656 0-66.847656 10.691406-97.742188 31.425781l-13.109374 8.796875c-2.554688 1.714844-3.769532 5.144531-2.960938 8.367188l11.574219 46.265624c1.160156 4.640626 5.996093 7.355469 10.554687 5.890626 23.738282-7.636719 95.652344-25.714844 183.4375.371093 4.523438 1.34375 9.253906-1.351562 10.402344-5.925781l11.660156-46.605469c.808594-3.21875-.40625-6.648437-2.960937-8.363281zm0 0" fill="#e0ebfc"/><path d="m197.019531 40.054688h-17.050781c-.9375 0-1.695312-.757813-1.695312-1.691407v-17.050781c0-1.871094-1.515626-3.386719-3.386719-3.386719h-10.167969c-1.871094 0-3.386719 1.515625-3.386719 3.386719v17.050781c0 .933594-.757812 1.691407-1.695312 1.691407h-16.835938c-1.871093 0-3.390625 1.519531-3.390625 3.390624v10.164063c0 1.871094 1.519532 3.390625 3.390625 3.390625h16.835938c.9375 0 1.695312.757812 1.695312 1.691406v16.839844c0 1.871094 1.519531 3.386719 3.386719 3.386719h10.167969c1.871093 0 3.386719-1.519531 3.386719-3.386719v-16.839844c0-.933594.757812-1.691406 1.695312-1.691406h17.050781c1.871094 0 3.386719-1.519531 3.386719-3.390625v-10.164063c0-1.871093-1.515625-3.390624-3.386719-3.390624zm0 0" fill="#f9a7a7"/><path d="m468.75 303.316406v-165.351562c0-6.609375-5.355469-11.964844-11.964844-11.964844h-57.269531c-6.609375 0-11.964844 5.355469-11.964844 11.964844v165.351562zm0 0" fill="#e0ebfc"/><path d="m403.167969 302.644531v-154.78125c0-3.449219 2.796875-6.246093 6.246093-6.246093h37.476563c3.449219 0 6.246094 2.796874 6.246094 6.246093v154.78125zm0 0" fill="#ffea92"/><path d="m464.789062 379.15625h-73.273437c-3.777344 0-6.835937-3.058594-6.835937-6.835938v-8.277343c0-3.773438 3.058593-6.835938 6.835937-6.835938h73.273437c3.773438 0 6.835938 3.0625 6.835938 6.835938v8.277343c0 3.777344-3.0625 6.835938-6.835938 6.835938zm0 0" fill="#4671c6"/><path d="m409.519531 319.820312h37.265625v37.476563h-37.265625zm0 0" fill="#a4c9ff"/><path d="m478.246094 320.042969h-100.1875c-2.519532 0-4.558594-2.039063-4.558594-4.558594v-7.609375c0-2.515625 2.039062-4.558594 4.558594-4.558594h100.1875c2.519531 0 4.558594 2.042969 4.558594 4.558594v7.609375c0 2.519531-2.039063 4.558594-4.558594 4.558594zm0 0" fill="#f9cfcf"/><path d="m421.941406 107.457031h12.421875v-103.058593l-12.421875 6.34375zm0 0" fill="#e0ebfc"/><path d="m417.320312 197.632812h-25.453124c-1.953126 0-3.535157-1.746093-3.535157-3.902343s1.582031-3.902344 3.535157-3.902344h25.453124c1.953126 0 3.539063 1.746094 3.539063 3.902344s-1.585937 3.902343-3.539063 3.902343zm0 0" fill="#f9a7a7"/><path d="m425.980469 225.742188h-33.9375c-1.949219 0-3.535157-1.746094-3.535157-3.902344s1.582032-3.90625 3.535157-3.90625h33.9375c1.953125 0 3.539062 1.75 3.539062 3.90625s-1.582031 3.902344-3.539062 3.902344zm0 0" fill="#f9a7a7"/><path d="m417.320312 253.847656h-25.453124c-1.953126 0-3.535157-1.746094-3.535157-3.902344s1.582031-3.90625 3.535157-3.90625h25.453124c1.953126 0 3.539063 1.75 3.539063 3.90625s-1.585937 3.902344-3.539063 3.902344zm0 0" fill="#f9a7a7"/><path d="m417.320312 281.957031h-25.453124c-1.953126 0-3.535157-1.75-3.535157-3.90625s1.582031-3.902343 3.535157-3.902343h25.453124c1.953126 0 3.539063 1.746093 3.539063 3.902343s-1.585937 3.90625-3.539063 3.90625zm0 0" fill="#f9a7a7"/><path d="m417.320312 169.527344h-25.453124c-1.953126 0-3.535157-1.746094-3.535157-3.902344s1.582031-3.90625 3.535157-3.90625h25.453124c1.953126 0 3.539063 1.75 3.539063 3.90625s-1.585937 3.902344-3.539063 3.902344zm0 0" fill="#f9a7a7"/><path d="m451.574219 126v-9.769531c0-4.886719-3.964844-8.851563-8.851563-8.851563h-29.140625c-4.886719 0-8.851562 3.964844-8.851562 8.851563v9.769531zm0 0" fill="#a4c9ff"/><g fill="#3762cc"><path d="m464.789062 383.15625h-73.273437c-5.976563 0-10.835937-4.859375-10.835937-10.835938v-8.277343c0-5.976563 4.859374-10.835938 10.835937-10.835938h73.273437c5.976563 0 10.835938 4.863281 10.835938 10.835938v8.277343c0 5.976563-4.859375 10.835938-10.835938 10.835938zm-73.273437-21.949219c-1.5625 0-2.835937 1.269531-2.835937 2.835938v8.277343c0 1.5625 1.273437 2.835938 2.835937 2.835938h73.273437c1.566407 0 2.835938-1.273438 2.835938-2.835938v-8.277343c0-1.566407-1.269531-2.835938-2.835938-2.835938zm0 0"/><path d="m446.78125 361.296875h-37.261719c-2.207031 0-4-1.789063-4-4v-37.476563c0-2.207031 1.792969-4 4-4h37.261719c2.207031 0 4 1.792969 4 4v37.476563c0 2.210937-1.789062 4-4 4zm-33.261719-8h29.261719v-29.476563h-29.261719zm0 0"/><path d="m478.246094 324.042969h-100.191406c-4.714844 0-8.558594-3.839844-8.558594-8.558594v-7.609375c0-4.71875 3.839844-8.558594 8.558594-8.558594h100.191406c4.71875 0 8.558594 3.839844 8.558594 8.558594v7.609375c0 4.71875-3.839844 8.558594-8.558594 8.558594zm-100.1875-16.726563c-.308594 0-.558594.25-.558594.558594v7.609375c0 .308594.25.558594.558594.558594h100.1875c.308594 0 .558594-.25.558594-.558594v-7.609375c0-.308594-.25-.558594-.558594-.558594zm0 0"/><path d="m434.363281 111.457031h-12.421875c-2.207031 0-4-1.789062-4-4v-96.714843c0-1.503907.84375-2.878907 2.179688-3.5625l12.421875-6.339844c1.242187-.632813 2.71875-.578125 3.90625.148437 1.1875.730469 1.914062 2.019531 1.914062 3.414063v103.054687c0 2.210938-1.792969 4-4 4zm-8.421875-8h4.421875v-92.523437l-4.421875 2.257812zm0 0"/><path d="m451.574219 130.003906h-46.84375c-2.207031 0-4-1.792968-4-4v-9.773437c0-7.085938 5.765625-12.851563 12.851562-12.851563h29.140625c7.085938 0 12.851563 5.765625 12.851563 12.851563v9.773437c0 2.207032-1.792969 4-4 4zm-42.84375-8h38.84375v-5.773437c0-2.671875-2.175781-4.851563-4.851563-4.851563h-29.144531c-2.671875 0-4.851563 2.175782-4.851563 4.851563v5.773437zm0 0"/><path d="m468.75 307.316406h-81.199219c-2.207031 0-4-1.789062-4-4v-165.351562c0-8.800782 7.164063-15.964844 15.964844-15.964844h57.269531c8.804688 0 15.964844 7.164062 15.964844 15.964844v165.351562c0 2.210938-1.789062 4-4 4zm-77.195312-8h73.199218v-161.351562c0-4.394532-3.574218-7.964844-7.964844-7.964844h-57.269531c-4.394531 0-7.964843 3.570312-7.964843 7.964844zm0 0"/><path d="m264.050781 114.125c-1.175781 0-2.363281-.171875-3.527343-.519531-85.539063-25.417969-155.125-8.746094-181.074219-.398438-3.210938 1.03125-6.746094.6875-9.699219-.957031-2.964844-1.648438-5.136719-4.480469-5.960938-7.773438l-11.574218-46.265624c-1.226563-4.898438.628906-9.984376 4.613281-12.660157l13.109375-8.796875c31.742188-21.300781 65.375-32.101562 99.972656-32.101562s68.230469 10.800781 99.972656 32.101562l13.105469 8.796875c3.988281 2.671875 5.84375 7.761719 4.617188 12.660157l-11.660157 46.601562c-.820312 3.28125-2.890624 6.007812-5.828124 7.6875-1.886719 1.078125-3.964844 1.625-6.066407 1.625zm-95.84375-22.039062c27.824219 0 59.9375 3.550781 94.597657 13.851562 1.128906.335938 2.320312.199219 3.347656-.386719 1.023437-.585937 1.746094-1.535156 2.03125-2.675781l11.660156-46.601562c.394531-1.585938-.15625-3.300782-1.3125-4.078126l-13.105469-8.796874c-30.398437-20.398438-62.535156-30.746094-95.515625-30.746094-32.980468 0-65.117187 10.347656-95.515625 30.746094l-13.109375 8.796874c-1.15625.773438-1.707031 2.492188-1.3125 4.074219l11.578125 46.265625c.292969 1.167969 1.035157 2.136719 2.085938 2.722656 1.042969.578126 2.238281.695313 3.367187.332032 16.117188-5.1875 48.632813-13.503906 91.203125-13.503906zm0 0"/></g></svg>