<svg width="294" height="294" viewBox="0 0 294 294" fill="none" xmlns="http://www.w3.org/2000/svg">
<path d="M183.432 108.852C188.808 108.852 193.166 103.837 193.166 97.652C193.166 91.4665 188.808 86.4521 183.432 86.4521C178.056 86.4521 173.698 91.4665 173.698 97.652C173.698 103.837 178.056 108.852 183.432 108.852Z" fill="#FCD462"/>
<path d="M183.432 110.846C180.136 110.636 177.056 109.134 174.862 106.665C172.668 104.197 171.537 100.962 171.716 97.6639C171.523 96.0102 171.682 94.3343 172.183 92.7465C172.684 91.1588 173.515 89.695 174.622 88.4513C175.729 87.2077 177.087 86.2125 178.606 85.5309C180.125 84.8494 181.771 84.4971 183.436 84.4971C185.101 84.4971 186.747 84.8494 188.266 85.5309C189.785 86.2125 191.143 87.2077 192.25 88.4513C193.357 89.695 194.188 91.1588 194.689 92.7465C195.19 94.3343 195.349 96.0102 195.156 97.6639C195.335 100.963 194.203 104.199 192.007 106.668C189.811 109.137 186.729 110.638 183.432 110.846ZM183.432 88.4506C181.191 88.6636 179.123 89.7488 177.675 91.4723C176.226 93.1958 175.513 95.4194 175.689 97.6639C175.493 98.7931 175.547 99.9514 175.846 101.058C176.145 102.164 176.683 103.192 177.421 104.068C178.159 104.945 179.08 105.65 180.119 106.133C181.158 106.617 182.29 106.867 183.436 106.867C184.582 106.867 185.714 106.617 186.753 106.133C187.792 105.65 188.713 104.945 189.451 104.068C190.189 103.192 190.727 102.164 191.026 101.058C191.325 99.9514 191.379 98.7931 191.183 97.6639C191.361 95.4169 190.648 93.1901 189.198 91.4646C187.747 89.7392 185.676 88.6537 183.432 88.4426V88.4506Z" fill="#323C6B"/>
<path d="M99.7294 108.852C105.105 108.852 109.463 103.837 109.463 97.652C109.463 91.4665 105.105 86.4521 99.7294 86.4521C94.3536 86.4521 89.9956 91.4665 89.9956 97.652C89.9956 103.837 94.3536 108.852 99.7294 108.852Z" fill="#FCD462"/>
<path d="M99.7215 110.846C96.4252 110.636 93.3449 109.134 91.1502 106.665C88.9556 104.197 87.8239 100.962 88.0012 97.6638C87.8228 94.3649 88.954 91.129 91.1488 88.6597C93.3435 86.1904 96.4244 84.6874 99.7215 84.4775C103.019 84.6864 106.1 86.1891 108.295 88.6586C110.49 91.1282 111.621 94.3647 111.442 97.6638C111.62 100.962 110.489 104.198 108.294 106.667C106.099 109.135 103.018 110.637 99.7215 110.846ZM99.7215 88.4505C97.48 88.6636 95.4118 89.7487 93.9627 91.472C92.5136 93.1953 91.7995 95.419 91.9742 97.6638C91.8005 99.908 92.5152 102.131 93.9642 103.853C95.4132 105.576 97.4807 106.66 99.7215 106.873C101.962 106.66 104.03 105.576 105.479 103.853C106.928 102.131 107.642 99.908 107.469 97.6638C107.646 95.4177 106.933 93.192 105.483 91.4669C104.034 89.7418 101.965 88.6556 99.7215 88.4426V88.4505Z" fill="#323C6B"/>
<path d="M164.179 131.975L167.56 149.889C159.68 154.527 150.711 156.992 141.567 157.031C132.424 157.07 123.433 154.682 115.514 150.111L118.903 132.141" fill="#FCD462"/>
<path d="M141.386 159.014C131.946 159.067 122.664 156.582 114.513 151.819C114.162 151.611 113.883 151.301 113.714 150.929C113.546 150.557 113.496 150.142 113.571 149.741L116.964 131.771C117.077 131.268 117.381 130.829 117.811 130.545C118.242 130.262 118.766 130.157 119.273 130.253C119.779 130.349 120.229 130.638 120.526 131.06C120.823 131.481 120.945 132.001 120.866 132.51L117.739 149.09C125.082 152.965 133.266 154.973 141.569 154.936C149.872 154.9 158.039 152.819 165.347 148.879L162.228 132.344C162.149 131.834 162.271 131.314 162.568 130.893C162.866 130.472 163.315 130.182 163.822 130.086C164.328 129.991 164.852 130.095 165.283 130.379C165.714 130.662 166.017 131.102 166.13 131.605L169.511 149.519C169.586 149.917 169.538 150.329 169.372 150.699C169.207 151.069 168.932 151.379 168.585 151.589C160.365 156.497 150.96 159.065 141.386 159.014Z" fill="#323C6B"/>
<path d="M183.432 90.1868C183.369 92.9679 183.337 95.7211 183.273 96.6111C182.686 105.605 179.815 114.3 174.93 121.875C166.714 134.263 154.775 142.499 141.422 142.499C135.711 142.288 130.117 140.819 125.038 138.199C119.959 135.578 115.52 131.87 112.038 127.338C104.492 118.201 100.193 106.818 99.8132 94.9742L99.7139 89.134C99.7311 89.1871 99.7523 89.2389 99.7774 89.2889C100.714 85.8707 102.357 82.6873 104.602 79.9449C106.847 77.2025 109.643 74.9622 112.809 73.3692C120.239 68.702 126.202 62.0328 130.012 54.1281C130.012 54.1281 163.15 52.96 183.432 90.1868Z" fill="#FCD462"/>
<path d="M183.416 90.1865C183.377 92.9676 183.337 95.709 183.258 96.6228C182.688 105.609 179.815 114.297 174.914 121.851C166.73 134.247 154.771 142.511 141.422 142.511C133.124 142.373 125.132 139.353 118.816 133.969C123.275 136.128 128.164 137.256 133.119 137.266C146.468 137.266 158.387 129.042 166.611 116.647C171.5 109.072 174.372 100.375 174.954 91.3784C175.033 90.5044 175.033 87.763 175.113 84.9819C170.089 75.4049 162.99 67.0707 154.334 60.5879C166.813 67.2673 176.958 77.5926 183.416 90.1865Z" fill="#F7BE56"/>
<path d="M232.904 225.725V257.624L141.597 271.744V152.626L232.904 138.506V185.995" fill="#EEEFEE"/>
<path d="M232.92 138.498V257.608L225.013 258.839V147.993L141.581 160.906V152.642L232.92 138.498Z" fill="#E1E6E9"/>
<path d="M50.2939 225.725V257.624L141.597 271.744V152.626L50.2939 138.506V185.995" fill="#EEEFEE"/>
<path d="M244.823 143.448C244.296 143.448 243.79 143.239 243.418 142.867C243.045 142.494 242.836 141.989 242.836 141.462V126.921L225.335 129.626C224.818 129.701 224.292 129.568 223.871 129.257C223.451 128.947 223.17 128.483 223.09 127.966C223.009 127.45 223.135 126.922 223.441 126.498C223.747 126.074 224.208 125.788 224.723 125.701L244.517 122.638C244.799 122.597 245.086 122.617 245.36 122.695C245.634 122.774 245.888 122.91 246.106 123.095C246.323 123.281 246.498 123.512 246.618 123.772C246.738 124.032 246.801 124.314 246.801 124.601V141.462C246.801 141.987 246.593 142.491 246.222 142.864C245.851 143.236 245.348 143.446 244.823 143.448Z" fill="#323C6B"/>
<path d="M244.822 154.788C244.296 154.788 243.79 154.578 243.418 154.206C243.045 153.833 242.836 153.328 242.836 152.801V150.576C242.836 150.049 243.045 149.544 243.418 149.172C243.79 148.799 244.296 148.59 244.822 148.59C245.349 148.59 245.855 148.799 246.227 149.172C246.6 149.544 246.809 150.049 246.809 150.576V152.809C246.807 153.335 246.597 153.838 246.224 154.209C245.852 154.579 245.348 154.788 244.822 154.788Z" fill="#323C6B"/>
<path d="M105.844 280.261C105.742 280.261 105.639 280.253 105.538 280.237L75.9038 275.657C75.3921 275.566 74.9362 275.279 74.6338 274.857C74.3314 274.434 74.2066 273.91 74.2861 273.396C74.3656 272.883 74.6431 272.421 75.0592 272.11C75.4752 271.799 75.9966 271.663 76.5116 271.731L106.142 276.312C106.636 276.389 107.082 276.649 107.392 277.041C107.702 277.432 107.854 277.926 107.816 278.424C107.779 278.922 107.555 279.388 107.189 279.728C106.824 280.069 106.344 280.259 105.844 280.261Z" fill="#323C6B"/>
<path d="M67.4374 274.322C67.3355 274.328 67.2333 274.328 67.1314 274.322L65.145 274.012C64.8829 273.977 64.6304 273.89 64.4023 273.757C64.1743 273.623 63.9752 273.445 63.8168 273.233C63.6584 273.021 63.5439 272.78 63.4799 272.524C63.4159 272.267 63.4038 272 63.4443 271.739C63.4848 271.478 63.577 271.227 63.7155 271.002C63.8541 270.777 64.0362 270.582 64.2512 270.428C64.4663 270.274 64.7098 270.164 64.9677 270.106C65.2255 270.047 65.4924 270.041 65.7528 270.087L67.7393 270.393C68.2331 270.47 68.6797 270.731 68.9899 271.122C69.3002 271.514 69.4513 272.009 69.4132 272.507C69.3751 273.005 69.1506 273.471 68.7844 273.811C68.4181 274.151 67.9372 274.341 67.4374 274.342V274.322Z" fill="#323C6B"/>
<path d="M234.509 215.792H228.152C226.835 215.792 225.571 216.315 224.64 217.247C223.709 218.178 223.186 219.441 223.186 220.758C223.186 222.075 223.709 223.339 224.64 224.27C225.571 225.201 226.835 225.724 228.152 225.724H234.509C235.826 225.724 237.089 225.201 238.02 224.27C238.952 223.339 239.475 222.075 239.475 220.758C239.475 219.441 238.952 218.178 238.02 217.247C237.089 216.315 235.826 215.792 234.509 215.792Z" fill="#FCD462"/>
<path d="M234.509 227.711H228.152C226.308 227.711 224.54 226.979 223.236 225.675C221.932 224.371 221.199 222.602 221.199 220.758C221.199 218.914 221.932 217.146 223.236 215.842C224.54 214.538 226.308 213.806 228.152 213.806H234.509C236.353 213.806 238.121 214.538 239.425 215.842C240.729 217.146 241.461 218.914 241.461 220.758C241.461 222.602 240.729 224.371 239.425 225.675C238.121 226.979 236.353 227.711 234.509 227.711ZM228.152 217.779C227.362 217.779 226.604 218.093 226.045 218.651C225.486 219.21 225.172 219.968 225.172 220.758C225.172 221.549 225.486 222.307 226.045 222.865C226.604 223.424 227.362 223.738 228.152 223.738H234.509C235.299 223.738 236.057 223.424 236.616 222.865C237.174 222.307 237.488 221.549 237.488 220.758C237.488 219.968 237.174 219.21 236.616 218.651C236.057 218.093 235.299 217.779 234.509 217.779H228.152Z" fill="#323C6B"/>
<path d="M235.994 205.859H226.698C225.381 205.859 224.117 206.383 223.186 207.314C222.255 208.245 221.731 209.508 221.731 210.826C221.731 212.143 222.255 213.406 223.186 214.337C224.117 215.269 225.381 215.792 226.698 215.792H235.994C237.312 215.792 238.575 215.269 239.506 214.337C240.437 213.406 240.961 212.143 240.961 210.826C240.961 209.508 240.437 208.245 239.506 207.314C238.575 206.383 237.312 205.859 235.994 205.859Z" fill="#FCD462"/>
<path d="M235.995 217.778H226.702C224.858 217.778 223.089 217.046 221.785 215.742C220.482 214.438 219.749 212.67 219.749 210.826C219.749 208.982 220.482 207.213 221.785 205.909C223.089 204.606 224.858 203.873 226.702 203.873H235.995C237.838 203.873 239.607 204.606 240.911 205.909C242.215 207.213 242.947 208.982 242.947 210.826C242.947 212.67 242.215 214.438 240.911 215.742C239.607 217.046 237.838 217.778 235.995 217.778ZM226.714 207.846C225.923 207.846 225.165 208.16 224.607 208.719C224.048 209.278 223.734 210.035 223.734 210.826C223.734 211.616 224.048 212.374 224.607 212.933C225.165 213.492 225.923 213.805 226.714 213.805H235.995C236.785 213.805 237.543 213.492 238.101 212.933C238.66 212.374 238.974 211.616 238.974 210.826C238.974 210.035 238.66 209.278 238.101 208.719C237.543 208.16 236.785 207.846 235.995 207.846H226.714Z" fill="#323C6B"/>
<path d="M237.659 195.927H225.021C223.704 195.927 222.441 196.45 221.51 197.381C220.578 198.313 220.055 199.576 220.055 200.893C220.055 202.21 220.578 203.473 221.51 204.405C222.441 205.336 223.704 205.859 225.021 205.859H237.659C238.977 205.859 240.24 205.336 241.171 204.405C242.102 203.473 242.626 202.21 242.626 200.893C242.626 199.576 242.102 198.313 241.171 197.381C240.24 196.45 238.977 195.927 237.659 195.927Z" fill="#FCD462"/>
<path d="M237.66 207.846H225.025C223.181 207.846 221.413 207.113 220.109 205.809C218.805 204.506 218.073 202.737 218.073 200.893C218.073 199.049 218.805 197.281 220.109 195.977C221.413 194.673 223.181 193.94 225.025 193.94H237.66C239.503 193.94 241.272 194.673 242.576 195.977C243.88 197.281 244.612 199.049 244.612 200.893C244.612 202.737 243.88 204.506 242.576 205.809C241.272 207.113 239.503 207.846 237.66 207.846ZM225.025 197.913C224.235 197.913 223.477 198.227 222.918 198.786C222.36 199.345 222.046 200.103 222.046 200.893C222.046 201.683 222.36 202.441 222.918 203C223.477 203.559 224.235 203.873 225.025 203.873H237.66C238.45 203.873 239.208 203.559 239.767 203C240.325 202.441 240.639 201.683 240.639 200.893C240.639 200.103 240.325 199.345 239.767 198.786C239.208 198.227 238.45 197.913 237.66 197.913H225.025Z" fill="#323C6B"/>
<path d="M235.478 185.995H227.203C225.885 185.995 224.622 186.518 223.691 187.45C222.76 188.381 222.236 189.644 222.236 190.961C222.236 192.278 222.76 193.542 223.691 194.473C224.622 195.404 225.885 195.928 227.203 195.928H235.478C236.795 195.928 238.059 195.404 238.99 194.473C239.921 193.542 240.444 192.278 240.444 190.961C240.444 189.644 239.921 188.381 238.99 187.45C238.059 186.518 236.795 185.995 235.478 185.995Z" fill="#FCD462"/>
<path d="M235.482 197.913H227.202C225.358 197.913 223.59 197.181 222.286 195.877C220.982 194.573 220.25 192.804 220.25 190.961C220.25 189.117 220.982 187.348 222.286 186.044C223.59 184.74 225.358 184.008 227.202 184.008H235.482C237.326 184.008 239.094 184.74 240.398 186.044C241.702 187.348 242.435 189.117 242.435 190.961C242.435 192.804 241.702 194.573 240.398 195.877C239.094 197.181 237.326 197.913 235.482 197.913ZM227.202 187.981C226.412 187.981 225.654 188.295 225.095 188.854C224.536 189.412 224.222 190.17 224.222 190.961C224.222 191.751 224.536 192.509 225.095 193.068C225.654 193.626 226.412 193.94 227.202 193.94H235.482C236.272 193.94 237.03 193.626 237.589 193.068C238.148 192.509 238.462 191.751 238.462 190.961C238.462 190.17 238.148 189.412 237.589 188.854C237.03 188.295 236.272 187.981 235.482 187.981H227.202Z" fill="#323C6B"/>
<path d="M55.0217 215.792H48.6649C47.3478 215.792 46.0846 216.315 45.1533 217.247C44.222 218.178 43.6987 219.441 43.6987 220.758C43.6987 222.075 44.222 223.339 45.1533 224.27C46.0846 225.201 47.3478 225.724 48.6649 225.724H55.0217C56.3388 225.724 57.602 225.201 58.5333 224.27C59.4647 223.339 59.9879 222.075 59.9879 220.758C59.9879 219.441 59.4647 218.178 58.5333 217.247C57.602 216.315 56.3388 215.792 55.0217 215.792Z" fill="#FCD462"/>
<path d="M55.0219 227.711H48.6651C46.8211 227.711 45.0527 226.979 43.7488 225.675C42.4449 224.371 41.7124 222.602 41.7124 220.758C41.7124 218.914 42.4449 217.146 43.7488 215.842C45.0527 214.538 46.8211 213.806 48.6651 213.806H55.0219C56.8658 213.806 58.6343 214.538 59.9382 215.842C61.2421 217.146 61.9746 218.914 61.9746 220.758C61.9746 222.602 61.2421 224.371 59.9382 225.675C58.6343 226.979 56.8658 227.711 55.0219 227.711ZM48.6651 217.779C47.8748 217.779 47.1169 218.093 46.5581 218.651C45.9993 219.21 45.6854 219.968 45.6854 220.758C45.6854 221.549 45.9993 222.307 46.5581 222.865C47.1169 223.424 47.8748 223.738 48.6651 223.738H55.0219C55.8121 223.738 56.57 223.424 57.1288 222.865C57.6877 222.307 58.0016 221.549 58.0016 220.758C58.0016 219.968 57.6877 219.21 57.1288 218.651C56.57 218.093 55.8121 217.779 55.0219 217.779H48.6651Z" fill="#323C6B"/>
<path d="M56.4957 205.859H47.2108C45.8937 205.859 44.6305 206.383 43.6992 207.314C42.7679 208.245 42.2446 209.508 42.2446 210.826C42.2446 212.143 42.7679 213.406 43.6992 214.337C44.6305 215.269 45.8937 215.792 47.2108 215.792H56.4957C57.8128 215.792 59.076 215.269 60.0073 214.337C60.9387 213.406 61.4619 212.143 61.4619 210.826C61.4619 209.508 60.9387 208.245 60.0073 207.314C59.076 206.383 57.8128 205.859 56.4957 205.859Z" fill="#FCD462"/>
<path d="M56.4958 217.778H47.211C45.367 217.778 43.5986 217.046 42.2947 215.742C40.9908 214.438 40.2583 212.67 40.2583 210.826C40.2583 208.982 40.9908 207.213 42.2947 205.909C43.5986 204.606 45.367 203.873 47.211 203.873H56.4958C58.3398 203.873 60.1083 204.606 61.4121 205.909C62.716 207.213 63.4486 208.982 63.4486 210.826C63.4486 212.67 62.716 214.438 61.4121 215.742C60.1083 217.046 58.3398 217.778 56.4958 217.778ZM47.211 207.846C46.4207 207.846 45.6628 208.16 45.104 208.719C44.5452 209.278 44.2313 210.035 44.2313 210.826C44.2313 211.616 44.5452 212.374 45.104 212.933C45.6628 213.492 46.4207 213.805 47.211 213.805H56.4958C57.2861 213.805 58.044 213.492 58.6028 212.933C59.1616 212.374 59.4756 211.616 59.4756 210.826C59.4756 210.035 59.1616 209.278 58.6028 208.719C58.044 208.16 57.2861 207.846 56.4958 207.846H47.211Z" fill="#323C6B"/>
<path d="M58.1721 195.927H45.5341C44.217 195.927 42.9538 196.45 42.0224 197.381C41.0911 198.313 40.5679 199.576 40.5679 200.893C40.5679 202.21 41.0911 203.473 42.0224 204.405C42.9538 205.336 44.217 205.859 45.5341 205.859H58.1721C59.4892 205.859 60.7524 205.336 61.6838 204.405C62.6151 203.473 63.1383 202.21 63.1383 200.893C63.1383 199.576 62.6151 198.313 61.6838 197.381C60.7524 196.45 59.4892 195.927 58.1721 195.927Z" fill="#FCD462"/>
<path d="M58.1723 207.846H45.5342C43.6903 207.846 41.9218 207.113 40.6179 205.809C39.3141 204.506 38.5815 202.737 38.5815 200.893C38.5815 199.049 39.3141 197.281 40.6179 195.977C41.9218 194.673 43.6903 193.94 45.5342 193.94H58.1723C60.0162 193.94 61.7847 194.673 63.0886 195.977C64.3925 197.281 65.125 199.049 65.125 200.893C65.125 202.737 64.3925 204.506 63.0886 205.809C61.7847 207.113 60.0162 207.846 58.1723 207.846ZM45.5342 197.913C44.744 197.913 43.9861 198.227 43.4273 198.786C42.8684 199.345 42.5545 200.103 42.5545 200.893C42.5545 201.683 42.8684 202.441 43.4273 203C43.9861 203.559 44.744 203.873 45.5342 203.873H58.1723C58.9625 203.873 59.7205 203.559 60.2793 203C60.8381 202.441 61.152 201.683 61.152 200.893C61.152 200.103 60.8381 199.345 60.2793 198.786C59.7205 198.227 58.9625 197.913 58.1723 197.913H45.5342Z" fill="#323C6B"/>
<path d="M55.9909 185.995H47.7152C46.3981 185.995 45.1349 186.518 44.2036 187.45C43.2722 188.381 42.749 189.644 42.749 190.961C42.749 192.278 43.2722 193.542 44.2036 194.473C45.1349 195.404 46.3981 195.928 47.7152 195.928H55.9909C57.3081 195.928 58.5712 195.404 59.5026 194.473C60.4339 193.542 60.9571 192.278 60.9571 190.961C60.9571 189.644 60.4339 188.381 59.5026 187.45C58.5712 186.518 57.3081 185.995 55.9909 185.995Z" fill="#FCD462"/>
<path d="M55.9911 197.913H47.7154C45.8714 197.913 44.103 197.181 42.7991 195.877C41.4952 194.573 40.7627 192.804 40.7627 190.961C40.7627 189.117 41.4952 187.348 42.7991 186.044C44.103 184.74 45.8714 184.008 47.7154 184.008H55.9911C57.8351 184.008 59.6035 184.74 60.9074 186.044C62.2113 187.348 62.9438 189.117 62.9438 190.961C62.9438 192.804 62.2113 194.573 60.9074 195.877C59.6035 197.181 57.8351 197.913 55.9911 197.913ZM47.7154 187.981C46.9251 187.981 46.1672 188.295 45.6084 188.854C45.0496 189.412 44.7357 190.17 44.7357 190.961C44.7357 191.751 45.0496 192.509 45.6084 193.068C46.1672 193.626 46.9251 193.94 47.7154 193.94H55.9911C56.7814 193.94 57.5393 193.626 58.0981 193.068C58.6569 192.509 58.9708 191.751 58.9708 190.961C58.9708 190.17 58.6569 189.412 58.0981 188.854C57.5393 188.295 56.7814 187.981 55.9911 187.981H47.7154Z" fill="#323C6B"/>
<path d="M141.597 273.738C141.07 273.738 140.565 273.529 140.192 273.156C139.82 272.784 139.61 272.278 139.61 271.751V152.626C139.61 152.151 139.779 151.691 140.088 151.33C140.397 150.97 140.825 150.731 141.295 150.659L232.598 136.543C232.881 136.499 233.171 136.517 233.446 136.595C233.722 136.673 233.978 136.811 234.196 136.997C234.413 137.183 234.588 137.415 234.708 137.675C234.828 137.936 234.89 138.219 234.89 138.506V185.995C234.89 186.522 234.681 187.027 234.308 187.399C233.936 187.772 233.431 187.981 232.904 187.981C232.377 187.981 231.872 187.772 231.499 187.399C231.127 187.027 230.917 186.522 230.917 185.995V140.822L143.583 154.33V269.427L230.917 255.919V225.725C230.917 225.198 231.127 224.692 231.499 224.32C231.872 223.947 232.377 223.738 232.904 223.738C233.431 223.738 233.936 223.947 234.308 224.32C234.681 224.692 234.89 225.198 234.89 225.725V257.624C234.89 258.098 234.72 258.557 234.411 258.917C234.102 259.277 233.675 259.514 233.206 259.586L141.899 273.706C141.799 273.725 141.698 273.735 141.597 273.738Z" fill="#323C6B"/>
<path d="M50.2422 138.498V151.47H50.6236L50.2938 146.778L141.581 160.906V152.642L50.2422 138.498Z" fill="#E1E6E9"/>
<path d="M141.597 273.738C141.496 273.738 141.395 273.73 141.295 273.714L49.9922 259.587C49.5233 259.514 49.0957 259.277 48.7867 258.917C48.4777 258.557 48.3078 258.098 48.3076 257.624V225.725C48.3076 225.198 48.5169 224.693 48.8894 224.32C49.262 223.948 49.7673 223.738 50.2941 223.738C50.821 223.738 51.3262 223.948 51.6988 224.32C52.0713 224.693 52.2806 225.198 52.2806 225.725V255.92L139.611 269.428V154.327L52.2806 140.819V185.991C52.2806 186.518 52.0713 187.023 51.6988 187.396C51.3262 187.768 50.821 187.978 50.2941 187.978C49.7673 187.978 49.262 187.768 48.8894 187.396C48.5169 187.023 48.3076 186.518 48.3076 185.991V138.506C48.3077 138.22 48.3697 137.937 48.4894 137.677C48.6091 137.417 48.7835 137.186 49.0009 136.999C49.2182 136.813 49.4733 136.675 49.7486 136.597C50.024 136.518 50.313 136.5 50.596 136.544L141.899 150.66C142.368 150.732 142.797 150.97 143.106 151.331C143.415 151.691 143.584 152.151 143.583 152.626V271.752C143.583 272.279 143.374 272.784 143.002 273.156C142.629 273.529 142.124 273.738 141.597 273.738Z" fill="#323C6B"/>
<path d="M141.438 144.477C135.44 144.268 129.563 142.738 124.224 139.998C118.886 137.257 114.217 133.373 110.552 128.621C102.697 119.165 98.2288 107.353 97.8582 95.0654L97.735 89.1695C97.7306 88.7836 97.8368 88.4045 98.0409 88.0769C99.135 84.5511 100.922 81.2792 103.298 78.4534C105.673 75.6275 108.589 73.3046 111.875 71.6209C118.918 67.1501 124.577 60.805 128.216 53.2975C128.37 52.9641 128.613 52.68 128.919 52.4766C129.225 52.2732 129.581 52.1585 129.948 52.1454C130.301 52.1096 164.541 51.3746 185.172 89.2291C185.338 89.5334 185.422 89.8758 185.415 90.2223L185.363 92.7492C185.327 94.5847 185.295 96.1182 185.248 96.7499C184.629 106.084 181.646 115.108 176.579 122.972C167.516 136.639 154.699 144.477 141.438 144.477ZM101.708 89.7535L101.795 94.9422C102.14 106.333 106.277 117.282 113.551 126.055C116.852 130.365 121.062 133.895 125.882 136.392C130.702 138.89 136.013 140.294 141.438 140.504C153.357 140.504 164.97 133.313 173.289 120.771C177.981 113.473 180.74 105.102 181.306 96.444C181.354 95.86 181.378 94.4099 181.41 92.6737L181.453 90.6872C164.127 59.3484 137.147 56.4124 131.263 56.1501C127.315 63.9803 121.261 70.5542 113.782 75.133C110.869 76.5802 108.293 78.6236 106.221 81.1308C104.15 83.6379 102.628 86.5527 101.756 89.686L101.708 89.7535Z" fill="#323C6B"/>
<path d="M158.208 26.1857C158.43 25.1652 158.537 24.1232 158.53 23.0788C158.298 18.704 156.398 14.5846 153.219 11.5696C150.041 8.5547 145.827 6.87402 141.446 6.87402C137.065 6.87402 132.851 8.5547 129.672 11.5696C126.494 14.5846 124.593 18.704 124.362 23.0788C124.356 24.1323 124.464 25.1833 124.684 26.2135" fill="#707583"/>
<path d="M124.664 28.208C124.212 28.2067 123.774 28.0513 123.422 27.7674C123.07 27.4836 122.826 27.0882 122.729 26.6466C122.476 25.4719 122.352 24.2728 122.36 23.071C122.604 18.1781 124.72 13.5665 128.27 10.1901C131.82 6.81363 136.531 4.93066 141.43 4.93066C146.329 4.93066 151.041 6.81363 154.59 10.1901C158.14 13.5665 160.256 18.1781 160.5 23.071C160.508 24.2625 160.383 25.4512 160.127 26.6149C160.009 27.1285 159.693 27.5745 159.246 27.8546C158.8 28.1348 158.261 28.2262 157.747 28.1087C157.233 27.9912 156.787 27.6745 156.507 27.2282C156.227 26.7819 156.136 26.2426 156.253 25.7289C156.446 24.8603 156.541 23.9727 156.535 23.0829C156.302 19.2372 154.609 15.6257 151.804 12.9852C148.998 10.3448 145.291 8.87456 141.438 8.87456C137.585 8.87456 133.878 10.3448 131.072 12.9852C128.266 15.6257 126.574 19.2372 126.341 23.0829C126.334 23.992 126.426 24.8992 126.615 25.7885C126.679 26.079 126.677 26.3803 126.609 26.6701C126.542 26.9598 126.41 27.2306 126.223 27.4625C126.037 27.6944 125.8 27.8814 125.532 28.0098C125.263 28.1381 124.97 28.2045 124.672 28.204L124.664 28.208Z" fill="#323C6B"/>
<path d="M188.378 70.1391C187.349 80.6198 181.883 105.598 181.883 105.566C166.261 51.2516 130.027 54.128 130.027 54.128C126.218 62.0327 120.255 68.7019 112.824 73.3691C97.2979 86.4561 102.463 109.861 102.463 109.861C102.463 109.861 95.526 79.8212 94.5645 70.1312C93.6309 60.596 97.9455 30.1789 130.44 22.8885C137.693 21.2676 145.214 21.2676 152.467 22.8885C184.993 30.1948 189.308 60.6119 188.378 70.1391Z" fill="#707583"/>
<path d="M102.459 111.843C102.01 111.843 101.575 111.691 101.223 111.412C100.872 111.133 100.626 110.743 100.524 110.306C100.242 109.074 93.5517 80.0358 92.5783 70.3377C91.5612 59.9285 96.2533 28.5301 130 20.9577C137.539 19.2771 145.356 19.2771 152.896 20.9577C186.666 28.5063 191.362 59.9285 190.345 70.3338C189.912 74.7477 188.685 82.0938 186.69 92.1851C183.623 107.66 183.647 107.68 181.776 107.568C181.362 107.548 180.965 107.399 180.64 107.142C180.315 106.885 180.079 106.532 179.964 106.134C166.488 59.1975 137.266 56.2019 131.271 56.0946C127.348 63.8724 121.357 70.4185 113.957 75.0139C99.6939 87.2149 104.354 109.209 104.402 109.428C104.461 109.683 104.468 109.947 104.424 110.205C104.381 110.464 104.286 110.71 104.147 110.932C104.007 111.154 103.825 111.345 103.611 111.496C103.397 111.647 103.156 111.754 102.9 111.812C102.755 111.838 102.607 111.848 102.459 111.843ZM130.711 52.1256C136.09 52.1256 166.039 54.1598 181.497 97.8148C183.186 89.6504 185.741 76.6786 186.404 69.9325C187.062 59.537 183.949 49.2528 177.635 40.9679C171.322 32.6831 162.232 26.9536 152.034 24.8313C145.066 23.2798 137.842 23.2798 130.874 24.8313C120.68 26.9607 111.597 32.6951 105.291 40.9819C98.9844 49.2688 95.8786 59.5522 96.5433 69.9444C96.9883 74.3902 98.7364 83.3174 100.473 91.5574C101.764 83.9007 105.681 76.9322 111.549 71.8475C111.655 71.7616 111.768 71.6858 111.887 71.621C118.931 67.1502 124.589 60.8051 128.228 53.2976C128.375 52.9768 128.605 52.7009 128.894 52.4984C129.183 52.2959 129.521 52.1741 129.873 52.1455C129.916 52.1455 130.194 52.1256 130.711 52.1256Z" fill="#323C6B"/>
</svg>
